G04 GENERATED BY PULSONIX 8.5 GERBER.DLL 5907*
G04 #@! TF.Part,Single*
%FSLAX35Y35*%
%LPD*%
%MOMM*%
G04 #@! TF.FileFunction,Soldermask,Bot*
G04 #@! TA.AperFunction,ViaPad*
%ADD106C,0.95400*%
G04 #@! TA.AperFunction,ComponentPad*
%ADD107C,2.25400*%
%ADD119C,2.65400*%
G04 #@! TA.AperFunction,SMDPad*
%ADD122R,1.15400X1.65400*%
G04 #@! TA.AperFunction,ComponentPad*
%ADD129C,1.95400*%
%ADD137R,2.15900X2.15900*%
%AMT138*0 Octagon pad*4,1,8,0.44714,1.07950,-0.44714,1.07950,-1.07950,0.44714,-1.07950,-0.44714,-0.44714,-1.07950,0.44714,-1.07950,1.07950,-0.44714,1.07950,0.44714,0.44714,1.07950,0*%
%ADD138T138*%
G04 #@! TA.AperFunction,SMDPad*
%ADD139R,2.05400X1.75400*%
%ADD141R,7.25400X7.25400*%
%ADD142R,1.75400X2.75400*%
%ADD427R,0.80400X2.20400*%
%ADD428R,9.15400X11.65400*%
%ADD429R,4.05400X2.35400*%
%ADD468R,3.45400X1.45400*%
%ADD481R,1.45400X3.45400*%
X0Y0D02*
D02*
D106*
X2905034Y1345250D03*
Y1915250D03*
Y2485250D03*
Y3055250D03*
X3398668Y1060250D03*
Y2770250D03*
Y3340250D03*
X3586395Y3896500D03*
X3892302Y3055250D03*
X4090758Y3442750D03*
X4207508Y3873000D03*
X4385936Y2770250D03*
Y3340250D03*
X4398008Y3682500D03*
X4715508Y3555500D03*
X4842508Y3340250D03*
X5160008Y3555500D03*
X5287008Y3340250D03*
X5373204Y490250D03*
Y1060250D03*
Y1630250D03*
Y2200250D03*
Y2770250D03*
X5477508Y3492000D03*
X5668008Y3301500D03*
X5858508Y3111000D03*
X5866838Y1345250D03*
X6360472Y1060250D03*
Y1630250D03*
Y2200250D03*
Y2770250D03*
X6854106Y1345250D03*
X7001508Y2551500D03*
X7192008Y3111000D03*
X7249883Y2252125D03*
X7347740Y2770250D03*
X7395030Y2188625D03*
X7446008Y3365000D03*
X7636508Y3555500D03*
X7841374Y775250D03*
Y1345250D03*
Y2485250D03*
X8335008Y1060250D03*
Y1630250D03*
Y2770250D03*
X8652508Y3301500D03*
X8828642Y775250D03*
Y1345250D03*
Y2485250D03*
X9322276Y1630250D03*
Y2200250D03*
Y2770250D03*
Y3174500D03*
X9520008Y2093375D03*
X9615258Y2029875D03*
X9815910Y2485250D03*
X10113008Y3746000D03*
X10309544Y1060250D03*
Y1630250D03*
Y2200250D03*
Y2770250D03*
Y3340250D03*
Y3936500D03*
X10494008Y4762000D03*
X10647133Y4347625D03*
X10748008Y4190500D03*
Y5016000D03*
X10803178Y1915250D03*
Y2485250D03*
Y3055250D03*
Y3625250D03*
X11002008Y5270000D03*
X11234508Y4363500D03*
X11256008Y5524000D03*
X11296812Y2770250D03*
Y5050250D03*
X11679008Y4742000D03*
Y4950875D03*
X11790446Y5335250D03*
X11948883Y4474625D03*
X12081508Y4825500D03*
X12187008Y3823750D03*
X12208508Y2920500D03*
X12282258Y2276500D03*
X12284080Y1060250D03*
Y5050250D03*
Y5620250D03*
X12314008Y4379375D03*
X12679133Y2934750D03*
X12777714Y1345250D03*
Y1915250D03*
Y4195250D03*
Y4765250D03*
Y5335250D03*
X13271348Y1630250D03*
Y2200250D03*
Y3340250D03*
Y3910250D03*
Y5050250D03*
X13764982Y2485250D03*
Y3625250D03*
Y4195250D03*
Y5335250D03*
D02*
D107*
X520564Y2772099D03*
X1116038Y4174948D03*
X3396496Y2381317D03*
X3693452Y3080901D03*
D02*
D119*
X532008Y5176500D03*
X1082008D03*
X6607008Y4601500D03*
X10007008Y5576500D03*
D02*
D122*
X3936758Y3651500D03*
X4127258D03*
D02*
D129*
X3707008Y1076500D03*
Y1526500D03*
X3855008Y1876500D03*
X4109008D03*
X4357008Y1076500D03*
Y1526500D03*
X6932008Y251500D03*
Y701500D03*
X7105008Y1001500D03*
X7359008D03*
X7582008Y251500D03*
Y701500D03*
X10157008Y1076500D03*
Y1526500D03*
X10280008Y1851500D03*
X10534008D03*
X10807008Y1076500D03*
Y1526500D03*
X10957008Y2501500D03*
Y3151500D03*
X11407008Y2501500D03*
Y3151500D03*
D02*
D137*
X11132008Y4068500D03*
X11282008Y1251500D03*
X12307008Y1751500D03*
X12707008Y5651500D03*
X12857008Y2276500D03*
X13257008Y2701500D03*
Y3151500D03*
X14082008Y5126500D03*
D02*
D138*
X11132008Y3560500D03*
Y3814500D03*
X11291008Y1751500D03*
X11386008Y3560500D03*
Y3814500D03*
Y4068500D03*
X11536008Y1251500D03*
X11545008Y1751500D03*
X11790008Y1251500D03*
X11799008Y1751500D03*
X12044008Y1251500D03*
X12053008Y1751500D03*
X12298008Y1251500D03*
X12961008Y5651500D03*
X13111008Y2276500D03*
X13511008Y2701500D03*
Y3151500D03*
X13765008Y2701500D03*
Y3151500D03*
X14082008Y4110500D03*
Y4364500D03*
Y4618500D03*
Y4872500D03*
D02*
D139*
X6328008Y2551500D03*
Y3451500D03*
X6582008Y2551500D03*
Y3451500D03*
X6836008Y2551500D03*
Y3451500D03*
X7803008Y3301500D03*
Y4201500D03*
X8057008Y3301500D03*
Y4201500D03*
X8311008Y3301500D03*
Y4201500D03*
D02*
D141*
X6057008Y5401500D03*
D02*
D142*
X5827008Y4711500D03*
X6287008D03*
D02*
D427*
X3691508Y3896500D03*
Y4556500D03*
X3818508Y3896500D03*
Y4556500D03*
X3945508Y3896500D03*
Y4556500D03*
X4072508Y3896500D03*
Y4556500D03*
D02*
D428*
X8032008Y5126500D03*
D02*
D429*
X9177008Y4872500D03*
Y5380500D03*
D02*
D468*
X6982008Y4331500D03*
Y4971500D03*
X7357008Y4256500D03*
Y4896500D03*
X9907008Y4581500D03*
Y5221500D03*
D02*
D481*
X5762008Y4401500D03*
X6402008D03*
X0Y0D02*
M02*
