G04 GENERATED BY PULSONIX 8.5 GERBER.DLL 5907*
G04 #@! TF.Part,Single*
%FSLAX35Y35*%
%LPD*%
%MOMM*%
G04 #@! TF.FileFunction,Copper,L4,Bot*
G04 #@! TA.AperFunction,Conductor*
%ADD13C,0.63500*%
%ADD14C,1.27000*%
%ADD16C,0.20320*%
%ADD18C,0.40640*%
G04 #@! TA.AperFunction,SMDPad*
%ADD76R,0.90000X1.40000*%
%ADD93R,1.80000X1.50000*%
%ADD94R,7.00000X7.00000*%
%ADD95R,1.50000X2.50000*%
G04 #@! TA.AperFunction,WasherPad*
%ADD148C,3.25000*%
G04 #@! TA.AperFunction,Conductor*
%ADD163C,0.30480*%
G04 #@! TA.AperFunction,OtherCopper*
%ADD172C,0.03000*%
%ADD173C,0.30000*%
%ADD235C,0.50000*%
G04 #@! TA.AperFunction,ComponentPad*
%ADD348C,2.00000*%
%ADD373R,1.90500X1.90500*%
%AMT374*0 Octagon pad*4,1,8,0.39454,0.95250,-0.39454,0.95250,-0.95250,0.39454,-0.95250,-0.39454,-0.39454,-0.95250,0.39454,-0.95250,0.95250,-0.39454,0.95250,0.39454,0.39454,0.95250,0*%
%ADD374T374*%
%ADD375C,1.70000*%
G04 #@! TA.AperFunction,ViaPad*
%ADD388C,0.70000*%
G04 #@! TA.AperFunction,SMDPad*
%ADD422R,0.55000X1.95000*%
%ADD423R,8.90000X11.40000*%
%ADD424R,3.80000X2.10000*%
%ADD449R,3.20000X1.20000*%
G04 #@! TA.AperFunction,ComponentPad*
%ADD479C,2.40000*%
G04 #@! TA.AperFunction,SMDPad*
%ADD480R,1.20000X3.20000*%
X0Y0D02*
D02*
D13*
X11679008Y4950875D02*
Y4742000D01*
X12314008Y4379375D02*
X12218757Y4474625D01*
X11948883*
X12314008Y4379375D02*
Y4094500D01*
X13257008Y3151500*
D02*
D14*
X520564Y2772099D02*
X1519008Y3770543D01*
Y4427000*
X1116038Y4174948D02*
X532008Y4758978D01*
Y5176500*
X5827008Y4711500D02*
X5762008Y4646500D01*
Y4401500*
X6328008Y3451500D02*
Y3835500D01*
X5762008Y4401500*
X6836008Y3451500D02*
X6982008Y3597500D01*
Y4331500*
X7357008Y4256500D02*
Y4129375D01*
X7456258Y4030125*
X8247508*
X8311008Y4093625*
Y4201500*
X9177008Y4592000D02*
Y4872500D01*
Y4592000D02*
X9187508Y4581500D01*
X9907008*
X9177008Y4592000D02*
X8980258Y4395250D01*
X7893633*
X7803008Y4304625*
Y4201500*
X12282258Y2276500D02*
X11385883D01*
X11075758Y1966375*
Y1426000*
X11250258Y1251500*
X11282008*
X12282258Y2276500D02*
X12857008D01*
X13257008Y2701500D02*
X13022133D01*
X12857008Y2536375*
Y2276500*
X13257008Y3151500D02*
Y2701500D01*
D02*
D16*
X4357008Y1526500D02*
X6732905D01*
X7395030Y2188625*
X7001508Y2551500D02*
X6836008D01*
X7249883Y2252125D02*
X6964133Y1966375D01*
X6948258*
X6858383Y1876500*
X4109008*
X8652508Y3301500D02*
X8311008D01*
X9520008Y2093375D02*
X8450883D01*
X7359008Y1001500*
X9615258Y2029875D02*
X8910383D01*
X7582008Y701500*
X11234508Y4363500D02*
Y4744500D01*
X11663133Y5173125*
X12228633*
X12707008Y5651500*
X12187008Y3823750D02*
X11790133Y3426875D01*
X11265633*
X11132008Y3560500*
D02*
D18*
X3691508Y3896500D02*
X3586395D01*
X3818508D02*
Y3572125D01*
X3947883Y3442750*
X4090758*
X11386008Y4068500D02*
X11542758D01*
X11948883Y4474625*
X11799008Y1751500D02*
X12298008Y1252500D01*
Y1251500*
X12679133Y2934750D02*
X12282258Y3331625D01*
X10948758*
X10647133Y3633250*
Y4347625*
D02*
D76*
X3936758Y3651500D03*
X4127258D03*
D02*
D93*
X6328008Y2551500D03*
Y3451500D03*
X6582008Y2551500D03*
Y3451500D03*
X6836008Y2551500D03*
Y3451500D03*
X7803008Y3301500D03*
Y4201500D03*
X8057008Y3301500D03*
Y4201500D03*
X8311008Y3301500D03*
Y4201500D03*
D02*
D94*
X6057008Y5401500D03*
D02*
D95*
X5827008Y4711500D03*
X6287008D03*
D02*
D148*
X3657008Y5526500D03*
X10857008D03*
D02*
D163*
X3945508Y3896500D02*
Y3660250D01*
X3936758Y3651500*
D02*
D172*
X14239708Y5459200D02*
X13207008D01*
G75*
G02X13139708Y5526500J67300*
G01*
Y5759200*
X13018418*
X13071461Y5706157*
G75*
G02X13077758Y5690957I-15197J-15200*
G01*
Y5612043*
G75*
G02X13071461Y5596843I-21494*
G01*
X13015665Y5541047*
G75*
G02X13000351Y5534750I-15201J15199*
G01*
X12921665*
G75*
G02X12906351Y5541047I-113J21496*
G01*
X12850555Y5596843*
G75*
G02X12844258Y5612043I15197J15200*
G01*
Y5690957*
G75*
G02X12850555Y5706157I21494*
G01*
X12903598Y5759200*
X12813448*
G75*
G02X12818998Y5746750I-11190J-12450*
G01*
Y5556250*
G75*
G02X12802258Y5539510I-16740*
G01*
X12633060*
X12247735Y5154185*
G75*
G02X12228633Y5146225I-19104J18945*
G01*
X11674275*
X11261408Y4733358*
Y4407697*
G75*
G02X11286248Y4363500I-26900J-44197*
G01*
G75*
G02X11182768I-51740*
G01*
G75*
G02X11207608Y4407697I51740*
G01*
Y4744500*
G75*
G02X11215568Y4763602I26905J-2*
G01*
X11644031Y5192065*
G75*
G02X11663133Y5200025I19104J-18945*
G01*
X12217491*
X12595018Y5577552*
Y5746750*
G75*
G02X12600568Y5759200I16740*
G01*
X11364708*
X10407008Y4801500*
Y4126500*
X10174863Y3894355*
G75*
G02X10089153Y3808645I-217853J132143*
G01*
X9932008Y3651500*
X7657008*
X7032008Y3026500*
X6032008*
X5407008Y3651500*
X4582008*
X4424863Y3808645*
G75*
G02X4339153Y3894355I132143J217853*
G01*
X4207008Y4026500*
X2982008*
X2407008Y3451500*
Y893800*
X5157008*
G75*
G02X5224308Y826500J-67300*
G01*
Y193800*
X6842493*
G75*
G02X6825508Y251500I89515J57700*
G01*
G75*
G02X7038508I106500*
G01*
G75*
G02X7021523Y193800I-106500*
G01*
X7492493*
G75*
G02X7475508Y251500I89515J57700*
G01*
G75*
G02X7688508I106500*
G01*
G75*
G02X7671523Y193800I-106500*
G01*
X9289708*
Y826500*
G75*
G02X9357008Y893800I67300*
G01*
X12779132*
X14239708Y2354376*
Y3526500*
X13907008*
Y4226500*
X14239708*
Y5459200*
X13618095Y2752791D02*
G75*
G02X13622998Y2740955I-11835J-11836D01*
G01*
Y2662045*
G75*
G02X13618095Y2650209I-16738*
G01*
X13562299Y2594413*
G75*
G02X13550423Y2589510I-11838J11840*
G01*
X13471593*
G75*
G02X13459717Y2594413I-38J16743*
G01*
X13403921Y2650209*
G75*
G02X13399018Y2662045I11835J11836*
G01*
Y2740955*
G75*
G02X13403921Y2752791I16738*
G01*
X13459717Y2808587*
G75*
G02X13471593Y2813490I11838J-11840*
G01*
X13550423*
G75*
G02X13562299Y2808587I38J-16743*
G01*
X13618095Y2752791*
Y3202791D02*
G75*
G02X13622998Y3190955I-11835J-11836D01*
G01*
Y3112045*
G75*
G02X13618095Y3100209I-16738*
G01*
X13562299Y3044413*
G75*
G02X13550423Y3039510I-11838J11840*
G01*
X13471593*
G75*
G02X13459717Y3044413I-38J16743*
G01*
X13403921Y3100209*
G75*
G02X13399018Y3112045I11835J11836*
G01*
Y3190955*
G75*
G02X13403921Y3202791I16738*
G01*
X13459717Y3258587*
G75*
G02X13471593Y3263490I11838J-11840*
G01*
X13550423*
G75*
G02X13562299Y3258587I38J-16743*
G01*
X13618095Y3202791*
X13875461Y2756157D02*
G75*
G02X13881758Y2740957I-15197J-15200D01*
G01*
Y2662043*
G75*
G02X13875461Y2646843I-21494*
G01*
X13819665Y2591047*
G75*
G02X13804351Y2584750I-15201J15199*
G01*
X13725665*
G75*
G02X13710351Y2591047I-113J21496*
G01*
X13654555Y2646843*
G75*
G02X13648258Y2662043I15197J15200*
G01*
Y2740957*
G75*
G02X13654555Y2756157I21494*
G01*
X13710351Y2811953*
G75*
G02X13725665Y2818250I15201J-15199*
G01*
X13804351*
G75*
G02X13819665Y2811953I113J-21496*
G01*
X13875461Y2756157*
Y3206157D02*
G75*
G02X13881758Y3190957I-15197J-15200D01*
G01*
Y3112043*
G75*
G02X13875461Y3096843I-21494*
G01*
X13819665Y3041047*
G75*
G02X13804351Y3034750I-15201J15199*
G01*
X13725665*
G75*
G02X13710351Y3041047I-113J21496*
G01*
X13654555Y3096843*
G75*
G02X13648258Y3112043I15197J15200*
G01*
Y3190957*
G75*
G02X13654555Y3206157I21494*
G01*
X13710351Y3261953*
G75*
G02X13725665Y3268250I15201J-15199*
G01*
X13804351*
G75*
G02X13819665Y3261953I113J-21496*
G01*
X13875461Y3206157*
X14192461Y4419157D02*
G75*
G02X14198758Y4403957I-15197J-15200D01*
G01*
Y4325043*
G75*
G02X14192461Y4309843I-21494*
G01*
X14136665Y4254047*
G75*
G02X14121351Y4247750I-15201J15199*
G01*
X14042665*
G75*
G02X14027351Y4254047I-113J21496*
G01*
X13971555Y4309843*
G75*
G02X13965258Y4325043I15197J15200*
G01*
Y4403957*
G75*
G02X13971555Y4419157I21494*
G01*
X14027351Y4474953*
G75*
G02X14042665Y4481250I15201J-15199*
G01*
X14121351*
G75*
G02X14136665Y4474953I113J-21496*
G01*
X14192461Y4419157*
X14189095Y4669791D02*
G75*
G02X14193998Y4657955I-11835J-11836D01*
G01*
Y4579045*
G75*
G02X14189095Y4567209I-16738*
G01*
X14133299Y4511413*
G75*
G02X14121423Y4506510I-11838J11840*
G01*
X14042593*
G75*
G02X14030717Y4511413I-38J16743*
G01*
X13974921Y4567209*
G75*
G02X13970018Y4579045I11835J11836*
G01*
Y4657955*
G75*
G02X13974921Y4669791I16738*
G01*
X14030717Y4725587*
G75*
G02X14042593Y4730490I11838J-11840*
G01*
X14121423*
G75*
G02X14133299Y4725587I38J-16743*
G01*
X14189095Y4669791*
Y4923791D02*
G75*
G02X14193998Y4911955I-11835J-11836D01*
G01*
Y4833045*
G75*
G02X14189095Y4821209I-16738*
G01*
X14133299Y4765413*
G75*
G02X14121423Y4760510I-11838J11840*
G01*
X14042593*
G75*
G02X14030717Y4765413I-38J16743*
G01*
X13974921Y4821209*
G75*
G02X13970018Y4833045I11835J11836*
G01*
Y4911955*
G75*
G02X13974921Y4923791I16738*
G01*
X14030717Y4979587*
G75*
G02X14042593Y4984490I11838J-11840*
G01*
X14121423*
G75*
G02X14133299Y4979587I38J-16743*
G01*
X14189095Y4923791*
X14177258Y5238490D02*
G75*
G02X14193998Y5221750J-16740D01*
G01*
Y5031250*
G75*
G02X14177258Y5014510I-16740*
G01*
X13986758*
G75*
G02X13970018Y5031250J16740*
G01*
Y5221750*
G75*
G02X13986758Y5238490I16740*
G01*
X14177258*
X11627268Y4950875D02*
G75*
G02X11730748I51740D01*
G01*
G75*
G02X11727498Y4932827I-51739*
G01*
Y4760048*
G75*
G02X11730748Y4742000I-48489J-18048*
G01*
G75*
G02X11627268I-51740*
G01*
G75*
G02X11630518Y4760048I51739*
G01*
Y4932827*
G75*
G02X11627268Y4950875I48489J18048*
G01*
X12135268Y3823750D02*
G75*
G02X12238748I51740D01*
G01*
G75*
G02X12174777Y3773477I-51740*
G01*
X11809235Y3407935*
G75*
G02X11790133Y3399975I-19104J18945*
G01*
X11265633*
G75*
G02X11246531Y3407935I2J26905*
G01*
X11192176Y3462290*
X11183299Y3453413*
G75*
G02X11171423Y3448510I-11838J11840*
G01*
X11092593*
G75*
G02X11080717Y3453413I-38J16743*
G01*
X11024921Y3509209*
G75*
G02X11020018Y3521045I11835J11836*
G01*
Y3599955*
G75*
G02X11024921Y3611791I16738*
G01*
X11080717Y3667587*
G75*
G02X11092593Y3672490I11838J-11840*
G01*
X11171423*
G75*
G02X11183299Y3667587I38J-16743*
G01*
X11239095Y3611791*
G75*
G02X11243998Y3599955I-11835J-11836*
G01*
Y3521045*
G75*
G02X11239095Y3509209I-16738*
G01*
X11230218Y3500332*
X11276775Y3453775*
X11327623*
X11275555Y3505843*
G75*
G02X11269258Y3521043I15197J15200*
G01*
Y3599957*
G75*
G02X11275555Y3615157I21494*
G01*
X11331351Y3670953*
G75*
G02X11346665Y3677250I15201J-15199*
G01*
X11425351*
G75*
G02X11440665Y3670953I113J-21496*
G01*
X11496461Y3615157*
G75*
G02X11502758Y3599957I-15197J-15200*
G01*
Y3521043*
G75*
G02X11496461Y3505843I-21494*
G01*
X11444393Y3453775*
X11778991*
X12136735Y3811519*
G75*
G02X12135268Y3823750I50271J12233*
G01*
X11493095Y3865791D02*
G75*
G02X11497998Y3853955I-11835J-11836D01*
G01*
Y3775045*
G75*
G02X11493095Y3763209I-16738*
G01*
X11437299Y3707413*
G75*
G02X11425423Y3702510I-11838J11840*
G01*
X11346593*
G75*
G02X11334717Y3707413I-38J16743*
G01*
X11278921Y3763209*
G75*
G02X11274018Y3775045I11835J11836*
G01*
Y3853955*
G75*
G02X11278921Y3865791I16738*
G01*
X11334717Y3921587*
G75*
G02X11346593Y3926490I11838J-11840*
G01*
X11425423*
G75*
G02X11437299Y3921587I38J-16743*
G01*
X11493095Y3865791*
X13352258Y3263490D02*
G75*
G02X13368998Y3246750J-16740D01*
G01*
Y3056250*
G75*
G02X13352258Y3039510I-16740*
G01*
X13337248*
Y2813490*
X13352258*
G75*
G02X13368998Y2796750J-16740*
G01*
Y2606250*
G75*
G02X13352258Y2589510I-16740*
G01*
X13161758*
G75*
G02X13145018Y2606250J16740*
G01*
Y2621260*
X13055369*
X12937248Y2503139*
Y2388490*
X12952258*
G75*
G02X12968998Y2371750J-16740*
G01*
Y2181250*
G75*
G02X12952258Y2164510I-16740*
G01*
X12761758*
G75*
G02X12745018Y2181250J16740*
G01*
Y2196260*
X11419119*
X11155998Y1933139*
Y1459236*
X11251744Y1363490*
X11377258*
G75*
G02X11393998Y1346750J-16740*
G01*
Y1156250*
G75*
G02X11377258Y1139510I-16740*
G01*
X11186758*
G75*
G02X11170018Y1156250J16740*
G01*
Y1218264*
X11019188Y1369094*
G75*
G02X10995518Y1425998I56566J56904*
G01*
Y1966377*
G75*
G02X11019188Y2023281I80236*
G01*
X11328977Y2333070*
G75*
G02X11385883Y2356740I56904J-56566*
G01*
X12745018*
Y2371750*
G75*
G02X12761758Y2388490I16740*
G01*
X12776768*
Y2536377*
G75*
G02X12800438Y2593281I80236*
G01*
X12965227Y2758070*
G75*
G02X13022133Y2781740I56904J-56566*
G01*
X13145018*
Y2796750*
G75*
G02X13161758Y2813490I16740*
G01*
X13176768*
Y3039510*
X13161758*
G75*
G02X13145018Y3056250J16740*
G01*
Y3194914*
X12279720Y4060212*
G75*
G02X12265517Y4094498I34282J34286*
G01*
Y4094500*
Y4094558*
X12265518Y4094732*
Y4358724*
X12198506Y4425735*
X11965818*
G75*
G02X11949557Y4422889I-16936J48891*
G01*
X11569104Y4042436*
G75*
G02X11542758Y4031440I-26345J26062*
G01*
X11497998*
Y4029045*
G75*
G02X11493095Y4017209I-16738*
G01*
X11437299Y3961413*
G75*
G02X11425423Y3956510I-11838J11840*
G01*
X11346593*
G75*
G02X11334717Y3961413I-38J16743*
G01*
X11278921Y4017209*
G75*
G02X11274018Y4029045I11835J11836*
G01*
Y4107955*
G75*
G02X11278921Y4119791I16738*
G01*
X11334717Y4175587*
G75*
G02X11346593Y4180490I11838J-11840*
G01*
X11425423*
G75*
G02X11437299Y4175587I38J-16743*
G01*
X11493095Y4119791*
G75*
G02X11497998Y4107955I-11835J-11836*
G01*
Y4105560*
X11527408*
X11897147Y4475299*
G75*
G02X11965818Y4523515I51736J-674*
G01*
X12218674*
G75*
G02X12253327Y4509196I86J-48884*
G01*
X12336604Y4425920*
G75*
G02X12362498Y4361327I-22595J-46545*
G01*
Y4114586*
X13213594Y3263490*
X13352258*
X13218095Y2327791D02*
G75*
G02X13222998Y2315955I-11835J-11836D01*
G01*
Y2237045*
G75*
G02X13218095Y2225209I-16738*
G01*
X13162299Y2169413*
G75*
G02X13150423Y2164510I-11838J11840*
G01*
X13071593*
G75*
G02X13059717Y2169413I-38J16743*
G01*
X13003921Y2225209*
G75*
G02X12999018Y2237045I11835J11836*
G01*
Y2315955*
G75*
G02X13003921Y2327791I16738*
G01*
X13059717Y2383587*
G75*
G02X13071593Y2388490I11838J-11840*
G01*
X13150423*
G75*
G02X13162299Y2383587I38J-16743*
G01*
X13218095Y2327791*
X11643095Y1302791D02*
G75*
G02X11647998Y1290955I-11835J-11836D01*
G01*
Y1212045*
G75*
G02X11643095Y1200209I-16738*
G01*
X11587299Y1144413*
G75*
G02X11575423Y1139510I-11838J11840*
G01*
X11496593*
G75*
G02X11484717Y1144413I-38J16743*
G01*
X11428921Y1200209*
G75*
G02X11424018Y1212045I11835J11836*
G01*
Y1290955*
G75*
G02X11428921Y1302791I16738*
G01*
X11484717Y1358587*
G75*
G02X11496593Y1363490I11838J-11840*
G01*
X11575423*
G75*
G02X11587299Y1358587I38J-16743*
G01*
X11643095Y1302791*
X11652095Y1802791D02*
G75*
G02X11656998Y1790955I-11835J-11836D01*
G01*
Y1712045*
G75*
G02X11652095Y1700209I-16738*
G01*
X11596299Y1644413*
G75*
G02X11584423Y1639510I-11838J11840*
G01*
X11505593*
G75*
G02X11493717Y1644413I-38J16743*
G01*
X11437921Y1700209*
G75*
G02X11433018Y1712045I11835J11836*
G01*
Y1790955*
G75*
G02X11437921Y1802791I16738*
G01*
X11493717Y1858587*
G75*
G02X11505593Y1863490I11838J-11840*
G01*
X11584423*
G75*
G02X11596299Y1858587I38J-16743*
G01*
X11652095Y1802791*
X11900461Y1306157D02*
G75*
G02X11906758Y1290957I-15197J-15200D01*
G01*
Y1212043*
G75*
G02X11900461Y1196843I-21494*
G01*
X11844665Y1141047*
G75*
G02X11829351Y1134750I-15201J15199*
G01*
X11750665*
G75*
G02X11735351Y1141047I-113J21496*
G01*
X11679555Y1196843*
G75*
G02X11673258Y1212043I15197J15200*
G01*
Y1290957*
G75*
G02X11679555Y1306157I21494*
G01*
X11735351Y1361953*
G75*
G02X11750665Y1368250I15201J-15199*
G01*
X11829351*
G75*
G02X11844665Y1361953I113J-21496*
G01*
X11900461Y1306157*
X12405095Y1302791D02*
G75*
G02X12409998Y1290955I-11835J-11836D01*
G01*
Y1212045*
G75*
G02X12405095Y1200209I-16738*
G01*
X12349299Y1144413*
G75*
G02X12337423Y1139510I-11838J11840*
G01*
X12258593*
G75*
G02X12246717Y1144413I-38J16743*
G01*
X12190921Y1200209*
G75*
G02X12186018Y1212045I11835J11836*
G01*
Y1290955*
G75*
G02X12190921Y1302791I16738*
G01*
X12193114Y1304984*
X11851992Y1646106*
X11850299Y1644413*
G75*
G02X11838423Y1639510I-11838J11840*
G01*
X11759593*
G75*
G02X11747717Y1644413I-38J16743*
G01*
X11691921Y1700209*
G75*
G02X11687018Y1712045I11835J11836*
G01*
Y1790955*
G75*
G02X11691921Y1802791I16738*
G01*
X11747717Y1858587*
G75*
G02X11759593Y1863490I11838J-11840*
G01*
X11838423*
G75*
G02X11850299Y1858587I38J-16743*
G01*
X11906095Y1802791*
G75*
G02X11910998Y1790955I-11835J-11836*
G01*
Y1712045*
G75*
G02X11906095Y1700209I-16738*
G01*
X11904402Y1698516*
X12245524Y1357394*
X12246717Y1358587*
G75*
G02X12258593Y1363490I11838J-11840*
G01*
X12337423*
G75*
G02X12349299Y1358587I38J-16743*
G01*
X12405095Y1302791*
X12151095D02*
G75*
G02X12155998Y1290955I-11835J-11836D01*
G01*
Y1212045*
G75*
G02X12151095Y1200209I-16738*
G01*
X12095299Y1144413*
G75*
G02X12083423Y1139510I-11838J11840*
G01*
X12004593*
G75*
G02X11992717Y1144413I-38J16743*
G01*
X11936921Y1200209*
G75*
G02X11932018Y1212045I11835J11836*
G01*
Y1290955*
G75*
G02X11936921Y1302791I16738*
G01*
X11992717Y1358587*
G75*
G02X12004593Y1363490I11838J-11840*
G01*
X12083423*
G75*
G02X12095299Y1358587I38J-16743*
G01*
X12151095Y1302791*
X12160095Y1802791D02*
G75*
G02X12164998Y1790955I-11835J-11836D01*
G01*
Y1712045*
G75*
G02X12160095Y1700209I-16738*
G01*
X12104299Y1644413*
G75*
G02X12092423Y1639510I-11838J11840*
G01*
X12013593*
G75*
G02X12001717Y1644413I-38J16743*
G01*
X11945921Y1700209*
G75*
G02X11941018Y1712045I11835J11836*
G01*
Y1790955*
G75*
G02X11945921Y1802791I16738*
G01*
X12001717Y1858587*
G75*
G02X12013593Y1863490I11838J-11840*
G01*
X12092423*
G75*
G02X12104299Y1858587I38J-16743*
G01*
X12160095Y1802791*
X12402258Y1863490D02*
G75*
G02X12418998Y1846750J-16740D01*
G01*
Y1656250*
G75*
G02X12402258Y1639510I-16740*
G01*
X12211758*
G75*
G02X12195018Y1656250J16740*
G01*
Y1846750*
G75*
G02X12211758Y1863490I16740*
G01*
X12402258*
X11401461Y1806157D02*
G75*
G02X11407758Y1790957I-15197J-15200D01*
G01*
Y1712043*
G75*
G02X11401461Y1696843I-21494*
G01*
X11345665Y1641047*
G75*
G02X11330351Y1634750I-15201J15199*
G01*
X11251665*
G75*
G02X11236351Y1641047I-113J21496*
G01*
X11180555Y1696843*
G75*
G02X11174258Y1712043I15197J15200*
G01*
Y1790957*
G75*
G02X11180555Y1806157I21494*
G01*
X11236351Y1861953*
G75*
G02X11251665Y1868250I15201J-15199*
G01*
X11330351*
G75*
G02X11345665Y1861953I113J-21496*
G01*
X11401461Y1806157*
X10432268Y1851500D02*
G75*
G02X10635748I101740D01*
G01*
G75*
G02X10432268I-101740*
G01*
X12679807Y2986486D02*
G75*
G02X12730873Y2934750I-674J-51736D01*
G01*
G75*
G02X12627397Y2934076I-51740*
G01*
X12266908Y3294565*
X10948758*
G75*
G02X10922412Y3305561I-1J37058*
G01*
X10621069Y3606904*
G75*
G02X10610073Y3633249I26062J26345*
G01*
Y4311520*
G75*
G02X10595393Y4347625I37060J36105*
G01*
G75*
G02X10698873I51740*
G01*
G75*
G02X10684193Y4311520I-51740*
G01*
Y3648600*
X10964108Y3368685*
X12282258*
G75*
G02X12308604Y3357689I1J-37058*
G01*
X12679807Y2986486*
X11407008Y2608000D02*
G75*
G02X11513508Y2501500J-106500D01*
G01*
G75*
G02X11407008Y2395000I-106500*
G01*
G75*
G02X11300508Y2501500J106500*
G01*
G75*
G02X11407008Y2608000I106500*
G01*
Y3258000D02*
G75*
G02X11513508Y3151500J-106500D01*
G01*
G75*
G02X11407008Y3045000I-106500*
G01*
G75*
G02X11300508Y3151500J106500*
G01*
G75*
G02X11407008Y3258000I106500*
G01*
X10700508Y1076500D02*
G75*
G02X10913508I106500D01*
G01*
G75*
G02X10700508I-106500*
G01*
X10705268Y1526500D02*
G75*
G02X10908748I101740D01*
G01*
G75*
G02X10705268I-101740*
G01*
X10855268Y2501500D02*
G75*
G02X11058748I101740D01*
G01*
G75*
G02X10855268I-101740*
G01*
Y3151500D02*
G75*
G02X11058748I101740D01*
G01*
G75*
G02X10855268I-101740*
G01*
X11239095Y3865791D02*
G75*
G02X11243998Y3853955I-11835J-11836D01*
G01*
Y3775045*
G75*
G02X11239095Y3763209I-16738*
G01*
X11183299Y3707413*
G75*
G02X11171423Y3702510I-11838J11840*
G01*
X11092593*
G75*
G02X11080717Y3707413I-38J16743*
G01*
X11024921Y3763209*
G75*
G02X11020018Y3775045I11835J11836*
G01*
Y3853955*
G75*
G02X11024921Y3865791I16738*
G01*
X11080717Y3921587*
G75*
G02X11092593Y3926490I11838J-11840*
G01*
X11171423*
G75*
G02X11183299Y3921587I38J-16743*
G01*
X11239095Y3865791*
X11227258Y4180490D02*
G75*
G02X11243998Y4163750J-16740D01*
G01*
Y3973250*
G75*
G02X11227258Y3956510I-16740*
G01*
X11036758*
G75*
G02X11020018Y3973250J16740*
G01*
Y4163750*
G75*
G02X11036758Y4180490I16740*
G01*
X11227258*
X10178268Y1851500D02*
G75*
G02X10381748I101740D01*
G01*
G75*
G02X10178268I-101740*
G01*
X10050508Y1076500D02*
G75*
G02X10263508I106500D01*
G01*
G75*
G02X10050508I-106500*
G01*
X10055268Y1526500D02*
G75*
G02X10258748I101740D01*
G01*
G75*
G02X10055268I-101740*
G01*
X7893008Y3393240D02*
G75*
G02X7909748Y3376500J-16740D01*
G01*
Y3226500*
G75*
G02X7893008Y3209760I-16740*
G01*
X7713008*
G75*
G02X7696268Y3226500J16740*
G01*
Y3376500*
G75*
G02X7713008Y3393240I16740*
G01*
X7893008*
X8147008Y3398000D02*
G75*
G02X8168508Y3376501J-21499D01*
G01*
Y3226499*
G75*
G02X8147008Y3205000I-21500*
G01*
X7967008*
G75*
G02X7945508Y3226499J21499*
G01*
Y3376501*
G75*
G02X7967008Y3398000I21500*
G01*
X8147008*
X8608311Y3328400D02*
G75*
G02X8704248Y3301500I44197J-26900D01*
G01*
G75*
G02X8608311Y3274600I-51740*
G01*
X8417748*
Y3226500*
G75*
G02X8401008Y3209760I-16740*
G01*
X8221008*
G75*
G02X8204268Y3226500J16740*
G01*
Y3376500*
G75*
G02X8221008Y3393240I16740*
G01*
X8401008*
G75*
G02X8417748Y3376500J-16740*
G01*
Y3328400*
X8608311*
X7198143Y2252125D02*
G75*
G02X7301623I51740D01*
G01*
G75*
G02X7237652Y2201852I-51740*
G01*
X6983235Y1947435*
G75*
G02X6964133Y1939475I-19104J18945*
G01*
X6959400*
X6877485Y1857560*
G75*
G02X6858383Y1849600I-19104J18945*
G01*
X4207127*
G75*
G02X4007268Y1876500I-98119J26900*
G01*
G75*
G02X4207127Y1903400I101740*
G01*
X6847241*
X6929156Y1985315*
G75*
G02X6948258Y1993275I19104J-18945*
G01*
X6952991*
X7199610Y2239894*
G75*
G02X7198143Y2252125I50271J12233*
G01*
X4250508Y1076500D02*
G75*
G02X4463508I106500D01*
G01*
G75*
G02X4250508I-106500*
G01*
X7343290Y2188625D02*
G75*
G02X7446770I51740D01*
G01*
G75*
G02X7382799Y2138352I-51740*
G01*
X6752007Y1507560*
G75*
G02X6732905Y1499600I-19104J18945*
G01*
X4455127*
G75*
G02X4255268Y1526500I-98119J26900*
G01*
G75*
G02X4455127Y1553400I101740*
G01*
X6721763*
X7344757Y2176394*
G75*
G02X7343290Y2188625I50271J12233*
G01*
X6830268Y701500D02*
G75*
G02X7033748I101740D01*
G01*
G75*
G02X6830268I-101740*
G01*
X7003268Y1001500D02*
G75*
G02X7206748I101740D01*
G01*
G75*
G02X7003268I-101740*
G01*
X9571061Y2056775D02*
G75*
G02X9666998Y2029875I44197J-26900D01*
G01*
G75*
G02X9571061Y2002975I-51740*
G01*
X8921525*
X7670410Y751860*
G75*
G02X7683748Y701500I-88402J-50360*
G01*
G75*
G02X7480268I-101740*
G01*
G75*
G02X7632368Y789902I101740*
G01*
X8891281Y2048815*
G75*
G02X8910383Y2056775I19104J-18945*
G01*
X9483437*
G75*
G02X9475811Y2066475I36571J36600*
G01*
X8462025*
X7447410Y1051860*
G75*
G02X7460748Y1001500I-88402J-50360*
G01*
G75*
G02X7257268I-101740*
G01*
G75*
G02X7409368Y1089902I101740*
G01*
X8431781Y2112315*
G75*
G02X8450883Y2120275I19104J-18945*
G01*
X9475811*
G75*
G02X9571748Y2093375I44197J-26900*
G01*
G75*
G02X9556579Y2056775I-51740*
G01*
X9571061*
X6418008Y2643240D02*
G75*
G02X6434748Y2626500J-16740D01*
G01*
Y2476500*
G75*
G02X6418008Y2459760I-16740*
G01*
X6238008*
G75*
G02X6221268Y2476500J16740*
G01*
Y2626500*
G75*
G02X6238008Y2643240I16740*
G01*
X6418008*
X6672008Y2648000D02*
G75*
G02X6693508Y2626501J-21499D01*
G01*
Y2476499*
G75*
G02X6672008Y2455000I-21500*
G01*
X6492008*
G75*
G02X6470508Y2476499J21499*
G01*
Y2626501*
G75*
G02X6492008Y2648000I21500*
G01*
X6672008*
X6957311Y2578400D02*
G75*
G02X7053248Y2551500I44197J-26900D01*
G01*
G75*
G02X6957311Y2524600I-51740*
G01*
X6942748*
Y2476500*
G75*
G02X6926008Y2459760I-16740*
G01*
X6746008*
G75*
G02X6729268Y2476500J16740*
G01*
Y2626500*
G75*
G02X6746008Y2643240I16740*
G01*
X6926008*
G75*
G02X6942748Y2626500J-16740*
G01*
Y2578400*
X6957311*
X3513235Y2381318D02*
Y2381312D01*
G75*
G02X3503955Y2335703I-116720*
G01*
G75*
G02X3279757Y2381316I-107459J45613*
G01*
Y2381322*
G75*
G02X3289037Y2426931I116720*
G01*
G75*
G02X3513235Y2381318I107459J-45613*
G01*
X3719008Y4010740D02*
G75*
G02X3735748Y3994000J-16740D01*
G01*
Y3799000*
G75*
G02X3719008Y3782260I-16740*
G01*
X3664008*
G75*
G02X3647268Y3799000J16740*
G01*
Y3859440*
X3622500*
G75*
G02X3534655Y3896500I-36105J37060*
G01*
G75*
G02X3622500Y3933560I51740*
G01*
X3647268*
Y3994000*
G75*
G02X3664008Y4010740I16740*
G01*
X3719008*
X3814952Y3080901D02*
Y3080899D01*
G75*
G02X3805293Y3033427I-121488*
G01*
G75*
G02X3571952Y3080901I-111841J47474*
G01*
Y3080903*
G75*
G02X3581611Y3128375I121488*
G01*
G75*
G02X3814952Y3080901I111841J-47474*
G01*
X3600508Y1076500D02*
G75*
G02X3813508I106500D01*
G01*
G75*
G02X3600508I-106500*
G01*
X3605268Y1526500D02*
G75*
G02X3808748I101740D01*
G01*
G75*
G02X3605268I-101740*
G01*
X3753268Y1876500D02*
G75*
G02X3956748I101740D01*
G01*
G75*
G02X3753268I-101740*
G01*
X4054653Y3479810D02*
G75*
G02X4142498Y3442750I36105J-37060D01*
G01*
G75*
G02X4054653Y3405690I-51740*
G01*
X3947883*
G75*
G02X3921537Y3416686I-1J37058*
G01*
X3792444Y3545779*
G75*
G02X3781448Y3572124I26062J26345*
G01*
Y3785258*
G75*
G02X3774268Y3799000I9560J13742*
G01*
Y3994000*
G75*
G02X3791008Y4010740I16740*
G01*
X3846008*
G75*
G02X3862748Y3994000J-16740*
G01*
Y3799000*
G75*
G02X3855568Y3785258I-16740*
G01*
Y3587475*
X3963233Y3479810*
X4054653*
X3981758Y3738240D02*
G75*
G02X3998498Y3721500J-16740D01*
G01*
Y3581500*
G75*
G02X3981758Y3564760I-16740*
G01*
X3891758*
G75*
G02X3875018Y3581500J16740*
G01*
Y3721500*
G75*
G02X3891758Y3738240I16740*
G01*
X3913528*
Y3782871*
G75*
G02X3901268Y3799000I4480J16129*
G01*
Y3994000*
G75*
G02X3918008Y4010740I16740*
G01*
X3973008*
G75*
G02X3989748Y3994000J-16740*
G01*
Y3799000*
G75*
G02X3977488Y3782871I-16740*
G01*
Y3738240*
X3981758*
X4100008Y4015500D02*
G75*
G02X4121508Y3994001J-21499D01*
G01*
Y3798999*
G75*
G02X4100008Y3777500I-21500*
G01*
X4045008*
G75*
G02X4023508Y3798999J21499*
G01*
Y3994001*
G75*
G02X4045008Y4015500I21500*
G01*
X4100008*
X4172258Y3743000D02*
G75*
G02X4193758Y3721501J-21499D01*
G01*
Y3581499*
G75*
G02X4172258Y3560000I-21500*
G01*
X4082258*
G75*
G02X4060758Y3581499J21499*
G01*
Y3721501*
G75*
G02X4082258Y3743000I21500*
G01*
X4172258*
X9289708Y701500D02*
G36*
X7683748D01*
G75*
G02X7480268I-101740*
G01*
X7033748*
G75*
G02X6830268I-101740*
G01*
X5224308*
Y193800*
X6842493*
G75*
G02X6825508Y251497I89504J57697*
G01*
Y251500*
G75*
G02X7038508I106500*
G01*
Y251497*
G75*
G02X7021523Y193800I-106489*
G01*
X7492493*
G75*
G02X7475508Y251497I89504J57697*
G01*
Y251500*
G75*
G02X7688508I106500*
G01*
Y251497*
G75*
G02X7671523Y193800I-106489*
G01*
X9289708*
Y701500*
G37*
X7918966Y1076500D02*
G36*
X7472050D01*
X7447410Y1051860*
G75*
G02X7460748Y1001500I-88404J-50360*
G01*
G75*
G02X7257268I-101740*
G01*
G75*
G02X7290262Y1076500I101740*
G01*
X7173754*
G75*
G02X7206748Y1001500I-68746J-75000*
G01*
G75*
G02X7003268I-101740*
G01*
G75*
G02X7036262Y1076500I101740*
G01*
X4463508*
G75*
G02X4250508I-106500*
G01*
X3813508*
G75*
G02X3600508I-106500*
G01*
X2407008*
Y893800*
X5157008*
G75*
G02X5224308Y826501J-67299*
G01*
Y826500*
Y701500*
X6830268*
G75*
G02X7033748I101740*
G01*
X7480268*
G75*
G02X7632368Y789902I101740*
G01*
X7918966Y1076500*
G37*
X12961832D02*
G36*
X10913508D01*
G75*
G02X10700508I-106500*
G01*
X10263508*
G75*
G02X10050508I-106500*
G01*
X7995050*
X7670410Y751860*
G75*
G02X7683748Y701500I-88404J-50360*
G01*
X9289708*
Y826500*
Y826501*
G75*
G02X9357008Y893800I67300*
G01*
X12779132*
X12961832Y1076500*
G37*
X7570966Y1251500D02*
G36*
X2407008D01*
Y1076500*
X3600508*
G75*
G02X3813508I106500*
G01*
X4250508*
G75*
G02X4463508I106500*
G01*
X7036262*
G75*
G02X7173754I68746J-75000*
G01*
X7290262*
G75*
G02X7409368Y1089902I68746J-75001*
G01*
X7570966Y1251500*
G37*
X8093966D02*
G36*
X7647050D01*
X7472050Y1076500*
X7918966*
X8093966Y1251500*
G37*
X13136832D02*
G36*
X12409998D01*
Y1212045*
Y1212043*
G75*
G02X12405095Y1200209I-16733*
G01*
X12349299Y1144413*
G75*
G02X12337423Y1139510I-11838J11840*
G01*
X12258593*
G75*
G02X12246717Y1144413I-38J16743*
G01*
X12190921Y1200209*
G75*
G02X12186018Y1212043I11830J11834*
G01*
Y1212045*
Y1251500*
X12155998*
Y1212045*
Y1212043*
G75*
G02X12151095Y1200209I-16733*
G01*
X12095299Y1144413*
G75*
G02X12083423Y1139510I-11838J11840*
G01*
X12004593*
G75*
G02X11992717Y1144413I-38J16743*
G01*
X11936921Y1200209*
G75*
G02X11932018Y1212043I11830J11834*
G01*
Y1212045*
Y1251500*
X11906758*
Y1212043*
G75*
G02X11900461Y1196843I-21500J3*
G01*
X11844665Y1141047*
G75*
G02X11829351Y1134750I-15201J15199*
G01*
X11750665*
G75*
G02X11735351Y1141047I-113J21496*
G01*
X11679555Y1196843*
G75*
G02X11673258Y1212043I15203J15203*
G01*
Y1251500*
X11647998*
Y1212045*
Y1212043*
G75*
G02X11643095Y1200209I-16733*
G01*
X11587299Y1144413*
G75*
G02X11575423Y1139510I-11838J11840*
G01*
X11496593*
G75*
G02X11484717Y1144413I-38J16743*
G01*
X11428921Y1200209*
G75*
G02X11424018Y1212043I11830J11834*
G01*
Y1212045*
Y1251500*
X11393998*
Y1156250*
G75*
G02X11377258Y1139510I-16740*
G01*
X11186758*
G75*
G02X11170018Y1156250J16740*
G01*
Y1218264*
X11136782Y1251500*
X8170050*
X7995050Y1076500*
X10050508*
G75*
G02X10263508I106500*
G01*
X10700508*
G75*
G02X10913508I106500*
G01*
X12961832*
X13136832Y1251500*
G37*
X7845966Y1526500D02*
G36*
X6770947D01*
X6752007Y1507560*
G75*
G02X6732905Y1499600I-19104J18945*
G01*
X4455127*
G75*
G02X4255268Y1526500I-98119J26900*
G01*
X3808748*
G75*
G02X3605268I-101740*
G01*
X2407008*
Y1251500*
X7570966*
X7845966Y1526500*
G37*
X8368966D02*
G36*
X7922050D01*
X7647050Y1251500*
X8093966*
X8368966Y1526500*
G37*
X11136782Y1251500D02*
G36*
X11019188Y1369094D01*
G75*
G02X10995518Y1425996I56561J56902*
G01*
Y1425998*
Y1526500*
X10908748*
G75*
G02X10705268I-101740*
G01*
X10258748*
G75*
G02X10055268I-101740*
G01*
X8445050*
X8170050Y1251500*
X11136782*
G37*
X13411832Y1526500D02*
G36*
X12076418D01*
X12245524Y1357394*
X12246717Y1358587*
G75*
G02X12258593Y1363490I11838J-11840*
G01*
X12337423*
G75*
G02X12349299Y1358587I38J-16743*
G01*
X12405095Y1302791*
G75*
G02X12409998Y1290957I-11830J-11834*
G01*
Y1290955*
Y1251500*
X13136832*
X13411832Y1526500*
G37*
X12186018Y1251500D02*
G36*
Y1290955D01*
Y1290957*
G75*
G02X12190921Y1302791I16733*
G01*
X12193114Y1304984*
X11971598Y1526500*
X11155998*
Y1459236*
X11251744Y1363490*
X11377258*
G75*
G02X11393998Y1346750J-16740*
G01*
Y1251500*
X11424018*
Y1290955*
Y1290957*
G75*
G02X11428921Y1302791I16733*
G01*
X11484717Y1358587*
G75*
G02X11496593Y1363490I11838J-11840*
G01*
X11575423*
G75*
G02X11587299Y1358587I38J-16743*
G01*
X11643095Y1302791*
G75*
G02X11647998Y1290957I-11830J-11834*
G01*
Y1290955*
Y1251500*
X11673258*
Y1290957*
G75*
G02X11679555Y1306157I21500J-3*
G01*
X11735351Y1361953*
G75*
G02X11750665Y1368250I15201J-15199*
G01*
X11829351*
G75*
G02X11844665Y1361953I113J-21496*
G01*
X11900461Y1306157*
G75*
G02X11906758Y1290957I-15203J-15203*
G01*
Y1251500*
X11932018*
Y1290955*
Y1290957*
G75*
G02X11936921Y1302791I16733*
G01*
X11992717Y1358587*
G75*
G02X12004593Y1363490I11838J-11840*
G01*
X12083423*
G75*
G02X12095299Y1358587I38J-16743*
G01*
X12151095Y1302791*
G75*
G02X12155998Y1290957I-11830J-11834*
G01*
Y1290955*
Y1251500*
X12186018*
G37*
X6919863Y1751500D02*
G36*
X2407008D01*
Y1526500*
X3605268*
G75*
G02X3808748I101740*
G01*
X4255268*
G75*
G02X4455127Y1553400I101740*
G01*
X6721763*
X6919863Y1751500*
G37*
X8070966D02*
G36*
X6995947D01*
X6770947Y1526500*
X7845966*
X8070966Y1751500*
G37*
X10995518D02*
G36*
X10552744D01*
G75*
G02X10515272I-18736J100001*
G01*
X10298744*
G75*
G02X10261272I-18736J100001*
G01*
X8670050*
X8445050Y1526500*
X10055268*
G75*
G02X10258748I101740*
G01*
X10705268*
G75*
G02X10908748I101740*
G01*
X10995518*
Y1751500*
G37*
X8593966D02*
G36*
X8147050D01*
X7922050Y1526500*
X8368966*
X8593966Y1751500*
G37*
X13636832D02*
G36*
X12418998D01*
Y1656250*
G75*
G02X12402258Y1639510I-16740*
G01*
X12211758*
G75*
G02X12195018Y1656250J16740*
G01*
Y1751500*
X12164998*
Y1712045*
Y1712043*
G75*
G02X12160095Y1700209I-16733*
G01*
X12104299Y1644413*
G75*
G02X12092423Y1639510I-11838J11840*
G01*
X12013593*
G75*
G02X12001717Y1644413I-38J16743*
G01*
X11945921Y1700209*
G75*
G02X11941018Y1712043I11830J11834*
G01*
Y1712045*
Y1751500*
X11910998*
Y1712045*
Y1712043*
G75*
G02X11906095Y1700209I-16733*
G01*
X11904402Y1698516*
X12076418Y1526500*
X13411832*
X13636832Y1751500*
G37*
X11971598Y1526500D02*
G36*
X11851992Y1646106D01*
X11850299Y1644413*
G75*
G02X11838423Y1639510I-11838J11840*
G01*
X11759593*
G75*
G02X11747717Y1644413I-38J16743*
G01*
X11691921Y1700209*
G75*
G02X11687018Y1712043I11830J11834*
G01*
Y1712045*
Y1751500*
X11656998*
Y1712045*
Y1712043*
G75*
G02X11652095Y1700209I-16733*
G01*
X11596299Y1644413*
G75*
G02X11584423Y1639510I-11838J11840*
G01*
X11505593*
G75*
G02X11493717Y1644413I-38J16743*
G01*
X11437921Y1700209*
G75*
G02X11433018Y1712043I11830J11834*
G01*
Y1712045*
Y1751500*
X11407758*
Y1712043*
G75*
G02X11401461Y1696843I-21500J3*
G01*
X11345665Y1641047*
G75*
G02X11330351Y1634750I-15201J15199*
G01*
X11251665*
G75*
G02X11236351Y1641047I-113J21496*
G01*
X11180555Y1696843*
G75*
G02X11174258Y1712043I15203J15203*
G01*
Y1751500*
X11155998*
Y1526500*
X11971598*
G37*
X7044863Y1876500D02*
G36*
X6896425D01*
X6877485Y1857560*
G75*
G02X6858383Y1849600I-19104J18945*
G01*
X4207127*
G75*
G02X4007268Y1876500I-98119J26900*
G01*
X3956748*
G75*
G02X3753268I-101740*
G01*
X2407008*
Y1751500*
X6919863*
X7044863Y1876500*
G37*
X8195966D02*
G36*
X7120947D01*
X6995947Y1751500*
X8070966*
X8195966Y1876500*
G37*
X10181387D02*
G36*
X8795050D01*
X8670050Y1751500*
X10261272*
G75*
G02X10178268Y1851500I18736J100000*
G01*
G75*
G02X10181387Y1876500I101740J2*
G01*
G37*
X8718966D02*
G36*
X8272050D01*
X8147050Y1751500*
X8593966*
X8718966Y1876500*
G37*
X13761832D02*
G36*
X11155998D01*
Y1751500*
X11174258*
Y1790957*
G75*
G02X11180555Y1806157I21500J-3*
G01*
X11236351Y1861953*
G75*
G02X11251665Y1868250I15201J-15199*
G01*
X11330351*
G75*
G02X11345665Y1861953I113J-21496*
G01*
X11401461Y1806157*
G75*
G02X11407758Y1790957I-15203J-15203*
G01*
Y1751500*
X11433018*
Y1790955*
Y1790957*
G75*
G02X11437921Y1802791I16733*
G01*
X11493717Y1858587*
G75*
G02X11505593Y1863490I11838J-11840*
G01*
X11584423*
G75*
G02X11596299Y1858587I38J-16743*
G01*
X11652095Y1802791*
G75*
G02X11656998Y1790957I-11830J-11834*
G01*
Y1790955*
Y1751500*
X11687018*
Y1790955*
Y1790957*
G75*
G02X11691921Y1802791I16733*
G01*
X11747717Y1858587*
G75*
G02X11759593Y1863490I11838J-11840*
G01*
X11838423*
G75*
G02X11850299Y1858587I38J-16743*
G01*
X11906095Y1802791*
G75*
G02X11910998Y1790957I-11830J-11834*
G01*
Y1790955*
Y1751500*
X11941018*
Y1790955*
Y1790957*
G75*
G02X11945921Y1802791I16733*
G01*
X12001717Y1858587*
G75*
G02X12013593Y1863490I11838J-11840*
G01*
X12092423*
G75*
G02X12104299Y1858587I38J-16743*
G01*
X12160095Y1802791*
G75*
G02X12164998Y1790957I-11830J-11834*
G01*
Y1790955*
Y1751500*
X12195018*
Y1846750*
G75*
G02X12211758Y1863490I16740*
G01*
X12402258*
G75*
G02X12418998Y1846750J-16740*
G01*
Y1751500*
X13636832*
X13761832Y1876500*
G37*
X10435387D02*
G36*
X10378629D01*
G75*
G02X10381748Y1851500I-98621J-24998*
G01*
G75*
G02X10298744Y1751500I-101740*
G01*
X10515272*
G75*
G02X10432268Y1851500I18736J100000*
G01*
G75*
G02X10435387Y1876500I101740J2*
G01*
G37*
X10995518D02*
G36*
X10632629D01*
G75*
G02X10635748Y1851500I-98621J-24998*
G01*
G75*
G02X10552744Y1751500I-101740*
G01*
X10995518*
Y1876500*
G37*
X7204244Y2276500D02*
G36*
X3447892D01*
G75*
G02X3345100I-51396J104817*
G01*
X2407008*
Y1876500*
X3753268*
G75*
G02X3956748I101740*
G01*
X4007268*
G75*
G02X4207127Y1903400I101740*
G01*
X6847241*
X6929156Y1985315*
G75*
G02X6948258Y1993275I19104J-18945*
G01*
X6952991*
X7199610Y2239894*
G75*
G02X7198143Y2252125I50253J12231*
G01*
G75*
G02X7204244Y2276500I51740J1*
G01*
G37*
X11272407D02*
G36*
X7295522D01*
G75*
G02X7301623Y2252125I-45639J-24374*
G01*
G75*
G02X7237652Y2201852I-51739*
G01*
X6983235Y1947435*
G75*
G02X6964133Y1939475I-19104J18945*
G01*
X6959400*
X6896425Y1876500*
X7044863*
X7344757Y2176394*
G75*
G02X7343290Y2188625I50253J12231*
G01*
G75*
G02X7446770I51740*
G01*
G75*
G02X7382799Y2138352I-51739*
G01*
X7120947Y1876500*
X8195966*
X8431781Y2112315*
G75*
G02X8450883Y2120275I19104J-18945*
G01*
X9475811*
G75*
G02X9571748Y2093376I44197J-26899*
G01*
Y2093375*
G75*
G02X9556579Y2056775I-51747J3*
G01*
X9571061*
G75*
G02X9666998Y2029876I44197J-26899*
G01*
Y2029875*
Y2029874*
G75*
G02X9571061Y2002975I-51740*
G01*
X8921525*
X8795050Y1876500*
X10181387*
G75*
G02X10378629I98621J-25000*
G01*
X10435387*
G75*
G02X10632629I98621J-25000*
G01*
X10995518*
Y1966377*
Y1966379*
G75*
G02X11019188Y2023281I80231*
G01*
X11272407Y2276500*
G37*
X8718966Y1876500D02*
G36*
X8891281Y2048815D01*
G75*
G02X8910383Y2056775I19104J-18945*
G01*
X9483437*
G75*
G02X9475811Y2066475I36598J36620*
G01*
X8462025*
X8272050Y1876500*
X8718966*
G37*
X14161832Y2276500D02*
G36*
X13222998D01*
Y2237045*
Y2237043*
G75*
G02X13218095Y2225209I-16733*
G01*
X13162299Y2169413*
G75*
G02X13150423Y2164510I-11838J11840*
G01*
X13071593*
G75*
G02X13059717Y2169413I-38J16743*
G01*
X13003921Y2225209*
G75*
G02X12999018Y2237043I11830J11834*
G01*
Y2237045*
Y2276500*
X12968998*
Y2181250*
G75*
G02X12952258Y2164510I-16740*
G01*
X12761758*
G75*
G02X12745018Y2181250J16740*
G01*
Y2196260*
X11419119*
X11155998Y1933139*
Y1876500*
X13761832*
X14161832Y2276500*
G37*
X11272407D02*
G36*
X11328977Y2333070D01*
G75*
G02X11385883Y2356740I56904J-56566*
G01*
X12745018*
Y2371750*
G75*
G02X12761758Y2388490I16740*
G01*
X12776768*
Y2501500*
X11513508*
G75*
G02X11407008Y2395000I-106500*
G01*
G75*
G02X11300508Y2501500J106500*
G01*
X11058748*
G75*
G02X10855268I-101740*
G01*
X7014815*
G75*
G02X6988202I-13306J50001*
G01*
X6942748*
Y2476500*
G75*
G02X6926008Y2459760I-16740*
G01*
X6746008*
G75*
G02X6729268Y2476500J16740*
G01*
Y2501500*
X6693508*
Y2476499*
Y2476498*
G75*
G02X6672008Y2455000I-21500*
G01*
X6492008*
G75*
G02X6470508Y2476499J21499*
G01*
Y2501500*
X6434748*
Y2476500*
G75*
G02X6418008Y2459760I-16740*
G01*
X6238008*
G75*
G02X6221268Y2476500J16740*
G01*
Y2501500*
X2407008*
Y2276500*
X3345100*
G75*
G02X3279757Y2381316I51396J104816*
G01*
Y2381322*
G75*
G02X3289037Y2426931I116739J-4*
G01*
G75*
G02X3513235Y2381318I107459J-45613*
G01*
Y2381312*
G75*
G02X3503955Y2335703I-116739J4*
G01*
G75*
G02X3447892Y2276500I-107459J45613*
G01*
X7204244*
G75*
G02X7295522I45639J-24375*
G01*
X11272407*
G37*
X14239708Y2501500D02*
G36*
X12937248D01*
Y2388490*
X12952258*
G75*
G02X12968998Y2371750J-16740*
G01*
Y2276500*
X12999018*
Y2315955*
Y2315957*
G75*
G02X13003921Y2327791I16733*
G01*
X13059717Y2383587*
G75*
G02X13071593Y2388490I11838J-11840*
G01*
X13150423*
G75*
G02X13162299Y2383587I38J-16743*
G01*
X13218095Y2327791*
G75*
G02X13222998Y2315957I-11830J-11834*
G01*
Y2315955*
Y2276500*
X14161832*
X14239708Y2354376*
Y2501500*
G37*
X12908657Y2701500D02*
G36*
X2407008D01*
Y2501500*
X6221268*
Y2626500*
G75*
G02X6238008Y2643240I16740*
G01*
X6418008*
G75*
G02X6434748Y2626500J-16740*
G01*
Y2501500*
X6470508*
Y2626501*
Y2626502*
G75*
G02X6492008Y2648000I21500*
G01*
X6672008*
G75*
G02X6693508Y2626501J-21499*
G01*
Y2501500*
X6729268*
Y2626500*
G75*
G02X6746008Y2643240I16740*
G01*
X6926008*
G75*
G02X6942748Y2626500J-16740*
G01*
Y2578400*
X6957311*
G75*
G02X7053248Y2551501I44197J-26899*
G01*
Y2551500*
Y2551499*
G75*
G02X7014815Y2501500I-51739*
G01*
X10855268*
G75*
G02X11058748I101740*
G01*
X11300508*
G75*
G02X11407008Y2608000I106500*
G01*
G75*
G02X11513508Y2501500J-106500*
G01*
X12776768*
Y2536377*
Y2536379*
G75*
G02X12800438Y2593281I80231*
G01*
X12908657Y2701500*
G37*
X6988202Y2501500D02*
G36*
G75*
G02X6957311Y2524600I13306J49999D01*
G01*
X6942748*
Y2501500*
X6988202*
G37*
X14239708Y2701500D02*
G36*
X13881758D01*
Y2662043*
G75*
G02X13875461Y2646843I-21500J3*
G01*
X13819665Y2591047*
G75*
G02X13804351Y2584750I-15201J15199*
G01*
X13725665*
G75*
G02X13710351Y2591047I-113J21496*
G01*
X13654555Y2646843*
G75*
G02X13648258Y2662043I15203J15203*
G01*
Y2701500*
X13622998*
Y2662045*
Y2662043*
G75*
G02X13618095Y2650209I-16733*
G01*
X13562299Y2594413*
G75*
G02X13550423Y2589510I-11838J11840*
G01*
X13471593*
G75*
G02X13459717Y2594413I-38J16743*
G01*
X13403921Y2650209*
G75*
G02X13399018Y2662043I11830J11834*
G01*
Y2662045*
Y2701500*
X13368998*
Y2606250*
G75*
G02X13352258Y2589510I-16740*
G01*
X13161758*
G75*
G02X13145018Y2606250J16740*
G01*
Y2621260*
X13055369*
X12937248Y2503139*
Y2501500*
X14239708*
Y2701500*
G37*
X13145018Y3151500D02*
G36*
X12514793D01*
X12679807Y2986486*
G75*
G02X12730873Y2934750I-674J-51736*
G01*
G75*
G02X12627397Y2934076I-51740*
G01*
X12409973Y3151500*
X11513508*
G75*
G02X11407008Y3045000I-106500*
G01*
G75*
G02X11300508Y3151500J106500*
G01*
X11058748*
G75*
G02X10855268I-101740*
G01*
X7157008*
X7032008Y3026500*
X6032008*
X5907008Y3151500*
X3792336*
G75*
G02X3814952Y3080901I-98884J-70599*
G01*
Y3080899*
Y3080897*
G75*
G02X3805293Y3033427I-121478*
G01*
G75*
G02X3571952Y3080901I-111841J47474*
G01*
Y3080903*
Y3080905*
G75*
G02X3581611Y3128375I121478*
G01*
G75*
G02X3594568Y3151500I111841J-47472*
G01*
X2407008*
Y2701500*
X12908657*
X12965227Y2758070*
G75*
G02X13022133Y2781740I56904J-56566*
G01*
X13145018*
Y2796750*
G75*
G02X13161758Y2813490I16740*
G01*
X13176768*
Y3039510*
X13161758*
G75*
G02X13145018Y3056250J16740*
G01*
Y3151500*
G37*
X14239708D02*
G36*
X13881758D01*
Y3112043*
G75*
G02X13875461Y3096843I-21500J3*
G01*
X13819665Y3041047*
G75*
G02X13804351Y3034750I-15201J15199*
G01*
X13725665*
G75*
G02X13710351Y3041047I-113J21496*
G01*
X13654555Y3096843*
G75*
G02X13648258Y3112043I15203J15203*
G01*
Y3151500*
X13622998*
Y3112045*
Y3112043*
G75*
G02X13618095Y3100209I-16733*
G01*
X13562299Y3044413*
G75*
G02X13550423Y3039510I-11838J11840*
G01*
X13471593*
G75*
G02X13459717Y3044413I-38J16743*
G01*
X13403921Y3100209*
G75*
G02X13399018Y3112043I11830J11834*
G01*
Y3112045*
Y3151500*
X13368998*
Y3056250*
G75*
G02X13352258Y3039510I-16740*
G01*
X13337248*
Y2813490*
X13352258*
G75*
G02X13368998Y2796750J-16740*
G01*
Y2701500*
X13399018*
Y2740955*
Y2740957*
G75*
G02X13403921Y2752791I16733*
G01*
X13459717Y2808587*
G75*
G02X13471593Y2813490I11838J-11840*
G01*
X13550423*
G75*
G02X13562299Y2808587I38J-16743*
G01*
X13618095Y2752791*
G75*
G02X13622998Y2740957I-11830J-11834*
G01*
Y2740955*
Y2701500*
X13648258*
Y2740957*
G75*
G02X13654555Y2756157I21500J-3*
G01*
X13710351Y2811953*
G75*
G02X13725665Y2818250I15201J-15199*
G01*
X13804351*
G75*
G02X13819665Y2811953I113J-21496*
G01*
X13875461Y2756157*
G75*
G02X13881758Y2740957I-15203J-15203*
G01*
Y2701500*
X14239708*
Y3151500*
G37*
X5757008Y3301500D02*
G36*
X2407008D01*
Y3151500*
X3594568*
G75*
G02X3792336I98884J-70599*
G01*
X5907008*
X5757008Y3301500*
G37*
X12409973Y3151500D02*
G36*
X12266908Y3294565D01*
X10948758*
G75*
G02X10927172Y3301500I-1J37059*
G01*
X8704248*
Y3301499*
G75*
G02X8608311Y3274600I-51740*
G01*
X8417748*
Y3226500*
G75*
G02X8401008Y3209760I-16740*
G01*
X8221008*
G75*
G02X8204268Y3226500J16740*
G01*
Y3301500*
X8168508*
Y3226499*
Y3226498*
G75*
G02X8147008Y3205000I-21500*
G01*
X7967008*
G75*
G02X7945508Y3226499J21499*
G01*
Y3301500*
X7909748*
Y3226500*
G75*
G02X7893008Y3209760I-16740*
G01*
X7713008*
G75*
G02X7696268Y3226500J16740*
G01*
Y3301500*
X7307008*
X7157008Y3151500*
X10855268*
G75*
G02X11058748I101740*
G01*
X11300508*
G75*
G02X11407008Y3258000I106500*
G01*
G75*
G02X11513508Y3151500J-106500*
G01*
X12409973*
G37*
X13145018D02*
G36*
Y3194914D01*
X13038432Y3301500*
X12364793*
X12514793Y3151500*
X13145018*
G37*
X14239708Y3301500D02*
G36*
X13175584D01*
X13213594Y3263490*
X13352258*
G75*
G02X13368998Y3246750J-16740*
G01*
Y3151500*
X13399018*
Y3190955*
Y3190957*
G75*
G02X13403921Y3202791I16733*
G01*
X13459717Y3258587*
G75*
G02X13471593Y3263490I11838J-11840*
G01*
X13550423*
G75*
G02X13562299Y3258587I38J-16743*
G01*
X13618095Y3202791*
G75*
G02X13622998Y3190957I-11830J-11834*
G01*
Y3190955*
Y3151500*
X13648258*
Y3190957*
G75*
G02X13654555Y3206157I21500J-3*
G01*
X13710351Y3261953*
G75*
G02X13725665Y3268250I15201J-15199*
G01*
X13804351*
G75*
G02X13819665Y3261953I113J-21496*
G01*
X13875461Y3206157*
G75*
G02X13881758Y3190957I-15203J-15203*
G01*
Y3151500*
X14239708*
Y3301500*
G37*
X5420776Y3637732D02*
G36*
X4193758D01*
Y3581499*
Y3581498*
G75*
G02X4172258Y3560000I-21500*
G01*
X4082258*
G75*
G02X4060758Y3581499J21499*
G01*
Y3637732*
X3998498*
Y3581500*
G75*
G02X3981758Y3564760I-16740*
G01*
X3891758*
G75*
G02X3875018Y3581500J16740*
G01*
Y3637732*
X3855568*
Y3587475*
X3963233Y3479810*
X4054653*
G75*
G02X4142498Y3442750I36105J-37060*
G01*
G75*
G02X4054653Y3405690I-51740*
G01*
X3947883*
G75*
G02X3921537Y3416686I-1J37058*
G01*
X3792444Y3545779*
G75*
G02X3781448Y3572122I26057J26343*
G01*
Y3572124*
Y3637732*
X2593240*
X2407008Y3451500*
Y3301500*
X5757008*
X5420776Y3637732*
G37*
X10927172Y3301500D02*
G36*
G75*
G02X10922412Y3305561I21585J30120D01*
G01*
X10621069Y3606904*
G75*
G02X10610073Y3633247I26057J26343*
G01*
Y3633249*
Y3637732*
X7643240*
X7307008Y3301500*
X7696268*
Y3376500*
G75*
G02X7713008Y3393240I16740*
G01*
X7893008*
G75*
G02X7909748Y3376500J-16740*
G01*
Y3301500*
X7945508*
Y3376501*
Y3376502*
G75*
G02X7967008Y3398000I21500*
G01*
X8147008*
G75*
G02X8168508Y3376501J-21499*
G01*
Y3301500*
X8204268*
Y3376500*
G75*
G02X8221008Y3393240I16740*
G01*
X8401008*
G75*
G02X8417748Y3376500J-16740*
G01*
Y3328400*
X8608311*
G75*
G02X8704248Y3301501I44197J-26899*
G01*
Y3301500*
X10927172*
G37*
X11298130Y3637732D02*
G36*
X11213154D01*
X11239095Y3611791*
G75*
G02X11243998Y3599957I-11830J-11834*
G01*
Y3599955*
Y3521045*
Y3521043*
G75*
G02X11239095Y3509209I-16733*
G01*
X11230218Y3500332*
X11276775Y3453775*
X11327623*
X11275555Y3505843*
G75*
G02X11269258Y3521043I15203J15203*
G01*
Y3599957*
G75*
G02X11275555Y3615157I21500J-3*
G01*
X11298130Y3637732*
G37*
X11962948D02*
G36*
X11473886D01*
X11496461Y3615157*
G75*
G02X11502758Y3599957I-15203J-15203*
G01*
Y3521043*
G75*
G02X11496461Y3505843I-21500J3*
G01*
X11444393Y3453775*
X11778991*
X11962948Y3637732*
G37*
X13038432Y3301500D02*
G36*
X12702200Y3637732D01*
X12039032*
X11809235Y3407935*
G75*
G02X11790133Y3399975I-19104J18945*
G01*
X11265633*
G75*
G02X11246531Y3407935I2J26905*
G01*
X11192176Y3462290*
X11183299Y3453413*
G75*
G02X11171423Y3448510I-11838J11840*
G01*
X11092593*
G75*
G02X11080717Y3453413I-38J16743*
G01*
X11024921Y3509209*
G75*
G02X11020018Y3521043I11830J11834*
G01*
Y3521045*
Y3599955*
Y3599957*
G75*
G02X11024921Y3611791I16733*
G01*
X11050862Y3637732*
X10695061*
X10964108Y3368685*
X12282258*
G75*
G02X12308604Y3357689I1J-37058*
G01*
X12364793Y3301500*
X13038432*
G37*
X13907008Y3637732D02*
G36*
X12839352D01*
X13175584Y3301500*
X14239708*
Y3526500*
X13907008*
Y3637732*
G37*
X4415660Y3814500D02*
G36*
X4121508D01*
Y3798999*
Y3798998*
G75*
G02X4100008Y3777500I-21500*
G01*
X4045008*
G75*
G02X4023508Y3798999J21499*
G01*
Y3814500*
X3989748*
Y3799000*
G75*
G02X3977488Y3782871I-16739*
G01*
Y3738240*
X3981758*
G75*
G02X3998498Y3721500J-16740*
G01*
Y3637732*
X4060758*
Y3721501*
Y3721502*
G75*
G02X4082258Y3743000I21500*
G01*
X4172258*
G75*
G02X4193758Y3721501J-21499*
G01*
Y3637732*
X5420776*
X5407008Y3651500*
X4582008*
X4424863Y3808645*
G75*
G02X4415660Y3814500I132141J217862*
G01*
G37*
X3774268D02*
G36*
X3735748D01*
Y3799000*
G75*
G02X3719008Y3782260I-16740*
G01*
X3664008*
G75*
G02X3647268Y3799000J16740*
G01*
Y3814500*
X2770008*
X2593240Y3637732*
X3781448*
Y3785258*
G75*
G02X3774268Y3799000I9561J13742*
G01*
Y3814500*
G37*
X3875018Y3637732D02*
G36*
Y3721500D01*
G75*
G02X3891758Y3738240I16740*
G01*
X3913528*
Y3782871*
G75*
G02X3901268Y3799000I4479J16129*
G01*
Y3814500*
X3862748*
Y3799000*
G75*
G02X3855568Y3785258I-16741*
G01*
Y3637732*
X3875018*
G37*
X10610073D02*
G36*
Y3814500D01*
X10098356*
G75*
G02X10089153Y3808645I-141344J212007*
G01*
X9932008Y3651500*
X7657008*
X7643240Y3637732*
X10610073*
G37*
X12702200D02*
G36*
X12525432Y3814500D01*
X12237914*
G75*
G02X12174777Y3773477I-50906J9249*
G01*
X12039032Y3637732*
X12702200*
G37*
X12136102Y3814500D02*
G36*
X11497998D01*
Y3775045*
Y3775043*
G75*
G02X11493095Y3763209I-16733*
G01*
X11437299Y3707413*
G75*
G02X11425423Y3702510I-11838J11840*
G01*
X11346593*
G75*
G02X11334717Y3707413I-38J16743*
G01*
X11278921Y3763209*
G75*
G02X11274018Y3775043I11830J11834*
G01*
Y3775045*
Y3814500*
X11243998*
Y3775045*
Y3775043*
G75*
G02X11239095Y3763209I-16733*
G01*
X11183299Y3707413*
G75*
G02X11171423Y3702510I-11838J11840*
G01*
X11092593*
G75*
G02X11080717Y3707413I-38J16743*
G01*
X11024921Y3763209*
G75*
G02X11020018Y3775043I11830J11834*
G01*
Y3775045*
Y3814500*
X10684193*
Y3648600*
X10695061Y3637732*
X11050862*
X11080717Y3667587*
G75*
G02X11092593Y3672490I11838J-11840*
G01*
X11171423*
G75*
G02X11183299Y3667587I38J-16743*
G01*
X11213154Y3637732*
X11298130*
X11331351Y3670953*
G75*
G02X11346665Y3677250I15201J-15199*
G01*
X11425351*
G75*
G02X11440665Y3670953I113J-21496*
G01*
X11473886Y3637732*
X11962948*
X12136735Y3811519*
G75*
G02X12136102Y3814500I50251J12228*
G01*
G37*
X13907008D02*
G36*
X12662584D01*
X12839352Y3637732*
X13907008*
Y3814500*
G37*
Y4068500D02*
G36*
X12408584D01*
X12662584Y3814500*
X13907008*
Y4068500*
G37*
X4415660Y3814500D02*
G36*
G75*
G02X4339153Y3894355I141344J211995D01*
G01*
X4207008Y4026500*
X2982008*
X2770008Y3814500*
X3647268*
Y3859440*
X3622500*
G75*
G02X3534655Y3896500I-36105J37060*
G01*
G75*
G02X3622500Y3933560I51740*
G01*
X3647268*
Y3994000*
G75*
G02X3664008Y4010740I16740*
G01*
X3719008*
G75*
G02X3735748Y3994000J-16740*
G01*
Y3814500*
X3774268*
Y3994000*
G75*
G02X3791008Y4010740I16740*
G01*
X3846008*
G75*
G02X3862748Y3994000J-16740*
G01*
Y3814500*
X3901268*
Y3994000*
G75*
G02X3918008Y4010740I16740*
G01*
X3973008*
G75*
G02X3989748Y3994000J-16740*
G01*
Y3814500*
X4023508*
Y3994001*
Y3994002*
G75*
G02X4045008Y4015500I21500*
G01*
X4100008*
G75*
G02X4121508Y3994001J-21499*
G01*
Y3814500*
X4415660*
G37*
X10610073Y4068500D02*
G36*
X10349008D01*
X10174863Y3894355*
G75*
G02X10098356Y3814500I-217851J132140*
G01*
X10610073*
Y4068500*
G37*
X12525432Y3814500D02*
G36*
X12279720Y4060212D01*
G75*
G02X12273076Y4068500I34277J34285*
G01*
X11595168*
X11569104Y4042436*
G75*
G02X11542758Y4031440I-26345J26062*
G01*
X11497998*
Y4029045*
Y4029043*
G75*
G02X11493095Y4017209I-16733*
G01*
X11437299Y3961413*
G75*
G02X11425423Y3956510I-11838J11840*
G01*
X11346593*
G75*
G02X11334717Y3961413I-38J16743*
G01*
X11278921Y4017209*
G75*
G02X11274018Y4029043I11830J11834*
G01*
Y4029045*
Y4068500*
X11243998*
Y3973250*
G75*
G02X11227258Y3956510I-16740*
G01*
X11036758*
G75*
G02X11020018Y3973250J16740*
G01*
Y4068500*
X10684193*
Y3814500*
X11020018*
Y3853955*
Y3853957*
G75*
G02X11024921Y3865791I16733*
G01*
X11080717Y3921587*
G75*
G02X11092593Y3926490I11838J-11840*
G01*
X11171423*
G75*
G02X11183299Y3921587I38J-16743*
G01*
X11239095Y3865791*
G75*
G02X11243998Y3853957I-11830J-11834*
G01*
Y3853955*
Y3814500*
X11274018*
Y3853955*
Y3853957*
G75*
G02X11278921Y3865791I16733*
G01*
X11334717Y3921587*
G75*
G02X11346593Y3926490I11838J-11840*
G01*
X11425423*
G75*
G02X11437299Y3921587I38J-16743*
G01*
X11493095Y3865791*
G75*
G02X11497998Y3853957I-11830J-11834*
G01*
Y3853955*
Y3814500*
X12136102*
G75*
G02X12135268Y3823750I50886J9251*
G01*
G75*
G02X12238748I51740*
G01*
G75*
G02X12237914Y3814500I-51741J2*
G01*
X12525432*
G37*
X14239708Y4364500D02*
G36*
X14198758D01*
Y4325043*
G75*
G02X14192461Y4309843I-21500J3*
G01*
X14136665Y4254047*
G75*
G02X14121351Y4247750I-15201J15199*
G01*
X14042665*
G75*
G02X14027351Y4254047I-113J21496*
G01*
X13971555Y4309843*
G75*
G02X13965258Y4325043I15203J15203*
G01*
Y4364500*
X12363564*
G75*
G02X12362498Y4361327I-49555J14883*
G01*
Y4114586*
X12408584Y4068500*
X13907008*
Y4226500*
X14239708*
Y4364500*
G37*
X10598222D02*
G36*
X10407008D01*
Y4126500*
X10349008Y4068500*
X10610073*
Y4311520*
G75*
G02X10595393Y4347623I37055J36103*
G01*
Y4347625*
G75*
G02X10598222Y4364500I51740J1*
G01*
G37*
X11786348D02*
G36*
X11286238D01*
G75*
G02X11286248Y4363500I-51731J-1017*
G01*
G75*
G02X11182768I-51740*
G01*
G75*
G02X11182778Y4364500I51741J-17*
G01*
X10696044*
G75*
G02X10698873Y4347625I-48911J-16874*
G01*
Y4347623*
G75*
G02X10684193Y4311520I-51735*
G01*
Y4068500*
X11020018*
Y4163750*
G75*
G02X11036758Y4180490I16740*
G01*
X11227258*
G75*
G02X11243998Y4163750J-16740*
G01*
Y4068500*
X11274018*
Y4107955*
Y4107957*
G75*
G02X11278921Y4119791I16733*
G01*
X11334717Y4175587*
G75*
G02X11346593Y4180490I11838J-11840*
G01*
X11425423*
G75*
G02X11437299Y4175587I38J-16743*
G01*
X11493095Y4119791*
G75*
G02X11497998Y4107957I-11830J-11834*
G01*
Y4107955*
Y4105560*
X11527408*
X11786348Y4364500*
G37*
X12273076Y4068500D02*
G36*
G75*
G02X12265517Y4094496I40921J25996D01*
G01*
Y4094498*
Y4094500*
Y4094558*
Y4094602*
X12265518Y4094732*
Y4358724*
X12259742Y4364500*
X11891168*
X11595168Y4068500*
X12273076*
G37*
X14239708Y4618500D02*
G36*
X14193998D01*
Y4579045*
Y4579043*
G75*
G02X14189095Y4567209I-16733*
G01*
X14133299Y4511413*
G75*
G02X14121423Y4506510I-11838J11840*
G01*
X14042593*
G75*
G02X14030717Y4511413I-38J16743*
G01*
X13974921Y4567209*
G75*
G02X13970018Y4579043I11830J11834*
G01*
Y4579045*
Y4618500*
X11261408*
Y4407697*
G75*
G02X11286238Y4364500I-26901J-44198*
G01*
X11786348*
X11897147Y4475299*
G75*
G02X11965818Y4523515I51735J-673*
G01*
X12218674*
G75*
G02X12253327Y4509196I86J-48884*
G01*
X12336604Y4425920*
G75*
G02X12365748Y4379375I-22595J-46545*
G01*
G75*
G02X12363564Y4364500I-51737J-2*
G01*
X13965258*
Y4403957*
G75*
G02X13971555Y4419157I21500J-3*
G01*
X14027351Y4474953*
G75*
G02X14042665Y4481250I15201J-15199*
G01*
X14121351*
G75*
G02X14136665Y4474953I113J-21496*
G01*
X14192461Y4419157*
G75*
G02X14198758Y4403957I-15203J-15203*
G01*
Y4364500*
X14239708*
Y4618500*
G37*
X11182778Y4364500D02*
G36*
G75*
G02X11207608Y4407697I51731J-1001D01*
G01*
Y4618500*
X10407008*
Y4364500*
X10598222*
G75*
G02X10696044I48911J-16875*
G01*
X11182778*
G37*
X12259742D02*
G36*
X12198506Y4425735D01*
X11965818*
G75*
G02X11949557Y4422889I-16932J48864*
G01*
X11891168Y4364500*
X12259742*
G37*
X14239708Y4872500D02*
G36*
X14193998D01*
Y4833045*
Y4833043*
G75*
G02X14189095Y4821209I-16733*
G01*
X14133299Y4765413*
G75*
G02X14121423Y4760510I-11838J11840*
G01*
X14042593*
G75*
G02X14030717Y4765413I-38J16743*
G01*
X13974921Y4821209*
G75*
G02X13970018Y4833043I11830J11834*
G01*
Y4833045*
Y4872500*
X11727498*
Y4760048*
G75*
G02X11730748Y4742000I-48490J-18048*
G01*
G75*
G02X11627268I-51740*
G01*
G75*
G02X11630518Y4760048I51740*
G01*
Y4872500*
X11400550*
X11261408Y4733358*
Y4618500*
X13970018*
Y4657955*
Y4657957*
G75*
G02X13974921Y4669791I16733*
G01*
X14030717Y4725587*
G75*
G02X14042593Y4730490I11838J-11840*
G01*
X14121423*
G75*
G02X14133299Y4725587I38J-16743*
G01*
X14189095Y4669791*
G75*
G02X14193998Y4657957I-11830J-11834*
G01*
Y4657955*
Y4618500*
X14239708*
Y4872500*
G37*
X11324466D02*
G36*
X10478008D01*
X10407008Y4801500*
Y4618500*
X11207608*
Y4744500*
G75*
G02X11215568Y4763602I26905J-2*
G01*
X11324466Y4872500*
G37*
X14239708Y5126500D02*
G36*
X14193998D01*
Y5031250*
G75*
G02X14177258Y5014510I-16740*
G01*
X13986758*
G75*
G02X13970018Y5031250J16740*
G01*
Y5126500*
X11654550*
X11400550Y4872500*
X11630518*
Y4932827*
G75*
G02X11627268Y4950875I48490J18048*
G01*
G75*
G02X11730748I51740*
G01*
G75*
G02X11727498Y4932827I-51740*
G01*
Y4872500*
X13970018*
Y4911955*
Y4911957*
G75*
G02X13974921Y4923791I16733*
G01*
X14030717Y4979587*
G75*
G02X14042593Y4984490I11838J-11840*
G01*
X14121423*
G75*
G02X14133299Y4979587I38J-16743*
G01*
X14189095Y4923791*
G75*
G02X14193998Y4911957I-11830J-11834*
G01*
Y4911955*
Y4872500*
X14239708*
Y5126500*
G37*
X11578466D02*
G36*
X10732008D01*
X10478008Y4872500*
X11324466*
X11578466Y5126500*
G37*
X12600568Y5759200D02*
G36*
X11364708D01*
X10732008Y5126500*
X11578466*
X11644031Y5192065*
G75*
G02X11663133Y5200025I19104J-18945*
G01*
X12217491*
X12595018Y5577552*
Y5746750*
G75*
G02X12600568Y5759200I16739*
G01*
G37*
X14193998Y5126500D02*
G36*
X14239708D01*
Y5459200*
X13207008*
G75*
G02X13139708Y5526499J67299*
G01*
Y5526500*
Y5759200*
X13018418*
X13071461Y5706157*
G75*
G02X13077758Y5690957I-15203J-15203*
G01*
Y5612043*
G75*
G02X13071461Y5596843I-21500J3*
G01*
X13015665Y5541047*
G75*
G02X13000351Y5534750I-15201J15199*
G01*
X12921665*
G75*
G02X12906351Y5541047I-113J21496*
G01*
X12850555Y5596843*
G75*
G02X12844258Y5612043I15203J15203*
G01*
Y5690957*
G75*
G02X12850555Y5706157I21500J-3*
G01*
X12903598Y5759200*
X12813448*
G75*
G02X12818998Y5746750I-11189J-12450*
G01*
Y5556250*
G75*
G02X12802258Y5539510I-16740*
G01*
X12633060*
X12247735Y5154185*
G75*
G02X12228633Y5146225I-19104J18945*
G01*
X11674275*
X11654550Y5126500*
X13970018*
Y5221750*
G75*
G02X13986758Y5238490I16740*
G01*
X14177258*
G75*
G02X14193998Y5221750J-16740*
G01*
Y5126500*
G37*
D02*
D173*
X3608452Y3080901D02*
X3571952D01*
X3623342Y1076500D02*
X3600508D01*
X3693452Y2995901D02*
Y2959401D01*
Y3165901D02*
Y3202401D01*
X3707008Y992834D02*
Y970000D01*
Y1160166D02*
Y1183000D01*
X3778452Y3080901D02*
X3814952D01*
X3790674Y1076500D02*
X3813508D01*
X4060008Y3896500D02*
X4010008D01*
X4072508Y3814000D02*
Y3764000D01*
X4085008Y3896500D02*
X4135008D01*
X4097258Y3651500D02*
X4047258D01*
X4127258Y3596500D02*
Y3546500D01*
Y3706500D02*
Y3756500D01*
X4157258Y3651500D02*
X4207258D01*
X4273342Y1076500D02*
X4250508D01*
X4357008Y992834D02*
Y970000D01*
Y1160166D02*
Y1183000D01*
X4440674Y1076500D02*
X4463508D01*
X6507008Y2551500D02*
X6457008D01*
X6582008Y2491500D02*
Y2441500D01*
Y2611500D02*
Y2661500D01*
X6657008Y2551500D02*
X6707008D01*
X6848342Y251500D02*
X6825508D01*
X6932008Y335166D02*
Y358000D01*
X7015674Y251500D02*
X7038508D01*
X7498342D02*
X7475508D01*
X7582008Y335166D02*
Y358000D01*
X7665674Y251500D02*
X7688508D01*
X7982008Y3301500D02*
X7932008D01*
X8057008Y3241500D02*
Y3191500D01*
Y3361500D02*
Y3411500D01*
X8132008Y3301500D02*
X8182008D01*
X10073342Y1076500D02*
X10050508D01*
X10157008Y992834D02*
Y970000D01*
Y1160166D02*
Y1183000D01*
X10240674Y1076500D02*
X10263508D01*
X10723342D02*
X10700508D01*
X10807008Y992834D02*
Y970000D01*
Y1160166D02*
Y1183000D01*
X10890674Y1076500D02*
X10913508D01*
X11291008Y1657439D02*
Y1621250D01*
Y1845561D02*
Y1881750D01*
X11323342Y2501500D02*
X11300508D01*
X11323342Y3151500D02*
X11300508D01*
X11407008Y2417834D02*
Y2395000D01*
Y2585166D02*
Y2608000D01*
Y3067834D02*
Y3045000D01*
Y3235166D02*
Y3258000D01*
X11480069Y3560500D02*
X11516258D01*
X11490674Y2501500D02*
X11513508D01*
X11490674Y3151500D02*
X11513508D01*
X11790008Y1157439D02*
Y1121250D01*
Y1345561D02*
Y1381750D01*
X12961008Y5557439D02*
Y5521250D01*
X13055069Y5651500D02*
X13091258D01*
X13765008Y2607439D02*
Y2571250D01*
Y2795561D02*
Y2831750D01*
Y3057439D02*
Y3021250D01*
Y3245561D02*
Y3281750D01*
X13859069Y2701500D02*
X13895258D01*
X13859069Y3151500D02*
X13895258D01*
X13987947Y4364500D02*
X13951758D01*
X14176069D02*
X14212258D01*
D02*
D235*
X882008Y5460700D02*
Y4976500D01*
X1482008Y4376500*
X3732008*
X3807008Y4451500*
Y4751500*
X2822808Y5735700*
X1397808*
Y5551500*
G75*
G02X1307008Y5460700I-90800*
G01*
X882008*
G36*
Y4976500*
X1482008Y4376500*
X3732008*
X3807008Y4451500*
Y4751500*
X2822808Y5735700*
X1397808*
Y5551500*
G75*
G02X1307008Y5460700I-90800*
G01*
X882008*
G37*
X3957008Y5001500D02*
Y4426500D01*
X4007008Y4376500*
X5182008*
X5682008Y4876500*
X5747620*
G75*
G02X5752008Y4876740I4388J-39996*
G01*
X5902008*
G75*
G02X5906396Y4876500J-40236*
G01*
X6207620*
G75*
G02X6212008Y4876740I4388J-39996*
G01*
X6362008*
G75*
G02X6366396Y4876500J-40236*
G01*
X6782008*
X7132008Y4526500*
X8482008*
X8532008Y4576500*
Y5701500*
X8497808Y5735700*
X4691208*
X3957008Y5001500*
G36*
Y4426500*
X4007008Y4376500*
X5182008*
X5682008Y4876500*
X5747620*
G75*
G02X5752008Y4876740I4388J-39996*
G01*
X5902008*
G75*
G02X5906396Y4876500J-40236*
G01*
X6207620*
G75*
G02X6212008Y4876740I4388J-39996*
G01*
X6362008*
G75*
G02X6366396Y4876500J-40236*
G01*
X6782008*
X7132008Y4526500*
X8482008*
X8532008Y4576500*
Y5701500*
X8497808Y5735700*
X4691208*
X3957008Y5001500*
G37*
X6132008Y4701500D02*
Y4226500D01*
X6282008Y4076500*
X6532008*
X6781768Y4326260*
Y4391500*
G75*
G02X6782008Y4395888I40237*
G01*
Y4726500*
X6732008Y4776500*
X6207008*
X6132008Y4701500*
G36*
Y4226500*
X6282008Y4076500*
X6532008*
X6781768Y4326260*
Y4391500*
G75*
G02X6782008Y4395888I40237*
G01*
Y4726500*
X6732008Y4776500*
X6207008*
X6132008Y4701500*
G37*
X8932008Y5735700D02*
Y5226500D01*
X9007008Y5151500*
X9407008*
X9507008Y5051500*
X10107008*
X10232008Y5176500*
Y5735700*
X8932008*
G36*
Y5226500*
X9007008Y5151500*
X9407008*
X9507008Y5051500*
X10107008*
X10232008Y5176500*
Y5735700*
X8932008*
G37*
D02*
D348*
X520564Y2772099D03*
X1116038Y4174948D03*
X3396496Y2381317D03*
X3693452Y3080901D03*
D02*
D373*
X11132008Y4068500D03*
X11282008Y1251500D03*
X12307008Y1751500D03*
X12707008Y5651500D03*
X12857008Y2276500D03*
X13257008Y2701500D03*
Y3151500D03*
X14082008Y5126500D03*
D02*
D374*
X11132008Y3560500D03*
Y3814500D03*
X11291008Y1751500D03*
X11386008Y3560500D03*
Y3814500D03*
Y4068500D03*
X11536008Y1251500D03*
X11545008Y1751500D03*
X11790008Y1251500D03*
X11799008Y1751500D03*
X12044008Y1251500D03*
X12053008Y1751500D03*
X12298008Y1251500D03*
X12961008Y5651500D03*
X13111008Y2276500D03*
X13511008Y2701500D03*
Y3151500D03*
X13765008Y2701500D03*
Y3151500D03*
X14082008Y4110500D03*
Y4364500D03*
Y4618500D03*
Y4872500D03*
D02*
D375*
X3707008Y1076500D03*
Y1526500D03*
X3855008Y1876500D03*
X4109008D03*
X4357008Y1076500D03*
Y1526500D03*
X6932008Y251500D03*
Y701500D03*
X7105008Y1001500D03*
X7359008D03*
X7582008Y251500D03*
Y701500D03*
X10157008Y1076500D03*
Y1526500D03*
X10280008Y1851500D03*
X10534008D03*
X10807008Y1076500D03*
Y1526500D03*
X10957008Y2501500D03*
Y3151500D03*
X11407008Y2501500D03*
Y3151500D03*
D02*
D388*
X2905034Y1345250D03*
Y1915250D03*
Y2485250D03*
Y3055250D03*
X3398668Y1060250D03*
Y2770250D03*
Y3340250D03*
X3586395Y3896500D03*
X3892302Y3055250D03*
X4090758Y3442750D03*
X4207508Y3873000D03*
X4385936Y2770250D03*
Y3340250D03*
X4398008Y3682500D03*
X4715508Y3555500D03*
X4842508Y3340250D03*
X5160008Y3555500D03*
X5287008Y3340250D03*
X5373204Y490250D03*
Y1060250D03*
Y1630250D03*
Y2200250D03*
Y2770250D03*
X5477508Y3492000D03*
X5668008Y3301500D03*
X5858508Y3111000D03*
X5866838Y1345250D03*
X6360472Y1060250D03*
Y1630250D03*
Y2200250D03*
Y2770250D03*
X6854106Y1345250D03*
X7001508Y2551500D03*
X7192008Y3111000D03*
X7249883Y2252125D03*
X7347740Y2770250D03*
X7395030Y2188625D03*
X7446008Y3365000D03*
X7636508Y3555500D03*
X7841374Y775250D03*
Y1345250D03*
Y2485250D03*
X8335008Y1060250D03*
Y1630250D03*
Y2770250D03*
X8652508Y3301500D03*
X8828642Y775250D03*
Y1345250D03*
Y2485250D03*
X9322276Y1630250D03*
Y2200250D03*
Y2770250D03*
Y3174500D03*
X9520008Y2093375D03*
X9615258Y2029875D03*
X9815910Y2485250D03*
X10113008Y3746000D03*
X10309544Y1060250D03*
Y1630250D03*
Y2200250D03*
Y2770250D03*
Y3340250D03*
Y3936500D03*
X10494008Y4762000D03*
X10647133Y4347625D03*
X10748008Y4190500D03*
Y5016000D03*
X10803178Y1915250D03*
Y2485250D03*
Y3055250D03*
Y3625250D03*
X11002008Y5270000D03*
X11234508Y4363500D03*
X11256008Y5524000D03*
X11296812Y2770250D03*
Y5050250D03*
X11679008Y4742000D03*
Y4950875D03*
X11790446Y5335250D03*
X11948883Y4474625D03*
X12081508Y4825500D03*
X12187008Y3823750D03*
X12208508Y2920500D03*
X12282258Y2276500D03*
X12284080Y1060250D03*
Y5050250D03*
Y5620250D03*
X12314008Y4379375D03*
X12679133Y2934750D03*
X12777714Y1345250D03*
Y1915250D03*
Y4195250D03*
Y4765250D03*
Y5335250D03*
X13271348Y1630250D03*
Y2200250D03*
Y3340250D03*
Y3910250D03*
Y5050250D03*
X13764982Y2485250D03*
Y3625250D03*
Y4195250D03*
Y5335250D03*
D02*
D422*
X3691508Y3896500D03*
Y4556500D03*
X3818508Y3896500D03*
Y4556500D03*
X3945508Y3896500D03*
Y4556500D03*
X4072508Y3896500D03*
Y4556500D03*
D02*
D423*
X8032008Y5126500D03*
D02*
D424*
X9177008Y4872500D03*
Y5380500D03*
D02*
D449*
X6982008Y4331500D03*
Y4971500D03*
X7357008Y4256500D03*
Y4896500D03*
X9907008Y4581500D03*
Y5221500D03*
D02*
D479*
X532008Y5176500D03*
X1082008D03*
X6607008Y4601500D03*
X10007008Y5576500D03*
D02*
D480*
X5762008Y4401500D03*
X6402008D03*
X0Y0D02*
M02*
