G04 GENERATED BY PULSONIX 8.5 GERBER.DLL 5907*
G04 #@! TF.Part,Single*
%FSLAX35Y35*%
%LPD*%
%MOMM*%
%ADD102C,0.10000*%
G04 #@! TA.AperFunction,ViaPad*
%ADD147C,0.40000*%
G04 #@! TA.AperFunction,WasherPad*
%ADD148C,3.25000*%
G04 #@! TA.AperFunction,ComponentPad*
%ADD151C,1.10000*%
%ADD152C,1.60000*%
%ADD154C,1.00000*%
%ADD218C,0.80000*%
X0Y0D02*
D02*
D102*
X565564Y2796805D02*
X565564Y2895628D01*
X647917*
X631446Y2846217D02*
X565564Y2846217D01*
Y2796805D02*
X647917Y2796805D01*
X617008Y5300029D02*
X617008Y5225912D01*
X625243Y5209441*
X641714Y5201206*
X674655*
X691126Y5209441*
X699361Y5225912*
Y5300029*
X1161038Y4199654D02*
X1161038Y4298477D01*
X1243391*
X1226920Y4249066D02*
X1161038Y4249066D01*
Y4199654D02*
X1243391Y4199654D01*
X1167008Y5300029D02*
X1167008Y5225912D01*
X1175243Y5209441*
X1191714Y5201206*
X1224655*
X1241126Y5209441*
X1249361Y5225912*
Y5300029*
X2930034Y1369956D02*
X2971210Y1468779D01*
X3012387Y1369956*
X2946505Y1411132D02*
X2995916Y1411132D01*
X2930034Y1939956D02*
X2971210Y2038779D01*
X3012387Y1939956*
X2946505Y1981132D02*
X2995916Y1981132D01*
X2930034Y2509956D02*
X2971210Y2608779D01*
X3012387Y2509956*
X2946505Y2551132D02*
X2995916Y2551132D01*
X2930034Y3079956D02*
X2971210Y3178779D01*
X3012387Y3079956*
X2946505Y3121132D02*
X2995916Y3121132D01*
X3423668Y1084956D02*
X3464844Y1183779D01*
X3506021Y1084956*
X3440139Y1126132D02*
X3489550Y1126132D01*
X3423668Y2794956D02*
X3464844Y2893779D01*
X3506021Y2794956*
X3440139Y2836132D02*
X3489550Y2836132D01*
X3423668Y3364956D02*
X3464844Y3463779D01*
X3506021Y3364956*
X3440139Y3406132D02*
X3489550Y3406132D01*
X3441496Y2406023D02*
X3441496Y2504846D01*
X3523849*
X3507378Y2455435D02*
X3441496Y2455435D01*
Y2406023D02*
X3523849Y2406023D01*
X3611395Y3921206D02*
X3652571Y4020029D01*
X3693748Y3921206*
X3627866Y3962382D02*
X3677277Y3962382D01*
X3738452Y3105607D02*
X3738452Y3204430D01*
X3820805*
X3804334Y3155019D02*
X3738452Y3155019D01*
Y3105607D02*
X3820805Y3105607D01*
X3762008Y1101206D02*
X3794949Y1101206D01*
X3778479D02*
X3778479Y1200029D01*
X3762008D02*
X3794949Y1200029D01*
X3762008Y1551206D02*
X3794949Y1551206D01*
X3778479D02*
X3778479Y1650029D01*
X3762008D02*
X3794949Y1650029D01*
X3824508Y5551206D02*
X3824508Y5650029D01*
X3882155*
X3898626Y5641794*
X3906861Y5625324*
X3898626Y5608853*
X3882155Y5600618*
X3824508*
X3882155D02*
X3906861Y5551206D01*
X3910008Y1901206D02*
X3942949Y1901206D01*
X3926479D02*
X3926479Y2000029D01*
X3910008D02*
X3942949Y2000029D01*
X3917302Y3079956D02*
X3958478Y3178779D01*
X3999655Y3079956*
X3933773Y3121132D02*
X3983184Y3121132D01*
X4115758Y3467456D02*
X4156934Y3566279D01*
X4198111Y3467456*
X4132229Y3508632D02*
X4181640Y3508632D01*
X4164008Y1901206D02*
X4196949Y1901206D01*
X4180479D02*
X4180479Y2000029D01*
X4164008D02*
X4196949Y2000029D01*
X4232508Y3897706D02*
X4273684Y3996529D01*
X4314861Y3897706*
X4248979Y3938882D02*
X4298390Y3938882D01*
X4410936Y2794956D02*
X4452112Y2893779D01*
X4493289Y2794956*
X4427407Y2836132D02*
X4476818Y2836132D01*
X4410936Y3364956D02*
X4452112Y3463779D01*
X4493289Y3364956*
X4427407Y3406132D02*
X4476818Y3406132D01*
X4412008Y1101206D02*
X4444949Y1101206D01*
X4428479D02*
X4428479Y1200029D01*
X4412008D02*
X4444949Y1200029D01*
X4412008Y1551206D02*
X4444949Y1551206D01*
X4428479D02*
X4428479Y1650029D01*
X4412008D02*
X4444949Y1650029D01*
X4423008Y3707206D02*
X4464184Y3806029D01*
X4505361Y3707206*
X4439479Y3748382D02*
X4488890Y3748382D01*
X4740508Y3580206D02*
X4781684Y3679029D01*
X4822861Y3580206*
X4756979Y3621382D02*
X4806390Y3621382D01*
X4867508Y3364956D02*
X4908684Y3463779D01*
X4949861Y3364956*
X4883979Y3406132D02*
X4933390Y3406132D01*
X5185008Y3580206D02*
X5226184Y3679029D01*
X5267361Y3580206*
X5201479Y3621382D02*
X5250890Y3621382D01*
X5312008Y3364956D02*
X5353184Y3463779D01*
X5394361Y3364956*
X5328479Y3406132D02*
X5377890Y3406132D01*
X5398204Y514956D02*
X5439380Y613779D01*
X5480557Y514956*
X5414675Y556132D02*
X5464086Y556132D01*
X5398204Y1084956D02*
X5439380Y1183779D01*
X5480557Y1084956*
X5414675Y1126132D02*
X5464086Y1126132D01*
X5398204Y1654956D02*
X5439380Y1753779D01*
X5480557Y1654956*
X5414675Y1696132D02*
X5464086Y1696132D01*
X5398204Y2224956D02*
X5439380Y2323779D01*
X5480557Y2224956*
X5414675Y2266132D02*
X5464086Y2266132D01*
X5398204Y2794956D02*
X5439380Y2893779D01*
X5480557Y2794956*
X5414675Y2836132D02*
X5464086Y2836132D01*
X5502508Y3516706D02*
X5543684Y3615529D01*
X5584861Y3516706*
X5518979Y3557882D02*
X5568390Y3557882D01*
X5693008Y3326206D02*
X5734184Y3425029D01*
X5775361Y3326206*
X5709479Y3367382D02*
X5758890Y3367382D01*
X5883508Y3135706D02*
X5924684Y3234529D01*
X5965861Y3135706*
X5899979Y3176882D02*
X5949390Y3176882D01*
X5891838Y1369956D02*
X5933014Y1468779D01*
X5974191Y1369956*
X5908309Y1411132D02*
X5957720Y1411132D01*
X6385472Y1084956D02*
X6426648Y1183779D01*
X6467825Y1084956*
X6401943Y1126132D02*
X6451354Y1126132D01*
X6385472Y1654956D02*
X6426648Y1753779D01*
X6467825Y1654956*
X6401943Y1696132D02*
X6451354Y1696132D01*
X6385472Y2224956D02*
X6426648Y2323779D01*
X6467825Y2224956*
X6401943Y2266132D02*
X6451354Y2266132D01*
X6385472Y2794956D02*
X6426648Y2893779D01*
X6467825Y2794956*
X6401943Y2836132D02*
X6451354Y2836132D01*
X6692008Y4725029D02*
X6692008Y4650912D01*
X6700243Y4634441*
X6716714Y4626206*
X6749655*
X6766126Y4634441*
X6774361Y4650912*
Y4725029*
X6879106Y1369956D02*
X6920282Y1468779D01*
X6961459Y1369956*
X6895577Y1411132D02*
X6944988Y1411132D01*
X6987008Y276206D02*
X7019949Y276206D01*
X7003479D02*
X7003479Y375029D01*
X6987008D02*
X7019949Y375029D01*
X6987008Y726206D02*
X7019949Y726206D01*
X7003479D02*
X7003479Y825029D01*
X6987008D02*
X7019949Y825029D01*
X7026508Y2576206D02*
X7067684Y2675029D01*
X7108861Y2576206*
X7042979Y2617382D02*
X7092390Y2617382D01*
X7160008Y1026206D02*
X7192949Y1026206D01*
X7176479D02*
X7176479Y1125029D01*
X7160008D02*
X7192949Y1125029D01*
X7217008Y3135706D02*
X7258184Y3234529D01*
X7299361Y3135706*
X7233479Y3176882D02*
X7282890Y3176882D01*
X7274883Y2276831D02*
X7316059Y2375654D01*
X7357236Y2276831*
X7291354Y2318007D02*
X7340765Y2318007D01*
X7372740Y2794956D02*
X7413916Y2893779D01*
X7455093Y2794956*
X7389211Y2836132D02*
X7438622Y2836132D01*
X7414008Y1026206D02*
X7446949Y1026206D01*
X7430479D02*
X7430479Y1125029D01*
X7414008D02*
X7446949Y1125029D01*
X7420030Y2213331D02*
X7461206Y2312154D01*
X7502383Y2213331*
X7436501Y2254507D02*
X7485912Y2254507D01*
X7471008Y3389706D02*
X7512184Y3488529D01*
X7553361Y3389706*
X7487479Y3430882D02*
X7536890Y3430882D01*
X7637008Y276206D02*
X7669949Y276206D01*
X7653479D02*
X7653479Y375029D01*
X7637008D02*
X7669949Y375029D01*
X7637008Y726206D02*
X7669949Y726206D01*
X7653479D02*
X7653479Y825029D01*
X7637008D02*
X7669949Y825029D01*
X7661508Y3580206D02*
X7702684Y3679029D01*
X7743861Y3580206*
X7677979Y3621382D02*
X7727390Y3621382D01*
X7866374Y799956D02*
X7907550Y898779D01*
X7948727Y799956*
X7882845Y841132D02*
X7932256Y841132D01*
X7866374Y1369956D02*
X7907550Y1468779D01*
X7948727Y1369956*
X7882845Y1411132D02*
X7932256Y1411132D01*
X7866374Y2509956D02*
X7907550Y2608779D01*
X7948727Y2509956*
X7882845Y2551132D02*
X7932256Y2551132D01*
X8360008Y1084956D02*
X8401184Y1183779D01*
X8442361Y1084956*
X8376479Y1126132D02*
X8425890Y1126132D01*
X8360008Y1654956D02*
X8401184Y1753779D01*
X8442361Y1654956*
X8376479Y1696132D02*
X8425890Y1696132D01*
X8360008Y2794956D02*
X8401184Y2893779D01*
X8442361Y2794956*
X8376479Y2836132D02*
X8425890Y2836132D01*
X8677508Y3326206D02*
X8718684Y3425029D01*
X8759861Y3326206*
X8693979Y3367382D02*
X8743390Y3367382D01*
X8853642Y799956D02*
X8894818Y898779D01*
X8935995Y799956*
X8870113Y841132D02*
X8919524Y841132D01*
X8853642Y1369956D02*
X8894818Y1468779D01*
X8935995Y1369956*
X8870113Y1411132D02*
X8919524Y1411132D01*
X8853642Y2509956D02*
X8894818Y2608779D01*
X8935995Y2509956*
X8870113Y2551132D02*
X8919524Y2551132D01*
X9347276Y1654956D02*
X9388452Y1753779D01*
X9429629Y1654956*
X9363747Y1696132D02*
X9413158Y1696132D01*
X9347276Y2224956D02*
X9388452Y2323779D01*
X9429629Y2224956*
X9363747Y2266132D02*
X9413158Y2266132D01*
X9347276Y2794956D02*
X9388452Y2893779D01*
X9429629Y2794956*
X9363747Y2836132D02*
X9413158Y2836132D01*
X9347276Y3199206D02*
X9388452Y3298029D01*
X9429629Y3199206*
X9363747Y3240382D02*
X9413158Y3240382D01*
X9545008Y2118081D02*
X9586184Y2216904D01*
X9627361Y2118081*
X9561479Y2159257D02*
X9610890Y2159257D01*
X9640258Y2054581D02*
X9681434Y2153404D01*
X9722611Y2054581*
X9656729Y2095757D02*
X9706140Y2095757D01*
X9840910Y2509956D02*
X9882086Y2608779D01*
X9923263Y2509956*
X9857381Y2551132D02*
X9906792Y2551132D01*
X10092008Y5700029D02*
X10092008Y5625912D01*
X10100243Y5609441*
X10116714Y5601206*
X10149655*
X10166126Y5609441*
X10174361Y5625912*
Y5700029*
X10138008Y3770706D02*
X10179184Y3869529D01*
X10220361Y3770706*
X10154479Y3811882D02*
X10203890Y3811882D01*
X10212008Y1101206D02*
X10244949Y1101206D01*
X10228479D02*
X10228479Y1200029D01*
X10212008D02*
X10244949Y1200029D01*
X10212008Y1551206D02*
X10244949Y1551206D01*
X10228479D02*
X10228479Y1650029D01*
X10212008D02*
X10244949Y1650029D01*
X10334544Y1084956D02*
X10375720Y1183779D01*
X10416897Y1084956*
X10351015Y1126132D02*
X10400426Y1126132D01*
X10334544Y1654956D02*
X10375720Y1753779D01*
X10416897Y1654956*
X10351015Y1696132D02*
X10400426Y1696132D01*
X10334544Y2224956D02*
X10375720Y2323779D01*
X10416897Y2224956*
X10351015Y2266132D02*
X10400426Y2266132D01*
X10334544Y2794956D02*
X10375720Y2893779D01*
X10416897Y2794956*
X10351015Y2836132D02*
X10400426Y2836132D01*
X10334544Y3364956D02*
X10375720Y3463779D01*
X10416897Y3364956*
X10351015Y3406132D02*
X10400426Y3406132D01*
X10334544Y3961206D02*
X10375720Y4060029D01*
X10416897Y3961206*
X10351015Y4002382D02*
X10400426Y4002382D01*
X10335008Y1876206D02*
X10367949Y1876206D01*
X10351479D02*
X10351479Y1975029D01*
X10335008D02*
X10367949Y1975029D01*
X10519008Y4786706D02*
X10560184Y4885529D01*
X10601361Y4786706*
X10535479Y4827882D02*
X10584890Y4827882D01*
X10589008Y1876206D02*
X10621949Y1876206D01*
X10605479D02*
X10605479Y1975029D01*
X10589008D02*
X10621949Y1975029D01*
X10672133Y4372331D02*
X10713309Y4471154D01*
X10754486Y4372331*
X10688604Y4413507D02*
X10738015Y4413507D01*
X10773008Y4215206D02*
X10814184Y4314029D01*
X10855361Y4215206*
X10789479Y4256382D02*
X10838890Y4256382D01*
X10773008Y5040706D02*
X10814184Y5139529D01*
X10855361Y5040706*
X10789479Y5081882D02*
X10838890Y5081882D01*
X10828178Y1939956D02*
X10869354Y2038779D01*
X10910531Y1939956*
X10844649Y1981132D02*
X10894060Y1981132D01*
X10828178Y2509956D02*
X10869354Y2608779D01*
X10910531Y2509956*
X10844649Y2551132D02*
X10894060Y2551132D01*
X10828178Y3079956D02*
X10869354Y3178779D01*
X10910531Y3079956*
X10844649Y3121132D02*
X10894060Y3121132D01*
X10828178Y3649956D02*
X10869354Y3748779D01*
X10910531Y3649956*
X10844649Y3691132D02*
X10894060Y3691132D01*
X10862008Y1101206D02*
X10894949Y1101206D01*
X10878479D02*
X10878479Y1200029D01*
X10862008D02*
X10894949Y1200029D01*
X10862008Y1551206D02*
X10894949Y1551206D01*
X10878479D02*
X10878479Y1650029D01*
X10862008D02*
X10894949Y1650029D01*
X11012008Y2526206D02*
X11044949Y2526206D01*
X11028479D02*
X11028479Y2625029D01*
X11012008D02*
X11044949Y2625029D01*
X11012008Y3176206D02*
X11044949Y3176206D01*
X11028479D02*
X11028479Y3275029D01*
X11012008D02*
X11044949Y3275029D01*
X11024508Y5551206D02*
X11024508Y5650029D01*
X11082155*
X11098626Y5641794*
X11106861Y5625324*
X11098626Y5608853*
X11082155Y5600618*
X11024508*
X11082155D02*
X11106861Y5551206D01*
X11027008Y5294706D02*
X11068184Y5393529D01*
X11109361Y5294706*
X11043479Y5335882D02*
X11092890Y5335882D01*
X11192008Y3601676D02*
X11200243Y3593441D01*
X11216714Y3585206*
X11233184Y3593441*
X11241420Y3601676*
Y3684029*
X11257890*
X11241420D02*
X11208479Y3684029D01*
X11192008Y3855676D02*
X11200243Y3847441D01*
X11216714Y3839206*
X11233184Y3847441*
X11241420Y3855676*
Y3938029*
X11257890*
X11241420D02*
X11208479Y3938029D01*
X11192008Y4109676D02*
X11200243Y4101441D01*
X11216714Y4093206*
X11233184Y4101441*
X11241420Y4109676*
Y4192029*
X11257890*
X11241420D02*
X11208479Y4192029D01*
X11259508Y4388206D02*
X11300684Y4487029D01*
X11341861Y4388206*
X11275979Y4429382D02*
X11325390Y4429382D01*
X11281008Y5548706D02*
X11322184Y5647529D01*
X11363361Y5548706*
X11297479Y5589882D02*
X11346890Y5589882D01*
X11321812Y2794956D02*
X11362988Y2893779D01*
X11404165Y2794956*
X11338283Y2836132D02*
X11387694Y2836132D01*
X11321812Y5074956D02*
X11362988Y5173779D01*
X11404165Y5074956*
X11338283Y5116132D02*
X11387694Y5116132D01*
X11342008Y1292676D02*
X11350243Y1284441D01*
X11366714Y1276206*
X11383184Y1284441*
X11391420Y1292676*
Y1375029*
X11407890*
X11391420D02*
X11358479Y1375029D01*
X11351008Y1792676D02*
X11359243Y1784441D01*
X11375714Y1776206*
X11392184Y1784441*
X11400420Y1792676*
Y1875029*
X11416890*
X11400420D02*
X11367479Y1875029D01*
X11446008Y3601676D02*
X11454243Y3593441D01*
X11470714Y3585206*
X11487184Y3593441*
X11495420Y3601676*
Y3684029*
X11511890*
X11495420D02*
X11462479Y3684029D01*
X11446008Y3855676D02*
X11454243Y3847441D01*
X11470714Y3839206*
X11487184Y3847441*
X11495420Y3855676*
Y3938029*
X11511890*
X11495420D02*
X11462479Y3938029D01*
X11446008Y4109676D02*
X11454243Y4101441D01*
X11470714Y4093206*
X11487184Y4101441*
X11495420Y4109676*
Y4192029*
X11511890*
X11495420D02*
X11462479Y4192029D01*
X11462008Y2526206D02*
X11494949Y2526206D01*
X11478479D02*
X11478479Y2625029D01*
X11462008D02*
X11494949Y2625029D01*
X11462008Y3176206D02*
X11494949Y3176206D01*
X11478479D02*
X11478479Y3275029D01*
X11462008D02*
X11494949Y3275029D01*
X11596008Y1292676D02*
X11604243Y1284441D01*
X11620714Y1276206*
X11637184Y1284441*
X11645420Y1292676*
Y1375029*
X11661890*
X11645420D02*
X11612479Y1375029D01*
X11605008Y1792676D02*
X11613243Y1784441D01*
X11629714Y1776206*
X11646184Y1784441*
X11654420Y1792676*
Y1875029*
X11670890*
X11654420D02*
X11621479Y1875029D01*
X11704008Y4766706D02*
X11745184Y4865529D01*
X11786361Y4766706*
X11720479Y4807882D02*
X11769890Y4807882D01*
X11704008Y4975581D02*
X11745184Y5074404D01*
X11786361Y4975581*
X11720479Y5016757D02*
X11769890Y5016757D01*
X11815446Y5359956D02*
X11856622Y5458779D01*
X11897799Y5359956*
X11831917Y5401132D02*
X11881328Y5401132D01*
X11850008Y1292676D02*
X11858243Y1284441D01*
X11874714Y1276206*
X11891184Y1284441*
X11899420Y1292676*
Y1375029*
X11915890*
X11899420D02*
X11866479Y1375029D01*
X11859008Y1792676D02*
X11867243Y1784441D01*
X11883714Y1776206*
X11900184Y1784441*
X11908420Y1792676*
Y1875029*
X11924890*
X11908420D02*
X11875479Y1875029D01*
X11973883Y4499331D02*
X12015059Y4598154D01*
X12056236Y4499331*
X11990354Y4540507D02*
X12039765Y4540507D01*
X12104008Y1292676D02*
X12112243Y1284441D01*
X12128714Y1276206*
X12145184Y1284441*
X12153420Y1292676*
Y1375029*
X12169890*
X12153420D02*
X12120479Y1375029D01*
X12106508Y4850206D02*
X12147684Y4949029D01*
X12188861Y4850206*
X12122979Y4891382D02*
X12172390Y4891382D01*
X12113008Y1792676D02*
X12121243Y1784441D01*
X12137714Y1776206*
X12154184Y1784441*
X12162420Y1792676*
Y1875029*
X12178890*
X12162420D02*
X12129479Y1875029D01*
X12212008Y3848456D02*
X12253184Y3947279D01*
X12294361Y3848456*
X12228479Y3889632D02*
X12277890Y3889632D01*
X12233508Y2945206D02*
X12274684Y3044029D01*
X12315861Y2945206*
X12249979Y2986382D02*
X12299390Y2986382D01*
X12307258Y2301206D02*
X12348434Y2400029D01*
X12389611Y2301206*
X12323729Y2342382D02*
X12373140Y2342382D01*
X12309080Y1084956D02*
X12350256Y1183779D01*
X12391433Y1084956*
X12325551Y1126132D02*
X12374962Y1126132D01*
X12309080Y5074956D02*
X12350256Y5173779D01*
X12391433Y5074956*
X12325551Y5116132D02*
X12374962Y5116132D01*
X12309080Y5644956D02*
X12350256Y5743779D01*
X12391433Y5644956*
X12325551Y5686132D02*
X12374962Y5686132D01*
X12339008Y4404081D02*
X12380184Y4502904D01*
X12421361Y4404081*
X12355479Y4445257D02*
X12404890Y4445257D01*
X12358008Y1292676D02*
X12366243Y1284441D01*
X12382714Y1276206*
X12399184Y1284441*
X12407420Y1292676*
Y1375029*
X12423890*
X12407420D02*
X12374479Y1375029D01*
X12367008Y1792676D02*
X12375243Y1784441D01*
X12391714Y1776206*
X12408184Y1784441*
X12416420Y1792676*
Y1875029*
X12432890*
X12416420D02*
X12383479Y1875029D01*
X12704133Y2959456D02*
X12745309Y3058279D01*
X12786486Y2959456*
X12720604Y3000632D02*
X12770015Y3000632D01*
X12767008Y5692676D02*
X12775243Y5684441D01*
X12791714Y5676206*
X12808184Y5684441*
X12816420Y5692676*
Y5775029*
X12832890*
X12816420D02*
X12783479Y5775029D01*
X12802714Y1369956D02*
X12843890Y1468779D01*
X12885067Y1369956*
X12819185Y1411132D02*
X12868596Y1411132D01*
X12802714Y1939956D02*
X12843890Y2038779D01*
X12885067Y1939956*
X12819185Y1981132D02*
X12868596Y1981132D01*
X12802714Y4219956D02*
X12843890Y4318779D01*
X12885067Y4219956*
X12819185Y4261132D02*
X12868596Y4261132D01*
X12802714Y4789956D02*
X12843890Y4888779D01*
X12885067Y4789956*
X12819185Y4831132D02*
X12868596Y4831132D01*
X12802714Y5359956D02*
X12843890Y5458779D01*
X12885067Y5359956*
X12819185Y5401132D02*
X12868596Y5401132D01*
X12917008Y2317676D02*
X12925243Y2309441D01*
X12941714Y2301206*
X12958184Y2309441*
X12966420Y2317676*
Y2400029*
X12982890*
X12966420D02*
X12933479Y2400029D01*
X13021008Y5692676D02*
X13029243Y5684441D01*
X13045714Y5676206*
X13062184Y5684441*
X13070420Y5692676*
Y5775029*
X13086890*
X13070420D02*
X13037479Y5775029D01*
X13171008Y2317676D02*
X13179243Y2309441D01*
X13195714Y2301206*
X13212184Y2309441*
X13220420Y2317676*
Y2400029*
X13236890*
X13220420D02*
X13187479Y2400029D01*
X13296348Y1654956D02*
X13337524Y1753779D01*
X13378701Y1654956*
X13312819Y1696132D02*
X13362230Y1696132D01*
X13296348Y2224956D02*
X13337524Y2323779D01*
X13378701Y2224956*
X13312819Y2266132D02*
X13362230Y2266132D01*
X13296348Y3364956D02*
X13337524Y3463779D01*
X13378701Y3364956*
X13312819Y3406132D02*
X13362230Y3406132D01*
X13296348Y3934956D02*
X13337524Y4033779D01*
X13378701Y3934956*
X13312819Y3976132D02*
X13362230Y3976132D01*
X13296348Y5074956D02*
X13337524Y5173779D01*
X13378701Y5074956*
X13312819Y5116132D02*
X13362230Y5116132D01*
X13317008Y2742676D02*
X13325243Y2734441D01*
X13341714Y2726206*
X13358184Y2734441*
X13366420Y2742676*
Y2825029*
X13382890*
X13366420D02*
X13333479Y2825029D01*
X13317008Y3192676D02*
X13325243Y3184441D01*
X13341714Y3176206*
X13358184Y3184441*
X13366420Y3192676*
Y3275029*
X13382890*
X13366420D02*
X13333479Y3275029D01*
X13571008Y2742676D02*
X13579243Y2734441D01*
X13595714Y2726206*
X13612184Y2734441*
X13620420Y2742676*
Y2825029*
X13636890*
X13620420D02*
X13587479Y2825029D01*
X13571008Y3192676D02*
X13579243Y3184441D01*
X13595714Y3176206*
X13612184Y3184441*
X13620420Y3192676*
Y3275029*
X13636890*
X13620420D02*
X13587479Y3275029D01*
X13789982Y2509956D02*
X13831158Y2608779D01*
X13872335Y2509956*
X13806453Y2551132D02*
X13855864Y2551132D01*
X13789982Y3649956D02*
X13831158Y3748779D01*
X13872335Y3649956*
X13806453Y3691132D02*
X13855864Y3691132D01*
X13789982Y4219956D02*
X13831158Y4318779D01*
X13872335Y4219956*
X13806453Y4261132D02*
X13855864Y4261132D01*
X13789982Y5359956D02*
X13831158Y5458779D01*
X13872335Y5359956*
X13806453Y5401132D02*
X13855864Y5401132D01*
X13825008Y2742676D02*
X13833243Y2734441D01*
X13849714Y2726206*
X13866184Y2734441*
X13874420Y2742676*
Y2825029*
X13890890*
X13874420D02*
X13841479Y2825029D01*
X13825008Y3192676D02*
X13833243Y3184441D01*
X13849714Y3176206*
X13866184Y3184441*
X13874420Y3192676*
Y3275029*
X13890890*
X13874420D02*
X13841479Y3275029D01*
X14142008Y4151676D02*
X14150243Y4143441D01*
X14166714Y4135206*
X14183184Y4143441*
X14191420Y4151676*
Y4234029*
X14207890*
X14191420D02*
X14158479Y4234029D01*
X14142008Y4405676D02*
X14150243Y4397441D01*
X14166714Y4389206*
X14183184Y4397441*
X14191420Y4405676*
Y4488029*
X14207890*
X14191420D02*
X14158479Y4488029D01*
X14142008Y4659676D02*
X14150243Y4651441D01*
X14166714Y4643206*
X14183184Y4651441*
X14191420Y4659676*
Y4742029*
X14207890*
X14191420D02*
X14158479Y4742029D01*
X14142008Y4913676D02*
X14150243Y4905441D01*
X14166714Y4897206*
X14183184Y4905441*
X14191420Y4913676*
Y4996029*
X14207890*
X14191420D02*
X14158479Y4996029D01*
X14142008Y5167676D02*
X14150243Y5159441D01*
X14166714Y5151206*
X14183184Y5159441*
X14191420Y5167676*
Y5250029*
X14207890*
X14191420D02*
X14158479Y5250029D01*
D02*
D147*
X2905034Y1345250D03*
Y1915250D03*
Y2485250D03*
Y3055250D03*
X3398668Y1060250D03*
Y2770250D03*
Y3340250D03*
X3586395Y3896500D03*
X3892302Y3055250D03*
X4090758Y3442750D03*
X4207508Y3873000D03*
X4385936Y2770250D03*
Y3340250D03*
X4398008Y3682500D03*
X4715508Y3555500D03*
X4842508Y3340250D03*
X5160008Y3555500D03*
X5287008Y3340250D03*
X5373204Y490250D03*
Y1060250D03*
Y1630250D03*
Y2200250D03*
Y2770250D03*
X5477508Y3492000D03*
X5668008Y3301500D03*
X5858508Y3111000D03*
X5866838Y1345250D03*
X6360472Y1060250D03*
Y1630250D03*
Y2200250D03*
Y2770250D03*
X6854106Y1345250D03*
X7001508Y2551500D03*
X7192008Y3111000D03*
X7249883Y2252125D03*
X7347740Y2770250D03*
X7395030Y2188625D03*
X7446008Y3365000D03*
X7636508Y3555500D03*
X7841374Y775250D03*
Y1345250D03*
Y2485250D03*
X8335008Y1060250D03*
Y1630250D03*
Y2770250D03*
X8652508Y3301500D03*
X8828642Y775250D03*
Y1345250D03*
Y2485250D03*
X9322276Y1630250D03*
Y2200250D03*
Y2770250D03*
Y3174500D03*
X9520008Y2093375D03*
X9615258Y2029875D03*
X9815910Y2485250D03*
X10113008Y3746000D03*
X10309544Y1060250D03*
Y1630250D03*
Y2200250D03*
Y2770250D03*
Y3340250D03*
Y3936500D03*
X10494008Y4762000D03*
X10647133Y4347625D03*
X10748008Y4190500D03*
Y5016000D03*
X10803178Y1915250D03*
Y2485250D03*
Y3055250D03*
Y3625250D03*
X11002008Y5270000D03*
X11234508Y4363500D03*
X11256008Y5524000D03*
X11296812Y2770250D03*
Y5050250D03*
X11679008Y4742000D03*
Y4950875D03*
X11790446Y5335250D03*
X11948883Y4474625D03*
X12081508Y4825500D03*
X12187008Y3823750D03*
X12208508Y2920500D03*
X12282258Y2276500D03*
X12284080Y1060250D03*
Y5050250D03*
Y5620250D03*
X12314008Y4379375D03*
X12679133Y2934750D03*
X12777714Y1345250D03*
Y1915250D03*
Y4195250D03*
Y4765250D03*
Y5335250D03*
X13271348Y1630250D03*
Y2200250D03*
Y3340250D03*
Y3910250D03*
Y5050250D03*
X13764982Y2485250D03*
Y3625250D03*
Y4195250D03*
Y5335250D03*
D02*
D148*
X3657008Y5526500D03*
X10857008D03*
D02*
D151*
X11132008Y3560500D03*
Y3814500D03*
Y4068500D03*
X11282008Y1251500D03*
X11291008Y1751500D03*
X11386008Y3560500D03*
Y3814500D03*
Y4068500D03*
X11536008Y1251500D03*
X11545008Y1751500D03*
X11790008Y1251500D03*
X11799008Y1751500D03*
X12044008Y1251500D03*
X12053008Y1751500D03*
X12298008Y1251500D03*
X12307008Y1751500D03*
X12707008Y5651500D03*
X12857008Y2276500D03*
X12961008Y5651500D03*
X13111008Y2276500D03*
X13257008Y2701500D03*
Y3151500D03*
X13511008Y2701500D03*
Y3151500D03*
X13765008Y2701500D03*
Y3151500D03*
X14082008Y4110500D03*
Y4364500D03*
Y4618500D03*
Y4872500D03*
Y5126500D03*
D02*
D152*
X532008Y5176500D03*
X1082008D03*
X6607008Y4601500D03*
X10007008Y5576500D03*
D02*
D154*
X3707008Y1076500D03*
Y1526500D03*
X3855008Y1876500D03*
X4109008D03*
X4357008Y1076500D03*
Y1526500D03*
X6932008Y251500D03*
Y701500D03*
X7105008Y1001500D03*
X7359008D03*
X7582008Y251500D03*
Y701500D03*
X10157008Y1076500D03*
Y1526500D03*
X10280008Y1851500D03*
X10534008D03*
X10807008Y1076500D03*
Y1526500D03*
X10957008Y2501500D03*
Y3151500D03*
X11407008Y2501500D03*
Y3151500D03*
D02*
D218*
X520564Y2772099D03*
X1116038Y4174948D03*
X3396496Y2381317D03*
X3693452Y3080901D03*
X0Y0D02*
M02*
