G04 GENERATED BY PULSONIX 8.5 GERBER.DLL 5907*
G04 #@! TF.Part,Single*
%FSLAX35Y35*%
%LPD*%
%MOMM*%
G04 #@! TF.FileFunction,Legend,Top*
%ADD99C,0.00001*%
G04 #@! TA.AperFunction,NonMaterial*
%ADD101C,0.20320*%
%ADD103C,0.20000*%
G04 #@! TA.AperFunction,Profile*
%ADD175C,0.30000*%
G04 #@! TD.AperFunction*
%ADD176C,0.20000*%
%ADD188C,0.25000*%
G04 #@! TA.AperFunction,CutOut*
%ADD442C,0.05000*%
X0Y0D02*
D02*
D99*
X1797508Y1454800D02*
Y1339000D01*
X1802908Y1338700*
X1807408Y1338100*
X1810708Y1337500*
X1812808Y1336300*
X1814908Y1334200*
X1816408Y1331800*
X1817308Y1328800*
X1817608Y1325500*
X1817308Y1321900*
X1816708Y1318600*
X1815208Y1316200*
X1813108Y1314400*
X1811908Y1313500*
X1810408Y1312900*
X1808608Y1312300*
X1806208Y1312000*
X1803508Y1311700*
X1800508Y1311400*
X1797208Y1311100*
X1793308*
X1765108*
X1759408Y1311400*
X1754908Y1312000*
X1751008Y1312900*
X1748308Y1314400*
X1746508Y1316200*
X1745008Y1318600*
X1744108Y1321600*
X1743808Y1325200*
X1744108Y1329100*
X1745308Y1332100*
X1746808Y1334800*
X1749208Y1336900*
X1752208Y1338100*
X1755808Y1338700*
X1760008Y1339300*
X1765108Y1339600*
X1767208*
Y1376800*
X1703008*
Y1339600*
X1707808*
X1712008Y1339300*
X1715608Y1338700*
X1718908Y1337800*
X1721308Y1336300*
X1723708Y1334200*
X1725508Y1331800*
X1726408Y1328800*
X1726708Y1325500*
X1726408Y1321900*
X1725508Y1318600*
X1724308Y1316200*
X1722208Y1314400*
X1719808Y1312900*
X1716508Y1312000*
X1712008Y1311400*
X1706908Y1311100*
X1670908*
X1665808Y1311400*
X1661908Y1312000*
X1658608Y1313200*
X1656208Y1315000*
X1654708Y1317100*
X1653508Y1319500*
X1652608Y1322200*
X1652308Y1325500*
X1652908Y1329100*
X1653808Y1332100*
X1655308Y1334500*
X1657408Y1336300*
X1659808Y1337500*
X1663108Y1338400*
X1667308Y1339000*
X1672708*
Y1454800*
X1667308Y1455100*
X1663108Y1455700*
X1659808Y1456600*
X1657408Y1457800*
X1655308Y1459900*
X1653808Y1462300*
X1652908Y1465300*
X1652308Y1469200*
X1652608Y1472500*
X1653508Y1475200*
X1654708Y1477600*
X1656508Y1479700*
X1658908Y1481200*
X1661908Y1482100*
X1666108Y1483000*
X1671208Y1483300*
X1705708*
X1711108Y1483000*
X1715608Y1482400*
X1719208Y1481500*
X1721908Y1480600*
X1724008Y1478500*
X1725508Y1475800*
X1726408Y1472800*
X1726708Y1469200*
X1726408Y1465300*
X1725208Y1462300*
X1723408Y1459600*
X1721008Y1457500*
X1718008Y1456300*
X1714408Y1455400*
X1709908Y1454800*
X1704808*
X1703008*
Y1404400*
X1767208*
Y1454800*
X1762408*
X1758208Y1455100*
X1754308Y1455700*
X1751308Y1456600*
X1748908Y1457800*
X1746508Y1459900*
X1745008Y1462600*
X1744108Y1465600*
X1743808Y1469200*
X1744108Y1472800*
X1745008Y1475800*
X1746508Y1478500*
X1748908Y1480600*
X1751308Y1481500*
X1755208Y1482400*
X1760308Y1483000*
X1766308Y1483300*
X1799308*
X1804108Y1483000*
X1808308Y1482100*
X1811608Y1481200*
X1814008Y1479400*
X1815508Y1477600*
X1816708Y1475200*
X1817308Y1472500*
X1817608Y1469200*
X1817308Y1465600*
X1816708Y1462600*
X1815208Y1459900*
X1813108Y1457800*
X1811008Y1456600*
X1807408Y1455700*
X1802908Y1455100*
X1797508Y1454800*
G36*
Y1339000*
X1802908Y1338700*
X1807408Y1338100*
X1810708Y1337500*
X1812808Y1336300*
X1814908Y1334200*
X1816408Y1331800*
X1817308Y1328800*
X1817608Y1325500*
X1817308Y1321900*
X1816708Y1318600*
X1815208Y1316200*
X1813108Y1314400*
X1811908Y1313500*
X1810408Y1312900*
X1808608Y1312300*
X1806208Y1312000*
X1803508Y1311700*
X1800508Y1311400*
X1797208Y1311100*
X1793308*
X1765108*
X1759408Y1311400*
X1754908Y1312000*
X1751008Y1312900*
X1748308Y1314400*
X1746508Y1316200*
X1745008Y1318600*
X1744108Y1321600*
X1743808Y1325200*
X1744108Y1329100*
X1745308Y1332100*
X1746808Y1334800*
X1749208Y1336900*
X1752208Y1338100*
X1755808Y1338700*
X1760008Y1339300*
X1765108Y1339600*
X1767208*
Y1376800*
X1703008*
Y1339600*
X1707808*
X1712008Y1339300*
X1715608Y1338700*
X1718908Y1337800*
X1721308Y1336300*
X1723708Y1334200*
X1725508Y1331800*
X1726408Y1328800*
X1726708Y1325500*
X1726408Y1321900*
X1725508Y1318600*
X1724308Y1316200*
X1722208Y1314400*
X1719808Y1312900*
X1716508Y1312000*
X1712008Y1311400*
X1706908Y1311100*
X1670908*
X1665808Y1311400*
X1661908Y1312000*
X1658608Y1313200*
X1656208Y1315000*
X1654708Y1317100*
X1653508Y1319500*
X1652608Y1322200*
X1652308Y1325500*
X1652908Y1329100*
X1653808Y1332100*
X1655308Y1334500*
X1657408Y1336300*
X1659808Y1337500*
X1663108Y1338400*
X1667308Y1339000*
X1672708*
Y1454800*
X1667308Y1455100*
X1663108Y1455700*
X1659808Y1456600*
X1657408Y1457800*
X1655308Y1459900*
X1653808Y1462300*
X1652908Y1465300*
X1652308Y1469200*
X1652608Y1472500*
X1653508Y1475200*
X1654708Y1477600*
X1656508Y1479700*
X1658908Y1481200*
X1661908Y1482100*
X1666108Y1483000*
X1671208Y1483300*
X1705708*
X1711108Y1483000*
X1715608Y1482400*
X1719208Y1481500*
X1721908Y1480600*
X1724008Y1478500*
X1725508Y1475800*
X1726408Y1472800*
X1726708Y1469200*
X1726408Y1465300*
X1725208Y1462300*
X1723408Y1459600*
X1721008Y1457500*
X1718008Y1456300*
X1714408Y1455400*
X1709908Y1454800*
X1704808*
X1703008*
Y1404400*
X1767208*
Y1454800*
X1762408*
X1758208Y1455100*
X1754308Y1455700*
X1751308Y1456600*
X1748908Y1457800*
X1746508Y1459900*
X1745008Y1462600*
X1744108Y1465600*
X1743808Y1469200*
X1744108Y1472800*
X1745008Y1475800*
X1746508Y1478500*
X1748908Y1480600*
X1751308Y1481500*
X1755208Y1482400*
X1760308Y1483000*
X1766308Y1483300*
X1799308*
X1804108Y1483000*
X1808308Y1482100*
X1811608Y1481200*
X1814008Y1479400*
X1815508Y1477600*
X1816708Y1475200*
X1817308Y1472500*
X1817608Y1469200*
X1817308Y1465600*
X1816708Y1462600*
X1815208Y1459900*
X1813108Y1457800*
X1811008Y1456600*
X1807408Y1455700*
X1802908Y1455100*
X1797508Y1454800*
G37*
X1979308Y1327300D02*
X1979008Y1324300D01*
X1978108Y1321300*
X1976908Y1318900*
X1974808Y1317100*
X1972708Y1315300*
X1970008Y1314400*
X1967008Y1313500*
X1963708*
X1942408*
X1939708*
X1937308Y1314100*
X1935208Y1315300*
X1933108Y1316500*
X1930408Y1320700*
X1928608Y1326100*
Y1326400*
X1923808Y1323100*
X1919008Y1320400*
X1914208Y1317700*
X1909108Y1315600*
X1902208Y1313200*
X1895308Y1311100*
X1888108Y1310200*
X1880608Y1309900*
X1875508*
X1870108Y1310500*
X1865308Y1311700*
X1860808Y1312900*
X1856608Y1314700*
X1852408Y1316800*
X1848808Y1319500*
X1845208Y1322500*
X1841908Y1325800*
X1839208Y1329100*
X1836808Y1332700*
X1834708Y1336900*
X1833208Y1341100*
X1832008Y1345300*
X1831408Y1350100*
X1831108Y1354900*
X1831408Y1360600*
X1832308Y1366000*
X1833808Y1371100*
X1835908Y1375900*
X1838308Y1380400*
X1841608Y1384600*
X1845208Y1388200*
X1849708Y1391800*
X1854208Y1394800*
X1859308Y1397200*
X1864708Y1399300*
X1870708Y1401100*
X1877008Y1402600*
X1883608Y1403500*
X1890808Y1404100*
X1898308Y1404400*
X1906408Y1404100*
X1915108Y1403500*
X1926208Y1401700*
X1925608Y1406200*
X1924108Y1410400*
X1922308Y1413700*
X1919908Y1416400*
X1916608Y1419400*
X1912108Y1421200*
X1906708Y1422400*
X1900108Y1422700*
X1895308Y1422400*
X1889908Y1421500*
X1884208Y1419700*
X1877908Y1417300*
X1871908Y1414900*
X1866508Y1413100*
X1862308Y1411900*
X1859008Y1411600*
X1856308Y1411900*
X1853608Y1412800*
X1851508Y1414000*
X1849108Y1416100*
X1847608Y1418500*
X1846408Y1421200*
X1845808Y1424200*
X1845508Y1427200*
X1845808Y1430200*
X1846708Y1432600*
X1848208Y1435000*
X1850008Y1437400*
X1852708Y1439500*
X1855708Y1441300*
X1859308Y1443100*
X1863508Y1444900*
X1871908Y1447300*
X1881508Y1449400*
X1892008Y1450300*
X1903708Y1450600*
X1910008*
X1915708Y1450000*
X1921108Y1448800*
X1926208Y1447300*
X1931008Y1445500*
X1935508Y1443400*
X1939408Y1440700*
X1943008Y1437400*
X1946008Y1433800*
X1948708Y1429900*
X1951108Y1425700*
X1952908Y1421200*
X1954408Y1416100*
X1955608Y1410700*
X1956208Y1404700*
X1956508Y1398400*
Y1341400*
X1958608*
X1963708Y1341100*
X1967908Y1340500*
X1971208Y1339900*
X1973908Y1338700*
X1976308Y1336600*
X1978108Y1334200*
X1979008Y1331200*
X1979308Y1327300*
X1915408Y1376800D02*
X1909108Y1377400D01*
X1902208Y1377700*
X1892908Y1377400*
X1884808Y1376200*
X1877608Y1374100*
X1871608Y1371400*
X1869508Y1369900*
X1867408Y1368400*
X1865608Y1366600*
X1864408Y1364800*
X1863208Y1362700*
X1862308Y1360600*
X1862008Y1358500*
X1861708Y1356100*
X1862308Y1352800*
X1863208Y1350100*
X1865008Y1347400*
X1867708Y1345000*
X1871008Y1342600*
X1874908Y1340800*
X1879108Y1339900*
X1883908Y1339600*
X1891708Y1339900*
X1899508Y1341700*
X1906708Y1344400*
X1913608Y1348000*
X1916608Y1350100*
X1919008Y1351900*
X1921408Y1353700*
X1923208Y1355500*
X1924408Y1357300*
X1925308Y1359400*
X1925908Y1361200*
X1926208Y1363000*
Y1374700*
X1915408Y1376800*
X1956508Y1358650D02*
G36*
X1924987D01*
X1924408Y1357300*
X1923208Y1355500*
X1921408Y1353700*
X1919008Y1351900*
X1916608Y1350100*
X1913608Y1348000*
X1906708Y1344400*
X1899508Y1341700*
X1891708Y1339900*
X1883908Y1339600*
X1879108Y1339900*
X1874908Y1340800*
X1871008Y1342600*
X1867708Y1345000*
X1865008Y1347400*
X1863208Y1350100*
X1862308Y1352800*
X1861708Y1356100*
X1862008Y1358500*
X1862029Y1358650*
X1831305*
X1831108Y1354900*
X1831408Y1350100*
X1832008Y1345300*
X1833208Y1341100*
X1834708Y1336900*
X1836808Y1332700*
X1839208Y1329100*
X1841908Y1325800*
X1845208Y1322500*
X1848808Y1319500*
X1852408Y1316800*
X1856608Y1314700*
X1860808Y1312900*
X1865308Y1311700*
X1870108Y1310500*
X1875508Y1309900*
X1880608*
X1888108Y1310200*
X1895308Y1311100*
X1902208Y1313200*
X1909108Y1315600*
X1914208Y1317700*
X1919008Y1320400*
X1923808Y1323100*
X1928608Y1326400*
Y1326100*
X1930408Y1320700*
X1933108Y1316500*
X1935208Y1315300*
X1937308Y1314100*
X1939708Y1313500*
X1942408*
X1963708*
X1967008*
X1970008Y1314400*
X1972708Y1315300*
X1974808Y1317100*
X1976908Y1318900*
X1978108Y1321300*
X1979008Y1324300*
X1979308Y1327300*
X1979008Y1331200*
X1978108Y1334200*
X1976308Y1336600*
X1973908Y1338700*
X1971208Y1339900*
X1967908Y1340500*
X1963708Y1341100*
X1958608Y1341400*
X1956508*
Y1358650*
G37*
X1910008Y1450600D02*
G36*
X1903708D01*
X1892008Y1450300*
X1881508Y1449400*
X1871908Y1447300*
X1863508Y1444900*
X1859308Y1443100*
X1855708Y1441300*
X1852708Y1439500*
X1850008Y1437400*
X1848208Y1435000*
X1846708Y1432600*
X1845808Y1430200*
X1845508Y1427200*
X1845808Y1424200*
X1846408Y1421200*
X1847608Y1418500*
X1849108Y1416100*
X1851508Y1414000*
X1853608Y1412800*
X1856308Y1411900*
X1859008Y1411600*
X1862308Y1411900*
X1866508Y1413100*
X1871908Y1414900*
X1877908Y1417300*
X1884208Y1419700*
X1889908Y1421500*
X1895308Y1422400*
X1900108Y1422700*
X1906708Y1422400*
X1912108Y1421200*
X1916608Y1419400*
X1919908Y1416400*
X1922308Y1413700*
X1924108Y1410400*
X1925608Y1406200*
X1926208Y1401700*
X1915108Y1403500*
X1906408Y1404100*
X1898308Y1404400*
X1890808Y1404100*
X1883608Y1403500*
X1877008Y1402600*
X1870708Y1401100*
X1864708Y1399300*
X1859308Y1397200*
X1854208Y1394800*
X1849708Y1391800*
X1845208Y1388200*
X1841608Y1384600*
X1838308Y1380400*
X1835908Y1375900*
X1833808Y1371100*
X1832308Y1366000*
X1831408Y1360600*
X1831305Y1358650*
X1862029*
X1862308Y1360600*
X1863208Y1362700*
X1864408Y1364800*
X1865608Y1366600*
X1867408Y1368400*
X1869508Y1369900*
X1871608Y1371400*
X1877608Y1374100*
X1884808Y1376200*
X1892908Y1377400*
X1902208Y1377700*
X1909108Y1377400*
X1915408Y1376800*
X1926208Y1374700*
Y1363000*
X1925908Y1361200*
X1925308Y1359400*
X1924987Y1358650*
X1956508*
Y1398400*
X1956208Y1404700*
X1955608Y1410700*
X1954408Y1416100*
X1952908Y1421200*
X1951108Y1425700*
X1948708Y1429900*
X1946008Y1433800*
X1943008Y1437400*
X1939408Y1440700*
X1935508Y1443400*
X1931008Y1445500*
X1926208Y1447300*
X1921108Y1448800*
X1915708Y1450000*
X1910008Y1450600*
G37*
X2150608Y1469200D02*
X2150308Y1465300D01*
X2149108Y1462300*
X2147608Y1459600*
X2145508Y1457500*
X2143108Y1456300*
X2139808Y1455400*
X2135308Y1454800*
X2130208*
X2117008*
Y1372300*
Y1364500*
X2116108Y1357000*
X2115208Y1350100*
X2113408Y1344100*
X2111608Y1338400*
X2108908Y1333300*
X2106208Y1328500*
X2102608Y1324600*
X2098708Y1321000*
X2094208Y1318000*
X2089408Y1315300*
X2083708Y1313200*
X2077708Y1311400*
X2071408Y1310200*
X2064208Y1309600*
X2056708Y1309300*
X2050108Y1309600*
X2043808Y1310200*
X2037508Y1311100*
X2031508Y1312300*
X2025508Y1314100*
X2019508Y1316200*
X2013208Y1318900*
X2007208Y1321900*
X2004508Y1323400*
X2002408Y1325200*
X2000608Y1326700*
X1999408Y1328500*
X1998508Y1330300*
X1997908Y1333000*
X1997608Y1336300*
X1997308Y1339900*
Y1372000*
X1997608Y1377100*
X1998208Y1381300*
X1999108Y1384600*
X2000608Y1386700*
X2002408Y1388500*
X2004508Y1389700*
X2007208Y1390600*
X2010508Y1390900*
X2014708Y1390300*
X2018608Y1388500*
X2021608Y1386100*
X2023408Y1382800*
X2024908Y1378600*
Y1377400*
X2025208Y1375600*
Y1373500*
Y1371100*
Y1369600*
X2025508Y1362100*
X2025808Y1358500*
X2026708Y1355200*
X2028208Y1351000*
X2030608Y1347100*
X2033308Y1343800*
X2036608Y1340800*
X2040508Y1338400*
X2045008Y1336900*
X2050108Y1335700*
X2055508Y1335400*
X2063308Y1336000*
X2069908Y1337800*
X2075008Y1340500*
X2079208Y1344400*
X2081008Y1346800*
X2082508Y1349800*
X2083708Y1353100*
X2084608Y1356700*
X2085508Y1360900*
X2086108Y1365700*
X2086408Y1370500*
Y1375900*
Y1454800*
X2066608*
X2061208*
X2057008Y1455400*
X2053408Y1456300*
X2051008Y1457500*
X2048908Y1459600*
X2047108Y1462300*
X2046208Y1465300*
X2045908Y1469200*
X2046208Y1472500*
X2046808Y1475200*
X2048008Y1477600*
X2049508Y1479400*
X2051608Y1481200*
X2054008Y1482100*
X2057008Y1483000*
X2060308Y1483300*
X2136508*
X2139808Y1483000*
X2142508Y1482100*
X2144908Y1480900*
X2147008Y1479400*
X2148508Y1477300*
X2149708Y1474900*
X2150308Y1472200*
X2150608Y1469200*
G36*
X2150308Y1465300*
X2149108Y1462300*
X2147608Y1459600*
X2145508Y1457500*
X2143108Y1456300*
X2139808Y1455400*
X2135308Y1454800*
X2130208*
X2117008*
Y1372300*
Y1364500*
X2116108Y1357000*
X2115208Y1350100*
X2113408Y1344100*
X2111608Y1338400*
X2108908Y1333300*
X2106208Y1328500*
X2102608Y1324600*
X2098708Y1321000*
X2094208Y1318000*
X2089408Y1315300*
X2083708Y1313200*
X2077708Y1311400*
X2071408Y1310200*
X2064208Y1309600*
X2056708Y1309300*
X2050108Y1309600*
X2043808Y1310200*
X2037508Y1311100*
X2031508Y1312300*
X2025508Y1314100*
X2019508Y1316200*
X2013208Y1318900*
X2007208Y1321900*
X2004508Y1323400*
X2002408Y1325200*
X2000608Y1326700*
X1999408Y1328500*
X1998508Y1330300*
X1997908Y1333000*
X1997608Y1336300*
X1997308Y1339900*
Y1372000*
X1997608Y1377100*
X1998208Y1381300*
X1999108Y1384600*
X2000608Y1386700*
X2002408Y1388500*
X2004508Y1389700*
X2007208Y1390600*
X2010508Y1390900*
X2014708Y1390300*
X2018608Y1388500*
X2021608Y1386100*
X2023408Y1382800*
X2024908Y1378600*
Y1377400*
X2025208Y1375600*
Y1373500*
Y1371100*
Y1369600*
X2025508Y1362100*
X2025808Y1358500*
X2026708Y1355200*
X2028208Y1351000*
X2030608Y1347100*
X2033308Y1343800*
X2036608Y1340800*
X2040508Y1338400*
X2045008Y1336900*
X2050108Y1335700*
X2055508Y1335400*
X2063308Y1336000*
X2069908Y1337800*
X2075008Y1340500*
X2079208Y1344400*
X2081008Y1346800*
X2082508Y1349800*
X2083708Y1353100*
X2084608Y1356700*
X2085508Y1360900*
X2086108Y1365700*
X2086408Y1370500*
Y1375900*
Y1454800*
X2066608*
X2061208*
X2057008Y1455400*
X2053408Y1456300*
X2051008Y1457500*
X2048908Y1459600*
X2047108Y1462300*
X2046208Y1465300*
X2045908Y1469200*
X2046208Y1472500*
X2046808Y1475200*
X2048008Y1477600*
X2049508Y1479400*
X2051608Y1481200*
X2054008Y1482100*
X2057008Y1483000*
X2060308Y1483300*
X2136508*
X2139808Y1483000*
X2142508Y1482100*
X2144908Y1480900*
X2147008Y1479400*
X2148508Y1477300*
X2149708Y1474900*
X2150308Y1472200*
X2150608Y1469200*
G37*
X2295808Y1380400D02*
X2295508Y1372900D01*
X2294608Y1365700*
X2292808Y1358800*
X2290708Y1352200*
X2287708Y1345900*
X2284108Y1340200*
X2279608Y1334800*
X2274808Y1329700*
X2269408Y1324900*
X2263408Y1321000*
X2257108Y1317400*
X2250508Y1314700*
X2243608Y1312600*
X2236108Y1311100*
X2228308Y1310200*
X2220208Y1309900*
X2212108Y1310200*
X2204308Y1311100*
X2197108Y1312600*
X2189908Y1314700*
X2183308Y1317400*
X2177008Y1321000*
X2171308Y1324900*
X2165908Y1329700*
X2160808Y1334800*
X2156608Y1340200*
X2153008Y1345900*
X2150008Y1352200*
X2147608Y1358800*
X2145808Y1365400*
X2144908Y1372600*
X2144608Y1380100*
X2144908Y1387900*
X2145808Y1395100*
X2147608Y1401700*
X2150008Y1408300*
X2153008Y1414600*
X2156608Y1420300*
X2160808Y1425700*
X2165908Y1430800*
X2171308Y1435600*
X2177008Y1439500*
X2183308Y1443100*
X2189908Y1445800*
X2197108Y1447900*
X2204308Y1449400*
X2212108Y1450300*
X2220208Y1450600*
X2228308Y1450300*
X2236108Y1449400*
X2243608Y1447900*
X2250508Y1445800*
X2257108Y1443100*
X2263408Y1439500*
X2269408Y1435600*
X2274808Y1430800*
X2279608Y1425700*
X2284108Y1420300*
X2287708Y1414600*
X2290708Y1408300*
X2292808Y1402000*
X2294608Y1395100*
X2295508Y1387900*
X2295808Y1380400*
X2177608D02*
Y1375900D01*
X2178208Y1371400*
X2179108Y1367200*
X2180608Y1363300*
X2182108Y1359400*
X2184208Y1356100*
X2186608Y1352800*
X2189308Y1349500*
X2192608Y1346800*
X2195908Y1344400*
X2199508Y1342300*
X2203108Y1340800*
X2207008Y1339300*
X2211208Y1338400*
X2215708Y1337800*
X2220208*
X2225008*
X2229208Y1338400*
X2233408Y1339300*
X2237608Y1340800*
X2241208Y1342300*
X2244808Y1344400*
X2248108Y1346800*
X2251408Y1349500*
X2254108Y1352800*
X2256808Y1356100*
X2258608Y1359400*
X2260408Y1363300*
X2261908Y1367200*
X2262808Y1371400*
X2263408Y1375600*
Y1380100*
Y1384900*
X2262808Y1389100*
X2261908Y1393300*
X2260408Y1397200*
X2258608Y1401100*
X2256808Y1404700*
X2254108Y1408000*
X2251408Y1411000*
X2248108Y1414000*
X2244808Y1416400*
X2241208Y1418500*
X2237608Y1420300*
X2233408Y1421500*
X2229208Y1422400*
X2225008Y1423000*
X2220208Y1423300*
X2215708Y1423000*
X2211208Y1422400*
X2207008Y1421500*
X2203108Y1420300*
X2199508Y1418500*
X2195908Y1416400*
X2192608Y1414000*
X2189308Y1411000*
X2186608Y1408000*
X2184208Y1404700*
X2182108Y1401100*
X2180608Y1397500*
X2179108Y1393300*
X2178208Y1389400*
X2177608Y1384900*
Y1380400*
X2263408Y1380550D02*
G36*
Y1380100D01*
Y1375600*
X2262808Y1371400*
X2261908Y1367200*
X2260408Y1363300*
X2258608Y1359400*
X2256808Y1356100*
X2254108Y1352800*
X2251408Y1349500*
X2248108Y1346800*
X2244808Y1344400*
X2241208Y1342300*
X2237608Y1340800*
X2233408Y1339300*
X2229208Y1338400*
X2225008Y1337800*
X2220208*
X2215708*
X2211208Y1338400*
X2207008Y1339300*
X2203108Y1340800*
X2199508Y1342300*
X2195908Y1344400*
X2192608Y1346800*
X2189308Y1349500*
X2186608Y1352800*
X2184208Y1356100*
X2182108Y1359400*
X2180608Y1363300*
X2179108Y1367200*
X2178208Y1371400*
X2177608Y1375900*
Y1380400*
Y1380550*
X2144625*
X2144608Y1380100*
X2144908Y1372600*
X2145808Y1365400*
X2147608Y1358800*
X2150008Y1352200*
X2153008Y1345900*
X2156608Y1340200*
X2160808Y1334800*
X2165908Y1329700*
X2171308Y1324900*
X2177008Y1321000*
X2183308Y1317400*
X2189908Y1314700*
X2197108Y1312600*
X2204308Y1311100*
X2212108Y1310200*
X2220208Y1309900*
X2228308Y1310200*
X2236108Y1311100*
X2243608Y1312600*
X2250508Y1314700*
X2257108Y1317400*
X2263408Y1321000*
X2269408Y1324900*
X2274808Y1329700*
X2279608Y1334800*
X2284108Y1340200*
X2287708Y1345900*
X2290708Y1352200*
X2292808Y1358800*
X2294608Y1365700*
X2295508Y1372900*
X2295808Y1380400*
X2295802Y1380550*
X2263408*
G37*
X2220208Y1450600D02*
G36*
X2212108Y1450300D01*
X2204308Y1449400*
X2197108Y1447900*
X2189908Y1445800*
X2183308Y1443100*
X2177008Y1439500*
X2171308Y1435600*
X2165908Y1430800*
X2160808Y1425700*
X2156608Y1420300*
X2153008Y1414600*
X2150008Y1408300*
X2147608Y1401700*
X2145808Y1395100*
X2144908Y1387900*
X2144625Y1380550*
X2177608*
Y1384900*
X2178208Y1389400*
X2179108Y1393300*
X2180608Y1397500*
X2182108Y1401100*
X2184208Y1404700*
X2186608Y1408000*
X2189308Y1411000*
X2192608Y1414000*
X2195908Y1416400*
X2199508Y1418500*
X2203108Y1420300*
X2207008Y1421500*
X2211208Y1422400*
X2215708Y1423000*
X2220208Y1423300*
X2225008Y1423000*
X2229208Y1422400*
X2233408Y1421500*
X2237608Y1420300*
X2241208Y1418500*
X2244808Y1416400*
X2248108Y1414000*
X2251408Y1411000*
X2254108Y1408000*
X2256808Y1404700*
X2258608Y1401100*
X2260408Y1397200*
X2261908Y1393300*
X2262808Y1389100*
X2263408Y1384900*
Y1380550*
X2295802*
X2295508Y1387900*
X2294608Y1395100*
X2292808Y1402000*
X2290708Y1408300*
X2287708Y1414600*
X2284108Y1420300*
X2279608Y1425700*
X2274808Y1430800*
X2269408Y1435600*
X2263408Y1439500*
X2257108Y1443100*
X2250508Y1445800*
X2243608Y1447900*
X2236108Y1449400*
X2228308Y1450300*
X2220208Y1450600*
G37*
X1593808Y1358200D02*
X1597708Y1360300D01*
X1601908Y1361500*
X1606408Y1362100*
X1610908Y1361500*
X1615108Y1360300*
X1619008Y1358200*
X1622308Y1355500*
X1625308Y1351900*
X1627408Y1347700*
X1628608Y1343800*
X1628908Y1339300*
X1628608Y1334800*
X1627408Y1330300*
X1625308Y1326400*
X1622608Y1323100*
X1619008Y1320400*
X1614808Y1318300*
X1610608Y1316800*
X1606408Y1316500*
X1601908Y1317100*
X1595608Y1319200*
X1588108Y1316500*
X1580308Y1314400*
X1573108Y1312600*
X1565608Y1311700*
X1558108Y1311100*
X1550608*
X1542808Y1311400*
X1535608Y1312300*
X1528408Y1313800*
X1521808Y1315600*
X1515508Y1318300*
X1509808Y1321600*
X1504408Y1325200*
X1499308Y1329700*
X1495708Y1333300*
X1492708Y1337200*
X1489708Y1341400*
X1487308Y1345900*
X1485208Y1350700*
X1483408Y1355500*
X1481908Y1360600*
X1481008Y1366000*
X1478908Y1368400*
X1477108Y1370500*
X1475608Y1373200*
X1474708Y1375600*
X1474108Y1378300*
X1473808Y1381300*
Y1384000*
X1474108Y1387300*
X1475308Y1391200*
X1477408Y1395100*
X1479808Y1398400*
X1483108Y1401100*
X1486108Y1409200*
X1490008Y1416700*
X1494808Y1423600*
X1500808Y1429900*
X1505908Y1434400*
X1511908Y1438300*
X1517908Y1441600*
X1524508Y1444300*
X1531408Y1446400*
X1538608Y1447600*
X1546108Y1448500*
X1554208Y1448800*
X1561408*
X1568608Y1447900*
X1575208Y1446400*
X1581508Y1444300*
X1587508Y1441900*
X1592908Y1438900*
X1598308Y1435000*
X1603408Y1430800*
X1607908Y1426300*
X1612108Y1421200*
X1615408Y1416100*
X1618108Y1410400*
X1620508Y1404700*
X1622008Y1399000*
X1622908Y1392700*
X1623208Y1386400*
X1622908Y1382200*
X1622308Y1378900*
X1620808Y1376200*
X1619008Y1374100*
X1617808Y1373500*
X1616308Y1372900*
X1614508Y1372300*
X1612108Y1371700*
X1609708Y1371400*
X1606708Y1371100*
X1603408*
X1599808*
X1515508*
X1513408Y1368100*
X1510708Y1365100*
X1512208Y1359400*
X1514608Y1354300*
X1517608Y1349800*
X1521508Y1345900*
X1524508Y1343500*
X1527508Y1341400*
X1531108Y1339900*
X1535008Y1338400*
X1538908Y1337200*
X1543408Y1336600*
X1547908Y1336000*
X1553008*
X1560208Y1336300*
X1567708Y1337800*
X1575508Y1339900*
X1583908Y1343200*
Y1343500*
X1585408Y1348000*
X1587508Y1351900*
X1590508Y1355200*
X1593808Y1358200*
X1525408Y1416100D02*
X1521508Y1412500D01*
X1517908Y1408300*
X1514908Y1403500*
X1512508Y1398400*
X1515508Y1394800*
X1592008Y1394500*
X1590508Y1400800*
X1588108Y1406200*
X1584808Y1411300*
X1580308Y1415500*
X1574608Y1419400*
X1568608Y1422400*
X1561708Y1423900*
X1554208Y1424500*
X1546108Y1424200*
X1538608Y1422400*
X1531708Y1419700*
X1525408Y1416100*
X1502608Y1373500D02*
X1504408Y1375000D01*
X1505608Y1376500*
X1506808Y1378300*
X1507408Y1380400*
X1507708Y1382800*
X1507408Y1384900*
X1506808Y1386700*
X1505608Y1388800*
X1504108Y1390600*
X1502608Y1391800*
X1500508Y1393000*
X1498408Y1393600*
X1496308Y1393900*
X1494208Y1393600*
X1492108Y1393000*
X1490008Y1392100*
X1488508Y1390600*
X1487008Y1389100*
X1486108Y1387000*
X1485508Y1384900*
X1485208Y1382800*
Y1380700*
X1485808Y1378600*
X1487008Y1376500*
X1488208Y1375000*
X1490008Y1373500*
X1491808Y1372600*
X1493908Y1372000*
X1496308Y1371700*
X1498408Y1372000*
X1500508Y1372600*
X1502608Y1373500*
X1612708Y1330000D02*
X1614208Y1331500D01*
X1615708Y1333300*
X1616608Y1335100*
X1617208Y1337200*
X1617508Y1339600*
Y1341700*
X1616908Y1343500*
X1615708Y1345600*
X1614508Y1347400*
X1612708Y1348600*
X1610908Y1349800*
X1608508Y1350400*
X1606108*
X1604008*
X1601908Y1349500*
X1600108Y1348600*
X1598308Y1347100*
X1596808Y1345300*
X1595908Y1343500*
X1595308Y1341400*
X1595008Y1339000*
X1595308Y1336900*
X1595908Y1334800*
X1597108Y1333000*
X1598608Y1331200*
X1600108Y1330000*
X1602208Y1328800*
X1604308Y1328200*
X1606408Y1327900*
X1608508Y1328200*
X1610608Y1328800*
X1612708Y1330000*
X1628898Y1339150D02*
G36*
X1617452D01*
X1617208Y1337200*
X1616608Y1335100*
X1615708Y1333300*
X1614208Y1331500*
X1612708Y1330000*
X1610608Y1328800*
X1608508Y1328200*
X1606408Y1327900*
X1604308Y1328200*
X1602208Y1328800*
X1600108Y1330000*
X1598608Y1331200*
X1597108Y1333000*
X1595908Y1334800*
X1595308Y1336900*
X1595008Y1339000*
X1595027Y1339150*
X1572722*
X1567708Y1337800*
X1560208Y1336300*
X1553008Y1336000*
X1547908*
X1543408Y1336600*
X1538908Y1337200*
X1535008Y1338400*
X1533058Y1339150*
X1491315*
X1492708Y1337200*
X1495708Y1333300*
X1499308Y1329700*
X1504408Y1325200*
X1509808Y1321600*
X1515508Y1318300*
X1521808Y1315600*
X1528408Y1313800*
X1535608Y1312300*
X1542808Y1311400*
X1550608Y1311100*
X1558108*
X1565608Y1311700*
X1573108Y1312600*
X1580308Y1314400*
X1588108Y1316500*
X1595608Y1319200*
X1601908Y1317100*
X1606408Y1316500*
X1610608Y1316800*
X1614808Y1318300*
X1619008Y1320400*
X1622608Y1323100*
X1625308Y1326400*
X1627408Y1330300*
X1628608Y1334800*
X1628898Y1339150*
G37*
X1622951Y1382800D02*
G36*
X1507708D01*
X1507408Y1380400*
X1506808Y1378300*
X1505608Y1376500*
X1504408Y1375000*
X1502608Y1373500*
X1500508Y1372600*
X1498408Y1372000*
X1496308Y1371700*
X1493908Y1372000*
X1491808Y1372600*
X1490008Y1373500*
X1488208Y1375000*
X1487008Y1376500*
X1485808Y1378600*
X1485208Y1380700*
Y1382800*
X1473808*
Y1381300*
X1474108Y1378300*
X1474708Y1375600*
X1475608Y1373200*
X1477108Y1370500*
X1478908Y1368400*
X1481008Y1366000*
X1481908Y1360600*
X1483408Y1355500*
X1485208Y1350700*
X1487308Y1345900*
X1489708Y1341400*
X1491315Y1339150*
X1533058*
X1531108Y1339900*
X1527508Y1341400*
X1524508Y1343500*
X1521508Y1345900*
X1517608Y1349800*
X1514608Y1354300*
X1512208Y1359400*
X1510708Y1365100*
X1513408Y1368100*
X1515508Y1371100*
X1599808*
X1603408*
X1606708*
X1609708Y1371400*
X1612108Y1371700*
X1614508Y1372300*
X1616308Y1372900*
X1617808Y1373500*
X1619008Y1374100*
X1620808Y1376200*
X1622308Y1378900*
X1622908Y1382200*
X1622951Y1382800*
G37*
X1628908Y1339300D02*
G36*
X1628608Y1343800D01*
X1627408Y1347700*
X1625308Y1351900*
X1622308Y1355500*
X1619008Y1358200*
X1615108Y1360300*
X1610908Y1361500*
X1606408Y1362100*
X1601908Y1361500*
X1597708Y1360300*
X1593808Y1358200*
X1590508Y1355200*
X1587508Y1351900*
X1585408Y1348000*
X1583908Y1343500*
Y1343200*
X1575508Y1339900*
X1572722Y1339150*
X1595027*
X1595308Y1341400*
X1595908Y1343500*
X1596808Y1345300*
X1598308Y1347100*
X1600108Y1348600*
X1601908Y1349500*
X1604008Y1350400*
X1606108*
X1608508*
X1610908Y1349800*
X1612708Y1348600*
X1614508Y1347400*
X1615708Y1345600*
X1616908Y1343500*
X1617508Y1341700*
Y1339600*
X1617452Y1339150*
X1628898*
X1628908Y1339300*
G37*
X1618487Y1409500D02*
G36*
X1585973D01*
X1588108Y1406200*
X1590508Y1400800*
X1592008Y1394500*
X1515508Y1394800*
X1512508Y1398400*
X1514908Y1403500*
X1517908Y1408300*
X1518937Y1409500*
X1486264*
X1486108Y1409200*
X1483108Y1401100*
X1479808Y1398400*
X1477408Y1395100*
X1475308Y1391200*
X1474108Y1387300*
X1473808Y1384000*
Y1382800*
X1485208*
X1485508Y1384900*
X1486108Y1387000*
X1487008Y1389100*
X1488508Y1390600*
X1490008Y1392100*
X1492108Y1393000*
X1494208Y1393600*
X1496308Y1393900*
X1498408Y1393600*
X1500508Y1393000*
X1502608Y1391800*
X1504108Y1390600*
X1505608Y1388800*
X1506808Y1386700*
X1507408Y1384900*
X1507708Y1382800*
X1622951*
X1623208Y1386400*
X1622908Y1392700*
X1622008Y1399000*
X1620508Y1404700*
X1618487Y1409500*
G37*
X1561408Y1448800D02*
G36*
X1554208D01*
X1546108Y1448500*
X1538608Y1447600*
X1531408Y1446400*
X1524508Y1444300*
X1517908Y1441600*
X1511908Y1438300*
X1505908Y1434400*
X1500808Y1429900*
X1494808Y1423600*
X1490008Y1416700*
X1486264Y1409500*
X1518937*
X1521508Y1412500*
X1525408Y1416100*
X1531708Y1419700*
X1538608Y1422400*
X1546108Y1424200*
X1554208Y1424500*
X1561708Y1423900*
X1568608Y1422400*
X1574608Y1419400*
X1580308Y1415500*
X1584808Y1411300*
X1585973Y1409500*
X1618487*
X1618108Y1410400*
X1615408Y1416100*
X1612108Y1421200*
X1607908Y1426300*
X1603408Y1430800*
X1598308Y1435000*
X1592908Y1438900*
X1587508Y1441900*
X1581508Y1444300*
X1575208Y1446400*
X1568608Y1447900*
X1561408Y1448800*
G37*
X5614508Y5103800D02*
X5603708D01*
X5588408Y5104700*
X5555108Y5111900*
X5537108Y5117300*
X5516408Y5125400*
X5512808Y5118200*
X5505608Y5113700*
X5494808Y5110100*
X5487608Y5109200*
X5480408*
X5475908*
X5468708Y5108300*
X5463308Y5107400*
X5459708Y5108300*
X5455208Y5109200*
X5452508Y5111900*
X5442608Y5127200*
X5439908Y5147000*
X5443508Y5215400*
X5444408Y5225300*
X5445308Y5233400*
X5447108Y5240600*
X5448908Y5245100*
X5452508Y5249600*
X5457908Y5253200*
X5464208Y5255000*
X5473208Y5255900*
X5480408Y5255000*
X5485808Y5254100*
X5491208Y5251400*
X5495708Y5248700*
X5498408Y5244200*
X5501108Y5238800*
X5502008Y5233400*
Y5226200*
Y5208200*
X5504708Y5204600*
X5508308Y5201000*
X5512808Y5197400*
X5518208Y5193800*
X5525408Y5190200*
X5532608Y5186600*
X5541608Y5182100*
X5550608Y5178500*
X5556008Y5176700*
X5561408Y5174900*
X5568608Y5174000*
X5576708Y5173100*
X5584808Y5172200*
X5594708Y5171300*
X5605508*
X5617208*
X5637908Y5172200*
X5655908Y5175800*
X5672108Y5182100*
X5686508Y5190200*
X5698208Y5200100*
X5706308Y5212700*
X5710808Y5226200*
X5712608Y5241500*
X5711708Y5250500*
X5709908Y5259500*
X5706308Y5267600*
X5701808Y5274800*
X5696408Y5281100*
X5689208Y5286500*
X5680208Y5291900*
X5670308Y5296400*
X5632508Y5301800*
X5593808Y5309000*
X5576708Y5312600*
X5560508Y5316200*
X5545208Y5320700*
X5531708Y5324300*
X5520008Y5328800*
X5510108Y5333300*
X5501108Y5337800*
X5493908Y5342300*
X5482208Y5351300*
X5473208Y5360300*
X5465108Y5371100*
X5458808Y5382800*
X5453408Y5395400*
X5449808Y5408900*
X5448008Y5423300*
X5447108Y5438600*
X5448008Y5453000*
X5449808Y5466500*
X5454308Y5480000*
X5459708Y5492600*
X5466008Y5504300*
X5475008Y5516000*
X5484908Y5527700*
X5496608Y5537600*
X5509208Y5547500*
X5521808Y5555600*
X5536208Y5562800*
X5550608Y5568200*
X5565008Y5572700*
X5581208Y5576300*
X5597408Y5578100*
X5614508Y5579000*
X5629808Y5578100*
X5649608Y5574500*
X5673008Y5569100*
X5699108Y5561000*
X5703608Y5567300*
X5709908Y5571800*
X5718008Y5574500*
X5727908Y5575400*
X5736908Y5574500*
X5744108Y5573600*
X5750408Y5570900*
X5754908Y5568200*
X5759408Y5563700*
X5762108Y5557400*
X5764808Y5549300*
X5767508Y5539400*
X5772008Y5459300*
Y5451200*
X5770208Y5444000*
X5768408Y5437700*
X5763908Y5432300*
X5758508Y5428700*
X5752208Y5425100*
X5745008Y5424200*
X5736008Y5423300*
X5728808Y5424200*
X5721608Y5428700*
X5715308Y5435900*
X5709008Y5445800*
X5698208Y5473700*
X5693708Y5482700*
X5687408Y5489900*
X5679308Y5496200*
X5669408Y5501600*
X5657708Y5506100*
X5644208Y5508800*
X5628908Y5510600*
X5611808Y5511500*
X5592908Y5510600*
X5576708Y5506100*
X5561408Y5500700*
X5547908Y5491700*
X5537108Y5480900*
X5529008Y5469200*
X5524508Y5455700*
X5522708Y5440400*
X5523608Y5432300*
X5525408Y5424200*
X5528108Y5417900*
X5532608Y5411600*
X5538008Y5406200*
X5545208Y5400800*
X5553308Y5396300*
X5562308Y5392700*
X5626208Y5381000*
X5694608Y5368400*
X5716208Y5360300*
X5735108Y5350400*
X5751308Y5338700*
X5764808Y5324300*
X5774708Y5308100*
X5782808Y5290100*
X5786408Y5269400*
X5788208Y5247800*
X5787308Y5231600*
X5785508Y5216300*
X5781008Y5201900*
X5776508Y5188400*
X5769308Y5175800*
X5761208Y5164100*
X5751308Y5153300*
X5739608Y5143400*
X5727008Y5133500*
X5713508Y5126300*
X5699108Y5119100*
X5683808Y5113700*
X5668508Y5109200*
X5651408Y5106500*
X5633408Y5104700*
X5614508Y5103800*
G36*
X5603708*
X5588408Y5104700*
X5555108Y5111900*
X5537108Y5117300*
X5516408Y5125400*
X5512808Y5118200*
X5505608Y5113700*
X5494808Y5110100*
X5487608Y5109200*
X5480408*
X5475908*
X5468708Y5108300*
X5463308Y5107400*
X5459708Y5108300*
X5455208Y5109200*
X5452508Y5111900*
X5442608Y5127200*
X5439908Y5147000*
X5443508Y5215400*
X5444408Y5225300*
X5445308Y5233400*
X5447108Y5240600*
X5448908Y5245100*
X5452508Y5249600*
X5457908Y5253200*
X5464208Y5255000*
X5473208Y5255900*
X5480408Y5255000*
X5485808Y5254100*
X5491208Y5251400*
X5495708Y5248700*
X5498408Y5244200*
X5501108Y5238800*
X5502008Y5233400*
Y5226200*
Y5208200*
X5504708Y5204600*
X5508308Y5201000*
X5512808Y5197400*
X5518208Y5193800*
X5525408Y5190200*
X5532608Y5186600*
X5541608Y5182100*
X5550608Y5178500*
X5556008Y5176700*
X5561408Y5174900*
X5568608Y5174000*
X5576708Y5173100*
X5584808Y5172200*
X5594708Y5171300*
X5605508*
X5617208*
X5637908Y5172200*
X5655908Y5175800*
X5672108Y5182100*
X5686508Y5190200*
X5698208Y5200100*
X5706308Y5212700*
X5710808Y5226200*
X5712608Y5241500*
X5711708Y5250500*
X5709908Y5259500*
X5706308Y5267600*
X5701808Y5274800*
X5696408Y5281100*
X5689208Y5286500*
X5680208Y5291900*
X5670308Y5296400*
X5632508Y5301800*
X5593808Y5309000*
X5576708Y5312600*
X5560508Y5316200*
X5545208Y5320700*
X5531708Y5324300*
X5520008Y5328800*
X5510108Y5333300*
X5501108Y5337800*
X5493908Y5342300*
X5482208Y5351300*
X5473208Y5360300*
X5465108Y5371100*
X5458808Y5382800*
X5453408Y5395400*
X5449808Y5408900*
X5448008Y5423300*
X5447108Y5438600*
X5448008Y5453000*
X5449808Y5466500*
X5454308Y5480000*
X5459708Y5492600*
X5466008Y5504300*
X5475008Y5516000*
X5484908Y5527700*
X5496608Y5537600*
X5509208Y5547500*
X5521808Y5555600*
X5536208Y5562800*
X5550608Y5568200*
X5565008Y5572700*
X5581208Y5576300*
X5597408Y5578100*
X5614508Y5579000*
X5629808Y5578100*
X5649608Y5574500*
X5673008Y5569100*
X5699108Y5561000*
X5703608Y5567300*
X5709908Y5571800*
X5718008Y5574500*
X5727908Y5575400*
X5736908Y5574500*
X5744108Y5573600*
X5750408Y5570900*
X5754908Y5568200*
X5759408Y5563700*
X5762108Y5557400*
X5764808Y5549300*
X5767508Y5539400*
X5772008Y5459300*
Y5451200*
X5770208Y5444000*
X5768408Y5437700*
X5763908Y5432300*
X5758508Y5428700*
X5752208Y5425100*
X5745008Y5424200*
X5736008Y5423300*
X5728808Y5424200*
X5721608Y5428700*
X5715308Y5435900*
X5709008Y5445800*
X5698208Y5473700*
X5693708Y5482700*
X5687408Y5489900*
X5679308Y5496200*
X5669408Y5501600*
X5657708Y5506100*
X5644208Y5508800*
X5628908Y5510600*
X5611808Y5511500*
X5592908Y5510600*
X5576708Y5506100*
X5561408Y5500700*
X5547908Y5491700*
X5537108Y5480900*
X5529008Y5469200*
X5524508Y5455700*
X5522708Y5440400*
X5523608Y5432300*
X5525408Y5424200*
X5528108Y5417900*
X5532608Y5411600*
X5538008Y5406200*
X5545208Y5400800*
X5553308Y5396300*
X5562308Y5392700*
X5626208Y5381000*
X5694608Y5368400*
X5716208Y5360300*
X5735108Y5350400*
X5751308Y5338700*
X5764808Y5324300*
X5774708Y5308100*
X5782808Y5290100*
X5786408Y5269400*
X5788208Y5247800*
X5787308Y5231600*
X5785508Y5216300*
X5781008Y5201900*
X5776508Y5188400*
X5769308Y5175800*
X5761208Y5164100*
X5751308Y5153300*
X5739608Y5143400*
X5727008Y5133500*
X5713508Y5126300*
X5699108Y5119100*
X5683808Y5113700*
X5668508Y5109200*
X5651408Y5106500*
X5633408Y5104700*
X5614508Y5103800*
G37*
X6142808Y5266700D02*
X5905208D01*
X5906108Y5257700*
X5908808Y5247800*
X5911508Y5239700*
X5916008Y5230700*
X5921408Y5221700*
X5927708Y5213600*
X5935808Y5205500*
X5943908Y5197400*
X5957408Y5188400*
X5974508Y5182100*
X5994308Y5178500*
X6018608Y5177600*
X6024008*
X6031208Y5178500*
X6040208Y5180300*
X6051008Y5183000*
X6062708Y5186600*
X6077108Y5190200*
X6092408Y5194700*
X6109508Y5199200*
X6126608Y5204600*
X6141008Y5209100*
X6151808Y5212700*
X6160808Y5216300*
X6167108Y5219000*
X6170708Y5219900*
X6171608Y5221700*
X6169808*
X6177008Y5220800*
X6183308Y5219900*
X6188708Y5217200*
X6194108Y5213600*
X6197708Y5209100*
X6200408Y5203700*
X6203108Y5197400*
X6204008Y5190200*
Y5183000*
X6201308Y5176700*
X6198608Y5170400*
X6193208Y5164100*
X6186908Y5157800*
X6179708Y5152400*
X6170708Y5146100*
X6160808Y5140700*
X6145508Y5133500*
X6128408Y5127200*
X6111308Y5121800*
X6093308Y5117300*
X6074408Y5113700*
X6055508Y5111000*
X6034808Y5110100*
X6014108Y5109200*
X5992508Y5110100*
X5972708Y5111900*
X5953808Y5116400*
X5935808Y5120900*
X5919608Y5128100*
X5903408Y5136200*
X5889008Y5146100*
X5875508Y5157800*
X5863808Y5170400*
X5853008Y5183900*
X5844008Y5199200*
X5836808Y5215400*
X5831408Y5231600*
X5827808Y5249600*
X5825108Y5269400*
X5824208Y5289200*
X5825108Y5309900*
X5827808Y5328800*
X5832308Y5347700*
X5837708Y5364800*
X5845808Y5381900*
X5854808Y5397200*
X5865608Y5410700*
X5879108Y5424200*
X5892608Y5435900*
X5907908Y5446700*
X5924108Y5455700*
X5942108Y5462900*
X5960108Y5468300*
X5979908Y5471900*
X5999708Y5474600*
X6021308Y5475500*
X6040208Y5474600*
X6059108Y5472800*
X6076208Y5468300*
X6093308Y5463800*
X6109508Y5456600*
X6124808Y5448500*
X6139208Y5438600*
X6153608Y5427800*
X6166208Y5415200*
X6177008Y5401700*
X6186008Y5388200*
X6194108Y5373800*
X6199508Y5359400*
X6204008Y5343200*
X6206708Y5327000*
X6207608Y5309900*
X6206708Y5299100*
X6204008Y5289200*
X6199508Y5282000*
X6193208Y5276600*
X6184208Y5272100*
X6173408Y5269400*
X6159908Y5267600*
X6142808Y5266700*
X6021308Y5408900D02*
X6001508Y5408000D01*
X5982608Y5404400*
X5965508Y5398100*
X5951108Y5390000*
X5937608Y5379200*
X5926808Y5365700*
X5916908Y5350400*
X5909708Y5332400*
X6120308*
X6115808Y5348600*
X6108608Y5363000*
X6098708Y5376500*
X6086108Y5387300*
X6071708Y5397200*
X6056408Y5403500*
X6039308Y5407100*
X6021308Y5408900*
X6195289Y5370650D02*
G36*
X6102998D01*
X6108608Y5363000*
X6115808Y5348600*
X6120308Y5332400*
X5909708*
X5916908Y5350400*
X5926808Y5365700*
X5930768Y5370650*
X5840479*
X5837708Y5364800*
X5832308Y5347700*
X5827808Y5328800*
X5825108Y5309900*
X5824208Y5289200*
X5825108Y5269400*
X5827808Y5249600*
X5831408Y5231600*
X5836808Y5215400*
X5844008Y5199200*
X5853008Y5183900*
X5863808Y5170400*
X5875508Y5157800*
X5889008Y5146100*
X5903408Y5136200*
X5919608Y5128100*
X5935808Y5120900*
X5953808Y5116400*
X5972708Y5111900*
X5992508Y5110100*
X6014108Y5109200*
X6034808Y5110100*
X6055508Y5111000*
X6074408Y5113700*
X6093308Y5117300*
X6111308Y5121800*
X6128408Y5127200*
X6145508Y5133500*
X6160808Y5140700*
X6170708Y5146100*
X6179708Y5152400*
X6186908Y5157800*
X6193208Y5164100*
X6198608Y5170400*
X6201308Y5176700*
X6204008Y5183000*
Y5190200*
X6203108Y5197400*
X6200408Y5203700*
X6197708Y5209100*
X6194108Y5213600*
X6188708Y5217200*
X6183308Y5219900*
X6177008Y5220800*
X6171502Y5221488*
X6170708Y5219900*
X6167108Y5219000*
X6160808Y5216300*
X6151808Y5212700*
X6141008Y5209100*
X6126608Y5204600*
X6109508Y5199200*
X6092408Y5194700*
X6077108Y5190200*
X6062708Y5186600*
X6051008Y5183000*
X6040208Y5180300*
X6031208Y5178500*
X6024008Y5177600*
X6018608*
X5994308Y5178500*
X5974508Y5182100*
X5957408Y5188400*
X5943908Y5197400*
X5935808Y5205500*
X5927708Y5213600*
X5921408Y5221700*
X5916008Y5230700*
X5911508Y5239700*
X5908808Y5247800*
X5906108Y5257700*
X5905208Y5266700*
X6142808*
X6159908Y5267600*
X6173408Y5269400*
X6184208Y5272100*
X6193208Y5276600*
X6199508Y5282000*
X6204008Y5289200*
X6206708Y5299100*
X6207608Y5309900*
X6206708Y5327000*
X6204008Y5343200*
X6199508Y5359400*
X6195289Y5370650*
G37*
X6021308Y5475500D02*
G36*
X5999708Y5474600D01*
X5979908Y5471900*
X5960108Y5468300*
X5942108Y5462900*
X5924108Y5455700*
X5907908Y5446700*
X5892608Y5435900*
X5879108Y5424200*
X5865608Y5410700*
X5854808Y5397200*
X5845808Y5381900*
X5840479Y5370650*
X5930768*
X5937608Y5379200*
X5951108Y5390000*
X5965508Y5398100*
X5982608Y5404400*
X6001508Y5408000*
X6021308Y5408900*
X6039308Y5407100*
X6056408Y5403500*
X6071708Y5397200*
X6086108Y5387300*
X6098708Y5376500*
X6102998Y5370650*
X6195289*
X6194108Y5373800*
X6186008Y5388200*
X6177008Y5401700*
X6166208Y5415200*
X6153608Y5427800*
X6139208Y5438600*
X6124808Y5448500*
X6109508Y5456600*
X6093308Y5463800*
X6076208Y5468300*
X6059108Y5472800*
X6040208Y5474600*
X6021308Y5475500*
G37*
X6294008Y5398100D02*
X6282308Y5399000D01*
X6272408Y5400800*
X6264308Y5403500*
X6257108Y5407100*
X6251708Y5411600*
X6247208Y5417900*
X6245408Y5424200*
X6244508Y5432300*
X6245408Y5439500*
X6247208Y5446700*
X6249908Y5453000*
X6254408Y5458400*
X6260708Y5462900*
X6267908Y5465600*
X6276008Y5466500*
X6285908Y5467400*
X6337208*
X6349808Y5465600*
X6358808Y5461100*
X6364208Y5453900*
X6366908Y5444000*
Y5436800*
X6376808Y5445800*
X6384908Y5453000*
X6393908Y5459300*
X6403808Y5463800*
X6414608Y5468300*
X6425408Y5471000*
X6438008Y5473700*
X6450608Y5474600*
X6464108Y5475500*
X6477608Y5474600*
X6491108Y5472800*
X6503708Y5470100*
X6515408Y5466500*
X6527108Y5461100*
X6537008Y5454800*
X6546908Y5447600*
X6555908Y5439500*
X6563108Y5429600*
X6570308Y5418800*
X6575708Y5408000*
X6581108Y5396300*
X6584708Y5382800*
X6587408Y5369300*
X6588308Y5354900*
X6589208Y5339600*
Y5185700*
X6596408Y5183900*
X6604508Y5180300*
X6610808Y5177600*
X6615308Y5174900*
X6618908Y5173100*
X6620708Y5169500*
X6622508Y5165000*
X6623408Y5159600*
Y5152400*
X6622508Y5144300*
X6620708Y5137100*
X6617108Y5130800*
X6612608Y5126300*
X6606308Y5121800*
X6599108Y5119100*
X6590108Y5118200*
X6580208Y5117300*
X6521708*
X6512708Y5118200*
X6504608Y5119100*
X6497408Y5121800*
X6492008Y5126300*
X6487508Y5130800*
X6484808Y5137100*
X6483008Y5144300*
X6482108Y5152400*
X6483008Y5160500*
X6483908Y5167700*
X6485708Y5174000*
X6489308Y5178500*
X6492908Y5182100*
X6499208Y5183900*
X6507308Y5185700*
X6517208*
Y5326100*
X6516308Y5344100*
X6512708Y5359400*
X6508208Y5372900*
X6501008Y5383700*
X6491108Y5391800*
X6479408Y5398100*
X6465908Y5401700*
X6450608Y5402600*
X6434408Y5400800*
X6419108Y5397200*
X6404708Y5390000*
X6392108Y5380100*
X6381308Y5368400*
X6373208Y5355800*
X6368708Y5341400*
X6366908Y5326100*
Y5185700*
X6369608*
X6380408Y5183900*
X6390308Y5179400*
X6396608Y5174900*
X6400208Y5168600*
X6402908Y5161400*
X6403808Y5152400*
X6402908Y5142500*
X6401108Y5135300*
X6398408Y5129000*
X6393908Y5124500*
X6388508Y5121800*
X6381308Y5119100*
X6373208Y5117300*
X6362408*
X6293108*
X6285008Y5118200*
X6276908Y5119100*
X6270608Y5121800*
X6265208Y5126300*
X6261608Y5130800*
X6258908Y5137100*
X6257108Y5144300*
X6256208Y5152400*
X6258008Y5164100*
X6262508Y5173100*
X6270608Y5180300*
X6281408Y5184800*
X6294008Y5185700*
Y5398100*
G36*
X6282308Y5399000*
X6272408Y5400800*
X6264308Y5403500*
X6257108Y5407100*
X6251708Y5411600*
X6247208Y5417900*
X6245408Y5424200*
X6244508Y5432300*
X6245408Y5439500*
X6247208Y5446700*
X6249908Y5453000*
X6254408Y5458400*
X6260708Y5462900*
X6267908Y5465600*
X6276008Y5466500*
X6285908Y5467400*
X6337208*
X6349808Y5465600*
X6358808Y5461100*
X6364208Y5453900*
X6366908Y5444000*
Y5436800*
X6376808Y5445800*
X6384908Y5453000*
X6393908Y5459300*
X6403808Y5463800*
X6414608Y5468300*
X6425408Y5471000*
X6438008Y5473700*
X6450608Y5474600*
X6464108Y5475500*
X6477608Y5474600*
X6491108Y5472800*
X6503708Y5470100*
X6515408Y5466500*
X6527108Y5461100*
X6537008Y5454800*
X6546908Y5447600*
X6555908Y5439500*
X6563108Y5429600*
X6570308Y5418800*
X6575708Y5408000*
X6581108Y5396300*
X6584708Y5382800*
X6587408Y5369300*
X6588308Y5354900*
X6589208Y5339600*
Y5185700*
X6596408Y5183900*
X6604508Y5180300*
X6610808Y5177600*
X6615308Y5174900*
X6618908Y5173100*
X6620708Y5169500*
X6622508Y5165000*
X6623408Y5159600*
Y5152400*
X6622508Y5144300*
X6620708Y5137100*
X6617108Y5130800*
X6612608Y5126300*
X6606308Y5121800*
X6599108Y5119100*
X6590108Y5118200*
X6580208Y5117300*
X6521708*
X6512708Y5118200*
X6504608Y5119100*
X6497408Y5121800*
X6492008Y5126300*
X6487508Y5130800*
X6484808Y5137100*
X6483008Y5144300*
X6482108Y5152400*
X6483008Y5160500*
X6483908Y5167700*
X6485708Y5174000*
X6489308Y5178500*
X6492908Y5182100*
X6499208Y5183900*
X6507308Y5185700*
X6517208*
Y5326100*
X6516308Y5344100*
X6512708Y5359400*
X6508208Y5372900*
X6501008Y5383700*
X6491108Y5391800*
X6479408Y5398100*
X6465908Y5401700*
X6450608Y5402600*
X6434408Y5400800*
X6419108Y5397200*
X6404708Y5390000*
X6392108Y5380100*
X6381308Y5368400*
X6373208Y5355800*
X6368708Y5341400*
X6366908Y5326100*
Y5185700*
X6369608*
X6380408Y5183900*
X6390308Y5179400*
X6396608Y5174900*
X6400208Y5168600*
X6402908Y5161400*
X6403808Y5152400*
X6402908Y5142500*
X6401108Y5135300*
X6398408Y5129000*
X6393908Y5124500*
X6388508Y5121800*
X6381308Y5119100*
X6373208Y5117300*
X6362408*
X6293108*
X6285008Y5118200*
X6276908Y5119100*
X6270608Y5121800*
X6265208Y5126300*
X6261608Y5130800*
X6258908Y5137100*
X6257108Y5144300*
X6256208Y5152400*
X6258008Y5164100*
X6262508Y5173100*
X6270608Y5180300*
X6281408Y5184800*
X6294008Y5185700*
Y5398100*
G37*
X6852908Y5109200D02*
X6846608D01*
X6835808Y5110100*
X6822308*
X6806108Y5111000*
X6771008Y5117300*
X6740408Y5124500*
X6723308Y5113700*
X6711608Y5110100*
X6702608Y5109200*
X6694508Y5110100*
X6688208Y5111900*
X6681908Y5115500*
X6677408Y5120000*
X6672908Y5126300*
X6670208Y5133500*
X6669308Y5142500*
X6668408Y5152400*
Y5216300*
X6670208Y5223500*
X6674708Y5228000*
X6682808Y5231600*
X6693608Y5232500*
X6701708Y5231600*
X6708008Y5228000*
X6714308Y5222600*
X6718808Y5215400*
X6719708Y5212700*
X6720608Y5208200*
X6721508Y5202800*
Y5196500*
X6724208Y5188400*
X6729608Y5183000*
X6781808Y5173100*
X6795308Y5168600*
X6810608Y5165900*
X6826808Y5165000*
X6843908Y5164100*
X6858308Y5165000*
X6873608Y5168600*
X6888008Y5174900*
X6903308Y5183000*
X6909608Y5189300*
X6915008Y5197400*
X6917708Y5208200*
X6918608Y5220800*
X6917708Y5229800*
X6914108Y5237000*
X6908708Y5243300*
X6900608Y5248700*
X6889808Y5253200*
X6878108Y5255900*
X6862808Y5257700*
X6845708Y5258600*
X6826808*
X6807008*
X6789008Y5260400*
X6772808Y5262200*
X6757508Y5264900*
X6743108Y5269400*
X6730508Y5273900*
X6718808Y5279300*
X6708008Y5285600*
X6699008Y5292800*
X6690908Y5300900*
X6683708Y5309900*
X6678308Y5318900*
X6673808Y5329700*
X6671108Y5341400*
X6669308Y5353100*
X6668408Y5366600*
X6669308Y5379200*
X6671108Y5390900*
X6673808Y5401700*
X6678308Y5411600*
X6684608Y5421500*
X6690908Y5430500*
X6699908Y5438600*
X6708908Y5446700*
X6719708Y5453000*
X6731408Y5459300*
X6744008Y5463800*
X6756608Y5468300*
X6771008Y5471000*
X6786308Y5473700*
X6802508Y5474600*
X6819608Y5475500*
X6836708*
X6841208Y5474600*
X6849308Y5473700*
X6861908Y5471000*
X6877208Y5467400*
X6906008Y5460200*
X6907808Y5461100*
X6913208Y5464700*
X6927608Y5473700*
X6941108Y5475500*
X6949208Y5474600*
X6956408Y5472800*
X6961808Y5469200*
X6966308Y5463800*
X6969908Y5457500*
X6972608Y5450300*
X6974408Y5441300*
Y5430500*
Y5389100*
Y5378300*
X6972608Y5368400*
X6969908Y5361200*
X6966308Y5354900*
X6961808Y5349500*
X6956408Y5345900*
X6950108Y5344100*
X6942008Y5343200*
X6935708Y5344100*
X6929408Y5345900*
X6924008Y5349500*
X6918608Y5354900*
X6917708Y5355800*
Y5358500*
X6916808Y5363000*
Y5369300*
X6915908Y5374700*
X6915008Y5380100*
X6912308Y5384600*
X6909608Y5387300*
X6890708Y5401700*
X6880808Y5406200*
X6870008Y5409800*
X6859208Y5411600*
X6848408Y5412500*
X6853808*
X6855608*
X6854708*
X6851108*
X6843908*
X6834908*
X6822308*
X6807008*
X6794408Y5411600*
X6781808Y5408900*
X6771008Y5405300*
X6761108Y5399900*
X6752108Y5393600*
X6745808Y5386400*
X6742208Y5378300*
X6741308Y5369300*
X6742208Y5363000*
X6743108Y5358500*
X6745808Y5354000*
X6748508Y5349500*
X6753008Y5345900*
X6757508Y5343200*
X6763808Y5340500*
X6771008Y5338700*
X6774608*
X6780008Y5337800*
X6787208Y5336900*
X6795308*
X6805208Y5336000*
X6816908*
X6829508Y5335100*
X6843908*
X6862808Y5334200*
X6880808Y5332400*
X6897008Y5329700*
X6913208Y5326100*
X6927608Y5321600*
X6941108Y5315300*
X6953708Y5309000*
X6965408Y5301800*
X6972608Y5296400*
X6978908Y5289200*
X6984308Y5281100*
X6988808Y5272100*
X6991508Y5262200*
X6994208Y5250500*
X6996008Y5238800*
Y5225300*
X6995108Y5212700*
X6993308Y5200100*
X6990608Y5189300*
X6986108Y5178500*
X6980708Y5167700*
X6974408Y5158700*
X6966308Y5149700*
X6957308Y5141600*
X6947408Y5133500*
X6936608Y5127200*
X6924908Y5121800*
X6912308Y5117300*
X6898808Y5113700*
X6884408Y5111000*
X6869108Y5110100*
X6852908Y5109200*
G36*
X6846608*
X6835808Y5110100*
X6822308*
X6806108Y5111000*
X6771008Y5117300*
X6740408Y5124500*
X6723308Y5113700*
X6711608Y5110100*
X6702608Y5109200*
X6694508Y5110100*
X6688208Y5111900*
X6681908Y5115500*
X6677408Y5120000*
X6672908Y5126300*
X6670208Y5133500*
X6669308Y5142500*
X6668408Y5152400*
Y5216300*
X6670208Y5223500*
X6674708Y5228000*
X6682808Y5231600*
X6693608Y5232500*
X6701708Y5231600*
X6708008Y5228000*
X6714308Y5222600*
X6718808Y5215400*
X6719708Y5212700*
X6720608Y5208200*
X6721508Y5202800*
Y5196500*
X6724208Y5188400*
X6729608Y5183000*
X6781808Y5173100*
X6795308Y5168600*
X6810608Y5165900*
X6826808Y5165000*
X6843908Y5164100*
X6858308Y5165000*
X6873608Y5168600*
X6888008Y5174900*
X6903308Y5183000*
X6909608Y5189300*
X6915008Y5197400*
X6917708Y5208200*
X6918608Y5220800*
X6917708Y5229800*
X6914108Y5237000*
X6908708Y5243300*
X6900608Y5248700*
X6889808Y5253200*
X6878108Y5255900*
X6862808Y5257700*
X6845708Y5258600*
X6826808*
X6807008*
X6789008Y5260400*
X6772808Y5262200*
X6757508Y5264900*
X6743108Y5269400*
X6730508Y5273900*
X6718808Y5279300*
X6708008Y5285600*
X6699008Y5292800*
X6690908Y5300900*
X6683708Y5309900*
X6678308Y5318900*
X6673808Y5329700*
X6671108Y5341400*
X6669308Y5353100*
X6668408Y5366600*
X6669308Y5379200*
X6671108Y5390900*
X6673808Y5401700*
X6678308Y5411600*
X6684608Y5421500*
X6690908Y5430500*
X6699908Y5438600*
X6708908Y5446700*
X6719708Y5453000*
X6731408Y5459300*
X6744008Y5463800*
X6756608Y5468300*
X6771008Y5471000*
X6786308Y5473700*
X6802508Y5474600*
X6819608Y5475500*
X6836708*
X6841208Y5474600*
X6849308Y5473700*
X6861908Y5471000*
X6877208Y5467400*
X6906008Y5460200*
X6907808Y5461100*
X6913208Y5464700*
X6927608Y5473700*
X6941108Y5475500*
X6949208Y5474600*
X6956408Y5472800*
X6961808Y5469200*
X6966308Y5463800*
X6969908Y5457500*
X6972608Y5450300*
X6974408Y5441300*
Y5430500*
Y5389100*
Y5378300*
X6972608Y5368400*
X6969908Y5361200*
X6966308Y5354900*
X6961808Y5349500*
X6956408Y5345900*
X6950108Y5344100*
X6942008Y5343200*
X6935708Y5344100*
X6929408Y5345900*
X6924008Y5349500*
X6918608Y5354900*
X6917708Y5355800*
Y5358500*
X6916808Y5363000*
Y5369300*
X6915908Y5374700*
X6915008Y5380100*
X6912308Y5384600*
X6909608Y5387300*
X6890708Y5401700*
X6880808Y5406200*
X6870008Y5409800*
X6859208Y5411600*
X6848408Y5412500*
X6853808*
X6855608*
X6854708*
X6851108*
X6843908*
X6834908*
X6822308*
X6807008*
X6794408Y5411600*
X6781808Y5408900*
X6771008Y5405300*
X6761108Y5399900*
X6752108Y5393600*
X6745808Y5386400*
X6742208Y5378300*
X6741308Y5369300*
X6742208Y5363000*
X6743108Y5358500*
X6745808Y5354000*
X6748508Y5349500*
X6753008Y5345900*
X6757508Y5343200*
X6763808Y5340500*
X6771008Y5338700*
X6774608*
X6780008Y5337800*
X6787208Y5336900*
X6795308*
X6805208Y5336000*
X6816908*
X6829508Y5335100*
X6843908*
X6862808Y5334200*
X6880808Y5332400*
X6897008Y5329700*
X6913208Y5326100*
X6927608Y5321600*
X6941108Y5315300*
X6953708Y5309000*
X6965408Y5301800*
X6972608Y5296400*
X6978908Y5289200*
X6984308Y5281100*
X6988808Y5272100*
X6991508Y5262200*
X6994208Y5250500*
X6996008Y5238800*
Y5225300*
X6995108Y5212700*
X6993308Y5200100*
X6990608Y5189300*
X6986108Y5178500*
X6980708Y5167700*
X6974408Y5158700*
X6966308Y5149700*
X6957308Y5141600*
X6947408Y5133500*
X6936608Y5127200*
X6924908Y5121800*
X6912308Y5117300*
X6898808Y5113700*
X6884408Y5111000*
X6869108Y5110100*
X6852908Y5109200*
G37*
X7347908Y5266700D02*
X7110308D01*
X7111208Y5257700*
X7113908Y5247800*
X7116608Y5239700*
X7121108Y5230700*
X7126508Y5221700*
X7132808Y5213600*
X7140908Y5205500*
X7149008Y5197400*
X7162508Y5188400*
X7179608Y5182100*
X7199408Y5178500*
X7223708Y5177600*
X7229108*
X7236308Y5178500*
X7245308Y5180300*
X7256108Y5183000*
X7267808Y5186600*
X7282208Y5190200*
X7297508Y5194700*
X7314608Y5199200*
X7331708Y5204600*
X7346108Y5209100*
X7356908Y5212700*
X7365908Y5216300*
X7372208Y5219000*
X7375808Y5219900*
X7376708Y5221700*
X7374908*
X7382108Y5220800*
X7388408Y5219900*
X7393808Y5217200*
X7399208Y5213600*
X7402808Y5209100*
X7405508Y5203700*
X7408208Y5197400*
X7409108Y5190200*
Y5183000*
X7406408Y5176700*
X7403708Y5170400*
X7398308Y5164100*
X7392008Y5157800*
X7384808Y5152400*
X7375808Y5146100*
X7365908Y5140700*
X7350608Y5133500*
X7333508Y5127200*
X7316408Y5121800*
X7298408Y5117300*
X7279508Y5113700*
X7260608Y5111000*
X7239908Y5110100*
X7219208Y5109200*
X7197608Y5110100*
X7177808Y5111900*
X7158908Y5116400*
X7140908Y5120900*
X7124708Y5128100*
X7108508Y5136200*
X7094108Y5146100*
X7080608Y5157800*
X7068908Y5170400*
X7058108Y5183900*
X7049108Y5199200*
X7041908Y5215400*
X7036508Y5231600*
X7032908Y5249600*
X7030208Y5269400*
X7029308Y5289200*
X7030208Y5309900*
X7032908Y5328800*
X7037408Y5347700*
X7042808Y5364800*
X7050908Y5381900*
X7059908Y5397200*
X7070708Y5410700*
X7084208Y5424200*
X7097708Y5435900*
X7113008Y5446700*
X7129208Y5455700*
X7147208Y5462900*
X7165208Y5468300*
X7185008Y5471900*
X7204808Y5474600*
X7226408Y5475500*
X7245308Y5474600*
X7264208Y5472800*
X7281308Y5468300*
X7298408Y5463800*
X7314608Y5456600*
X7329908Y5448500*
X7344308Y5438600*
X7358708Y5427800*
X7371308Y5415200*
X7382108Y5401700*
X7391108Y5388200*
X7399208Y5373800*
X7404608Y5359400*
X7409108Y5343200*
X7411808Y5327000*
X7412708Y5309900*
X7411808Y5299100*
X7409108Y5289200*
X7404608Y5282000*
X7398308Y5276600*
X7389308Y5272100*
X7378508Y5269400*
X7365008Y5267600*
X7347908Y5266700*
X7226408Y5408900D02*
X7206608Y5408000D01*
X7187708Y5404400*
X7170608Y5398100*
X7156208Y5390000*
X7142708Y5379200*
X7131908Y5365700*
X7122008Y5350400*
X7114808Y5332400*
X7325408*
X7320908Y5348600*
X7313708Y5363000*
X7303808Y5376500*
X7291208Y5387300*
X7276808Y5397200*
X7261508Y5403500*
X7244408Y5407100*
X7226408Y5408900*
X7400389Y5370650D02*
G36*
X7308098D01*
X7313708Y5363000*
X7320908Y5348600*
X7325408Y5332400*
X7114808*
X7122008Y5350400*
X7131908Y5365700*
X7135868Y5370650*
X7045579*
X7042808Y5364800*
X7037408Y5347700*
X7032908Y5328800*
X7030208Y5309900*
X7029308Y5289200*
X7030208Y5269400*
X7032908Y5249600*
X7036508Y5231600*
X7041908Y5215400*
X7049108Y5199200*
X7058108Y5183900*
X7068908Y5170400*
X7080608Y5157800*
X7094108Y5146100*
X7108508Y5136200*
X7124708Y5128100*
X7140908Y5120900*
X7158908Y5116400*
X7177808Y5111900*
X7197608Y5110100*
X7219208Y5109200*
X7239908Y5110100*
X7260608Y5111000*
X7279508Y5113700*
X7298408Y5117300*
X7316408Y5121800*
X7333508Y5127200*
X7350608Y5133500*
X7365908Y5140700*
X7375808Y5146100*
X7384808Y5152400*
X7392008Y5157800*
X7398308Y5164100*
X7403708Y5170400*
X7406408Y5176700*
X7409108Y5183000*
Y5190200*
X7408208Y5197400*
X7405508Y5203700*
X7402808Y5209100*
X7399208Y5213600*
X7393808Y5217200*
X7388408Y5219900*
X7382108Y5220800*
X7376602Y5221488*
X7375808Y5219900*
X7372208Y5219000*
X7365908Y5216300*
X7356908Y5212700*
X7346108Y5209100*
X7331708Y5204600*
X7314608Y5199200*
X7297508Y5194700*
X7282208Y5190200*
X7267808Y5186600*
X7256108Y5183000*
X7245308Y5180300*
X7236308Y5178500*
X7229108Y5177600*
X7223708*
X7199408Y5178500*
X7179608Y5182100*
X7162508Y5188400*
X7149008Y5197400*
X7140908Y5205500*
X7132808Y5213600*
X7126508Y5221700*
X7121108Y5230700*
X7116608Y5239700*
X7113908Y5247800*
X7111208Y5257700*
X7110308Y5266700*
X7347908*
X7365008Y5267600*
X7378508Y5269400*
X7389308Y5272100*
X7398308Y5276600*
X7404608Y5282000*
X7409108Y5289200*
X7411808Y5299100*
X7412708Y5309900*
X7411808Y5327000*
X7409108Y5343200*
X7404608Y5359400*
X7400389Y5370650*
G37*
X7226408Y5475500D02*
G36*
X7204808Y5474600D01*
X7185008Y5471900*
X7165208Y5468300*
X7147208Y5462900*
X7129208Y5455700*
X7113008Y5446700*
X7097708Y5435900*
X7084208Y5424200*
X7070708Y5410700*
X7059908Y5397200*
X7050908Y5381900*
X7045579Y5370650*
X7135868*
X7142708Y5379200*
X7156208Y5390000*
X7170608Y5398100*
X7187708Y5404400*
X7206608Y5408000*
X7226408Y5408900*
X7244408Y5407100*
X7261508Y5403500*
X7276808Y5397200*
X7291208Y5387300*
X7303808Y5376500*
X7308098Y5370650*
X7400389*
X7399208Y5373800*
X7391108Y5388200*
X7382108Y5401700*
X7371308Y5415200*
X7358708Y5427800*
X7344308Y5438600*
X7329908Y5448500*
X7314608Y5456600*
X7298408Y5463800*
X7281308Y5468300*
X7264208Y5472800*
X7245308Y5474600*
X7226408Y5475500*
G37*
X7789808Y5186600D02*
X7799708Y5185700D01*
X7808708Y5184800*
X7815908Y5182100*
X7822208Y5178500*
X7826708Y5173100*
X7830308Y5167700*
X7832108Y5160500*
X7833008Y5153300*
X7832108Y5144300*
X7829408Y5137100*
X7825808Y5130800*
X7820408Y5126300*
X7813208Y5122700*
X7804208Y5119100*
X7794308Y5118200*
X7781708Y5117300*
X7707908*
X7697108*
X7688108Y5118200*
X7680008Y5119100*
X7673708Y5120000*
X7669208Y5121800*
X7665608Y5124500*
X7662908Y5126300*
Y5129900*
Y5133500*
X7665608Y5139800*
X7668308Y5147000*
X7669208Y5153300*
X7670108Y5161400*
X7671008Y5168600*
X7672808Y5174000*
X7676408Y5178500*
X7680908Y5182100*
X7688108Y5183900*
X7697108Y5185700*
X7707908*
X7716008Y5186600*
Y5318900*
X7561208*
Y5186600*
X7576508Y5185700*
X7586408*
X7593608Y5183900*
X7599008Y5180300*
X7603508Y5175800*
X7604408Y5172200*
X7605308Y5166800*
X7606208Y5159600*
Y5149700*
Y5140700*
X7605308Y5132600*
X7604408Y5127200*
X7602608Y5124500*
X7599008Y5120900*
X7592708Y5119100*
X7584608Y5117300*
X7574708*
X7479308*
X7471208Y5118200*
X7464008Y5119100*
X7457708Y5122700*
X7453208Y5126300*
X7449608Y5130800*
X7446008Y5137100*
X7445108Y5144300*
X7444208Y5153300*
X7445108Y5160500*
X7446908Y5167700*
X7450508Y5173100*
X7455008Y5178500*
X7461308Y5182100*
X7468508Y5184800*
X7477508Y5185700*
X7487408Y5186600*
Y5495300*
X7477508Y5496200*
X7469408Y5497100*
X7462208Y5498900*
X7456808Y5500700*
X7446008Y5514200*
X7444208Y5530400*
Y5538500*
X7445108Y5545700*
X7447808Y5552000*
X7451408Y5556500*
X7456808Y5560100*
X7463108Y5562800*
X7471208Y5564600*
X7480208Y5565500*
X7571108*
X7581908Y5564600*
X7591808Y5563700*
X7599008Y5561000*
X7603508Y5556500*
X7606208Y5552900*
X7608008Y5546600*
X7608908Y5539400*
Y5530400*
Y5521400*
X7607108Y5513300*
X7605308Y5507000*
X7601708Y5502500*
X7597208Y5498900*
X7590008Y5497100*
X7580108Y5495300*
X7568408*
X7561208*
Y5387300*
X7716008*
Y5495300*
X7701608*
X7691708*
X7683608Y5497100*
X7677308Y5499800*
X7673708Y5503400*
X7671908Y5507900*
X7670108Y5513300*
Y5521400*
X7669208Y5531300*
Y5541200*
Y5547500*
Y5552000*
X7668308*
X7670108Y5556500*
X7673708Y5559200*
X7678208Y5561900*
X7683608Y5563700*
X7710608Y5565500*
X7797908*
X7805108Y5564600*
X7811408Y5563700*
X7817708Y5561000*
X7822208Y5556500*
X7825808Y5552000*
X7829408Y5546600*
X7831208Y5539400*
X7833008Y5531300*
X7832108Y5523200*
X7830308Y5516000*
X7826708Y5509700*
X7822208Y5504300*
X7815908Y5500700*
X7808708Y5497100*
X7799708Y5496200*
X7789808Y5495300*
Y5186600*
G36*
X7799708Y5185700*
X7808708Y5184800*
X7815908Y5182100*
X7822208Y5178500*
X7826708Y5173100*
X7830308Y5167700*
X7832108Y5160500*
X7833008Y5153300*
X7832108Y5144300*
X7829408Y5137100*
X7825808Y5130800*
X7820408Y5126300*
X7813208Y5122700*
X7804208Y5119100*
X7794308Y5118200*
X7781708Y5117300*
X7707908*
X7697108*
X7688108Y5118200*
X7680008Y5119100*
X7673708Y5120000*
X7669208Y5121800*
X7665608Y5124500*
X7662908Y5126300*
Y5129900*
Y5133500*
X7665608Y5139800*
X7668308Y5147000*
X7669208Y5153300*
X7670108Y5161400*
X7671008Y5168600*
X7672808Y5174000*
X7676408Y5178500*
X7680908Y5182100*
X7688108Y5183900*
X7697108Y5185700*
X7707908*
X7716008Y5186600*
Y5318900*
X7561208*
Y5186600*
X7576508Y5185700*
X7586408*
X7593608Y5183900*
X7599008Y5180300*
X7603508Y5175800*
X7604408Y5172200*
X7605308Y5166800*
X7606208Y5159600*
Y5149700*
Y5140700*
X7605308Y5132600*
X7604408Y5127200*
X7602608Y5124500*
X7599008Y5120900*
X7592708Y5119100*
X7584608Y5117300*
X7574708*
X7479308*
X7471208Y5118200*
X7464008Y5119100*
X7457708Y5122700*
X7453208Y5126300*
X7449608Y5130800*
X7446008Y5137100*
X7445108Y5144300*
X7444208Y5153300*
X7445108Y5160500*
X7446908Y5167700*
X7450508Y5173100*
X7455008Y5178500*
X7461308Y5182100*
X7468508Y5184800*
X7477508Y5185700*
X7487408Y5186600*
Y5495300*
X7477508Y5496200*
X7469408Y5497100*
X7462208Y5498900*
X7456808Y5500700*
X7446008Y5514200*
X7444208Y5530400*
Y5538500*
X7445108Y5545700*
X7447808Y5552000*
X7451408Y5556500*
X7456808Y5560100*
X7463108Y5562800*
X7471208Y5564600*
X7480208Y5565500*
X7571108*
X7581908Y5564600*
X7591808Y5563700*
X7599008Y5561000*
X7603508Y5556500*
X7606208Y5552900*
X7608008Y5546600*
X7608908Y5539400*
Y5530400*
Y5521400*
X7607108Y5513300*
X7605308Y5507000*
X7601708Y5502500*
X7597208Y5498900*
X7590008Y5497100*
X7580108Y5495300*
X7568408*
X7561208*
Y5387300*
X7716008*
Y5495300*
X7701608*
X7691708*
X7683608Y5497100*
X7677308Y5499800*
X7673708Y5503400*
X7671908Y5507900*
X7670108Y5513300*
Y5521400*
X7669208Y5531300*
Y5541200*
Y5547500*
Y5552000*
X7668308*
X7670108Y5556500*
X7673708Y5559200*
X7678208Y5561900*
X7683608Y5563700*
X7710608Y5565500*
X7797908*
X7805108Y5564600*
X7811408Y5563700*
X7817708Y5561000*
X7822208Y5556500*
X7825808Y5552000*
X7829408Y5546600*
X7831208Y5539400*
X7833008Y5531300*
X7832108Y5523200*
X7830308Y5516000*
X7826708Y5509700*
X7822208Y5504300*
X7815908Y5500700*
X7808708Y5497100*
X7799708Y5496200*
X7789808Y5495300*
Y5186600*
G37*
X8240708Y5126300D02*
X8235308Y5121800D01*
X8229008Y5119100*
X8221808Y5117300*
X8213708Y5116400*
X8156108*
X8148908Y5117300*
X8142608Y5119100*
X8137208Y5121800*
X8131808Y5125400*
X8128208Y5130800*
X8124608Y5137100*
X8122808Y5145200*
X8121008Y5153300*
X8106608Y5143400*
X8091308Y5134400*
X8076008Y5126300*
X8059808Y5120000*
X8043608Y5115500*
X8026508Y5111900*
X8009408Y5110100*
X7992308Y5109200*
X7977908Y5110100*
X7964408Y5111000*
X7951808Y5113700*
X7939208Y5117300*
X7928408Y5120900*
X7917608Y5126300*
X7907708Y5132600*
X7898708Y5140700*
X7890608Y5148800*
X7883408Y5156900*
X7877108Y5166800*
X7872608Y5176700*
X7868108Y5188400*
X7865408Y5199200*
X7864508Y5211800*
X7863608Y5225300*
X7864508Y5238800*
X7866308Y5252300*
X7869908Y5264900*
X7875308Y5276600*
X7882508Y5288300*
X7890608Y5298200*
X7899608Y5308100*
X7911308Y5317100*
X7923008Y5325200*
X7936508Y5332400*
X7950908Y5338700*
X7967108Y5343200*
X7983308Y5346800*
X8001308Y5350400*
X8020208Y5351300*
X8040008Y5352200*
X8063408*
X8082308Y5349500*
X8097608Y5347700*
X8115608Y5345000*
X8112908Y5359400*
X8109308Y5372000*
X8103008Y5381900*
X8094908Y5390900*
X8085008Y5397200*
X8073308Y5402600*
X8059808Y5405300*
X8044508Y5406200*
X8041808*
X8037308Y5405300*
X8032808Y5404400*
X8025608Y5402600*
X8017508Y5400800*
X8008508Y5398100*
X7997708Y5395400*
X7986008Y5391800*
X7974308Y5388200*
X7964408Y5385500*
X7955408Y5382800*
X7948208Y5381000*
X7942808Y5379200*
X7939208Y5378300*
X7936508Y5377400*
X7935608*
X7929308Y5378300*
X7923008Y5380100*
X7916708Y5383700*
X7910408Y5388200*
X7906808Y5395400*
X7904108Y5401700*
X7903208Y5408900*
X7902308Y5416100*
X7903208Y5422400*
X7905008Y5427800*
X7908608Y5433200*
X7913108Y5438600*
X7919408Y5444000*
X7926608Y5448500*
X7935608Y5453900*
X7945508Y5458400*
X7968908Y5465600*
X7994108Y5471000*
X8022008Y5474600*
X8052608Y5475500*
X8068808Y5474600*
X8085008Y5473700*
X8099408Y5471000*
X8112008Y5466500*
X8124608Y5462000*
X8136308Y5455700*
X8146208Y5449400*
X8155208Y5441300*
X8163308Y5432300*
X8170508Y5421500*
X8175908Y5410700*
X8181308Y5398100*
X8184908Y5384600*
X8187608Y5370200*
X8188508Y5354900*
X8189408Y5338700*
Y5185700*
X8198408*
X8211008Y5184800*
X8221808Y5183900*
X8230808Y5181200*
X8238008Y5176700*
X8243408Y5172200*
X8247008Y5165900*
X8249708Y5158700*
X8250608Y5150600*
X8249708Y5144300*
X8247908Y5137100*
X8245208Y5131700*
X8240708Y5126300*
X8115608Y5277500D02*
X8104808Y5280200D01*
X8080508Y5285600*
X8049908Y5288300*
X8027408*
X8006708Y5286500*
X7988708Y5281100*
X7971608Y5273900*
X7963508Y5269400*
X7957208Y5264900*
X7951808Y5259500*
X7947308Y5254100*
X7943708Y5247800*
X7941008Y5241500*
X7940108Y5235200*
X7939208Y5228000*
X7940108Y5219900*
X7943708Y5211800*
X7948208Y5202800*
X7955408Y5194700*
X7965308Y5189300*
X7976108Y5185700*
X7987808Y5183000*
X8001308Y5182100*
X8022008Y5183000*
X8041808Y5187500*
X8060708Y5193800*
X8078708Y5202800*
X8087708Y5208200*
X8094908Y5213600*
X8101208Y5218100*
X8106608Y5223500*
X8110208Y5228900*
X8112908Y5234300*
X8114708Y5239700*
X8115608Y5246000*
Y5277500*
X8189408Y5235200D02*
G36*
X8113208D01*
X8112908Y5234300*
X8110208Y5228900*
X8106608Y5223500*
X8101208Y5218100*
X8094908Y5213600*
X8087708Y5208200*
X8078708Y5202800*
X8060708Y5193800*
X8041808Y5187500*
X8022008Y5183000*
X8001308Y5182100*
X7987808Y5183000*
X7976108Y5185700*
X7965308Y5189300*
X7955408Y5194700*
X7948208Y5202800*
X7943708Y5211800*
X7940108Y5219900*
X7939208Y5228000*
X7940108Y5235200*
X7864268*
X7863608Y5225300*
X7864508Y5211800*
X7865408Y5199200*
X7868108Y5188400*
X7872608Y5176700*
X7877108Y5166800*
X7883408Y5156900*
X7890608Y5148800*
X7898708Y5140700*
X7907708Y5132600*
X7917608Y5126300*
X7928408Y5120900*
X7939208Y5117300*
X7951808Y5113700*
X7964408Y5111000*
X7977908Y5110100*
X7992308Y5109200*
X8009408Y5110100*
X8026508Y5111900*
X8043608Y5115500*
X8059808Y5120000*
X8076008Y5126300*
X8091308Y5134400*
X8106608Y5143400*
X8121008Y5153300*
X8122808Y5145200*
X8124608Y5137100*
X8128208Y5130800*
X8131808Y5125400*
X8137208Y5121800*
X8142608Y5119100*
X8148908Y5117300*
X8156108Y5116400*
X8213708*
X8221808Y5117300*
X8229008Y5119100*
X8235308Y5121800*
X8240708Y5126300*
X8245208Y5131700*
X8247908Y5137100*
X8249708Y5144300*
X8250608Y5150600*
X8249708Y5158700*
X8247008Y5165900*
X8243408Y5172200*
X8238008Y5176700*
X8230808Y5181200*
X8221808Y5183900*
X8211008Y5184800*
X8198408Y5185700*
X8189408*
Y5235200*
G37*
X8052608Y5475500D02*
G36*
X8022008Y5474600D01*
X7994108Y5471000*
X7968908Y5465600*
X7945508Y5458400*
X7935608Y5453900*
X7926608Y5448500*
X7919408Y5444000*
X7913108Y5438600*
X7908608Y5433200*
X7905008Y5427800*
X7903208Y5422400*
X7902308Y5416100*
X7903208Y5408900*
X7904108Y5401700*
X7906808Y5395400*
X7910408Y5388200*
X7916708Y5383700*
X7923008Y5380100*
X7929308Y5378300*
X7935608Y5377400*
X7936508*
X7939208Y5378300*
X7942808Y5379200*
X7948208Y5381000*
X7955408Y5382800*
X7964408Y5385500*
X7974308Y5388200*
X7986008Y5391800*
X7997708Y5395400*
X8008508Y5398100*
X8017508Y5400800*
X8025608Y5402600*
X8032808Y5404400*
X8037308Y5405300*
X8041808Y5406200*
X8044508*
X8059808Y5405300*
X8073308Y5402600*
X8085008Y5397200*
X8094908Y5390900*
X8103008Y5381900*
X8109308Y5372000*
X8112908Y5359400*
X8115608Y5345000*
X8097608Y5347700*
X8082308Y5349500*
X8063408Y5352200*
X8040008*
X8020208Y5351300*
X8001308Y5350400*
X7983308Y5346800*
X7967108Y5343200*
X7950908Y5338700*
X7936508Y5332400*
X7923008Y5325200*
X7911308Y5317100*
X7899608Y5308100*
X7890608Y5298200*
X7882508Y5288300*
X7875308Y5276600*
X7869908Y5264900*
X7866308Y5252300*
X7864508Y5238800*
X7864268Y5235200*
X7940108*
X7941008Y5241500*
X7943708Y5247800*
X7947308Y5254100*
X7951808Y5259500*
X7957208Y5264900*
X7963508Y5269400*
X7971608Y5273900*
X7988708Y5281100*
X8006708Y5286500*
X8027408Y5288300*
X8049908*
X8080508Y5285600*
X8104808Y5280200*
X8115608Y5277500*
Y5246000*
X8114708Y5239700*
X8113208Y5235200*
X8189408*
Y5338700*
X8188508Y5354900*
X8187608Y5370200*
X8184908Y5384600*
X8181308Y5398100*
X8175908Y5410700*
X8170508Y5421500*
X8163308Y5432300*
X8155208Y5441300*
X8146208Y5449400*
X8136308Y5455700*
X8124608Y5462000*
X8112008Y5466500*
X8099408Y5471000*
X8085008Y5473700*
X8068808Y5474600*
X8052608Y5475500*
G37*
X8628608Y5495300D02*
X8591708D01*
Y5272100*
X8590808Y5251400*
X8589008Y5231600*
X8586308Y5213600*
X8582708Y5197400*
X8577308Y5182100*
X8571008Y5168600*
X8562908Y5156900*
X8553908Y5146100*
X8544008Y5137100*
X8532308Y5129000*
X8519708Y5121800*
X8505308Y5116400*
X8490008Y5111900*
X8472908Y5109200*
X8454008Y5107400*
X8434208Y5106500*
X8417108*
X8402708Y5107400*
X8390108Y5109200*
X8381108Y5111000*
X8355008Y5118200*
X8346908Y5120000*
X8337008Y5123600*
X8324408Y5129000*
X8313608Y5133500*
X8304608Y5139800*
X8296508Y5145200*
X8290208Y5152400*
X8285708Y5159600*
X8282108Y5167700*
X8280308Y5175800*
X8279408Y5185700*
Y5271200*
X8280308Y5283800*
X8281208Y5294600*
X8283008Y5302700*
X8286608Y5309000*
X8291108Y5312600*
X8296508Y5314400*
X8303708Y5316200*
X8310908Y5318000*
X8322608Y5316200*
X8332508Y5312600*
X8339708Y5307200*
X8345108Y5298200*
X8346908Y5287400*
X8348708Y5268500*
Y5264900*
X8349608Y5243300*
X8352308Y5224400*
X8355908Y5212700*
X8362208Y5202800*
X8369408Y5192900*
X8379308Y5184800*
X8391908Y5178500*
X8404508Y5174000*
X8418008Y5171300*
X8430608Y5170400*
X8452208Y5172200*
X8469308Y5176700*
X8484608Y5184800*
X8496308Y5196500*
X8500808Y5203700*
X8504408Y5210900*
X8508008Y5220800*
X8510708Y5230700*
X8513408Y5241500*
X8515208Y5254100*
X8516108Y5266700*
Y5281100*
Y5495300*
X8427908*
X8414408*
X8402708Y5497100*
X8393708Y5499800*
X8387408Y5502500*
X8382008Y5507900*
X8379308Y5513300*
X8376608Y5521400*
Y5530400*
Y5538500*
X8378408Y5545700*
X8381108Y5552000*
X8384708Y5556500*
X8390108Y5560100*
X8396408Y5563700*
X8403608Y5564600*
X8411708Y5565500*
X8646608*
X8654708Y5564600*
X8661908Y5563700*
X8667308Y5560100*
X8672708Y5556500*
X8676308Y5552000*
X8679008Y5545700*
X8680808Y5538500*
Y5530400*
Y5521400*
X8678108Y5513300*
X8674508Y5507000*
X8670008Y5502500*
X8662808Y5498900*
X8653808Y5497100*
X8643008Y5495300*
X8628608*
G36*
X8591708*
Y5272100*
X8590808Y5251400*
X8589008Y5231600*
X8586308Y5213600*
X8582708Y5197400*
X8577308Y5182100*
X8571008Y5168600*
X8562908Y5156900*
X8553908Y5146100*
X8544008Y5137100*
X8532308Y5129000*
X8519708Y5121800*
X8505308Y5116400*
X8490008Y5111900*
X8472908Y5109200*
X8454008Y5107400*
X8434208Y5106500*
X8417108*
X8402708Y5107400*
X8390108Y5109200*
X8381108Y5111000*
X8355008Y5118200*
X8346908Y5120000*
X8337008Y5123600*
X8324408Y5129000*
X8313608Y5133500*
X8304608Y5139800*
X8296508Y5145200*
X8290208Y5152400*
X8285708Y5159600*
X8282108Y5167700*
X8280308Y5175800*
X8279408Y5185700*
Y5271200*
X8280308Y5283800*
X8281208Y5294600*
X8283008Y5302700*
X8286608Y5309000*
X8291108Y5312600*
X8296508Y5314400*
X8303708Y5316200*
X8310908Y5318000*
X8322608Y5316200*
X8332508Y5312600*
X8339708Y5307200*
X8345108Y5298200*
X8346908Y5287400*
X8348708Y5268500*
Y5264900*
X8349608Y5243300*
X8352308Y5224400*
X8355908Y5212700*
X8362208Y5202800*
X8369408Y5192900*
X8379308Y5184800*
X8391908Y5178500*
X8404508Y5174000*
X8418008Y5171300*
X8430608Y5170400*
X8452208Y5172200*
X8469308Y5176700*
X8484608Y5184800*
X8496308Y5196500*
X8500808Y5203700*
X8504408Y5210900*
X8508008Y5220800*
X8510708Y5230700*
X8513408Y5241500*
X8515208Y5254100*
X8516108Y5266700*
Y5281100*
Y5495300*
X8427908*
X8414408*
X8402708Y5497100*
X8393708Y5499800*
X8387408Y5502500*
X8382008Y5507900*
X8379308Y5513300*
X8376608Y5521400*
Y5530400*
Y5538500*
X8378408Y5545700*
X8381108Y5552000*
X8384708Y5556500*
X8390108Y5560100*
X8396408Y5563700*
X8403608Y5564600*
X8411708Y5565500*
X8646608*
X8654708Y5564600*
X8661908Y5563700*
X8667308Y5560100*
X8672708Y5556500*
X8676308Y5552000*
X8679008Y5545700*
X8680808Y5538500*
Y5530400*
Y5521400*
X8678108Y5513300*
X8674508Y5507000*
X8670008Y5502500*
X8662808Y5498900*
X8653808Y5497100*
X8643008Y5495300*
X8628608*
G37*
X8904008Y5109200D02*
X8883308Y5110100D01*
X8862608Y5111900*
X8843708Y5116400*
X8825708Y5121800*
X8807708Y5129000*
X8791508Y5138000*
X8776208Y5147900*
X8761808Y5159600*
X8749208Y5173100*
X8738408Y5186600*
X8728508Y5201900*
X8720408Y5218100*
X8715008Y5235200*
X8710508Y5253200*
X8707808Y5272100*
X8706908Y5291900*
X8707808Y5311700*
X8710508Y5330600*
X8715008Y5348600*
X8720408Y5365700*
X8728508Y5381900*
X8737508Y5397200*
X8748308Y5411600*
X8761808Y5424200*
X8775308Y5435900*
X8790608Y5446700*
X8806808Y5454800*
X8824808Y5462000*
X8842808Y5467400*
X8862608Y5471000*
X8882408Y5473700*
X8904008Y5474600*
X8925608Y5473700*
X8946308Y5471000*
X8965208Y5467400*
X8984108Y5462000*
X9001208Y5454800*
X9018308Y5445800*
X9033608Y5435900*
X9048008Y5423300*
X9060608Y5410700*
X9071408Y5396300*
X9081308Y5381000*
X9089408Y5364800*
X9094808Y5347700*
X9099308Y5329700*
X9102008Y5311700*
X9102908Y5291900*
X9102008Y5272100*
X9099308Y5254100*
X9094808Y5237000*
X9088508Y5219900*
X9081308Y5203700*
X9071408Y5189300*
X9059708Y5174900*
X9046208Y5161400*
X9031808Y5148800*
X9016508Y5138900*
X9000308Y5129900*
X8982308Y5121800*
X8964308Y5116400*
X8945408Y5112800*
X8925608Y5110100*
X8904008Y5109200*
Y5407100D02*
X8891408Y5406200D01*
X8879708Y5405300*
X8868908Y5402600*
X8858108Y5399000*
X8848208Y5394500*
X8838308Y5388200*
X8829308Y5381900*
X8820308Y5374700*
X8812208Y5365700*
X8805908Y5356700*
X8800508Y5346800*
X8795108Y5336900*
X8791508Y5326100*
X8788808Y5315300*
X8787908Y5303600*
X8787008Y5291900*
X8787908Y5279300*
X8788808Y5267600*
X8791508Y5255900*
X8795108Y5246000*
X8800508Y5236100*
X8805908Y5226200*
X8812208Y5217200*
X8820308Y5209100*
X8829308Y5201000*
X8838308Y5194700*
X8848208Y5189300*
X8858108Y5184800*
X8868908Y5181200*
X8879708Y5178500*
X8891408Y5177600*
X8904008Y5176700*
X8917508Y5177600*
X8930108Y5179400*
X8941808Y5182100*
X8953508Y5186600*
X8965208Y5192900*
X8976008Y5199200*
X8986808Y5208200*
X8996708Y5217200*
X9008408Y5231600*
X9015608Y5248700*
X9020108Y5268500*
X9021908Y5291900*
X9021008Y5303600*
X9020108Y5315300*
X9017408Y5326100*
X9013808Y5336900*
X9009308Y5346800*
X9003008Y5356700*
X8996708Y5365700*
X8988608Y5373800*
X8979608Y5381900*
X8970608Y5388200*
X8960708Y5394500*
X8950808Y5399000*
X8940008Y5402600*
X8928308Y5405300*
X8916608Y5406200*
X8904008Y5407100*
X9102908Y5291900D02*
G36*
X9021908D01*
X9020108Y5268500*
X9015608Y5248700*
X9008408Y5231600*
X8996708Y5217200*
X8986808Y5208200*
X8976008Y5199200*
X8965208Y5192900*
X8953508Y5186600*
X8941808Y5182100*
X8930108Y5179400*
X8917508Y5177600*
X8904008Y5176700*
X8891408Y5177600*
X8879708Y5178500*
X8868908Y5181200*
X8858108Y5184800*
X8848208Y5189300*
X8838308Y5194700*
X8829308Y5201000*
X8820308Y5209100*
X8812208Y5217200*
X8805908Y5226200*
X8800508Y5236100*
X8795108Y5246000*
X8791508Y5255900*
X8788808Y5267600*
X8787908Y5279300*
X8787008Y5291900*
X8706908*
X8707808Y5272100*
X8710508Y5253200*
X8715008Y5235200*
X8720408Y5218100*
X8728508Y5201900*
X8738408Y5186600*
X8749208Y5173100*
X8761808Y5159600*
X8776208Y5147900*
X8791508Y5138000*
X8807708Y5129000*
X8825708Y5121800*
X8843708Y5116400*
X8862608Y5111900*
X8883308Y5110100*
X8904008Y5109200*
X8925608Y5110100*
X8945408Y5112800*
X8964308Y5116400*
X8982308Y5121800*
X9000308Y5129900*
X9016508Y5138900*
X9031808Y5148800*
X9046208Y5161400*
X9059708Y5174900*
X9071408Y5189300*
X9081308Y5203700*
X9088508Y5219900*
X9094808Y5237000*
X9099308Y5254100*
X9102008Y5272100*
X9102908Y5291900*
G37*
X8904008Y5474600D02*
G36*
X8882408Y5473700D01*
X8862608Y5471000*
X8842808Y5467400*
X8824808Y5462000*
X8806808Y5454800*
X8790608Y5446700*
X8775308Y5435900*
X8761808Y5424200*
X8748308Y5411600*
X8737508Y5397200*
X8728508Y5381900*
X8720408Y5365700*
X8715008Y5348600*
X8710508Y5330600*
X8707808Y5311700*
X8706908Y5291900*
X8787008*
X8787908Y5303600*
X8788808Y5315300*
X8791508Y5326100*
X8795108Y5336900*
X8800508Y5346800*
X8805908Y5356700*
X8812208Y5365700*
X8820308Y5374700*
X8829308Y5381900*
X8838308Y5388200*
X8848208Y5394500*
X8858108Y5399000*
X8868908Y5402600*
X8879708Y5405300*
X8891408Y5406200*
X8904008Y5407100*
X8916608Y5406200*
X8928308Y5405300*
X8940008Y5402600*
X8950808Y5399000*
X8960708Y5394500*
X8970608Y5388200*
X8979608Y5381900*
X8988608Y5373800*
X8996708Y5365700*
X9003008Y5356700*
X9009308Y5346800*
X9013808Y5336900*
X9017408Y5326100*
X9020108Y5315300*
X9021008Y5303600*
X9021908Y5291900*
X9102908*
X9102008Y5311700*
X9099308Y5329700*
X9094808Y5347700*
X9089408Y5364800*
X9081308Y5381000*
X9071408Y5396300*
X9060608Y5410700*
X9048008Y5423300*
X9033608Y5435900*
X9018308Y5445800*
X9001208Y5454800*
X8984108Y5462000*
X8965208Y5467400*
X8946308Y5471000*
X8925608Y5473700*
X8904008Y5474600*
G37*
D02*
D101*
X405008Y5081250D02*
X436758Y5049500D01*
X405008Y5271750D02*
X436758Y5303500D01*
X405008Y5271750D02*
Y5081250D01*
X436758Y5049500D02*
X627258D01*
X436758Y5303500D02*
X627258D01*
X659008Y5081250D02*
X627258Y5049500D01*
X659008Y5271750D02*
X627258Y5303500D01*
X659008Y5271750D02*
Y5081250D01*
X955008D02*
X986758Y5049500D01*
X955008Y5271750D02*
X986758Y5303500D01*
X955008Y5271750D02*
Y5081250D01*
X986758Y5049500D02*
X1177258D01*
X986758Y5303500D02*
X1177258D01*
X1209008Y5081250D02*
X1177258Y5049500D01*
X1209008Y5271750D02*
X1177258Y5303500D01*
X1209008Y5271750D02*
Y5081250D01*
X3504728Y3990400D02*
Y3812600D01*
X3159288*
Y3990400*
X3504728*
X3982008Y2026500D02*
G75*
G03Y1726500J-150000D01*
G01*
G75*
G03Y2026500J150000*
G01*
Y2069000D02*
G75*
G03Y1684000J-192500D01*
G01*
G75*
G03X4132008Y1755851J192500*
G01*
Y1997149*
G75*
G03X3982008Y2069000I-150000J-120649*
G01*
X4204728Y2290400D02*
Y2112600D01*
X3859288*
Y2290400*
X4204728*
X4292008Y1861500D02*
Y2576500D01*
X4407008Y2691500*
Y2526500D02*
X4507008D01*
X4407008Y2691500D02*
X4557008D01*
X4457008Y2476500D02*
Y2576500D01*
X4557008Y1861500D02*
X4292008D01*
X4857008Y2691500D02*
X5007008D01*
X5122008Y1861500D02*
X4857008D01*
X5122008Y2576500D02*
X5007008Y2691500D01*
X5122008Y2576500D02*
Y1861500D01*
X5218108Y2674220D02*
X5395908D01*
Y2328780*
X5218108*
Y2674220*
X5457008Y2151500D02*
X5557008D01*
X5457008D02*
Y2501500D01*
X6107008Y2151500D02*
X6007008D01*
X6107008D02*
Y2501500D01*
X6320908Y1953780D02*
X6143108D01*
Y2299220*
X6320908*
Y1953780*
X6417008Y1636500D02*
X6532008D01*
X6417008D02*
Y2001500D01*
X6482008Y2066500*
X6480008Y4506250D02*
X6511758Y4474500D01*
X6480008Y4696750D02*
X6511758Y4728500D01*
X6480008Y4696750D02*
Y4506250D01*
X6482008Y2066500D02*
X6532008D01*
X6511758Y4474500D02*
X6702258D01*
X6511758Y4728500D02*
X6702258D01*
X6734008Y4506250D02*
X6702258Y4474500D01*
X6734008Y4696750D02*
X6702258Y4728500D01*
X6734008Y4696750D02*
Y4506250D01*
X6782008Y2066500D02*
X6732008D01*
X6847008Y1636500D02*
X6732008D01*
X6847008D02*
Y2001500D01*
X6782008Y2066500*
X7184288Y2462600D02*
Y2640400D01*
X7529728*
Y2462600*
X7184288*
X7232008Y1151500D02*
G75*
G03Y851500J-150000D01*
G01*
G75*
G03Y1151500J150000*
G01*
Y1194000D02*
G75*
G03Y809000J-192500D01*
G01*
G75*
G03X7382008Y880851J192500*
G01*
Y1122149*
G75*
G03X7232008Y1194000I-150000J-120649*
G01*
X7404728Y1440400D02*
Y1262600D01*
X7059288*
Y1440400*
X7404728*
X8759288Y3212600D02*
Y3390400D01*
X9104728*
Y3212600*
X8759288*
X9809288Y1762600D02*
Y1940400D01*
X10154728*
Y1762600*
X9809288*
X9880008Y5481250D02*
X9911758Y5449500D01*
X9880008Y5671750D02*
X9911758Y5703500D01*
X9880008Y5671750D02*
Y5481250D01*
X9911758Y5449500D02*
X10102258D01*
X9911758Y5703500D02*
X10102258D01*
X10134008Y5481250D02*
X10102258Y5449500D01*
X10134008Y5671750D02*
X10102258Y5703500D01*
X10134008Y5671750D02*
Y5481250D01*
X10407008Y2001500D02*
G75*
G03Y1701500J-150000D01*
G01*
G75*
G03Y2001500J150000*
G01*
Y2044000D02*
G75*
G03Y1659000J-192500D01*
G01*
G75*
G03X10557008Y1730851J192500*
G01*
Y1972149*
G75*
G03X10407008Y2044000I-150000J-120649*
G01*
X11005008Y3465250D02*
X11036758Y3433500D01*
X11005008Y3719250D02*
X11036758Y3687500D01*
X11005008Y3751000D02*
Y3719250D01*
X11036758Y3687500*
X11005008Y3655750*
Y3465250*
Y4005000D02*
Y3973250D01*
X11036758Y3941500*
X11005008Y3909750*
Y3719250*
Y4163750D02*
Y4005000D01*
X11007008Y4809000D02*
Y4294000D01*
X11036758Y4195500D02*
X11005008Y4163750D01*
X11155008Y1156250D02*
X11186758Y1124500D01*
X11155008Y1346750D02*
X11186758Y1378500D01*
X11155008Y1346750D02*
Y1156250D01*
X11164008Y1656250D02*
Y1846750D01*
X11186758Y1124500D02*
X11345508D01*
X11186758Y1378500D02*
X11377258D01*
X11409008Y1346750*
X11440758Y1378500*
X11631258*
X11195758Y1624500D02*
X11164008Y1656250D01*
X11195758Y1878500D02*
X11164008Y1846750D01*
X11207008Y4742000D02*
G75*
G02X11156208Y4809000I8100J58900D01*
G01*
X11207008Y4742000D02*
G75*
G03X11257808Y4809000I-8100J58900D01*
G01*
X11345508Y1124500D02*
X11377258D01*
X11409008Y1156250*
X11440758Y1124500*
X11631258*
X11407008Y4294000D02*
X11007008D01*
X11407008Y4809000D02*
Y4294000D01*
Y4809000D02*
X11007008D01*
X11440758Y1378500D02*
X11631258D01*
X11663008Y1346750*
X11694758Y1378500*
X11885258*
X11449758Y1624500D02*
X11418008Y1656250D01*
X11449758Y1878500D02*
X11418008Y1846750D01*
X11459288Y912600D02*
Y1090400D01*
X11804728*
Y912600*
X11459288*
X11481258Y3433500D02*
X11036758D01*
X11481258Y4195500D02*
X11513008Y4163750D01*
X11481258Y4195500D02*
X11036758D01*
X11481508Y1878500D02*
X11449758D01*
X11418008Y1846750*
X11386258Y1878500*
X11195758*
X11513008Y3465250D02*
X11481258Y3433500D01*
X11513008Y3719250D02*
X11481258Y3687500D01*
X11513008Y3909750D02*
Y3719250D01*
X11481258Y3687500*
X11513008Y3655750*
Y3465250*
Y4163750D02*
Y3973250D01*
X11481258Y3941500*
X11513008Y3909750*
Y3719250*
X11599508Y1124500D02*
X11631258D01*
X11663008Y1156250*
X11694758Y1124500*
X11885258*
X11631258D02*
X11663008Y1156250D01*
X11631258Y1378500D02*
X11663008Y1346750D01*
X11640258Y1624500D02*
X11449758D01*
X11418008Y1656250*
X11386258Y1624500*
X11195758*
X11694758Y1378500D02*
X11885258D01*
X11917008Y1346750*
X11948758Y1378500*
X12139258*
X11703008Y3872500D02*
X11753808D01*
X11703008D02*
Y3923300D01*
Y4380500D02*
Y4329700D01*
Y4380500D02*
X11753808D01*
X11703758Y1624500D02*
X11672008Y1656250D01*
X11703758Y1878500D02*
X11672008Y1846750D01*
X11735508Y1878500D02*
X11703758D01*
X11672008Y1846750*
X11640258Y1878500*
X11449758*
X11853508Y1124500D02*
X11885258D01*
X11917008Y1156250*
X11948758Y1124500*
X12139258*
X11885258D02*
X11917008Y1156250D01*
X11885258Y1378500D02*
X11917008Y1346750D01*
X11894258Y1624500D02*
X11703758D01*
X11672008Y1656250*
X11640258Y1624500*
X11449758*
X11920908Y4928780D02*
X11743108D01*
Y5274220*
X11920908*
Y4928780*
X11948758Y1378500D02*
X12139258D01*
X12171008Y1346750*
X12202758Y1378500*
X12393258*
X11957758Y1624500D02*
X11926008Y1656250D01*
X11957758Y1878500D02*
X11926008Y1846750D01*
X11970908Y4528780D02*
X11793108D01*
Y4874220*
X11970908*
Y4528780*
X11989508Y1878500D02*
X11957758D01*
X11926008Y1846750*
X11894258Y1878500*
X11703758*
X12022008Y4716500D02*
Y4586500D01*
X12107508Y1124500D02*
X12139258D01*
X12171008Y1156250*
X12202758Y1124500*
X12393258*
X12139258D02*
X12171008Y1156250D01*
X12139258Y1378500D02*
X12171008Y1346750D01*
X12145908Y4928780D02*
X11968108D01*
Y5274220*
X12145908*
Y4928780*
X12148258Y1624500D02*
X11957758D01*
X11926008Y1656250*
X11894258Y1624500*
X11703758*
X12211008Y3872500D02*
X12160208D01*
X12211008Y3923300D02*
Y3872500D01*
Y4380500D02*
Y4329700D01*
X12160208*
Y4380500*
X12211008*
G36*
Y4329700*
X12160208*
Y4380500*
X12211008*
G37*
X12243508Y1878500D02*
X12211758D01*
X12180008Y1846750*
X12148258Y1878500*
X11957758*
X12309288Y3937600D02*
Y4115400D01*
X12654728*
Y3937600*
X12309288*
X12342008Y4716500D02*
Y4586500D01*
X12393258Y1124500D02*
X12425008Y1156250D01*
X12393258Y1378500D02*
X12425008Y1346750D01*
X12402258Y1624500D02*
X12211758D01*
X12180008Y1656250*
X12148258Y1624500*
X11957758*
X12402258Y1878500D02*
X12243508D01*
X12420908Y3553780D02*
X12243108D01*
Y3899220*
X12420908*
Y3553780*
X12425008Y1346750D02*
Y1156250D01*
X12434008Y1656250D02*
X12402258Y1624500D01*
X12434008Y1656250D02*
Y1846750D01*
X12402258Y1878500*
X12504728Y2765400D02*
Y2587600D01*
X12159288*
Y2765400*
X12504728*
X12529728Y5015400D02*
Y4837600D01*
X12184288*
Y5015400*
X12529728*
X12580008Y5556250D02*
X12611758Y5524500D01*
X12580008Y5746750D02*
X12611758Y5778500D01*
X12580008Y5746750D02*
Y5556250D01*
X12595908Y4328780D02*
X12418108D01*
Y4674220*
X12595908*
Y4328780*
X12604728Y2540400D02*
Y2362600D01*
X12259288*
Y2540400*
X12604728*
X12611758Y5524500D02*
X12770508D01*
X12611758Y5778500D02*
X12802258D01*
X12834008Y5746750*
X12865758Y5778500*
X13056258*
X12645908Y3553780D02*
X12468108D01*
Y3899220*
X12645908*
Y3553780*
X12730008Y2181250D02*
X12761758Y2149500D01*
X12730008Y2371750D02*
X12761758Y2403500D01*
X12730008Y2371750D02*
Y2181250D01*
X12761758Y2149500D02*
X12920508D01*
X12761758Y2403500D02*
X12952258D01*
X12984008Y2371750*
X13015758Y2403500*
X13206258*
X12770508Y5524500D02*
X12802258D01*
X12834008Y5556250*
X12865758Y5524500*
X13056258*
X12809288Y1487600D02*
Y1665400D01*
X13154728*
Y1487600*
X12809288*
Y1937600D02*
Y2115400D01*
X13154728*
Y1937600*
X12809288*
X12920508Y2149500D02*
X12952258D01*
X12984008Y2181250*
X13015758Y2149500*
X13206258*
X12959288Y4262600D02*
Y4440400D01*
X13304728*
Y4262600*
X12959288*
Y4487600D02*
Y4665400D01*
X13304728*
Y4487600*
X12959288*
Y4712600D02*
Y4890400D01*
X13304728*
Y4712600*
X12959288*
X13056258Y5524500D02*
X13088008Y5556250D01*
X13056258Y5778500D02*
X13088008Y5746750D01*
X13079728Y2790400D02*
Y2612600D01*
X12734288*
Y2790400*
X13079728*
Y3240400D02*
Y3062600D01*
X12734288*
Y3240400*
X13079728*
X13088008Y5746750D02*
Y5556250D01*
X13130008Y2606250D02*
X13161758Y2574500D01*
X13130008Y2796750D02*
X13161758Y2828500D01*
X13130008Y2796750D02*
Y2606250D01*
Y3056250D02*
X13161758Y3024500D01*
X13130008Y3246750D02*
X13161758Y3278500D01*
X13130008Y3246750D02*
Y3056250D01*
X13154728Y1890400D02*
Y1712600D01*
X12809288*
Y1890400*
X13154728*
X13161758Y2574500D02*
X13320508D01*
X13161758Y2828500D02*
X13352258D01*
X13384008Y2796750*
X13415758Y2828500*
X13606258*
X13161758Y3024500D02*
X13320508D01*
X13161758Y3278500D02*
X13352258D01*
X13384008Y3246750*
X13415758Y3278500*
X13606258*
X13206258Y2149500D02*
X13238008Y2181250D01*
X13206258Y2403500D02*
X13238008Y2371750D01*
Y2181250*
X13320508Y2574500D02*
X13352258D01*
X13384008Y2606250*
X13415758Y2574500*
X13606258*
X13320508Y3024500D02*
X13352258D01*
X13384008Y3056250*
X13415758Y3024500*
X13606258*
X13415758Y2828500D02*
X13606258D01*
X13638008Y2796750*
X13669758Y2828500*
X13860258*
X13415758Y3278500D02*
X13606258D01*
X13638008Y3246750*
X13669758Y3278500*
X13860258*
X13574508Y2574500D02*
X13606258D01*
X13638008Y2606250*
X13669758Y2574500*
X13860258*
X13574508Y3024500D02*
X13606258D01*
X13638008Y3056250*
X13669758Y3024500*
X13860258*
X13606258Y2574500D02*
X13638008Y2606250D01*
X13606258Y2828500D02*
X13638008Y2796750D01*
X13606258Y3024500D02*
X13638008Y3056250D01*
X13606258Y3278500D02*
X13638008Y3246750D01*
X13860258Y2574500D02*
X13892008Y2606250D01*
X13860258Y2828500D02*
X13892008Y2796750D01*
X13860258Y3024500D02*
X13892008Y3056250D01*
X13860258Y3278500D02*
X13892008Y3246750D01*
Y2796750D02*
Y2606250D01*
Y3246750D02*
Y3056250D01*
X13955008Y4015250D02*
X13986758Y3983500D01*
X13955008Y4269250D02*
X13986758Y4237500D01*
X13955008Y4301000D02*
Y4269250D01*
X13986758Y4237500*
X13955008Y4205750*
Y4015250*
Y4523250D02*
X13986758Y4491500D01*
X13955008Y4555000D02*
Y4523250D01*
X13986758Y4491500*
X13955008Y4459750*
Y4269250*
Y4777250D02*
X13986758Y4745500D01*
X13955008Y4809000D02*
Y4777250D01*
X13986758Y4745500*
X13955008Y4713750*
Y4523250*
Y5063000D02*
Y5031250D01*
X13986758Y4999500*
X13955008Y4967750*
Y4777250*
Y5221750D02*
Y5063000D01*
X13986758Y5253500D02*
X13955008Y5221750D01*
X14177258Y3983500D02*
X13986758D01*
X14177258Y5253500D02*
X14209008Y5221750D01*
X14177258Y5253500D02*
X13986758D01*
X14209008Y4015250D02*
X14177258Y3983500D01*
X14209008Y4269250D02*
X14177258Y4237500D01*
X14209008Y4459750D02*
Y4269250D01*
X14177258Y4237500*
X14209008Y4205750*
Y4015250*
Y4523250D02*
X14177258Y4491500D01*
X14209008Y4713750D02*
Y4523250D01*
X14177258Y4491500*
X14209008Y4459750*
Y4269250*
Y4777250D02*
X14177258Y4745500D01*
X14209008Y4967750D02*
Y4777250D01*
X14177258Y4745500*
X14209008Y4713750*
Y4523250*
Y5221750D02*
Y5031250D01*
X14177258Y4999500*
X14209008Y4967750*
Y4777250*
D02*
D103*
X923907Y4694850D02*
X4200904Y3303847D01*
X3290109Y1158150*
X13112Y2549153*
X923907Y4694850*
X3722008Y991500D02*
X4342008D01*
Y1611500*
X3722008*
Y991500*
X4032008Y1476500D02*
G75*
G03Y1126500J-175000D01*
G01*
G75*
G03Y1476500J175000*
G01*
X6947008Y166500D02*
X7567008D01*
Y786500*
X6947008*
Y166500*
X7257008Y651500D02*
G75*
G03Y301500J-175000D01*
G01*
G75*
G03Y651500J175000*
G01*
X10172008Y991500D02*
X10792008D01*
Y1611500*
X10172008*
Y991500*
X10482008Y1476500D02*
G75*
G03Y1126500J-175000D01*
G01*
G75*
G03Y1476500J175000*
G01*
X11007008Y2826500D02*
G75*
G03X11357008I175000D01*
G01*
G75*
G03X11007008I-175000*
G01*
X11492008Y2516500D02*
Y3136500D01*
X10872008*
Y2516500*
X11492008*
X13982008Y3701500D02*
X13682008D01*
X13982008Y3901500D02*
X13682008D01*
D02*
D175*
X207008Y2326500D02*
Y5551500D01*
X1307008*
Y5826500*
X13207008*
Y5526500*
X14307008*
Y2326500*
X12807008Y826500*
X9357008*
Y126500*
X5157008*
Y826500*
X1707008*
X207008Y2326500*
D02*
D176*
X507008Y4922676D02*
X507008Y5007382D01*
X577596Y4922676*
Y5007382*
X1057008D02*
X1057008Y4922676D01*
X1127596*
X2367656Y4142498D02*
X2433242Y4206679D01*
X2432633Y4114917*
X2394443Y4169470D02*
X2433429Y4152922D01*
X2527622Y4089933D02*
X2518366Y4086194D01*
X2502613Y4085212*
X2483120Y4093486*
X2472883Y4105500*
X2469144Y4114756*
X2468162Y4130510*
X2479194Y4156500*
X2491209Y4166738*
X2500465Y4170478*
X2516217Y4171458*
X2535711Y4163184*
X2545948Y4151171*
X2549687Y4141915*
X2546603Y4066539D02*
X2579700Y4144512D01*
X2618686Y4127963*
X2628924Y4115950*
X2632663Y4106694*
X2633644Y4090940*
X2622612Y4064950*
X2610598Y4054712*
X2601343Y4050972*
X2585589Y4049991*
X2546603Y4066539*
X2706569Y4013975D02*
X2697313Y4010235D01*
X2681560Y4009254*
X2662066Y4017528*
X2651829Y4029542*
X2648090Y4038798*
X2647108Y4054552*
X2658141Y4080542*
X2670155Y4090780*
X2679411Y4094519*
X2695163Y4095500*
X2714657Y4087226*
X2724894Y4075213*
X2728634Y4065957*
X2738544Y3985065D02*
X2764535Y3974033D01*
X2751539Y3979549D02*
X2784636Y4057521D01*
X2766126Y4050042*
X3313196Y4061794D02*
X3306137Y4054735D01*
X3292020Y4047676*
X3270843*
X3256726Y4054735*
X3249667Y4061794*
X3242608Y4075912*
Y4104147*
X3249667Y4118265*
X3256726Y4125324*
X3270843Y4132382*
X3292020*
X3306137Y4125324*
X3313196Y4118265*
X3360984Y4090029D02*
X3375102Y4090029D01*
X3389220Y4097088*
X3396279Y4111206*
X3389220Y4125324*
X3375102Y4132382*
X3360984*
X3346867Y4125324*
X3339808Y4111206*
X3346867Y4097088*
X3360984Y4090029*
X3346867Y4082971*
X3339808Y4068853*
X3346867Y4054735*
X3360984Y4047676*
X3375102*
X3389220Y4054735*
X3396279Y4068853*
X3389220Y4082971*
X3375102Y4090029*
X3901808Y2322676D02*
X3901808Y2407382D01*
X3951220*
X3965337Y2400324*
X3972396Y2386206*
X3965337Y2372088*
X3951220Y2365029*
X3901808*
X3951220D02*
X3972396Y2322676D01*
X4013126D02*
X4041361Y2322676D01*
X4027243D02*
X4027243Y2407382D01*
X4013126Y2393265*
X4080608Y2329735D02*
X4094726Y2322676D01*
X4115902*
X4130020Y2329735*
X4137079Y2343853*
Y2350912*
X4130020Y2365029*
X4115902Y2372088*
X4080608*
Y2407382*
X4137079*
X4170408Y1762382D02*
X4170408Y1677676D01*
X4240996*
X4267608D02*
X4267608Y1762382D01*
X4338196*
X4324079Y1720029D02*
X4267608Y1720029D01*
Y1677676D02*
X4338196Y1677676D01*
X4364808D02*
X4364808Y1762382D01*
X4407161*
X4421279Y1755324*
X4428337Y1748265*
X4435396Y1734147*
Y1705912*
X4428337Y1691794*
X4421279Y1684735*
X4407161Y1677676*
X4364808*
X4476126D02*
X4504361Y1677676D01*
X4490243D02*
X4490243Y1762382D01*
X4476126Y1748265*
X4417608Y1293853D02*
X4424667Y1279735D01*
X4438784Y1272676*
X4467020*
X4481137Y1279735*
X4488196Y1293853*
X4481137Y1307971*
X4467020Y1315029*
X4438784*
X4424667Y1322088*
X4417608Y1336206*
X4424667Y1350324*
X4438784Y1357382*
X4467020*
X4481137Y1350324*
X4488196Y1336206*
X4528926Y1272676D02*
X4557161Y1272676D01*
X4543043D02*
X4543043Y1357382D01*
X4528926Y1343265*
X4922396Y1741794D02*
X4915337Y1734735D01*
X4901220Y1727676*
X4880043*
X4865926Y1734735*
X4858867Y1741794*
X4851808Y1755912*
Y1784147*
X4858867Y1798265*
X4865926Y1805324*
X4880043Y1812382*
X4901220*
X4915337Y1805324*
X4922396Y1798265*
X4963126Y1727676D02*
X4991361Y1727676D01*
X4977243D02*
X4977243Y1812382D01*
X4963126Y1798265*
X5030608Y1748853D02*
X5037667Y1762971D01*
X5051784Y1770029*
X5065902*
X5080020Y1762971*
X5087079Y1748853*
X5080020Y1734735*
X5065902Y1727676*
X5051784*
X5037667Y1734735*
X5030608Y1748853*
Y1770029*
X5037667Y1791206*
X5051784Y1805324*
X5065902Y1812382*
X5271714Y2091888D02*
X5278773Y2084829D01*
X5285832Y2070712*
Y2049535*
X5278773Y2035418*
X5271714Y2028359*
X5257596Y2021300*
X5229361*
X5215243Y2028359*
X5208184Y2035418*
X5201126Y2049535*
Y2070712*
X5208184Y2084829*
X5215243Y2091888*
X5285832Y2132618D02*
X5285832Y2160853D01*
Y2146735D02*
X5201126Y2146735D01*
X5215243Y2132618*
X5278773Y2207159D02*
X5285832Y2221276D01*
Y2235394*
X5278773Y2249512*
X5264655Y2256571*
X5250537Y2249512*
X5243479Y2235394*
Y2221276*
Y2235394D02*
X5236420Y2249512D01*
X5222302Y2256571*
X5208184Y2249512*
X5201126Y2235394*
Y2221276*
X5208184Y2207159*
X5666808Y1821276D02*
X5695043Y1821276D01*
X5680926D02*
X5680926Y1905982D01*
X5666808D02*
X5695043Y1905982D01*
X5788996Y1835394D02*
X5781937Y1828335D01*
X5767820Y1821276*
X5746643*
X5732526Y1828335*
X5725467Y1835394*
X5718408Y1849512*
Y1877747*
X5725467Y1891865*
X5732526Y1898924*
X5746643Y1905982*
X5767820*
X5781937Y1898924*
X5788996Y1891865*
X5815608Y1842453D02*
X5822667Y1856571D01*
X5836784Y1863629*
X5850902*
X5865020Y1856571*
X5872079Y1842453*
X5865020Y1828335*
X5850902Y1821276*
X5836784*
X5822667Y1828335*
X5815608Y1842453*
Y1863629*
X5822667Y1884806*
X5836784Y1898924*
X5850902Y1905982*
X6216714Y1741888D02*
X6223773Y1734829D01*
X6230832Y1720712*
Y1699535*
X6223773Y1685418*
X6216714Y1678359*
X6202596Y1671300*
X6174361*
X6160243Y1678359*
X6153184Y1685418*
X6146126Y1699535*
Y1720712*
X6153184Y1734829*
X6160243Y1741888*
X6230832Y1782618D02*
X6230832Y1810853D01*
Y1796735D02*
X6146126Y1796735D01*
X6160243Y1782618*
X6230832Y1885394D02*
X6146126Y1885394D01*
X6202596Y1850100*
Y1906571*
X6782008Y4572676D02*
X6782008Y4657382D01*
X6831420*
X6845537Y4650324*
X6852596Y4636206*
X6845537Y4622088*
X6831420Y4615029*
X6782008*
X6879208Y4657382D02*
X6879208Y4593853D01*
X6886267Y4579735*
X6900384Y4572676*
X6928620*
X6942737Y4579735*
X6949796Y4593853*
Y4657382*
X6976408Y4572676D02*
X6976408Y4657382D01*
X7011702Y4615029*
X7046996Y4657382*
Y4572676*
X7073608D02*
X7073608Y4657382D01*
X7123020*
X7137137Y4650324*
X7144196Y4636206*
X7137137Y4622088*
X7123020Y4615029*
X7073608*
X7170808Y4572676D02*
X7170808Y4657382D01*
X7241396*
X7227279Y4615029D02*
X7170808Y4615029D01*
Y4572676D02*
X7241396Y4572676D01*
X6971714Y1791888D02*
X6978773Y1784829D01*
X6985832Y1770712*
Y1749535*
X6978773Y1735418*
X6971714Y1728359*
X6957596Y1721300*
X6929361*
X6915243Y1728359*
X6908184Y1735418*
X6901126Y1749535*
Y1770712*
X6908184Y1784829*
X6915243Y1791888*
X6985832Y1832618D02*
X6985832Y1860853D01*
Y1846735D02*
X6901126Y1846735D01*
X6915243Y1832618*
X6978773Y1900100D02*
X6985832Y1914218D01*
Y1935394*
X6978773Y1949512*
X6964655Y1956571*
X6957596*
X6943479Y1949512*
X6936420Y1935394*
Y1900100*
X6901126*
Y1956571*
X7101808Y1510676D02*
X7101808Y1595382D01*
X7151220*
X7165337Y1588324*
X7172396Y1574206*
X7165337Y1560088*
X7151220Y1553029*
X7101808*
X7151220D02*
X7172396Y1510676D01*
X7213126D02*
X7241361Y1510676D01*
X7227243D02*
X7227243Y1595382D01*
X7213126Y1581265*
X7315902Y1510676D02*
X7315902Y1595382D01*
X7280608Y1538912*
X7337079*
X7192608Y2314676D02*
X7192608Y2399382D01*
X7242020*
X7256137Y2392324*
X7263196Y2378206*
X7256137Y2364088*
X7242020Y2357029*
X7192608*
X7242020D02*
X7263196Y2314676D01*
X7289808D02*
X7346279Y2399382D01*
X7289808*
X7617608Y443853D02*
X7624667Y429735D01*
X7638784Y422676*
X7667020*
X7681137Y429735*
X7688196Y443853*
X7681137Y457971*
X7667020Y465029*
X7638784*
X7624667Y472088*
X7617608Y486206*
X7624667Y500324*
X7638784Y507382*
X7667020*
X7681137Y500324*
X7688196Y486206*
X7771279Y422676D02*
X7714808Y422676D01*
X7764220Y472088*
X7771279Y486206*
X7764220Y500324*
X7750102Y507382*
X7728926*
X7714808Y500324*
X7520408Y1032382D02*
X7520408Y947676D01*
X7590996*
X7617608D02*
X7617608Y1032382D01*
X7688196*
X7674079Y990029D02*
X7617608Y990029D01*
Y947676D02*
X7688196Y947676D01*
X7714808D02*
X7714808Y1032382D01*
X7757161*
X7771279Y1025324*
X7778337Y1018265*
X7785396Y1004147*
Y975912*
X7778337Y961794*
X7771279Y954735*
X7757161Y947676*
X7714808*
X7868479D02*
X7812008Y947676D01*
X7861420Y997088*
X7868479Y1011206*
X7861420Y1025324*
X7847302Y1032382*
X7826126*
X7812008Y1025324*
X8842608Y3077676D02*
X8842608Y3162382D01*
X8892020*
X8906137Y3155324*
X8913196Y3141206*
X8906137Y3127088*
X8892020Y3120029*
X8842608*
X8892020D02*
X8913196Y3077676D01*
X8960984Y3120029D02*
X8975102Y3120029D01*
X8989220Y3127088*
X8996279Y3141206*
X8989220Y3155324*
X8975102Y3162382*
X8960984*
X8946867Y3155324*
X8939808Y3141206*
X8946867Y3127088*
X8960984Y3120029*
X8946867Y3112971*
X8939808Y3098853*
X8946867Y3084735*
X8960984Y3077676*
X8975102*
X8989220Y3084735*
X8996279Y3098853*
X8989220Y3112971*
X8975102Y3120029*
X9707008Y5322676D02*
X9707008Y5407382D01*
Y5365029D02*
X9777596Y5365029D01*
Y5322676D02*
X9777596Y5407382D01*
X9804208Y5322676D02*
X9804208Y5407382D01*
X9874796*
X9860679Y5365029D02*
X9804208Y5365029D01*
Y5322676D02*
X9874796Y5322676D01*
X9901408D02*
X9929643Y5322676D01*
X9915526D02*
X9915526Y5407382D01*
X9901408D02*
X9929643Y5407382D01*
X9953008D02*
X10023596Y5407382D01*
X9953008Y5322676*
X10023596*
X10050208Y5407382D02*
X10050208Y5343853D01*
X10057267Y5329735*
X10071384Y5322676*
X10099620*
X10113737Y5329735*
X10120796Y5343853*
Y5407382*
X10147408Y5322676D02*
X10147408Y5407382D01*
X10217996Y5322676*
Y5407382*
X10294020Y5357971D02*
X10315196Y5357971D01*
Y5350912*
X10308137Y5336794*
X10301079Y5329735*
X10286961Y5322676*
X10272843*
X10258726Y5329735*
X10251667Y5336794*
X10244608Y5350912*
Y5379147*
X10251667Y5393265*
X10258726Y5400324*
X10272843Y5407382*
X10286961*
X10301079Y5400324*
X10308137Y5393265*
X10315196Y5379147*
X9776808Y1614676D02*
X9776808Y1699382D01*
X9826220*
X9840337Y1692324*
X9847396Y1678206*
X9840337Y1664088*
X9826220Y1657029*
X9776808*
X9826220D02*
X9847396Y1614676D01*
X9888126D02*
X9916361Y1614676D01*
X9902243D02*
X9902243Y1699382D01*
X9888126Y1685265*
X9962667Y1621735D02*
X9976784Y1614676D01*
X9990902*
X10005020Y1621735*
X10012079Y1635853*
X10005020Y1649971*
X9990902Y1657029*
X9976784*
X9990902D02*
X10005020Y1664088D01*
X10012079Y1678206*
X10005020Y1692324*
X9990902Y1699382*
X9976784*
X9962667Y1692324*
X10395408Y2182382D02*
X10395408Y2097676D01*
X10465996*
X10492608D02*
X10492608Y2182382D01*
X10563196*
X10549079Y2140029D02*
X10492608Y2140029D01*
Y2097676D02*
X10563196Y2097676D01*
X10589808D02*
X10589808Y2182382D01*
X10632161*
X10646279Y2175324*
X10653337Y2168265*
X10660396Y2154147*
Y2125912*
X10653337Y2111794*
X10646279Y2104735*
X10632161Y2097676*
X10589808*
X10694067Y2104735D02*
X10708184Y2097676D01*
X10722302*
X10736420Y2104735*
X10743479Y2118853*
X10736420Y2132971*
X10722302Y2140029*
X10708184*
X10722302D02*
X10736420Y2147088D01*
X10743479Y2161206*
X10736420Y2175324*
X10722302Y2182382*
X10708184*
X10694067Y2175324*
X10820832Y2680700D02*
X10736126Y2680700D01*
Y2730112*
X10743184Y2744229*
X10757302Y2751288*
X10771420Y2744229*
X10778479Y2730112*
Y2680700*
Y2730112D02*
X10820832Y2751288D01*
X10799655Y2777900D02*
X10813773Y2784959D01*
X10820832Y2799076*
Y2827312*
X10813773Y2841429*
X10799655Y2848488*
X10785537Y2841429*
X10778479Y2827312*
Y2799076*
X10771420Y2784959*
X10757302Y2777900*
X10743184Y2784959*
X10736126Y2799076*
Y2827312*
X10743184Y2841429*
X10757302Y2848488*
X10820832Y2910394D02*
X10736126Y2910394D01*
Y2875100D02*
X10736126Y2945688D01*
X10842608Y1293853D02*
X10849667Y1279735D01*
X10863784Y1272676*
X10892020*
X10906137Y1279735*
X10913196Y1293853*
X10906137Y1307971*
X10892020Y1315029*
X10863784*
X10849667Y1322088*
X10842608Y1336206*
X10849667Y1350324*
X10863784Y1357382*
X10892020*
X10906137Y1350324*
X10913196Y1336206*
X10946867Y1279735D02*
X10960984Y1272676D01*
X10975102*
X10989220Y1279735*
X10996279Y1293853*
X10989220Y1307971*
X10975102Y1315029*
X10960984*
X10975102D02*
X10989220Y1322088D01*
X10996279Y1336206*
X10989220Y1350324*
X10975102Y1357382*
X10960984*
X10946867Y1350324*
X11091808Y4864776D02*
X11120043Y4864776D01*
X11105926D02*
X11105926Y4949482D01*
X11091808D02*
X11120043Y4949482D01*
X11213996Y4878894D02*
X11206937Y4871835D01*
X11192820Y4864776*
X11171643*
X11157526Y4871835*
X11150467Y4878894*
X11143408Y4893012*
Y4921247*
X11150467Y4935365*
X11157526Y4942424*
X11171643Y4949482*
X11192820*
X11206937Y4942424*
X11213996Y4935365*
X11297079Y4864776D02*
X11240608Y4864776D01*
X11290020Y4914188*
X11297079Y4928306*
X11290020Y4942424*
X11275902Y4949482*
X11254726*
X11240608Y4942424*
X11222396Y986794D02*
X11215337Y979735D01*
X11201220Y972676*
X11180043*
X11165926Y979735*
X11158867Y986794*
X11151808Y1000912*
Y1029147*
X11158867Y1043265*
X11165926Y1050324*
X11180043Y1057382*
X11201220*
X11215337Y1050324*
X11222396Y1043265*
X11263126Y972676D02*
X11291361Y972676D01*
X11277243D02*
X11277243Y1057382D01*
X11263126Y1043265*
X11337667Y979735D02*
X11351784Y972676D01*
X11365902*
X11380020Y979735*
X11387079Y993853*
Y1036206*
X11380020Y1050324*
X11365902Y1057382*
X11351784*
X11337667Y1050324*
X11330608Y1036206*
Y993853*
X11337667Y979735*
X11380020Y1050324*
X11637232Y3924100D02*
X11637232Y3952335D01*
Y3938218D02*
X11552526Y3938218D01*
Y3924100D02*
X11552526Y3952335D01*
X11616055Y3975700D02*
X11630173Y3982759D01*
X11637232Y3996876*
Y4025112*
X11630173Y4039229*
X11616055Y4046288*
X11601937Y4039229*
X11594879Y4025112*
Y3996876*
X11587820Y3982759*
X11573702Y3975700*
X11559584Y3982759*
X11552526Y3996876*
Y4025112*
X11559584Y4039229*
X11573702Y4046288*
X11637232Y4072900D02*
X11552526Y4072900D01*
Y4122312*
X11559584Y4136429*
X11573702Y4143488*
X11587820Y4136429*
X11594879Y4122312*
Y4072900*
X11746714Y4582688D02*
X11753773Y4575629D01*
X11760832Y4561512*
Y4540335*
X11753773Y4526218*
X11746714Y4519159*
X11732596Y4512100*
X11704361*
X11690243Y4519159*
X11683184Y4526218*
X11676126Y4540335*
Y4561512*
X11683184Y4575629*
X11690243Y4582688*
X11760832Y4644594D02*
X11676126Y4644594D01*
X11732596Y4609300*
Y4665771*
X11741808Y3752676D02*
X11770043Y3752676D01*
X11755926D02*
X11755926Y3837382D01*
X11741808D02*
X11770043Y3837382D01*
X11863996Y3766794D02*
X11856937Y3759735D01*
X11842820Y3752676*
X11821643*
X11807526Y3759735*
X11800467Y3766794*
X11793408Y3780912*
Y3809147*
X11800467Y3823265*
X11807526Y3830324*
X11821643Y3837382*
X11842820*
X11856937Y3830324*
X11863996Y3823265*
X11904726Y3752676D02*
X11932961Y3752676D01*
X11918843D02*
X11918843Y3837382D01*
X11904726Y3823265*
X11941714Y5407688D02*
X11948773Y5400629D01*
X11955832Y5386512*
Y5365335*
X11948773Y5351218*
X11941714Y5344159*
X11927596Y5337100*
X11899361*
X11885243Y5344159*
X11878184Y5351218*
X11871126Y5365335*
Y5386512*
X11878184Y5400629*
X11885243Y5407688*
X11934655Y5434300D02*
X11920537Y5441359D01*
X11913479Y5455476*
Y5469594*
X11920537Y5483712*
X11934655Y5490771*
X11948773Y5483712*
X11955832Y5469594*
Y5455476*
X11948773Y5441359*
X11934655Y5434300*
X11913479*
X11892302Y5441359*
X11878184Y5455476*
X11871126Y5469594*
X11942608Y2647676D02*
X11942608Y2732382D01*
X11992020*
X12006137Y2725324*
X12013196Y2711206*
X12006137Y2697088*
X11992020Y2690029*
X11942608*
X11992020D02*
X12013196Y2647676D01*
X12039808Y2668853D02*
X12046867Y2682971D01*
X12060984Y2690029*
X12075102*
X12089220Y2682971*
X12096279Y2668853*
X12089220Y2654735*
X12075102Y2647676*
X12060984*
X12046867Y2654735*
X12039808Y2668853*
Y2690029*
X12046867Y2711206*
X12060984Y2725324*
X12075102Y2732382*
X12116714Y5407688D02*
X12123773Y5400629D01*
X12130832Y5386512*
Y5365335*
X12123773Y5351218*
X12116714Y5344159*
X12102596Y5337100*
X12074361*
X12060243Y5344159*
X12053184Y5351218*
X12046126Y5365335*
Y5386512*
X12053184Y5400629*
X12060243Y5407688*
X12130832Y5434300D02*
X12046126Y5490771D01*
Y5434300*
X12017608Y2422676D02*
X12017608Y2507382D01*
X12067020*
X12081137Y2500324*
X12088196Y2486206*
X12081137Y2472088*
X12067020Y2465029*
X12017608*
X12067020D02*
X12088196Y2422676D01*
X12114808Y2429735D02*
X12128926Y2422676D01*
X12150102*
X12164220Y2429735*
X12171279Y2443853*
Y2450912*
X12164220Y2465029*
X12150102Y2472088*
X12114808*
Y2507382*
X12171279*
X12405832Y3271300D02*
X12321126Y3271300D01*
Y3320712*
X12328184Y3334829*
X12342302Y3341888*
X12356420Y3334829*
X12363479Y3320712*
Y3271300*
Y3320712D02*
X12405832Y3341888D01*
Y3382618D02*
X12405832Y3410853D01*
Y3396735D02*
X12321126Y3396735D01*
X12335243Y3382618*
X12405832Y3450100D02*
X12321126Y3506571D01*
Y3450100*
X12432008Y4750912D02*
X12432008Y4779147D01*
X12439067Y4793265*
X12446126Y4800324*
X12460243Y4807382*
X12474361*
X12488479Y4800324*
X12495537Y4793265*
X12502596Y4779147*
Y4750912*
X12495537Y4736794*
X12488479Y4729735*
X12474361Y4722676*
X12460243*
X12446126Y4729735*
X12439067Y4736794*
X12432008Y4750912*
X12481420Y4743853D02*
X12502596Y4722676D01*
X12543326D02*
X12571561Y4722676D01*
X12557443D02*
X12557443Y4807382D01*
X12543326Y4793265*
X12482008Y1197676D02*
X12482008Y1282382D01*
X12524361*
X12538479Y1275324*
X12545537Y1268265*
X12552596Y1254147*
Y1225912*
X12545537Y1211794*
X12538479Y1204735*
X12524361Y1197676*
X12482008*
X12579208D02*
X12607443Y1197676D01*
X12593326D02*
X12593326Y1282382D01*
X12579208D02*
X12607443Y1282382D01*
X12630808Y1218853D02*
X12637867Y1204735D01*
X12651984Y1197676*
X12680220*
X12694337Y1204735*
X12701396Y1218853*
X12694337Y1232971*
X12680220Y1240029*
X12651984*
X12637867Y1247088*
X12630808Y1261206*
X12637867Y1275324*
X12651984Y1282382*
X12680220*
X12694337Y1275324*
X12701396Y1261206*
X12728008Y1197676D02*
X12728008Y1282382D01*
X12777420*
X12791537Y1275324*
X12798596Y1261206*
X12791537Y1247088*
X12777420Y1240029*
X12728008*
X12825208Y1282382D02*
X12825208Y1197676D01*
X12895796*
X12922408D02*
X12957702Y1282382D01*
X12992996Y1197676*
X12936526Y1232971D02*
X12978879Y1232971D01*
X13054902Y1197676D02*
X13054902Y1240029D01*
X13019608Y1282382*
X13054902Y1240029D02*
X13090196Y1282382D01*
X12630832Y3271300D02*
X12546126Y3271300D01*
Y3320712*
X12553184Y3334829*
X12567302Y3341888*
X12581420Y3334829*
X12588479Y3320712*
Y3271300*
Y3320712D02*
X12630832Y3341888D01*
Y3382618D02*
X12630832Y3410853D01*
Y3396735D02*
X12546126Y3396735D01*
X12560243Y3382618*
X12609655Y3450100D02*
X12595537Y3457159D01*
X12588479Y3471276*
Y3485394*
X12595537Y3499512*
X12609655Y3506571*
X12623773Y3499512*
X12630832Y3485394*
Y3471276*
X12623773Y3457159*
X12609655Y3450100*
X12588479*
X12567302Y3457159*
X12553184Y3471276*
X12546126Y3485394*
X12419008Y5085676D02*
X12419008Y5170382D01*
X12489596*
X12475479Y5128029D02*
X12419008Y5128029D01*
X12565620D02*
X12579737Y5120971D01*
X12586796Y5106853*
X12579737Y5092735*
X12565620Y5085676*
X12516208*
Y5170382*
X12565620*
X12579737Y5163324*
X12586796Y5149206*
X12579737Y5135088*
X12565620Y5128029*
X12516208*
X12669879Y5085676D02*
X12613408Y5085676D01*
X12662820Y5135088*
X12669879Y5149206*
X12662820Y5163324*
X12648702Y5170382*
X12627526*
X12613408Y5163324*
X12729714Y4482688D02*
X12736773Y4475629D01*
X12743832Y4461512*
Y4440335*
X12736773Y4426218*
X12729714Y4419159*
X12715596Y4412100*
X12687361*
X12673243Y4419159*
X12666184Y4426218*
X12659126Y4440335*
Y4461512*
X12666184Y4475629*
X12673243Y4482688*
X12736773Y4516359D02*
X12743832Y4530476D01*
Y4544594*
X12736773Y4558712*
X12722655Y4565771*
X12708537Y4558712*
X12701479Y4544594*
Y4530476*
Y4544594D02*
X12694420Y4558712D01*
X12680302Y4565771*
X12666184Y4558712*
X12659126Y4544594*
Y4530476*
X12666184Y4516359*
X12657008Y5397676D02*
X12657008Y5482382D01*
X12706420*
X12720537Y5475324*
X12727596Y5461206*
X12720537Y5447088*
X12706420Y5440029*
X12657008*
X12706420D02*
X12727596Y5397676D01*
X12754208D02*
X12754208Y5482382D01*
X12824796*
X12810679Y5440029D02*
X12754208Y5440029D01*
Y5397676D02*
X12824796Y5397676D01*
X12851408D02*
X12851408Y5482382D01*
X12921996*
X12907879Y5440029D02*
X12851408Y5440029D01*
Y5397676D02*
X12921996Y5397676D01*
X12948608D02*
X12948608Y5482382D01*
X12990961*
X13005079Y5475324*
X13012137Y5468265*
X13019196Y5454147*
Y5425912*
X13012137Y5411794*
X13005079Y5404735*
X12990961Y5397676*
X12948608*
X12765302Y2447676D02*
X12765302Y2532382D01*
X12730008D02*
X12800596Y2532382D01*
X12827208Y2447676D02*
X12827208Y2532382D01*
X12897796*
X12883679Y2490029D02*
X12827208Y2490029D01*
Y2447676D02*
X12897796Y2447676D01*
X12924408D02*
X12924408Y2532382D01*
X12959702Y2490029*
X12994996Y2532382*
Y2447676*
X13021608D02*
X13021608Y2532382D01*
X13071020*
X13085137Y2525324*
X13092196Y2511206*
X13085137Y2497088*
X13071020Y2490029*
X13021608*
X12465408Y1702676D02*
X12465408Y1787382D01*
X12514820*
X12528937Y1780324*
X12535996Y1766206*
X12528937Y1752088*
X12514820Y1745029*
X12465408*
X12514820D02*
X12535996Y1702676D01*
X12597902D02*
X12597902Y1787382D01*
X12562608D02*
X12633196Y1787382D01*
X12730396Y1716794D02*
X12723337Y1709735D01*
X12709220Y1702676*
X12688043*
X12673926Y1709735*
X12666867Y1716794*
X12659808Y1730912*
Y1759147*
X12666867Y1773265*
X12673926Y1780324*
X12688043Y1787382*
X12709220*
X12723337Y1780324*
X12730396Y1773265*
X12788196Y3966794D02*
X12781137Y3959735D01*
X12767020Y3952676*
X12745843*
X12731726Y3959735*
X12724667Y3966794*
X12717608Y3980912*
Y4009147*
X12724667Y4023265*
X12731726Y4030324*
X12745843Y4037382*
X12767020*
X12781137Y4030324*
X12788196Y4023265*
X12828926Y3952676D02*
X12857161Y3952676D01*
X12843043D02*
X12843043Y4037382D01*
X12828926Y4023265*
X12847396Y2836794D02*
X12840337Y2829735D01*
X12826220Y2822676*
X12805043*
X12790926Y2829735*
X12783867Y2836794*
X12776808Y2850912*
Y2879147*
X12783867Y2893265*
X12790926Y2900324*
X12805043Y2907382*
X12826220*
X12840337Y2900324*
X12847396Y2893265*
X12888126Y2822676D02*
X12916361Y2822676D01*
X12902243D02*
X12902243Y2907382D01*
X12888126Y2893265*
X13012079Y2822676D02*
X12955608Y2822676D01*
X13005020Y2872088*
X13012079Y2886206*
X13005020Y2900324*
X12990902Y2907382*
X12969726*
X12955608Y2900324*
X12847396Y3324794D02*
X12840337Y3317735D01*
X12826220Y3310676*
X12805043*
X12790926Y3317735*
X12783867Y3324794*
X12776808Y3338912*
Y3367147*
X12783867Y3381265*
X12790926Y3388324*
X12805043Y3395382*
X12826220*
X12840337Y3388324*
X12847396Y3381265*
X12888126Y3310676D02*
X12916361Y3310676D01*
X12902243D02*
X12902243Y3395382D01*
X12888126Y3381265*
X12969726Y3310676D02*
X12997961Y3310676D01*
X12983843D02*
X12983843Y3395382D01*
X12969726Y3381265*
X13042608Y4002676D02*
X13042608Y4087382D01*
X13092020*
X13106137Y4080324*
X13113196Y4066206*
X13106137Y4052088*
X13092020Y4045029*
X13042608*
X13092020D02*
X13113196Y4002676D01*
X13196279D02*
X13139808Y4002676D01*
X13189220Y4052088*
X13196279Y4066206*
X13189220Y4080324*
X13175102Y4087382*
X13153926*
X13139808Y4080324*
X13042608Y4127676D02*
X13042608Y4212382D01*
X13092020*
X13106137Y4205324*
X13113196Y4191206*
X13106137Y4177088*
X13092020Y4170029*
X13042608*
X13092020D02*
X13113196Y4127676D01*
X13153926D02*
X13182161Y4127676D01*
X13168043D02*
X13168043Y4212382D01*
X13153926Y4198265*
X12994008Y4952676D02*
X12994008Y5037382D01*
X13064596*
X13050479Y4995029D02*
X12994008Y4995029D01*
X13140620D02*
X13154737Y4987971D01*
X13161796Y4973853*
X13154737Y4959735*
X13140620Y4952676*
X13091208*
Y5037382*
X13140620*
X13154737Y5030324*
X13161796Y5016206*
X13154737Y5002088*
X13140620Y4995029*
X13091208*
X13202526Y4952676D02*
X13230761Y4952676D01*
X13216643D02*
X13216643Y5037382D01*
X13202526Y5023265*
X13217608Y1477676D02*
X13217608Y1562382D01*
X13267020*
X13281137Y1555324*
X13288196Y1541206*
X13281137Y1527088*
X13267020Y1520029*
X13217608*
X13267020D02*
X13288196Y1477676D01*
X13350102D02*
X13350102Y1562382D01*
X13314808Y1505912*
X13371279*
X13217608Y1772676D02*
X13217608Y1857382D01*
X13267020*
X13281137Y1850324*
X13288196Y1836206*
X13281137Y1822088*
X13267020Y1815029*
X13217608*
X13267020D02*
X13288196Y1772676D01*
X13321867Y1779735D02*
X13335984Y1772676D01*
X13350102*
X13364220Y1779735*
X13371279Y1793853*
X13364220Y1807971*
X13350102Y1815029*
X13335984*
X13350102D02*
X13364220Y1822088D01*
X13371279Y1836206*
X13364220Y1850324*
X13350102Y1857382*
X13335984*
X13321867Y1850324*
X13288196Y1991794D02*
X13281137Y1984735D01*
X13267020Y1977676*
X13245843*
X13231726Y1984735*
X13224667Y1991794*
X13217608Y2005912*
Y2034147*
X13224667Y2048265*
X13231726Y2055324*
X13245843Y2062382*
X13267020*
X13281137Y2055324*
X13288196Y2048265*
X13335984Y1977676D02*
X13350102Y1984735D01*
X13364220Y1998853*
X13371279Y2020029*
Y2041206*
X13364220Y2055324*
X13350102Y2062382*
X13335984*
X13321867Y2055324*
X13314808Y2041206*
X13321867Y2027088*
X13335984Y2020029*
X13350102*
X13364220Y2027088*
X13371279Y2041206*
X13432008Y2849676D02*
X13502596Y2934382D01*
X13432008D02*
X13502596Y2849676D01*
X13564502D02*
X13564502Y2934382D01*
X13529208Y2877912*
X13585679*
X13432008Y3299676D02*
X13502596Y3384382D01*
X13432008D02*
X13502596Y3299676D01*
X13536267Y3306735D02*
X13550384Y3299676D01*
X13564502*
X13578620Y3306735*
X13585679Y3320853*
X13578620Y3334971*
X13564502Y3342029*
X13550384*
X13564502D02*
X13578620Y3349088D01*
X13585679Y3363206*
X13578620Y3377324*
X13564502Y3384382*
X13550384*
X13536267Y3377324*
X13826126Y4951500D02*
X13889655Y4951500D01*
X13903773Y4958559*
X13910832Y4972676*
Y5000912*
X13903773Y5015029*
X13889655Y5022088*
X13826126*
X13889655Y5048700D02*
X13903773Y5055759D01*
X13910832Y5069876*
Y5098112*
X13903773Y5112229*
X13889655Y5119288*
X13875537Y5112229*
X13868479Y5098112*
Y5069876*
X13861420Y5055759*
X13847302Y5048700*
X13833184Y5055759*
X13826126Y5069876*
Y5098112*
X13833184Y5112229*
X13847302Y5119288*
X13868479Y5195312D02*
X13875537Y5209429D01*
X13889655Y5216488*
X13903773Y5209429*
X13910832Y5195312*
Y5145900*
X13826126*
Y5195312*
X13833184Y5209429*
X13847302Y5216488*
X13861420Y5209429*
X13868479Y5195312*
Y5145900*
X13963196Y3566794D02*
X13956137Y3559735D01*
X13942020Y3552676*
X13920843*
X13906726Y3559735*
X13899667Y3566794*
X13892608Y3580912*
Y3609147*
X13899667Y3623265*
X13906726Y3630324*
X13920843Y3637382*
X13942020*
X13956137Y3630324*
X13963196Y3623265*
X14046279Y3552676D02*
X13989808Y3552676D01*
X14039220Y3602088*
X14046279Y3616206*
X14039220Y3630324*
X14025102Y3637382*
X14003926*
X13989808Y3630324*
D02*
D188*
X6560832Y4011794D02*
X6502008Y4070618D01*
X6560832Y4129441*
X6613773Y4023559D02*
X6637302Y4011794D01*
X6660832*
X6684361Y4023559*
X6696126Y4047088*
X6684361Y4070618*
X6660832Y4082382*
X6637302*
X6660832D02*
X6684361Y4094147D01*
X6696126Y4117676*
X6684361Y4141206*
X6660832Y4152971*
X6637302*
X6613773Y4141206*
X6906361Y4070618D02*
X6941655Y4070618D01*
Y4058853*
X6929890Y4035324*
X6918126Y4023559*
X6894596Y4011794*
X6871067*
X6847537Y4023559*
X6835773Y4035324*
X6824008Y4058853*
Y4105912*
X6835773Y4129441*
X6847537Y4141206*
X6871067Y4152971*
X6894596*
X6918126Y4141206*
X6929890Y4129441*
X6941655Y4105912*
X6986008D02*
X6986008Y4047088D01*
X6997773Y4023559*
X7021302Y4011794*
X7044832*
X7068361Y4023559*
X7080126Y4047088*
Y4105912D02*
X7080126Y4011794D01*
X7122008D02*
X7122008Y4105912D01*
Y4094147D02*
X7133773Y4105912D01*
X7157302*
X7169067Y4094147*
Y4058853*
Y4094147D02*
X7180832Y4105912D01*
X7204361*
X7216126Y4094147*
Y4011794*
X7258008D02*
X7258008Y4105912D01*
Y4094147D02*
X7269773Y4105912D01*
X7293302*
X7305067Y4094147*
Y4058853*
Y4094147D02*
X7316832Y4105912D01*
X7340361*
X7352126Y4094147*
Y4011794*
X7394008D02*
X7394008Y4105912D01*
Y4141206D02*
X7394009Y4141207D01*
X7480008Y4047088D02*
X7491773Y4023559D01*
X7515302Y4011794*
X7538832*
X7562361Y4023559*
X7574126Y4047088*
Y4070618*
X7562361Y4094147*
X7538832Y4105912*
X7515302*
X7491773Y4094147*
X7480008Y4070618*
Y4011794D02*
X7480008Y4152971D01*
X7616008Y4094147D02*
X7639537Y4105912D01*
X7674832*
X7698361Y4094147*
X7710126Y4070618*
Y4035324*
X7698361Y4023559*
X7674832Y4011794*
X7651302*
X7627773Y4023559*
X7616008Y4035324*
Y4047088*
X7627773Y4058853*
X7651302Y4070618*
X7674832*
X7698361Y4058853*
X7710126Y4047088*
Y4035324D02*
X7710126Y4011794D01*
X7846126Y4023559D02*
X7834361Y4011794D01*
X7810832*
X7787302*
X7763773Y4023559*
X7752008Y4047088*
Y4082382*
X7763773Y4094147*
X7787302Y4105912*
X7810832*
X7834361Y4094147*
X7846126Y4082382*
Y4070618*
X7834361Y4058853*
X7810832Y4047088*
X7787302*
X7763773Y4058853*
X7752008Y4070618*
X7888008Y4011794D02*
X7888008Y4105912D01*
Y4070618D02*
X7899773Y4094147D01*
X7923302Y4105912*
X7946832*
X7970361Y4094147*
X6595832Y3771794D02*
X6537008Y3830618D01*
X6595832Y3889441*
X6648773Y3783559D02*
X6672302Y3771794D01*
X6695832*
X6719361Y3783559*
X6731126Y3807088*
X6719361Y3830618*
X6695832Y3842382*
X6672302*
X6695832D02*
X6719361Y3854147D01*
X6731126Y3877676*
X6719361Y3901206*
X6695832Y3912971*
X6672302*
X6648773Y3901206*
X6859008Y3771794D02*
X6859008Y3912971D01*
X6929596*
X6953126Y3901206*
X6964890Y3889441*
X6976655Y3865912*
Y3818853*
X6964890Y3795324*
X6953126Y3783559*
X6929596Y3771794*
X6859008*
X7021008D02*
X7021008Y3865912D01*
Y3830618D02*
X7032773Y3854147D01*
X7056302Y3865912*
X7079832*
X7103361Y3854147*
X7145008Y3771794D02*
X7262655Y3771794D01*
X7307008D02*
X7307008Y3912971D01*
Y3842382D02*
X7424655Y3842382D01*
Y3771794D02*
X7424655Y3912971D01*
X7469008Y3807088D02*
X7480773Y3783559D01*
X7504302Y3771794*
X7527832*
X7551361Y3783559*
X7563126Y3807088*
Y3830618*
X7551361Y3854147*
X7527832Y3865912*
X7504302*
X7480773Y3854147*
X7469008Y3830618*
Y3807088*
X7616773Y3771794D02*
X7605008Y3771794D01*
Y3912971*
X7666773Y3771794D02*
X7655008Y3771794D01*
Y3912971*
X7705008Y3807088D02*
X7716773Y3783559D01*
X7740302Y3771794*
X7763832*
X7787361Y3783559*
X7799126Y3807088*
Y3830618*
X7787361Y3854147*
X7763832Y3865912*
X7740302*
X7716773Y3854147*
X7705008Y3830618*
Y3807088*
X7841008Y3865912D02*
X7841008Y3783559D01*
X7852773Y3771794*
X7876302*
X7888067Y3783559*
Y3818853*
Y3783559D02*
X7899832Y3771794D01*
X7923361*
X7935126Y3783559*
Y3865912*
X4807008Y4898559D02*
X4830537Y4886794D01*
X4877596*
X4901126Y4898559*
Y4922088*
X4877596Y4933853*
X4830537*
X4807008Y4945618*
Y4969147*
X4830537Y4980912*
X4877596*
X4901126Y4969147*
X4943008Y4980912D02*
X4943008Y4851500D01*
Y4922088D02*
X4954773Y4898559D01*
X4978302Y4886794*
X5001832*
X5025361Y4898559*
X5037126Y4922088*
Y4945618*
X5025361Y4969147*
X5001832Y4980912*
X4978302*
X4954773Y4969147*
X4943008Y4945618*
Y4922088*
X5079008D02*
X5090773Y4898559D01*
X5114302Y4886794*
X5137832*
X5161361Y4898559*
X5173126Y4922088*
Y4945618*
X5161361Y4969147*
X5137832Y4980912*
X5114302*
X5090773Y4969147*
X5079008Y4945618*
Y4922088*
X5215008Y4886794D02*
X5215008Y4980912D01*
Y4945618D02*
X5226773Y4969147D01*
X5250302Y4980912*
X5273832*
X5297361Y4969147*
X5309126Y4945618*
Y4886794*
X5351008Y4898559D02*
X5374537Y4886794D01*
X5421596*
X5445126Y4898559*
Y4922088*
X5421596Y4933853*
X5374537*
X5351008Y4945618*
Y4969147*
X5374537Y4980912*
X5421596*
X5445126Y4969147*
X5487008Y4922088D02*
X5498773Y4898559D01*
X5522302Y4886794*
X5545832*
X5569361Y4898559*
X5581126Y4922088*
Y4945618*
X5569361Y4969147*
X5545832Y4980912*
X5522302*
X5498773Y4969147*
X5487008Y4945618*
Y4922088*
X5623008Y4886794D02*
X5623008Y4980912D01*
Y4945618D02*
X5634773Y4969147D01*
X5658302Y4980912*
X5681832*
X5705361Y4969147*
X5841126Y4898559D02*
X5829361Y4886794D01*
X5805832*
X5782302*
X5758773Y4898559*
X5747008Y4922088*
Y4957382*
X5758773Y4969147*
X5782302Y4980912*
X5805832*
X5829361Y4969147*
X5841126Y4957382*
Y4945618*
X5829361Y4933853*
X5805832Y4922088*
X5782302*
X5758773Y4933853*
X5747008Y4945618*
X5977126D02*
X5965361Y4969147D01*
X5941832Y4980912*
X5918302*
X5894773Y4969147*
X5883008Y4945618*
Y4922088*
X5894773Y4898559*
X5918302Y4886794*
X5941832*
X5965361Y4898559*
X5977126Y4922088*
Y4886794D02*
X5977126Y5027971D01*
X6105008Y4922088D02*
X6116773Y4898559D01*
X6140302Y4886794*
X6163832*
X6187361Y4898559*
X6199126Y4922088*
Y4945618*
X6187361Y4969147*
X6163832Y4980912*
X6140302*
X6116773Y4969147*
X6105008Y4945618*
Y4886794D02*
X6105008Y5027971D01*
X6241008Y4980912D02*
X6252773Y4933853D01*
X6276302Y4910324*
X6299832*
X6323361Y4933853*
X6335126Y4980912*
X6323361Y4933853D02*
X6311596Y4886794D01*
X6299832Y4863265*
X6276302Y4851500*
X6252773Y4863265*
X6463008Y4922088D02*
X6474773Y4898559D01*
X6498302Y4886794*
X6521832*
X6545361Y4898559*
X6557126Y4922088*
Y4945618*
X6545361Y4969147*
X6521832Y4980912*
X6498302*
X6474773Y4969147*
X6463008Y4945618*
Y4922088*
X6599008Y4980912D02*
X6599008Y4922088D01*
X6610773Y4898559*
X6634302Y4886794*
X6657832*
X6681361Y4898559*
X6693126Y4922088*
Y4980912D02*
X6693126Y4886794D01*
X6735008D02*
X6735008Y4980912D01*
Y4945618D02*
X6746773Y4969147D01*
X6770302Y4980912*
X6793832*
X6817361Y4969147*
X7039126Y4945618D02*
X7027361Y4969147D01*
X7003832Y4980912*
X6980302*
X6956773Y4969147*
X6945008Y4945618*
Y4933853*
X6956773Y4910324*
X6980302Y4898559*
X7003832*
X7027361Y4910324*
X7039126Y4933853*
Y4980912D02*
X7039126Y4886794D01*
X7027361Y4863265*
X7003832Y4851500*
X6968537*
X6945008Y4863265*
X7081008Y4886794D02*
X7081008Y4980912D01*
Y4945618D02*
X7092773Y4969147D01*
X7116302Y4980912*
X7139832*
X7163361Y4969147*
X7299126Y4898559D02*
X7287361Y4886794D01*
X7263832*
X7240302*
X7216773Y4898559*
X7205008Y4922088*
Y4957382*
X7216773Y4969147*
X7240302Y4980912*
X7263832*
X7287361Y4969147*
X7299126Y4957382*
Y4945618*
X7287361Y4933853*
X7263832Y4922088*
X7240302*
X7216773Y4933853*
X7205008Y4945618*
X7341008Y4969147D02*
X7364537Y4980912D01*
X7399832*
X7423361Y4969147*
X7435126Y4945618*
Y4910324*
X7423361Y4898559*
X7399832Y4886794*
X7376302*
X7352773Y4898559*
X7341008Y4910324*
Y4922088*
X7352773Y4933853*
X7376302Y4945618*
X7399832*
X7423361Y4933853*
X7435126Y4922088*
Y4910324D02*
X7435126Y4886794D01*
X7477008Y4980912D02*
X7524067Y4980912D01*
X7500537Y5004441D02*
X7500537Y4898559D01*
X7512302Y4886794*
X7524067*
X7535832Y4898559*
X7663008Y5027971D02*
X7721832Y4886794D01*
X7780655Y5027971*
X7825008Y4886794D02*
X7872067Y4886794D01*
X7848537D02*
X7848537Y5027971D01*
X7825008D02*
X7872067Y5027971D01*
X7911008Y4886794D02*
X7911008Y5027971D01*
X7993361*
X8016890Y5016206*
X8028655Y4992676*
X8016890Y4969147*
X7993361Y4957382*
X7911008*
X8159008Y4922088D02*
X8170773Y4898559D01*
X8194302Y4886794*
X8241361*
X8264890Y4898559*
X8276655Y4922088*
X8264890Y4945618*
X8241361Y4957382*
X8194302*
X8170773Y4969147*
X8159008Y4992676*
X8170773Y5016206*
X8194302Y5027971*
X8241361*
X8264890Y5016206*
X8276655Y4992676*
X8321008Y4980912D02*
X8368067Y4980912D01*
X8344537Y5004441D02*
X8344537Y4898559D01*
X8356302Y4886794*
X8368067*
X8379832Y4898559*
X8421008Y4886794D02*
X8421008Y4980912D01*
Y4945618D02*
X8432773Y4969147D01*
X8456302Y4980912*
X8479832*
X8503361Y4969147*
X8639126Y4898559D02*
X8627361Y4886794D01*
X8603832*
X8580302*
X8556773Y4898559*
X8545008Y4922088*
Y4957382*
X8556773Y4969147*
X8580302Y4980912*
X8603832*
X8627361Y4969147*
X8639126Y4957382*
Y4945618*
X8627361Y4933853*
X8603832Y4922088*
X8580302*
X8556773Y4933853*
X8545008Y4945618*
X8681008Y4969147D02*
X8704537Y4980912D01*
X8739832*
X8763361Y4969147*
X8775126Y4945618*
Y4910324*
X8763361Y4898559*
X8739832Y4886794*
X8716302*
X8692773Y4898559*
X8681008Y4910324*
Y4922088*
X8692773Y4933853*
X8716302Y4945618*
X8739832*
X8763361Y4933853*
X8775126Y4922088*
Y4910324D02*
X8775126Y4886794D01*
X8817008D02*
X8817008Y4980912D01*
Y4969147D02*
X8828773Y4980912D01*
X8852302*
X8864067Y4969147*
Y4933853*
Y4969147D02*
X8875832Y4980912D01*
X8899361*
X8911126Y4969147*
Y4886794*
X8953008Y4980912D02*
X9000067Y4886794D01*
X9047126Y4980912*
X9089008Y4886794D02*
X9089008Y4980912D01*
Y5016206D02*
X9089009Y5016207D01*
X9269126Y4898559D02*
X9257361Y4886794D01*
X9233832*
X9210302*
X9186773Y4898559*
X9175008Y4922088*
Y4957382*
X9186773Y4969147*
X9210302Y4980912*
X9233832*
X9257361Y4969147*
X9269126Y4957382*
Y4945618*
X9257361Y4933853*
X9233832Y4922088*
X9210302*
X9186773Y4933853*
X9175008Y4945618*
X9311008Y4980912D02*
X9311008Y4898559D01*
X9322773Y4886794*
X9346302*
X9358067Y4898559*
Y4933853*
Y4898559D02*
X9369832Y4886794D01*
X9393361*
X9405126Y4898559*
Y4980912*
X9541126Y4898559D02*
X9529361Y4886794D01*
X9505832*
X9482302*
X9458773Y4898559*
X9447008Y4922088*
Y4957382*
X9458773Y4969147*
X9482302Y4980912*
X9505832*
X9529361Y4969147*
X9541126Y4957382*
Y4945618*
X9529361Y4933853*
X9505832Y4922088*
X9482302*
X9458773Y4933853*
X9447008Y4945618*
X9583008Y4886794D02*
X9583008Y4980912D01*
Y4945618D02*
X9594773Y4969147D01*
X9618302Y4980912*
X9641832*
X9665361Y4969147*
D02*
D442*
X5557008Y3826500D02*
X4557008D01*
G75*
G02Y4226500J200000*
G01*
X5557008*
G75*
G02Y3826500J-200000*
G01*
X9957008D02*
X8957008D01*
G75*
G02Y4226500J200000*
G01*
X9957008*
G75*
G02Y3826500J-200000*
G01*
X0Y0D02*
M02*
