G04 GENERATED BY PULSONIX 8.5 GERBER.DLL 5907*
G04 #@! TF.Part,Single*
%FSLAX35Y35*%
%LPD*%
%MOMM*%
G04 #@! TF.FileFunction,Paste,Bot*
G04 #@! TA.AperFunction,SMDPad*
%ADD76R,0.90000X1.40000*%
%ADD93R,1.80000X1.50000*%
%ADD94R,7.00000X7.00000*%
%ADD95R,1.50000X2.50000*%
%ADD422R,0.55000X1.95000*%
%ADD423R,8.90000X11.40000*%
%ADD424R,3.80000X2.10000*%
%ADD449R,3.20000X1.20000*%
%ADD480R,1.20000X3.20000*%
X0Y0D02*
D02*
D76*
X3936758Y3651500D03*
X4127258D03*
D02*
D93*
X6328008Y2551500D03*
Y3451500D03*
X6582008Y2551500D03*
Y3451500D03*
X6836008Y2551500D03*
Y3451500D03*
X7803008Y3301500D03*
Y4201500D03*
X8057008Y3301500D03*
Y4201500D03*
X8311008Y3301500D03*
Y4201500D03*
D02*
D94*
X6057008Y5401500D03*
D02*
D95*
X5827008Y4711500D03*
X6287008D03*
D02*
D422*
X3691508Y3896500D03*
Y4556500D03*
X3818508Y3896500D03*
Y4556500D03*
X3945508Y3896500D03*
Y4556500D03*
X4072508Y3896500D03*
Y4556500D03*
D02*
D423*
X8032008Y5126500D03*
D02*
D424*
X9177008Y4872500D03*
Y5380500D03*
D02*
D449*
X6982008Y4331500D03*
Y4971500D03*
X7357008Y4256500D03*
Y4896500D03*
X9907008Y4581500D03*
Y5221500D03*
D02*
D480*
X5762008Y4401500D03*
X6402008D03*
X0Y0D02*
M02*
