M48
FMAT,1
METRIC
T01C000.40000
T02C000.80000
T03C001.00000
T04C001.10000
T05C001.60000
T06C003.25000
%
G81
M71
T01
X2905034Y1345250
X2905034Y1915250
X2905034Y2485250
X2905034Y3055250
X3398668Y1060250
X3398668Y2770250
X3398668Y3340250
X3586395Y3896500
X3892302Y3055250
X4090758Y3442750
X4207508Y3873000
X4385936Y2770250
X4385936Y3340250
X4398008Y3682500
X4715508Y3555500
X4842508Y3340250
X5160008Y3555500
X5287008Y3340250
X5373204Y490250
X5373204Y1060250
X5373204Y1630250
X5373204Y2200250
X5373204Y2770250
X5477508Y3492000
X5668008Y3301500
X5858508Y3111000
X5866838Y1345250
X6360472Y1060250
X6360472Y1630250
X6360472Y2200250
X6360472Y2770250
X6854106Y1345250
X7001508Y2551500
X7192008Y3111000
X7249883Y2252125
X7347740Y2770250
X7395030Y2188625
X7446008Y3365000
X7636508Y3555500
X7841374Y775250
X7841374Y1345250
X7841374Y2485250
X8335008Y1060250
X8335008Y1630250
X8335008Y2770250
X8652508Y3301500
X8828642Y775250
X8828642Y1345250
X8828642Y2485250
X9322276Y1630250
X9322276Y2200250
X9322276Y2770250
X9322276Y3174500
X9520008Y2093375
X9615258Y2029875
X9815910Y2485250
X10113008Y3746000
X10309544Y1060250
X10309544Y1630250
X10309544Y2200250
X10309544Y2770250
X10309544Y3340250
X10309544Y3936500
X10494008Y4762000
X10647133Y4347625
X10748008Y4190500
X10748008Y5016000
X10803178Y1915250
X10803178Y2485250
X10803178Y3055250
X10803178Y3625250
X11002008Y5270000
X11234508Y4363500
X11256008Y5524000
X11296812Y2770250
X11296812Y5050250
X11679008Y4742000
X11679008Y4950875
X11790446Y5335250
X11948883Y4474625
X12081508Y4825500
X12187008Y3823750
X12208508Y2920500
X12282258Y2276500
X12284080Y1060250
X12284080Y5050250
X12284080Y5620250
X12314008Y4379375
X12679133Y2934750
X12777714Y1345250
X12777714Y1915250
X12777714Y4195250
X12777714Y4765250
X12777714Y5335250
X13271348Y1630250
X13271348Y2200250
X13271348Y3340250
X13271348Y3910250
X13271348Y5050250
X13764982Y2485250
X13764982Y3625250
X13764982Y4195250
X13764982Y5335250
T02
X520564Y2772099
X1116038Y4174948
X3396496Y2381317
X3693452Y3080901
T03
X3707008Y1076500
X3707008Y1526500
X3855008Y1876500
X4109008Y1876500
X4357008Y1076500
X4357008Y1526500
X6932008Y251500
X6932008Y701500
X7105008Y1001500
X7359008Y1001500
X7582008Y251500
X7582008Y701500
X10157008Y1076500
X10157008Y1526500
X10280008Y1851500
X10534008Y1851500
X10807008Y1076500
X10807008Y1526500
X10957008Y2501500
X10957008Y3151500
X11407008Y2501500
X11407008Y3151500
T04
X11132008Y3560500
X11132008Y3814500
X11132008Y4068500
X11282008Y1251500
X11291008Y1751500
X11386008Y3560500
X11386008Y3814500
X11386008Y4068500
X11536008Y1251500
X11545008Y1751500
X11790008Y1251500
X11799008Y1751500
X12044008Y1251500
X12053008Y1751500
X12298008Y1251500
X12307008Y1751500
X12707008Y5651500
X12857008Y2276500
X12961008Y5651500
X13111008Y2276500
X13257008Y2701500
X13257008Y3151500
X13511008Y2701500
X13511008Y3151500
X13765008Y2701500
X13765008Y3151500
X14082008Y4110500
X14082008Y4364500
X14082008Y4618500
X14082008Y4872500
X14082008Y5126500
T05
X532008Y5176500
X1082008Y5176500
X6607008Y4601500
X10007008Y5576500
T06
X3657008Y5526500
X10857008Y5526500
M30
