G04 #@! TF.GenerationSoftware,KiCad,Pcbnew,(6.0.2)*
G04 #@! TF.CreationDate,2023-01-14T17:30:24+01:00*
G04 #@! TF.ProjectId,SenseEHajo,53656e73-6545-4486-916a-6f2e6b696361,rev?*
G04 #@! TF.SameCoordinates,Original*
G04 #@! TF.FileFunction,Paste,Bot*
G04 #@! TF.FilePolarity,Positive*
%FSLAX46Y46*%
G04 Gerber Fmt 4.6, Leading zero omitted, Abs format (unit mm)*
G04 Created by KiCad (PCBNEW (6.0.2)) date 2023-01-14 17:30:24*
%MOMM*%
%LPD*%
G01*
G04 APERTURE LIST*
G04 #@! TA.AperFunction,Profile*
%ADD10C,0.050000*%
G04 #@! TD*
G04 APERTURE END LIST*
D10*
X23114000Y-55245000D02*
X23114000Y-23114000D01*
X57353200Y-36195000D02*
X76708000Y-36195000D01*
X76708000Y-40259000D02*
X57353200Y-40259000D01*
X120675400Y-40259000D02*
G75*
G03*
X120675400Y-36195000I0J2032000D01*
G01*
X164084000Y-49276000D02*
X164084000Y-55372000D01*
X112420400Y-36195000D02*
X76708000Y-36195000D01*
X76708000Y-40259000D02*
X120675400Y-40259000D01*
X118643400Y-20320000D02*
X153162000Y-20320000D01*
X112420400Y-36195000D02*
X120675400Y-36195000D01*
X114579400Y-20345400D02*
X118668800Y-20345400D01*
X118668800Y-20345400D02*
X118643400Y-20320000D01*
X34036000Y-23114000D02*
X34036000Y-20320000D01*
X164084000Y-23368000D02*
X164084000Y-30988000D01*
X153162000Y-20320000D02*
X153162000Y-23368000D01*
X114681000Y-77216000D02*
X72644000Y-77216000D01*
X114579400Y-20345400D02*
X34036000Y-20320000D01*
X57353200Y-36195000D02*
G75*
G03*
X57353200Y-40259000I-25401J-2032000D01*
G01*
X38100000Y-70231000D02*
X46761400Y-70231000D01*
X114681000Y-70358000D02*
X114681000Y-77216000D01*
X46761400Y-70231000D02*
X49072800Y-70231000D01*
X38100000Y-70231000D02*
X23114000Y-55245000D01*
X153162000Y-23368000D02*
X164084000Y-23368000D01*
X149098000Y-70358000D02*
X114681000Y-70358000D01*
X72644000Y-77216000D02*
X72644000Y-70231000D01*
X164084000Y-30988000D02*
X164084000Y-49276000D01*
X72644000Y-70231000D02*
X49072800Y-70231000D01*
X164084000Y-55372000D02*
X149098000Y-70358000D01*
X23114000Y-23114000D02*
X34036000Y-23114000D01*
M02*
