M48
; DRILL file {KiCad (6.0.2)} date Sat Jan 14 17:30:26 2023
; FORMAT={-:-/ absolute / metric / decimal}
; #@! TF.CreationDate,2023-01-14T17:30:26+01:00
; #@! TF.GenerationSoftware,Kicad,Pcbnew,(6.0.2)
; #@! TF.FileFunction,Plated,1,2,PTH
FMAT,2
METRIC
; #@! TA.AperFunction,Plated,PTH,ViaDrill
T1C0.400
; #@! TA.AperFunction,Plated,PTH,ComponentDrill
T2C0.800
; #@! TA.AperFunction,Plated,PTH,ComponentDrill
T3C1.000
; #@! TA.AperFunction,Plated,PTH,ComponentDrill
T4C1.100
; #@! TA.AperFunction,Plated,PTH,ComponentDrill
T5C1.600
; #@! TA.AperFunction,Plated,PTH,ComponentDrill
T6C2.700
; #@! TA.AperFunction,Plated,PTH,ComponentDrill
T7C5.000
%
G90
G05
T1
X53.34Y-22.86
X53.34Y-25.4
X53.34Y-27.94
X53.34Y-30.48
X55.88Y-22.86
X55.88Y-25.4
X55.88Y-27.94
X55.88Y-30.48
X58.42Y-22.86
X58.42Y-25.4
X58.42Y-27.94
X58.42Y-30.48
X60.96Y-22.86
X60.96Y-25.4
X60.96Y-27.94
X60.96Y-30.48
X64.77Y-22.86
X64.77Y-25.4
X64.77Y-27.94
X64.77Y-30.48
X67.31Y-22.86
X67.31Y-25.4
X67.31Y-27.94
X67.31Y-30.48
X68.834Y-57.658
X68.834Y-69.342
X69.596Y-56.642
X69.85Y-22.86
X69.85Y-25.4
X69.85Y-30.48
X69.876Y-67.931
X69.941Y-27.849
X72.39Y-22.86
X72.39Y-25.4
X72.39Y-27.94
X72.48Y-30.389
X91.44Y-63.246
X93.218Y-74.676
X93.472Y-59.69
X94.234Y-67.056
X96.774Y-65.532
X97.282Y-46.482
X97.282Y-60.706
X101.092Y-44.704
X101.092Y-72.136
X101.816Y-62.022
X103.784Y-48.883
X105.02Y-53.975
X108.583Y-51.732
X108.712Y-46.482
X109.42Y-66.24
X110.269Y-53.556
X110.592Y-48.158
X111.252Y-61.722
X111.252Y-75.184
X115.316Y-51.562
X115.316Y-58.928
X117.348Y-44.704
X118.11Y-50.292
X118.11Y-53.594
X118.318Y-44.012
X118.872Y-43.18
X119.126Y-51.562
X120.142Y-54.47
X120.142Y-66.294
X120.904Y-55.372
X120.904Y-64.77
X121.142Y-40.997
X122.606Y-50.952
X123.444Y-43.942
X124.206Y-43.18
X124.206Y-44.704
X125.222Y-45.428
X125.73Y-40.894
X125.758Y-46.272
X126.39Y-55.143
X127.111Y-53.594
X127.254Y-58.928
X127.508Y-68.834
X127.762Y-40.132
X127.799Y-46.228
X128.524Y-43.942
X129.286Y-58.03
X129.464Y-35.509
X129.54Y-43.18
X129.54Y-60.554
X129.54Y-69.85
X129.655Y-57.101
X130.302Y-65.532
X130.556Y-40.894
X130.658Y-35.458
X130.81Y-54.356
X131.026Y-25.908
X131.026Y-31.819
X131.572Y-59.479
X131.826Y-51.562
X131.851Y-35.408
X132.08Y-56.134
X132.842Y-43.18
X132.846Y-62.736
X133.045Y-35.382
X133.604Y-63.5
X136.906Y-26.924
X136.906Y-32.004
X137.16Y-25.654
X137.16Y-38.858
X138.43Y-21.59
X139.192Y-40.894
X142.748Y-39.624
X143.76Y-39.637
X145.542Y-35.814
X146.558Y-33.782
X148.082Y-34.036
X148.082Y-35.814
X148.336Y-38.354
X148.336Y-40.64
X149.098Y-29.972
X149.352Y-41.402
X150.749Y-38.481
X151.638Y-24.892
X151.638Y-33.528
X152.4Y-39.624
X156.066Y-44.306
X157.734Y-32.004
X159.512Y-28.956
X160.423Y-40.135
X161.62Y-43.282
X162.814Y-45.542
X163.093Y-24.613
X163.093Y-28.981
T2
X25.197Y-30.861
X32.817Y-30.861
X44.27Y-22.987
X44.27Y-30.607
X48.743Y-33.68
X56.363Y-33.68
X59.106Y-33.909
X59.106Y-41.529
X61.646Y-33.909
X61.646Y-41.529
X64.35Y-33.56
X71.97Y-33.56
X75.921Y-33.985
X75.921Y-41.605
X78.461Y-33.985
X78.461Y-41.605
X81.001Y-33.985
X81.001Y-41.605
X81.788Y-21.488
X81.788Y-29.108
X85.0Y-34.25
X92.62Y-34.25
X95.479Y-34.061
X95.479Y-41.681
X98.019Y-34.061
X98.019Y-41.681
X100.559Y-34.061
X100.559Y-41.681
T3
X31.435Y-38.494
X34.97Y-34.958
X48.547Y-62.959
X59.436Y-52.07
X95.504Y-49.022
X95.504Y-51.562
X95.504Y-54.102
X95.504Y-56.642
X95.504Y-59.182
X109.42Y-72.19
X111.216Y-70.394
X113.012Y-68.598
X114.808Y-66.802
X116.604Y-65.006
X124.968Y-22.352
X124.968Y-24.892
X132.588Y-22.352
X135.128Y-22.352
X152.146Y-35.814
X154.686Y-35.814
X157.226Y-35.814
X159.766Y-35.814
X162.306Y-35.814
T4
X58.219Y-63.293
X58.219Y-67.793
X64.719Y-63.293
X64.719Y-67.793
X90.424Y-71.501
X90.424Y-76.001
X96.924Y-71.501
X96.924Y-76.001
X122.555Y-63.318
X122.555Y-67.818
X129.055Y-63.318
X129.055Y-67.818
T5
X86.83Y-28.6
X102.07Y-28.6
T6
X25.908Y-26.67
X31.75Y-26.67
X37.15Y-23.38
X101.35Y-23.05
T7
X145.796Y-52.324
T0
M30
