G04 #@! TF.GenerationSoftware,KiCad,Pcbnew,(6.0.2)*
G04 #@! TF.CreationDate,2023-01-14T17:30:24+01:00*
G04 #@! TF.ProjectId,SenseEHajo,53656e73-6545-4486-916a-6f2e6b696361,rev?*
G04 #@! TF.SameCoordinates,Original*
G04 #@! TF.FileFunction,Paste,Top*
G04 #@! TF.FilePolarity,Positive*
%FSLAX46Y46*%
G04 Gerber Fmt 4.6, Leading zero omitted, Abs format (unit mm)*
G04 Created by KiCad (PCBNEW (6.0.2)) date 2023-01-14 17:30:24*
%MOMM*%
%LPD*%
G01*
G04 APERTURE LIST*
G04 Aperture macros list*
%AMRoundRect*
0 Rectangle with rounded corners*
0 $1 Rounding radius*
0 $2 $3 $4 $5 $6 $7 $8 $9 X,Y pos of 4 corners*
0 Add a 4 corners polygon primitive as box body*
4,1,4,$2,$3,$4,$5,$6,$7,$8,$9,$2,$3,0*
0 Add four circle primitives for the rounded corners*
1,1,$1+$1,$2,$3*
1,1,$1+$1,$4,$5*
1,1,$1+$1,$6,$7*
1,1,$1+$1,$8,$9*
0 Add four rect primitives between the rounded corners*
20,1,$1+$1,$2,$3,$4,$5,0*
20,1,$1+$1,$4,$5,$6,$7,0*
20,1,$1+$1,$6,$7,$8,$9,0*
20,1,$1+$1,$8,$9,$2,$3,0*%
%AMRotRect*
0 Rectangle, with rotation*
0 The origin of the aperture is its center*
0 $1 length*
0 $2 width*
0 $3 Rotation angle, in degrees counterclockwise*
0 Add horizontal line*
21,1,$1,$2,0,0,$3*%
G04 Aperture macros list end*
G04 #@! TA.AperFunction,Profile*
%ADD10C,0.050000*%
G04 #@! TD*
%ADD11RoundRect,0.150000X-0.150000X0.512500X-0.150000X-0.512500X0.150000X-0.512500X0.150000X0.512500X0*%
%ADD12RotRect,3.000000X0.900000X225.000000*%
%ADD13RotRect,3.000000X0.900000X315.000000*%
%ADD14RoundRect,0.250000X0.475000X-0.337500X0.475000X0.337500X-0.475000X0.337500X-0.475000X-0.337500X0*%
%ADD15RoundRect,0.250000X-0.337500X-0.475000X0.337500X-0.475000X0.337500X0.475000X-0.337500X0.475000X0*%
%ADD16RoundRect,0.250000X0.337500X0.475000X-0.337500X0.475000X-0.337500X-0.475000X0.337500X-0.475000X0*%
%ADD17RoundRect,0.250000X0.550000X-1.050000X0.550000X1.050000X-0.550000X1.050000X-0.550000X-1.050000X0*%
%ADD18RoundRect,0.250000X1.250000X0.550000X-1.250000X0.550000X-1.250000X-0.550000X1.250000X-0.550000X0*%
%ADD19RoundRect,0.250000X-0.097227X0.574524X-0.574524X0.097227X0.097227X-0.574524X0.574524X-0.097227X0*%
%ADD20RoundRect,0.250000X-0.450000X0.350000X-0.450000X-0.350000X0.450000X-0.350000X0.450000X0.350000X0*%
%ADD21R,1.560000X0.650000*%
%ADD22RoundRect,0.137500X-0.262500X-0.137500X0.262500X-0.137500X0.262500X0.137500X-0.262500X0.137500X0*%
%ADD23R,1.300000X3.400000*%
%ADD24R,0.800000X0.900000*%
%ADD25RoundRect,0.250000X0.450000X-0.350000X0.450000X0.350000X-0.450000X0.350000X-0.450000X-0.350000X0*%
%ADD26RoundRect,0.250000X0.350000X0.450000X-0.350000X0.450000X-0.350000X-0.450000X0.350000X-0.450000X0*%
%ADD27RoundRect,0.250000X-0.350000X-0.450000X0.350000X-0.450000X0.350000X0.450000X-0.350000X0.450000X0*%
%ADD28R,4.550000X5.250000*%
%ADD29R,4.600000X1.100000*%
%ADD30R,1.060000X0.650000*%
%ADD31R,2.000000X1.500000*%
%ADD32R,2.000000X3.800000*%
%ADD33RoundRect,0.250000X0.574524X0.097227X0.097227X0.574524X-0.574524X-0.097227X-0.097227X-0.574524X0*%
%ADD34R,0.900000X1.200000*%
%ADD35RotRect,1.560000X0.650000X45.000000*%
%ADD36R,1.500000X1.000000*%
%ADD37RoundRect,0.137500X0.262500X0.137500X-0.262500X0.137500X-0.262500X-0.137500X0.262500X-0.137500X0*%
%ADD38RoundRect,0.137500X-0.137500X0.262500X-0.137500X-0.262500X0.137500X-0.262500X0.137500X0.262500X0*%
%ADD39RotRect,0.600000X0.700000X45.000000*%
%ADD40RoundRect,0.250000X-0.574524X-0.097227X-0.097227X-0.574524X0.574524X0.097227X0.097227X0.574524X0*%
%ADD41RoundRect,0.250000X0.565685X0.070711X0.070711X0.565685X-0.565685X-0.070711X-0.070711X-0.565685X0*%
G04 APERTURE END LIST*
D10*
X23114000Y-55245000D02*
X23114000Y-23114000D01*
X57353200Y-36195000D02*
X76708000Y-36195000D01*
X76708000Y-40259000D02*
X57353200Y-40259000D01*
X120675400Y-40259000D02*
G75*
G03*
X120675400Y-36195000I0J2032000D01*
G01*
X164084000Y-49276000D02*
X164084000Y-55372000D01*
X112420400Y-36195000D02*
X76708000Y-36195000D01*
X76708000Y-40259000D02*
X120675400Y-40259000D01*
X118643400Y-20320000D02*
X153162000Y-20320000D01*
X112420400Y-36195000D02*
X120675400Y-36195000D01*
X114579400Y-20345400D02*
X118668800Y-20345400D01*
X118668800Y-20345400D02*
X118643400Y-20320000D01*
X34036000Y-23114000D02*
X34036000Y-20320000D01*
X164084000Y-23368000D02*
X164084000Y-30988000D01*
X153162000Y-20320000D02*
X153162000Y-23368000D01*
X114681000Y-77216000D02*
X72644000Y-77216000D01*
X114579400Y-20345400D02*
X34036000Y-20320000D01*
X57353200Y-36195000D02*
G75*
G03*
X57353200Y-40259000I-25401J-2032000D01*
G01*
X38100000Y-70231000D02*
X46761400Y-70231000D01*
X114681000Y-70358000D02*
X114681000Y-77216000D01*
X46761400Y-70231000D02*
X49072800Y-70231000D01*
X38100000Y-70231000D02*
X23114000Y-55245000D01*
X153162000Y-23368000D02*
X164084000Y-23368000D01*
X149098000Y-70358000D02*
X114681000Y-70358000D01*
X72644000Y-77216000D02*
X72644000Y-70231000D01*
X164084000Y-30988000D02*
X164084000Y-49276000D01*
X72644000Y-70231000D02*
X49072800Y-70231000D01*
X164084000Y-55372000D02*
X149098000Y-70358000D01*
X23114000Y-23114000D02*
X34036000Y-23114000D01*
D11*
X105969600Y-49403000D03*
X105019600Y-49403000D03*
X104069600Y-49403000D03*
X104069600Y-51678000D03*
X105969600Y-51678000D03*
D12*
X156756156Y-51970446D03*
X155858130Y-51072421D03*
X154960104Y-50174395D03*
X154062079Y-49276370D03*
X153164053Y-48378344D03*
X152266027Y-47480318D03*
X151368002Y-46582293D03*
X150469976Y-45684267D03*
X149571951Y-44786242D03*
X148673925Y-43888216D03*
X147775899Y-42990190D03*
X146877874Y-42092165D03*
X145979848Y-41194139D03*
X145081823Y-40296113D03*
D13*
X141698317Y-41558299D03*
X140800291Y-42456325D03*
X139902265Y-43354350D03*
X139004240Y-44252376D03*
X138106214Y-45150402D03*
X137208189Y-46048427D03*
X136310163Y-46946453D03*
X135412137Y-47844478D03*
X134514112Y-48742504D03*
X133616086Y-49640530D03*
D12*
X132353900Y-53024036D03*
X133251926Y-53922061D03*
X134149952Y-54820087D03*
X135047977Y-55718112D03*
X135946003Y-56616138D03*
X136844029Y-57514164D03*
X137742054Y-58412189D03*
X138640080Y-59310215D03*
X139538105Y-60208240D03*
X140436131Y-61106266D03*
X141334157Y-62004292D03*
X142232182Y-62902317D03*
X143130208Y-63800343D03*
X144028233Y-64698369D03*
D14*
X144780000Y-24935000D03*
X144780000Y-22860000D03*
D15*
X155956000Y-26956000D03*
X158031000Y-26956000D03*
X155956000Y-24892000D03*
X158031000Y-24892000D03*
D14*
X142748000Y-24935000D03*
X142748000Y-22860000D03*
D16*
X140759000Y-25908000D03*
X138684000Y-25908000D03*
D14*
X131622800Y-69291200D03*
X131622800Y-67216200D03*
X99491800Y-76276200D03*
X99491800Y-74201200D03*
X67208400Y-69258000D03*
X67208400Y-67183000D03*
D17*
X125120400Y-38550400D03*
X125120400Y-34950400D03*
D14*
X67691000Y-50558500D03*
X67691000Y-48483500D03*
D18*
X135128000Y-37338000D03*
X130728000Y-37338000D03*
D14*
X78508300Y-49319000D03*
X78508300Y-47244000D03*
X80489500Y-49319000D03*
X80489500Y-47244000D03*
D15*
X90889000Y-63246000D03*
X92964000Y-63246000D03*
X122893000Y-55118000D03*
X124968000Y-55118000D03*
D19*
X56642000Y-60198000D03*
X55174754Y-61665246D03*
D20*
X153924000Y-24924000D03*
X153924000Y-26924000D03*
D21*
X155114000Y-29022000D03*
X155114000Y-29972000D03*
X155114000Y-30922000D03*
X157814000Y-30922000D03*
X157814000Y-29022000D03*
D22*
X121412000Y-49022000D03*
X121412000Y-49972000D03*
X121412000Y-50922000D03*
X123812000Y-50922000D03*
X123812000Y-49022000D03*
D23*
X69850000Y-53441600D03*
X71950000Y-53441600D03*
D24*
X111445800Y-55194200D03*
X113345800Y-55194200D03*
X112395800Y-53194200D03*
D25*
X74574400Y-49276000D03*
X74574400Y-47276000D03*
D20*
X140716000Y-27972000D03*
X140716000Y-29972000D03*
X138684000Y-27972000D03*
X138684000Y-29972000D03*
D26*
X148971000Y-26416000D03*
X146971000Y-26416000D03*
D20*
X92710000Y-41402000D03*
X92710000Y-43402000D03*
X73152000Y-41402000D03*
X73152000Y-43402000D03*
D26*
X148844000Y-24384000D03*
X146844000Y-24384000D03*
D25*
X128016000Y-24352000D03*
X128016000Y-22352000D03*
D20*
X131597400Y-59679000D03*
X131597400Y-61679000D03*
X131622800Y-63438200D03*
X131622800Y-65438200D03*
X108626400Y-56921400D03*
X108626400Y-58921400D03*
X101997000Y-56870600D03*
X101997000Y-58870600D03*
D27*
X74980400Y-51206400D03*
X76980400Y-51206400D03*
D20*
X76527100Y-47272500D03*
X76527100Y-49272500D03*
D25*
X99965000Y-58870600D03*
X99965000Y-56870600D03*
D20*
X113198400Y-56956200D03*
X113198400Y-58956200D03*
D25*
X111191800Y-58937400D03*
X111191800Y-56937400D03*
X106594400Y-58921400D03*
X106594400Y-56921400D03*
D27*
X102130600Y-53644800D03*
X104130600Y-53644800D03*
D25*
X161086800Y-32200600D03*
X161086800Y-30200600D03*
D28*
X65828000Y-28937000D03*
X70678000Y-28937000D03*
X65828000Y-23387000D03*
X70678000Y-23387000D03*
D29*
X77403000Y-28702000D03*
X77403000Y-26162000D03*
X77403000Y-23622000D03*
D28*
X55230000Y-28930000D03*
X60080000Y-28930000D03*
X55230000Y-23380000D03*
X60080000Y-23380000D03*
D29*
X48505000Y-23615000D03*
X48505000Y-26155000D03*
X48505000Y-28695000D03*
D30*
X142791000Y-26924000D03*
X142791000Y-27874000D03*
X142791000Y-28824000D03*
X144991000Y-28824000D03*
X144991000Y-26924000D03*
D31*
X127482600Y-28420000D03*
X127482600Y-30720000D03*
D32*
X133782600Y-30720000D03*
D31*
X127482600Y-33020000D03*
D21*
X72415400Y-50505400D03*
X72415400Y-49555400D03*
X72415400Y-48605400D03*
X69715400Y-48605400D03*
X69715400Y-50505400D03*
D33*
X161769623Y-46961623D03*
X160302377Y-45494377D03*
X160245623Y-48485623D03*
X158778377Y-47018377D03*
D34*
X77137800Y-53416200D03*
X73837800Y-53416200D03*
D27*
X132112000Y-41402000D03*
X134112000Y-41402000D03*
D15*
X121548100Y-47294800D03*
X123623100Y-47294800D03*
D20*
X99491800Y-66581200D03*
X99491800Y-68581200D03*
D26*
X148971000Y-28448000D03*
X146971000Y-28448000D03*
D14*
X107889800Y-51732000D03*
X107889800Y-49657000D03*
D20*
X163042600Y-25679400D03*
X163042600Y-27679400D03*
X67208400Y-59569600D03*
X67208400Y-61569600D03*
D25*
X100269800Y-51333400D03*
X100269800Y-49333400D03*
D14*
X113325400Y-51435000D03*
X113325400Y-49360000D03*
D35*
X153465308Y-41459686D03*
X154137060Y-42131437D03*
X154808811Y-42803189D03*
X156718000Y-40894000D03*
X156046248Y-40222249D03*
X155374497Y-39550497D03*
D20*
X140716000Y-21876000D03*
X140716000Y-23876000D03*
D36*
X122936000Y-57404000D03*
X122936000Y-60604000D03*
X127836000Y-60604000D03*
X127836000Y-57404000D03*
D37*
X108575600Y-55331400D03*
X108575600Y-54381400D03*
X108575600Y-53431400D03*
X106175600Y-53431400D03*
X106175600Y-55331400D03*
D38*
X111699800Y-49174400D03*
X110749800Y-49174400D03*
X109799800Y-49174400D03*
X109799800Y-51574400D03*
X111699800Y-51574400D03*
D20*
X67208400Y-63379600D03*
X67208400Y-65379600D03*
X99491800Y-70391200D03*
X99491800Y-72391200D03*
D39*
X158242000Y-41936050D03*
X157252050Y-42926000D03*
D20*
X163118800Y-30200600D03*
X163118800Y-32200600D03*
D40*
X158496000Y-39116000D03*
X159963246Y-40583246D03*
D36*
X59182000Y-57658000D03*
X59182000Y-60858000D03*
X64082000Y-60858000D03*
X64082000Y-57658000D03*
D14*
X104054400Y-58920200D03*
X104054400Y-56845200D03*
D25*
X161061400Y-27679400D03*
X161061400Y-25679400D03*
D36*
X91022000Y-65456000D03*
X91022000Y-68656000D03*
X95922000Y-68656000D03*
X95922000Y-65456000D03*
D20*
X102276400Y-49333400D03*
X102276400Y-51333400D03*
D41*
X157480000Y-45720000D03*
X156065786Y-44305786D03*
M02*
