%FSLAX45Y45*%
G04 Gerber Fmt 4.5, Leading zero omitted, Abs format (unit mm)*
G04 Created by KiCad (PCBNEW (6.0.2)) date 2023-01-14 17:30:27*
%MOMM*%
%LPD*%
G01*
G04 APERTURE LIST*
%TA.AperFunction,Profile*%
%ADD10C,0.050000*%
%TD*%
%ADD11C,0.200000*%
%ADD12C,0.040000*%
%ADD13C,0.080000*%
%ADD14C,0.100000*%
%ADD15C,0.110000*%
%ADD16C,0.160000*%
%ADD17C,0.270000*%
%ADD18C,0.500000*%
G04 APERTURE END LIST*
D10*
X2311400Y-5524500D02*
X2311400Y-2311400D01*
X5735320Y-3619500D02*
X7670800Y-3619500D01*
X7670800Y-4025900D02*
X5735320Y-4025900D01*
X12067540Y-4025900D02*
G75*
G03*
X12067540Y-3619500I0J203200D01*
G01*
X16408400Y-4927600D02*
X16408400Y-5537200D01*
X11242040Y-3619500D02*
X7670800Y-3619500D01*
X7670800Y-4025900D02*
X12067540Y-4025900D01*
X11864340Y-2032000D02*
X15316200Y-2032000D01*
X11242040Y-3619500D02*
X12067540Y-3619500D01*
X11457940Y-2034540D02*
X11866880Y-2034540D01*
X11866880Y-2034540D02*
X11864340Y-2032000D01*
X3403600Y-2311400D02*
X3403600Y-2032000D01*
X16408400Y-2336800D02*
X16408400Y-3098800D01*
X15316200Y-2032000D02*
X15316200Y-2336800D01*
X11468100Y-7721600D02*
X7264400Y-7721600D01*
X11457940Y-2034540D02*
X3403600Y-2032000D01*
X5735320Y-3619500D02*
G75*
G03*
X5735320Y-4025900I-2540J-203200D01*
G01*
X3810000Y-7023100D02*
X4676140Y-7023100D01*
X11468100Y-7035800D02*
X11468100Y-7721600D01*
X4676140Y-7023100D02*
X4907280Y-7023100D01*
X3810000Y-7023100D02*
X2311400Y-5524500D01*
X15316200Y-2336800D02*
X16408400Y-2336800D01*
X14909800Y-7035800D02*
X11468100Y-7035800D01*
X7264400Y-7721600D02*
X7264400Y-7023100D01*
X16408400Y-3098800D02*
X16408400Y-4927600D01*
X7264400Y-7023100D02*
X4907280Y-7023100D01*
X16408400Y-5537200D02*
X14909800Y-7035800D01*
X2311400Y-2311400D02*
X3403600Y-2311400D01*
D11*
D12*
X5314000Y-2266000D02*
X5354000Y-2306000D01*
X5354000Y-2266000D02*
X5314000Y-2306000D01*
X5314000Y-2520000D02*
X5354000Y-2560000D01*
X5354000Y-2520000D02*
X5314000Y-2560000D01*
X5314000Y-2774000D02*
X5354000Y-2814000D01*
X5354000Y-2774000D02*
X5314000Y-2814000D01*
X5314000Y-3028000D02*
X5354000Y-3068000D01*
X5354000Y-3028000D02*
X5314000Y-3068000D01*
X5568000Y-2266000D02*
X5608000Y-2306000D01*
X5608000Y-2266000D02*
X5568000Y-2306000D01*
X5568000Y-2520000D02*
X5608000Y-2560000D01*
X5608000Y-2520000D02*
X5568000Y-2560000D01*
X5568000Y-2774000D02*
X5608000Y-2814000D01*
X5608000Y-2774000D02*
X5568000Y-2814000D01*
X5568000Y-3028000D02*
X5608000Y-3068000D01*
X5608000Y-3028000D02*
X5568000Y-3068000D01*
X5822000Y-2266000D02*
X5862000Y-2306000D01*
X5862000Y-2266000D02*
X5822000Y-2306000D01*
X5822000Y-2520000D02*
X5862000Y-2560000D01*
X5862000Y-2520000D02*
X5822000Y-2560000D01*
X5822000Y-2774000D02*
X5862000Y-2814000D01*
X5862000Y-2774000D02*
X5822000Y-2814000D01*
X5822000Y-3028000D02*
X5862000Y-3068000D01*
X5862000Y-3028000D02*
X5822000Y-3068000D01*
X6076000Y-2266000D02*
X6116000Y-2306000D01*
X6116000Y-2266000D02*
X6076000Y-2306000D01*
X6076000Y-2520000D02*
X6116000Y-2560000D01*
X6116000Y-2520000D02*
X6076000Y-2560000D01*
X6076000Y-2774000D02*
X6116000Y-2814000D01*
X6116000Y-2774000D02*
X6076000Y-2814000D01*
X6076000Y-3028000D02*
X6116000Y-3068000D01*
X6116000Y-3028000D02*
X6076000Y-3068000D01*
X6457000Y-2266000D02*
X6497000Y-2306000D01*
X6497000Y-2266000D02*
X6457000Y-2306000D01*
X6457000Y-2520000D02*
X6497000Y-2560000D01*
X6497000Y-2520000D02*
X6457000Y-2560000D01*
X6457000Y-2774000D02*
X6497000Y-2814000D01*
X6497000Y-2774000D02*
X6457000Y-2814000D01*
X6457000Y-3028000D02*
X6497000Y-3068000D01*
X6497000Y-3028000D02*
X6457000Y-3068000D01*
X6711000Y-2266000D02*
X6751000Y-2306000D01*
X6751000Y-2266000D02*
X6711000Y-2306000D01*
X6711000Y-2520000D02*
X6751000Y-2560000D01*
X6751000Y-2520000D02*
X6711000Y-2560000D01*
X6711000Y-2774000D02*
X6751000Y-2814000D01*
X6751000Y-2774000D02*
X6711000Y-2814000D01*
X6711000Y-3028000D02*
X6751000Y-3068000D01*
X6751000Y-3028000D02*
X6711000Y-3068000D01*
X6863400Y-5745800D02*
X6903400Y-5785800D01*
X6903400Y-5745800D02*
X6863400Y-5785800D01*
X6863400Y-6914200D02*
X6903400Y-6954200D01*
X6903400Y-6914200D02*
X6863400Y-6954200D01*
X6939600Y-5644200D02*
X6979600Y-5684200D01*
X6979600Y-5644200D02*
X6939600Y-5684200D01*
X6965000Y-2266000D02*
X7005000Y-2306000D01*
X7005000Y-2266000D02*
X6965000Y-2306000D01*
X6965000Y-2520000D02*
X7005000Y-2560000D01*
X7005000Y-2520000D02*
X6965000Y-2560000D01*
X6965000Y-3028000D02*
X7005000Y-3068000D01*
X7005000Y-3028000D02*
X6965000Y-3068000D01*
X6967642Y-6773150D02*
X7007642Y-6813150D01*
X7007642Y-6773150D02*
X6967642Y-6813150D01*
X6974050Y-2764950D02*
X7014050Y-2804950D01*
X7014050Y-2764950D02*
X6974050Y-2804950D01*
X7219000Y-2266000D02*
X7259000Y-2306000D01*
X7259000Y-2266000D02*
X7219000Y-2306000D01*
X7219000Y-2520000D02*
X7259000Y-2560000D01*
X7259000Y-2520000D02*
X7219000Y-2560000D01*
X7219000Y-2774000D02*
X7259000Y-2814000D01*
X7259000Y-2774000D02*
X7219000Y-2814000D01*
X7228050Y-3018950D02*
X7268050Y-3058950D01*
X7268050Y-3018950D02*
X7228050Y-3058950D01*
X9124000Y-6304600D02*
X9164000Y-6344600D01*
X9164000Y-6304600D02*
X9124000Y-6344600D01*
X9301800Y-7447600D02*
X9341800Y-7487600D01*
X9341800Y-7447600D02*
X9301800Y-7487600D01*
X9327200Y-5949000D02*
X9367200Y-5989000D01*
X9367200Y-5949000D02*
X9327200Y-5989000D01*
X9403400Y-6685600D02*
X9443400Y-6725600D01*
X9443400Y-6685600D02*
X9403400Y-6725600D01*
X9657400Y-6533200D02*
X9697400Y-6573200D01*
X9697400Y-6533200D02*
X9657400Y-6573200D01*
X9708200Y-4628200D02*
X9748200Y-4668200D01*
X9748200Y-4628200D02*
X9708200Y-4668200D01*
X9708200Y-6050600D02*
X9748200Y-6090600D01*
X9748200Y-6050600D02*
X9708200Y-6090600D01*
X10089200Y-4450400D02*
X10129200Y-4490400D01*
X10129200Y-4450400D02*
X10089200Y-4490400D01*
X10089200Y-7193600D02*
X10129200Y-7233600D01*
X10129200Y-7193600D02*
X10089200Y-7233600D01*
X10161650Y-6182210D02*
X10201650Y-6222210D01*
X10201650Y-6182210D02*
X10161650Y-6222210D01*
X10358440Y-4868290D02*
X10398440Y-4908290D01*
X10398440Y-4868290D02*
X10358440Y-4908290D01*
X10481960Y-5377500D02*
X10521960Y-5417500D01*
X10521960Y-5377500D02*
X10481960Y-5417500D01*
X10838340Y-5153200D02*
X10878340Y-5193200D01*
X10878340Y-5153200D02*
X10838340Y-5193200D01*
X10851200Y-4628200D02*
X10891200Y-4668200D01*
X10891200Y-4628200D02*
X10851200Y-4668200D01*
X10921985Y-6603985D02*
X10961985Y-6643985D01*
X10961985Y-6603985D02*
X10921985Y-6643985D01*
X11006935Y-5335638D02*
X11046935Y-5375638D01*
X11046935Y-5335638D02*
X11006935Y-5375638D01*
X11039160Y-4795840D02*
X11079160Y-4835840D01*
X11079160Y-4795840D02*
X11039160Y-4835840D01*
X11105200Y-6152200D02*
X11145200Y-6192200D01*
X11145200Y-6152200D02*
X11105200Y-6192200D01*
X11105200Y-7498400D02*
X11145200Y-7538400D01*
X11145200Y-7498400D02*
X11105200Y-7538400D01*
X11511600Y-5136200D02*
X11551600Y-5176200D01*
X11551600Y-5136200D02*
X11511600Y-5176200D01*
X11511600Y-5872800D02*
X11551600Y-5912800D01*
X11551600Y-5872800D02*
X11511600Y-5912800D01*
X11714800Y-4450400D02*
X11754800Y-4490400D01*
X11754800Y-4450400D02*
X11714800Y-4490400D01*
X11791000Y-5009200D02*
X11831000Y-5049200D01*
X11831000Y-5009200D02*
X11791000Y-5049200D01*
X11791000Y-5339400D02*
X11831000Y-5379400D01*
X11831000Y-5339400D02*
X11791000Y-5379400D01*
X11811758Y-4381164D02*
X11851758Y-4421164D01*
X11851758Y-4381164D02*
X11811758Y-4421164D01*
X11867200Y-4298000D02*
X11907200Y-4338000D01*
X11907200Y-4298000D02*
X11867200Y-4338000D01*
X11892600Y-5136200D02*
X11932600Y-5176200D01*
X11932600Y-5136200D02*
X11892600Y-5176200D01*
X11994200Y-5426970D02*
X12034200Y-5466970D01*
X12034200Y-5426970D02*
X11994200Y-5466970D01*
X11994200Y-6609400D02*
X12034200Y-6649400D01*
X12034200Y-6609400D02*
X11994200Y-6649400D01*
X12070400Y-5517200D02*
X12110400Y-5557200D01*
X12110400Y-5517200D02*
X12070400Y-5557200D01*
X12070400Y-6457000D02*
X12110400Y-6497000D01*
X12110400Y-6457000D02*
X12070400Y-6497000D01*
X12094241Y-4079722D02*
X12134241Y-4119722D01*
X12134241Y-4079722D02*
X12094241Y-4119722D01*
X12240580Y-5075240D02*
X12280580Y-5115240D01*
X12280580Y-5075240D02*
X12240580Y-5115240D01*
X12324400Y-4374200D02*
X12364400Y-4414200D01*
X12364400Y-4374200D02*
X12324400Y-4414200D01*
X12400600Y-4298000D02*
X12440600Y-4338000D01*
X12440600Y-4298000D02*
X12400600Y-4338000D01*
X12400600Y-4450400D02*
X12440600Y-4490400D01*
X12440600Y-4450400D02*
X12400600Y-4490400D01*
X12502200Y-4522850D02*
X12542200Y-4562850D01*
X12542200Y-4522850D02*
X12502200Y-4562850D01*
X12553000Y-4069400D02*
X12593000Y-4109400D01*
X12593000Y-4069400D02*
X12553000Y-4109400D01*
X12555803Y-4607211D02*
X12595803Y-4647211D01*
X12595803Y-4607211D02*
X12555803Y-4647211D01*
X12619040Y-5494340D02*
X12659040Y-5534340D01*
X12659040Y-5494340D02*
X12619040Y-5534340D01*
X12691150Y-5339400D02*
X12731150Y-5379400D01*
X12731150Y-5339400D02*
X12691150Y-5379400D01*
X12705400Y-5872800D02*
X12745400Y-5912800D01*
X12745400Y-5872800D02*
X12705400Y-5912800D01*
X12730800Y-6863400D02*
X12770800Y-6903400D01*
X12770800Y-6863400D02*
X12730800Y-6903400D01*
X12756200Y-3993200D02*
X12796200Y-4033200D01*
X12796200Y-3993200D02*
X12756200Y-4033200D01*
X12759950Y-4602800D02*
X12799950Y-4642800D01*
X12799950Y-4602800D02*
X12759950Y-4642800D01*
X12832400Y-4374200D02*
X12872400Y-4414200D01*
X12872400Y-4374200D02*
X12832400Y-4414200D01*
X12908600Y-5782998D02*
X12948600Y-5822998D01*
X12948600Y-5782998D02*
X12908600Y-5822998D01*
X12926380Y-3530920D02*
X12966380Y-3570920D01*
X12966380Y-3530920D02*
X12926380Y-3570920D01*
X12934000Y-4298000D02*
X12974000Y-4338000D01*
X12974000Y-4298000D02*
X12934000Y-4338000D01*
X12934000Y-6035360D02*
X12974000Y-6075360D01*
X12974000Y-6035360D02*
X12934000Y-6075360D01*
X12934000Y-6965000D02*
X12974000Y-7005000D01*
X12974000Y-6965000D02*
X12934000Y-7005000D01*
X12945501Y-5690109D02*
X12985501Y-5730109D01*
X12985501Y-5690109D02*
X12945501Y-5730109D01*
X13010200Y-6533200D02*
X13050200Y-6573200D01*
X13050200Y-6533200D02*
X13010200Y-6573200D01*
X13035600Y-4069400D02*
X13075600Y-4109400D01*
X13075600Y-4069400D02*
X13035600Y-4109400D01*
X13045760Y-3525840D02*
X13085760Y-3565840D01*
X13085760Y-3525840D02*
X13045760Y-3565840D01*
X13061000Y-5415600D02*
X13101000Y-5455600D01*
X13101000Y-5415600D02*
X13061000Y-5455600D01*
X13082650Y-2570800D02*
X13122650Y-2610800D01*
X13122650Y-2570800D02*
X13082650Y-2610800D01*
X13082650Y-3161950D02*
X13122650Y-3201950D01*
X13122650Y-3161950D02*
X13082650Y-3201950D01*
X13137200Y-5927898D02*
X13177200Y-5967898D01*
X13177200Y-5927898D02*
X13137200Y-5967898D01*
X13162600Y-5136200D02*
X13202600Y-5176200D01*
X13202600Y-5136200D02*
X13162600Y-5176200D01*
X13165140Y-3520760D02*
X13205140Y-3560760D01*
X13205140Y-3520760D02*
X13165140Y-3560760D01*
X13188000Y-5593400D02*
X13228000Y-5633400D01*
X13228000Y-5593400D02*
X13188000Y-5633400D01*
X13264200Y-4298000D02*
X13304200Y-4338000D01*
X13304200Y-4298000D02*
X13264200Y-4338000D01*
X13264594Y-6253620D02*
X13304594Y-6293620D01*
X13304594Y-6253620D02*
X13264594Y-6293620D01*
X13284520Y-3518220D02*
X13324520Y-3558220D01*
X13324520Y-3518220D02*
X13284520Y-3558220D01*
X13340400Y-6330000D02*
X13380400Y-6370000D01*
X13380400Y-6330000D02*
X13340400Y-6370000D01*
X13670600Y-2672400D02*
X13710600Y-2712400D01*
X13710600Y-2672400D02*
X13670600Y-2712400D01*
X13670600Y-3180400D02*
X13710600Y-3220400D01*
X13710600Y-3180400D02*
X13670600Y-3220400D01*
X13696000Y-2545400D02*
X13736000Y-2585400D01*
X13736000Y-2545400D02*
X13696000Y-2585400D01*
X13696000Y-3865770D02*
X13736000Y-3905770D01*
X13736000Y-3865770D02*
X13696000Y-3905770D01*
X13823000Y-2139000D02*
X13863000Y-2179000D01*
X13863000Y-2139000D02*
X13823000Y-2179000D01*
X13899200Y-4069400D02*
X13939200Y-4109400D01*
X13939200Y-4069400D02*
X13899200Y-4109400D01*
X14254800Y-3942400D02*
X14294800Y-3982400D01*
X14294800Y-3942400D02*
X14254800Y-3982400D01*
X14356005Y-3943655D02*
X14396005Y-3983655D01*
X14396005Y-3943655D02*
X14356005Y-3983655D01*
X14534200Y-3561400D02*
X14574200Y-3601400D01*
X14574200Y-3561400D02*
X14534200Y-3601400D01*
X14635800Y-3358200D02*
X14675800Y-3398200D01*
X14675800Y-3358200D02*
X14635800Y-3398200D01*
X14788200Y-3383600D02*
X14828200Y-3423600D01*
X14828200Y-3383600D02*
X14788200Y-3423600D01*
X14788200Y-3561400D02*
X14828200Y-3601400D01*
X14828200Y-3561400D02*
X14788200Y-3601400D01*
X14813600Y-3815400D02*
X14853600Y-3855400D01*
X14853600Y-3815400D02*
X14813600Y-3855400D01*
X14813600Y-4044000D02*
X14853600Y-4084000D01*
X14853600Y-4044000D02*
X14813600Y-4084000D01*
X14889800Y-2977200D02*
X14929800Y-3017200D01*
X14929800Y-2977200D02*
X14889800Y-3017200D01*
X14915200Y-4120200D02*
X14955200Y-4160200D01*
X14955200Y-4120200D02*
X14915200Y-4160200D01*
X15054900Y-3828100D02*
X15094900Y-3868100D01*
X15094900Y-3828100D02*
X15054900Y-3868100D01*
X15143800Y-2469200D02*
X15183800Y-2509200D01*
X15183800Y-2469200D02*
X15143800Y-2509200D01*
X15143800Y-3332800D02*
X15183800Y-3372800D01*
X15183800Y-3332800D02*
X15143800Y-3372800D01*
X15220000Y-3942400D02*
X15260000Y-3982400D01*
X15260000Y-3942400D02*
X15220000Y-3982400D01*
X15586579Y-4410579D02*
X15626579Y-4450579D01*
X15626579Y-4410579D02*
X15586579Y-4450579D01*
X15753400Y-3180400D02*
X15793400Y-3220400D01*
X15793400Y-3180400D02*
X15753400Y-3220400D01*
X15931200Y-2875600D02*
X15971200Y-2915600D01*
X15971200Y-2875600D02*
X15931200Y-2915600D01*
X16022312Y-3993528D02*
X16062312Y-4033528D01*
X16062312Y-3993528D02*
X16022312Y-4033528D01*
X16142020Y-4308160D02*
X16182020Y-4348160D01*
X16182020Y-4308160D02*
X16142020Y-4348160D01*
X16261400Y-4534220D02*
X16301400Y-4574220D01*
X16301400Y-4534220D02*
X16261400Y-4574220D01*
X16289340Y-2441260D02*
X16329340Y-2481260D01*
X16329340Y-2441260D02*
X16289340Y-2481260D01*
X16289340Y-2878140D02*
X16329340Y-2918140D01*
X16329340Y-2878140D02*
X16289340Y-2918140D01*
D13*
X2559680Y-3086100D02*
G75*
G03*
X2559680Y-3086100I-40000J0D01*
G01*
X3321680Y-3086100D02*
G75*
G03*
X3321680Y-3086100I-40000J0D01*
G01*
X4467000Y-2298700D02*
G75*
G03*
X4467000Y-2298700I-40000J0D01*
G01*
X4467000Y-3060700D02*
G75*
G03*
X4467000Y-3060700I-40000J0D01*
G01*
X4914260Y-3368040D02*
G75*
G03*
X4914260Y-3368040I-40000J0D01*
G01*
X5676260Y-3368040D02*
G75*
G03*
X5676260Y-3368040I-40000J0D01*
G01*
X5950580Y-3390900D02*
G75*
G03*
X5950580Y-3390900I-40000J0D01*
G01*
X5950580Y-4152900D02*
G75*
G03*
X5950580Y-4152900I-40000J0D01*
G01*
X6204580Y-3390900D02*
G75*
G03*
X6204580Y-3390900I-40000J0D01*
G01*
X6204580Y-4152900D02*
G75*
G03*
X6204580Y-4152900I-40000J0D01*
G01*
X6475000Y-3356000D02*
G75*
G03*
X6475000Y-3356000I-40000J0D01*
G01*
X7237000Y-3356000D02*
G75*
G03*
X7237000Y-3356000I-40000J0D01*
G01*
X7632060Y-3398520D02*
G75*
G03*
X7632060Y-3398520I-40000J0D01*
G01*
X7632060Y-4160520D02*
G75*
G03*
X7632060Y-4160520I-40000J0D01*
G01*
X7886060Y-3398520D02*
G75*
G03*
X7886060Y-3398520I-40000J0D01*
G01*
X7886060Y-4160520D02*
G75*
G03*
X7886060Y-4160520I-40000J0D01*
G01*
X8140060Y-3398520D02*
G75*
G03*
X8140060Y-3398520I-40000J0D01*
G01*
X8140060Y-4160520D02*
G75*
G03*
X8140060Y-4160520I-40000J0D01*
G01*
X8218800Y-2148840D02*
G75*
G03*
X8218800Y-2148840I-40000J0D01*
G01*
X8218800Y-2910840D02*
G75*
G03*
X8218800Y-2910840I-40000J0D01*
G01*
X8540000Y-3425000D02*
G75*
G03*
X8540000Y-3425000I-40000J0D01*
G01*
X9302000Y-3425000D02*
G75*
G03*
X9302000Y-3425000I-40000J0D01*
G01*
X9587860Y-3406140D02*
G75*
G03*
X9587860Y-3406140I-40000J0D01*
G01*
X9587860Y-4168140D02*
G75*
G03*
X9587860Y-4168140I-40000J0D01*
G01*
X9841860Y-3406140D02*
G75*
G03*
X9841860Y-3406140I-40000J0D01*
G01*
X9841860Y-4168140D02*
G75*
G03*
X9841860Y-4168140I-40000J0D01*
G01*
X10095860Y-3406140D02*
G75*
G03*
X10095860Y-3406140I-40000J0D01*
G01*
X10095860Y-4168140D02*
G75*
G03*
X10095860Y-4168140I-40000J0D01*
G01*
D14*
X3143457Y-3799355D02*
X3143457Y-3899355D01*
X3093457Y-3849355D02*
X3193457Y-3849355D01*
X3497010Y-3445802D02*
X3497010Y-3545802D01*
X3447010Y-3495802D02*
X3547010Y-3495802D01*
X4854656Y-6245944D02*
X4854656Y-6345944D01*
X4804656Y-6295944D02*
X4904656Y-6295944D01*
X5943600Y-5157000D02*
X5943600Y-5257000D01*
X5893600Y-5207000D02*
X5993600Y-5207000D01*
X9550400Y-4852200D02*
X9550400Y-4952200D01*
X9500400Y-4902200D02*
X9600400Y-4902200D01*
X9550400Y-5106200D02*
X9550400Y-5206200D01*
X9500400Y-5156200D02*
X9600400Y-5156200D01*
X9550400Y-5360200D02*
X9550400Y-5460200D01*
X9500400Y-5410200D02*
X9600400Y-5410200D01*
X9550400Y-5614200D02*
X9550400Y-5714200D01*
X9500400Y-5664200D02*
X9600400Y-5664200D01*
X9550400Y-5868200D02*
X9550400Y-5968200D01*
X9500400Y-5918200D02*
X9600400Y-5918200D01*
X10941985Y-7169015D02*
X10941985Y-7269015D01*
X10891985Y-7219015D02*
X10991985Y-7219015D01*
X11121590Y-6989410D02*
X11121590Y-7089410D01*
X11071590Y-7039410D02*
X11171590Y-7039410D01*
X11301195Y-6809805D02*
X11301195Y-6909805D01*
X11251195Y-6859805D02*
X11351195Y-6859805D01*
X11480800Y-6630200D02*
X11480800Y-6730200D01*
X11430800Y-6680200D02*
X11530800Y-6680200D01*
X11660405Y-6450595D02*
X11660405Y-6550595D01*
X11610405Y-6500595D02*
X11710405Y-6500595D01*
X12496800Y-2185200D02*
X12496800Y-2285200D01*
X12446800Y-2235200D02*
X12546800Y-2235200D01*
X12496800Y-2439200D02*
X12496800Y-2539200D01*
X12446800Y-2489200D02*
X12546800Y-2489200D01*
X13258800Y-2185200D02*
X13258800Y-2285200D01*
X13208800Y-2235200D02*
X13308800Y-2235200D01*
X13512800Y-2185200D02*
X13512800Y-2285200D01*
X13462800Y-2235200D02*
X13562800Y-2235200D01*
X15214600Y-3531400D02*
X15214600Y-3631400D01*
X15164600Y-3581400D02*
X15264600Y-3581400D01*
X15468600Y-3531400D02*
X15468600Y-3631400D01*
X15418600Y-3581400D02*
X15518600Y-3581400D01*
X15722600Y-3531400D02*
X15722600Y-3631400D01*
X15672600Y-3581400D02*
X15772600Y-3581400D01*
X15976600Y-3531400D02*
X15976600Y-3631400D01*
X15926600Y-3581400D02*
X16026600Y-3581400D01*
X16230600Y-3531400D02*
X16230600Y-3631400D01*
X16180600Y-3581400D02*
X16280600Y-3581400D01*
D15*
X5860811Y-6368151D02*
X5860811Y-6290369D01*
X5783029Y-6290369D01*
X5783029Y-6368151D01*
X5860811Y-6368151D01*
X5860811Y-6818151D02*
X5860811Y-6740369D01*
X5783029Y-6740369D01*
X5783029Y-6818151D01*
X5860811Y-6818151D01*
X6510811Y-6368151D02*
X6510811Y-6290369D01*
X6433029Y-6290369D01*
X6433029Y-6368151D01*
X6510811Y-6368151D01*
X6510811Y-6818151D02*
X6510811Y-6740369D01*
X6433029Y-6740369D01*
X6433029Y-6818151D01*
X6510811Y-6818151D01*
X9081291Y-7188991D02*
X9081291Y-7111209D01*
X9003509Y-7111209D01*
X9003509Y-7188991D01*
X9081291Y-7188991D01*
X9081291Y-7638991D02*
X9081291Y-7561209D01*
X9003509Y-7561209D01*
X9003509Y-7638991D01*
X9081291Y-7638991D01*
X9731291Y-7188991D02*
X9731291Y-7111209D01*
X9653509Y-7111209D01*
X9653509Y-7188991D01*
X9731291Y-7188991D01*
X9731291Y-7638991D02*
X9731291Y-7561209D01*
X9653509Y-7561209D01*
X9653509Y-7638991D01*
X9731291Y-7638991D01*
X12294391Y-6370691D02*
X12294391Y-6292909D01*
X12216609Y-6292909D01*
X12216609Y-6370691D01*
X12294391Y-6370691D01*
X12294391Y-6820691D02*
X12294391Y-6742909D01*
X12216609Y-6742909D01*
X12216609Y-6820691D01*
X12294391Y-6820691D01*
X12944391Y-6370691D02*
X12944391Y-6292909D01*
X12866609Y-6292909D01*
X12866609Y-6370691D01*
X12944391Y-6370691D01*
X12944391Y-6820691D02*
X12944391Y-6742909D01*
X12866609Y-6742909D01*
X12866609Y-6820691D01*
X12944391Y-6820691D01*
D16*
X8683000Y-2940000D02*
X8763000Y-2860000D01*
X8683000Y-2780000D01*
X8603000Y-2860000D01*
X8683000Y-2940000D01*
X10207000Y-2940000D02*
X10287000Y-2860000D01*
X10207000Y-2780000D01*
X10127000Y-2860000D01*
X10207000Y-2940000D01*
D17*
X2455800Y-2532000D02*
X2725800Y-2802000D01*
X2725800Y-2532000D02*
X2455800Y-2802000D01*
X2725800Y-2667000D02*
G75*
G03*
X2725800Y-2667000I-135000J0D01*
G01*
X3040000Y-2532000D02*
X3310000Y-2802000D01*
X3310000Y-2532000D02*
X3040000Y-2802000D01*
X3310000Y-2667000D02*
G75*
G03*
X3310000Y-2667000I-135000J0D01*
G01*
X3580000Y-2203000D02*
X3850000Y-2473000D01*
X3850000Y-2203000D02*
X3580000Y-2473000D01*
X3850000Y-2338000D02*
G75*
G03*
X3850000Y-2338000I-135000J0D01*
G01*
X10000000Y-2170000D02*
X10270000Y-2440000D01*
X10270000Y-2170000D02*
X10000000Y-2440000D01*
X10270000Y-2305000D02*
G75*
G03*
X10270000Y-2305000I-135000J0D01*
G01*
D18*
X14329600Y-4982400D02*
X14829600Y-5482400D01*
X14829600Y-4982400D02*
X14329600Y-5482400D01*
X14579600Y-4982400D02*
X14579600Y-5482400D01*
X14329600Y-5232400D02*
X14829600Y-5232400D01*
D11*
X2566519Y-8034576D02*
X2566519Y-7834576D01*
X2614138Y-7834576D01*
X2642710Y-7844100D01*
X2661757Y-7863148D01*
X2671281Y-7882195D01*
X2680805Y-7920290D01*
X2680805Y-7948862D01*
X2671281Y-7986957D01*
X2661757Y-8006005D01*
X2642710Y-8025052D01*
X2614138Y-8034576D01*
X2566519Y-8034576D01*
X2766519Y-8034576D02*
X2766519Y-7901243D01*
X2766519Y-7939338D02*
X2776043Y-7920290D01*
X2785567Y-7910767D01*
X2804614Y-7901243D01*
X2823662Y-7901243D01*
X2890328Y-8034576D02*
X2890328Y-7901243D01*
X2890328Y-7834576D02*
X2880805Y-7844100D01*
X2890328Y-7853624D01*
X2899852Y-7844100D01*
X2890328Y-7834576D01*
X2890328Y-7853624D01*
X3014138Y-8034576D02*
X2995090Y-8025052D01*
X2985567Y-8006005D01*
X2985567Y-7834576D01*
X3118900Y-8034576D02*
X3099852Y-8025052D01*
X3090328Y-8006005D01*
X3090328Y-7834576D01*
X3347471Y-8034576D02*
X3347471Y-7834576D01*
X3414138Y-7977433D01*
X3480805Y-7834576D01*
X3480805Y-8034576D01*
X3661757Y-8034576D02*
X3661757Y-7929814D01*
X3652233Y-7910767D01*
X3633186Y-7901243D01*
X3595090Y-7901243D01*
X3576043Y-7910767D01*
X3661757Y-8025052D02*
X3642709Y-8034576D01*
X3595090Y-8034576D01*
X3576043Y-8025052D01*
X3566519Y-8006005D01*
X3566519Y-7986957D01*
X3576043Y-7967909D01*
X3595090Y-7958386D01*
X3642709Y-7958386D01*
X3661757Y-7948862D01*
X3756995Y-7901243D02*
X3756995Y-8101243D01*
X3756995Y-7910767D02*
X3776043Y-7901243D01*
X3814138Y-7901243D01*
X3833186Y-7910767D01*
X3842709Y-7920290D01*
X3852233Y-7939338D01*
X3852233Y-7996481D01*
X3842709Y-8015528D01*
X3833186Y-8025052D01*
X3814138Y-8034576D01*
X3776043Y-8034576D01*
X3756995Y-8025052D01*
X3937948Y-8015528D02*
X3947471Y-8025052D01*
X3937948Y-8034576D01*
X3928424Y-8025052D01*
X3937948Y-8015528D01*
X3937948Y-8034576D01*
X3937948Y-7910767D02*
X3947471Y-7920290D01*
X3937948Y-7929814D01*
X3928424Y-7920290D01*
X3937948Y-7910767D01*
X3937948Y-7929814D01*
D12*
X2268900Y-8344100D02*
X2308900Y-8384100D01*
X2308900Y-8344100D02*
X2268900Y-8384100D01*
D11*
X2604614Y-8254576D02*
X2623662Y-8254576D01*
X2642710Y-8264100D01*
X2652233Y-8273624D01*
X2661757Y-8292671D01*
X2671281Y-8330767D01*
X2671281Y-8378386D01*
X2661757Y-8416481D01*
X2652233Y-8435529D01*
X2642710Y-8445052D01*
X2623662Y-8454576D01*
X2604614Y-8454576D01*
X2585567Y-8445052D01*
X2576043Y-8435529D01*
X2566519Y-8416481D01*
X2556995Y-8378386D01*
X2556995Y-8330767D01*
X2566519Y-8292671D01*
X2576043Y-8273624D01*
X2585567Y-8264100D01*
X2604614Y-8254576D01*
X2756995Y-8435529D02*
X2766519Y-8445052D01*
X2756995Y-8454576D01*
X2747471Y-8445052D01*
X2756995Y-8435529D01*
X2756995Y-8454576D01*
X2937948Y-8321243D02*
X2937948Y-8454576D01*
X2890328Y-8245052D02*
X2842709Y-8387909D01*
X2966519Y-8387909D01*
X3080805Y-8254576D02*
X3099852Y-8254576D01*
X3118900Y-8264100D01*
X3128424Y-8273624D01*
X3137948Y-8292671D01*
X3147471Y-8330767D01*
X3147471Y-8378386D01*
X3137948Y-8416481D01*
X3128424Y-8435529D01*
X3118900Y-8445052D01*
X3099852Y-8454576D01*
X3080805Y-8454576D01*
X3061757Y-8445052D01*
X3052233Y-8435529D01*
X3042709Y-8416481D01*
X3033186Y-8378386D01*
X3033186Y-8330767D01*
X3042709Y-8292671D01*
X3052233Y-8273624D01*
X3061757Y-8264100D01*
X3080805Y-8254576D01*
X3271281Y-8254576D02*
X3290328Y-8254576D01*
X3309376Y-8264100D01*
X3318900Y-8273624D01*
X3328424Y-8292671D01*
X3337948Y-8330767D01*
X3337948Y-8378386D01*
X3328424Y-8416481D01*
X3318900Y-8435529D01*
X3309376Y-8445052D01*
X3290328Y-8454576D01*
X3271281Y-8454576D01*
X3252233Y-8445052D01*
X3242709Y-8435529D01*
X3233186Y-8416481D01*
X3223662Y-8378386D01*
X3223662Y-8330767D01*
X3233186Y-8292671D01*
X3242709Y-8273624D01*
X3252233Y-8264100D01*
X3271281Y-8254576D01*
X3423662Y-8454576D02*
X3423662Y-8321243D01*
X3423662Y-8340290D02*
X3433186Y-8330767D01*
X3452233Y-8321243D01*
X3480805Y-8321243D01*
X3499852Y-8330767D01*
X3509376Y-8349814D01*
X3509376Y-8454576D01*
X3509376Y-8349814D02*
X3518900Y-8330767D01*
X3537948Y-8321243D01*
X3566519Y-8321243D01*
X3585567Y-8330767D01*
X3595090Y-8349814D01*
X3595090Y-8454576D01*
X3690328Y-8454576D02*
X3690328Y-8321243D01*
X3690328Y-8340290D02*
X3699852Y-8330767D01*
X3718900Y-8321243D01*
X3747471Y-8321243D01*
X3766519Y-8330767D01*
X3776043Y-8349814D01*
X3776043Y-8454576D01*
X3776043Y-8349814D02*
X3785567Y-8330767D01*
X3804614Y-8321243D01*
X3833186Y-8321243D01*
X3852233Y-8330767D01*
X3861757Y-8349814D01*
X3861757Y-8454576D01*
X4252233Y-8245052D02*
X4080805Y-8502195D01*
X4509376Y-8254576D02*
X4528424Y-8254576D01*
X4547471Y-8264100D01*
X4556995Y-8273624D01*
X4566519Y-8292671D01*
X4576043Y-8330767D01*
X4576043Y-8378386D01*
X4566519Y-8416481D01*
X4556995Y-8435529D01*
X4547471Y-8445052D01*
X4528424Y-8454576D01*
X4509376Y-8454576D01*
X4490329Y-8445052D01*
X4480805Y-8435529D01*
X4471281Y-8416481D01*
X4461757Y-8378386D01*
X4461757Y-8330767D01*
X4471281Y-8292671D01*
X4480805Y-8273624D01*
X4490329Y-8264100D01*
X4509376Y-8254576D01*
X4661757Y-8435529D02*
X4671281Y-8445052D01*
X4661757Y-8454576D01*
X4652233Y-8445052D01*
X4661757Y-8435529D01*
X4661757Y-8454576D01*
X4795090Y-8254576D02*
X4814138Y-8254576D01*
X4833186Y-8264100D01*
X4842710Y-8273624D01*
X4852233Y-8292671D01*
X4861757Y-8330767D01*
X4861757Y-8378386D01*
X4852233Y-8416481D01*
X4842710Y-8435529D01*
X4833186Y-8445052D01*
X4814138Y-8454576D01*
X4795090Y-8454576D01*
X4776043Y-8445052D01*
X4766519Y-8435529D01*
X4756995Y-8416481D01*
X4747471Y-8378386D01*
X4747471Y-8330767D01*
X4756995Y-8292671D01*
X4766519Y-8273624D01*
X4776043Y-8264100D01*
X4795090Y-8254576D01*
X5052233Y-8454576D02*
X4937948Y-8454576D01*
X4995090Y-8454576D02*
X4995090Y-8254576D01*
X4976043Y-8283148D01*
X4956995Y-8302195D01*
X4937948Y-8311719D01*
X5233186Y-8254576D02*
X5137948Y-8254576D01*
X5128424Y-8349814D01*
X5137948Y-8340290D01*
X5156995Y-8330767D01*
X5204614Y-8330767D01*
X5223662Y-8340290D01*
X5233186Y-8349814D01*
X5242710Y-8368862D01*
X5242710Y-8416481D01*
X5233186Y-8435529D01*
X5223662Y-8445052D01*
X5204614Y-8454576D01*
X5156995Y-8454576D01*
X5137948Y-8445052D01*
X5128424Y-8435529D01*
X5309376Y-8254576D02*
X5442710Y-8254576D01*
X5356995Y-8454576D01*
X5509376Y-8254576D02*
X5509376Y-8292671D01*
X5585567Y-8254576D02*
X5585567Y-8292671D01*
X5880805Y-8530767D02*
X5871281Y-8521243D01*
X5852233Y-8492671D01*
X5842709Y-8473624D01*
X5833186Y-8445052D01*
X5823662Y-8397433D01*
X5823662Y-8359338D01*
X5833186Y-8311719D01*
X5842709Y-8283148D01*
X5852233Y-8264100D01*
X5871281Y-8235528D01*
X5880805Y-8226005D01*
X6061757Y-8454576D02*
X5947471Y-8454576D01*
X6004614Y-8454576D02*
X6004614Y-8254576D01*
X5985567Y-8283148D01*
X5966519Y-8302195D01*
X5947471Y-8311719D01*
X6128424Y-8254576D02*
X6252233Y-8254576D01*
X6185567Y-8330767D01*
X6214138Y-8330767D01*
X6233186Y-8340290D01*
X6242709Y-8349814D01*
X6252233Y-8368862D01*
X6252233Y-8416481D01*
X6242709Y-8435529D01*
X6233186Y-8445052D01*
X6214138Y-8454576D01*
X6156995Y-8454576D01*
X6137948Y-8445052D01*
X6128424Y-8435529D01*
X6376043Y-8254576D02*
X6395090Y-8254576D01*
X6414138Y-8264100D01*
X6423662Y-8273624D01*
X6433186Y-8292671D01*
X6442709Y-8330767D01*
X6442709Y-8378386D01*
X6433186Y-8416481D01*
X6423662Y-8435529D01*
X6414138Y-8445052D01*
X6395090Y-8454576D01*
X6376043Y-8454576D01*
X6356995Y-8445052D01*
X6347471Y-8435529D01*
X6337948Y-8416481D01*
X6328424Y-8378386D01*
X6328424Y-8330767D01*
X6337948Y-8292671D01*
X6347471Y-8273624D01*
X6356995Y-8264100D01*
X6376043Y-8254576D01*
X6680805Y-8454576D02*
X6680805Y-8254576D01*
X6766519Y-8454576D02*
X6766519Y-8349814D01*
X6756995Y-8330767D01*
X6737948Y-8321243D01*
X6709376Y-8321243D01*
X6690328Y-8330767D01*
X6680805Y-8340290D01*
X6890328Y-8454576D02*
X6871281Y-8445052D01*
X6861757Y-8435529D01*
X6852233Y-8416481D01*
X6852233Y-8359338D01*
X6861757Y-8340290D01*
X6871281Y-8330767D01*
X6890328Y-8321243D01*
X6918900Y-8321243D01*
X6937948Y-8330767D01*
X6947471Y-8340290D01*
X6956995Y-8359338D01*
X6956995Y-8416481D01*
X6947471Y-8435529D01*
X6937948Y-8445052D01*
X6918900Y-8454576D01*
X6890328Y-8454576D01*
X7071281Y-8454576D02*
X7052233Y-8445052D01*
X7042709Y-8426005D01*
X7042709Y-8254576D01*
X7223662Y-8445052D02*
X7204614Y-8454576D01*
X7166519Y-8454576D01*
X7147471Y-8445052D01*
X7137948Y-8426005D01*
X7137948Y-8349814D01*
X7147471Y-8330767D01*
X7166519Y-8321243D01*
X7204614Y-8321243D01*
X7223662Y-8330767D01*
X7233186Y-8349814D01*
X7233186Y-8368862D01*
X7137948Y-8387909D01*
X7309376Y-8445052D02*
X7328424Y-8454576D01*
X7366519Y-8454576D01*
X7385567Y-8445052D01*
X7395090Y-8426005D01*
X7395090Y-8416481D01*
X7385567Y-8397433D01*
X7366519Y-8387909D01*
X7337948Y-8387909D01*
X7318900Y-8378386D01*
X7309376Y-8359338D01*
X7309376Y-8349814D01*
X7318900Y-8330767D01*
X7337948Y-8321243D01*
X7366519Y-8321243D01*
X7385567Y-8330767D01*
X7461757Y-8530767D02*
X7471281Y-8521243D01*
X7490328Y-8492671D01*
X7499852Y-8473624D01*
X7509376Y-8445052D01*
X7518900Y-8397433D01*
X7518900Y-8359338D01*
X7509376Y-8311719D01*
X7499852Y-8283148D01*
X7490328Y-8264100D01*
X7471281Y-8235528D01*
X7461757Y-8226005D01*
D13*
X2308900Y-8628100D02*
G75*
G03*
X2308900Y-8628100I-40000J0D01*
G01*
D11*
X2604614Y-8518576D02*
X2623662Y-8518576D01*
X2642710Y-8528100D01*
X2652233Y-8537624D01*
X2661757Y-8556671D01*
X2671281Y-8594767D01*
X2671281Y-8642386D01*
X2661757Y-8680481D01*
X2652233Y-8699529D01*
X2642710Y-8709052D01*
X2623662Y-8718576D01*
X2604614Y-8718576D01*
X2585567Y-8709052D01*
X2576043Y-8699529D01*
X2566519Y-8680481D01*
X2556995Y-8642386D01*
X2556995Y-8594767D01*
X2566519Y-8556671D01*
X2576043Y-8537624D01*
X2585567Y-8528100D01*
X2604614Y-8518576D01*
X2756995Y-8699529D02*
X2766519Y-8709052D01*
X2756995Y-8718576D01*
X2747471Y-8709052D01*
X2756995Y-8699529D01*
X2756995Y-8718576D01*
X2880805Y-8604290D02*
X2861757Y-8594767D01*
X2852233Y-8585243D01*
X2842709Y-8566195D01*
X2842709Y-8556671D01*
X2852233Y-8537624D01*
X2861757Y-8528100D01*
X2880805Y-8518576D01*
X2918900Y-8518576D01*
X2937948Y-8528100D01*
X2947471Y-8537624D01*
X2956995Y-8556671D01*
X2956995Y-8566195D01*
X2947471Y-8585243D01*
X2937948Y-8594767D01*
X2918900Y-8604290D01*
X2880805Y-8604290D01*
X2861757Y-8613814D01*
X2852233Y-8623338D01*
X2842709Y-8642386D01*
X2842709Y-8680481D01*
X2852233Y-8699529D01*
X2861757Y-8709052D01*
X2880805Y-8718576D01*
X2918900Y-8718576D01*
X2937948Y-8709052D01*
X2947471Y-8699529D01*
X2956995Y-8680481D01*
X2956995Y-8642386D01*
X2947471Y-8623338D01*
X2937948Y-8613814D01*
X2918900Y-8604290D01*
X3080805Y-8518576D02*
X3099852Y-8518576D01*
X3118900Y-8528100D01*
X3128424Y-8537624D01*
X3137948Y-8556671D01*
X3147471Y-8594767D01*
X3147471Y-8642386D01*
X3137948Y-8680481D01*
X3128424Y-8699529D01*
X3118900Y-8709052D01*
X3099852Y-8718576D01*
X3080805Y-8718576D01*
X3061757Y-8709052D01*
X3052233Y-8699529D01*
X3042709Y-8680481D01*
X3033186Y-8642386D01*
X3033186Y-8594767D01*
X3042709Y-8556671D01*
X3052233Y-8537624D01*
X3061757Y-8528100D01*
X3080805Y-8518576D01*
X3271281Y-8518576D02*
X3290328Y-8518576D01*
X3309376Y-8528100D01*
X3318900Y-8537624D01*
X3328424Y-8556671D01*
X3337948Y-8594767D01*
X3337948Y-8642386D01*
X3328424Y-8680481D01*
X3318900Y-8699529D01*
X3309376Y-8709052D01*
X3290328Y-8718576D01*
X3271281Y-8718576D01*
X3252233Y-8709052D01*
X3242709Y-8699529D01*
X3233186Y-8680481D01*
X3223662Y-8642386D01*
X3223662Y-8594767D01*
X3233186Y-8556671D01*
X3242709Y-8537624D01*
X3252233Y-8528100D01*
X3271281Y-8518576D01*
X3423662Y-8718576D02*
X3423662Y-8585243D01*
X3423662Y-8604290D02*
X3433186Y-8594767D01*
X3452233Y-8585243D01*
X3480805Y-8585243D01*
X3499852Y-8594767D01*
X3509376Y-8613814D01*
X3509376Y-8718576D01*
X3509376Y-8613814D02*
X3518900Y-8594767D01*
X3537948Y-8585243D01*
X3566519Y-8585243D01*
X3585567Y-8594767D01*
X3595090Y-8613814D01*
X3595090Y-8718576D01*
X3690328Y-8718576D02*
X3690328Y-8585243D01*
X3690328Y-8604290D02*
X3699852Y-8594767D01*
X3718900Y-8585243D01*
X3747471Y-8585243D01*
X3766519Y-8594767D01*
X3776043Y-8613814D01*
X3776043Y-8718576D01*
X3776043Y-8613814D02*
X3785567Y-8594767D01*
X3804614Y-8585243D01*
X3833186Y-8585243D01*
X3852233Y-8594767D01*
X3861757Y-8613814D01*
X3861757Y-8718576D01*
X4252233Y-8509052D02*
X4080805Y-8766195D01*
X4509376Y-8518576D02*
X4528424Y-8518576D01*
X4547471Y-8528100D01*
X4556995Y-8537624D01*
X4566519Y-8556671D01*
X4576043Y-8594767D01*
X4576043Y-8642386D01*
X4566519Y-8680481D01*
X4556995Y-8699529D01*
X4547471Y-8709052D01*
X4528424Y-8718576D01*
X4509376Y-8718576D01*
X4490329Y-8709052D01*
X4480805Y-8699529D01*
X4471281Y-8680481D01*
X4461757Y-8642386D01*
X4461757Y-8594767D01*
X4471281Y-8556671D01*
X4480805Y-8537624D01*
X4490329Y-8528100D01*
X4509376Y-8518576D01*
X4661757Y-8699529D02*
X4671281Y-8709052D01*
X4661757Y-8718576D01*
X4652233Y-8709052D01*
X4661757Y-8699529D01*
X4661757Y-8718576D01*
X4795090Y-8518576D02*
X4814138Y-8518576D01*
X4833186Y-8528100D01*
X4842710Y-8537624D01*
X4852233Y-8556671D01*
X4861757Y-8594767D01*
X4861757Y-8642386D01*
X4852233Y-8680481D01*
X4842710Y-8699529D01*
X4833186Y-8709052D01*
X4814138Y-8718576D01*
X4795090Y-8718576D01*
X4776043Y-8709052D01*
X4766519Y-8699529D01*
X4756995Y-8680481D01*
X4747471Y-8642386D01*
X4747471Y-8594767D01*
X4756995Y-8556671D01*
X4766519Y-8537624D01*
X4776043Y-8528100D01*
X4795090Y-8518576D01*
X4928424Y-8518576D02*
X5052233Y-8518576D01*
X4985567Y-8594767D01*
X5014138Y-8594767D01*
X5033186Y-8604290D01*
X5042710Y-8613814D01*
X5052233Y-8632862D01*
X5052233Y-8680481D01*
X5042710Y-8699529D01*
X5033186Y-8709052D01*
X5014138Y-8718576D01*
X4956995Y-8718576D01*
X4937948Y-8709052D01*
X4928424Y-8699529D01*
X5242710Y-8718576D02*
X5128424Y-8718576D01*
X5185567Y-8718576D02*
X5185567Y-8518576D01*
X5166519Y-8547148D01*
X5147471Y-8566195D01*
X5128424Y-8575719D01*
X5423662Y-8518576D02*
X5328424Y-8518576D01*
X5318900Y-8613814D01*
X5328424Y-8604290D01*
X5347471Y-8594767D01*
X5395090Y-8594767D01*
X5414138Y-8604290D01*
X5423662Y-8613814D01*
X5433186Y-8632862D01*
X5433186Y-8680481D01*
X5423662Y-8699529D01*
X5414138Y-8709052D01*
X5395090Y-8718576D01*
X5347471Y-8718576D01*
X5328424Y-8709052D01*
X5318900Y-8699529D01*
X5509376Y-8518576D02*
X5509376Y-8556671D01*
X5585567Y-8518576D02*
X5585567Y-8556671D01*
X5880805Y-8794767D02*
X5871281Y-8785243D01*
X5852233Y-8756671D01*
X5842709Y-8737624D01*
X5833186Y-8709052D01*
X5823662Y-8661433D01*
X5823662Y-8623338D01*
X5833186Y-8575719D01*
X5842709Y-8547148D01*
X5852233Y-8528100D01*
X5871281Y-8499529D01*
X5880805Y-8490005D01*
X5947471Y-8537624D02*
X5956995Y-8528100D01*
X5976043Y-8518576D01*
X6023662Y-8518576D01*
X6042709Y-8528100D01*
X6052233Y-8537624D01*
X6061757Y-8556671D01*
X6061757Y-8575719D01*
X6052233Y-8604290D01*
X5937948Y-8718576D01*
X6061757Y-8718576D01*
X6176043Y-8604290D02*
X6156995Y-8594767D01*
X6147471Y-8585243D01*
X6137948Y-8566195D01*
X6137948Y-8556671D01*
X6147471Y-8537624D01*
X6156995Y-8528100D01*
X6176043Y-8518576D01*
X6214138Y-8518576D01*
X6233186Y-8528100D01*
X6242709Y-8537624D01*
X6252233Y-8556671D01*
X6252233Y-8566195D01*
X6242709Y-8585243D01*
X6233186Y-8594767D01*
X6214138Y-8604290D01*
X6176043Y-8604290D01*
X6156995Y-8613814D01*
X6147471Y-8623338D01*
X6137948Y-8642386D01*
X6137948Y-8680481D01*
X6147471Y-8699529D01*
X6156995Y-8709052D01*
X6176043Y-8718576D01*
X6214138Y-8718576D01*
X6233186Y-8709052D01*
X6242709Y-8699529D01*
X6252233Y-8680481D01*
X6252233Y-8642386D01*
X6242709Y-8623338D01*
X6233186Y-8613814D01*
X6214138Y-8604290D01*
X6490328Y-8718576D02*
X6490328Y-8518576D01*
X6576043Y-8718576D02*
X6576043Y-8613814D01*
X6566519Y-8594767D01*
X6547471Y-8585243D01*
X6518900Y-8585243D01*
X6499852Y-8594767D01*
X6490328Y-8604290D01*
X6699852Y-8718576D02*
X6680805Y-8709052D01*
X6671281Y-8699529D01*
X6661757Y-8680481D01*
X6661757Y-8623338D01*
X6671281Y-8604290D01*
X6680805Y-8594767D01*
X6699852Y-8585243D01*
X6728424Y-8585243D01*
X6747471Y-8594767D01*
X6756995Y-8604290D01*
X6766519Y-8623338D01*
X6766519Y-8680481D01*
X6756995Y-8699529D01*
X6747471Y-8709052D01*
X6728424Y-8718576D01*
X6699852Y-8718576D01*
X6880805Y-8718576D02*
X6861757Y-8709052D01*
X6852233Y-8690005D01*
X6852233Y-8518576D01*
X7033186Y-8709052D02*
X7014138Y-8718576D01*
X6976043Y-8718576D01*
X6956995Y-8709052D01*
X6947471Y-8690005D01*
X6947471Y-8613814D01*
X6956995Y-8594767D01*
X6976043Y-8585243D01*
X7014138Y-8585243D01*
X7033186Y-8594767D01*
X7042709Y-8613814D01*
X7042709Y-8632862D01*
X6947471Y-8651910D01*
X7118900Y-8709052D02*
X7137948Y-8718576D01*
X7176043Y-8718576D01*
X7195090Y-8709052D01*
X7204614Y-8690005D01*
X7204614Y-8680481D01*
X7195090Y-8661433D01*
X7176043Y-8651910D01*
X7147471Y-8651910D01*
X7128424Y-8642386D01*
X7118900Y-8623338D01*
X7118900Y-8613814D01*
X7128424Y-8594767D01*
X7147471Y-8585243D01*
X7176043Y-8585243D01*
X7195090Y-8594767D01*
X7271281Y-8794767D02*
X7280805Y-8785243D01*
X7299852Y-8756671D01*
X7309376Y-8737624D01*
X7318900Y-8709052D01*
X7328424Y-8661433D01*
X7328424Y-8623338D01*
X7318900Y-8575719D01*
X7309376Y-8547148D01*
X7299852Y-8528100D01*
X7280805Y-8499529D01*
X7271281Y-8490005D01*
D14*
X2258900Y-8842100D02*
X2258900Y-8942100D01*
X2208900Y-8892100D02*
X2308900Y-8892100D01*
D11*
X2671281Y-8982576D02*
X2556995Y-8982576D01*
X2614138Y-8982576D02*
X2614138Y-8782576D01*
X2595090Y-8811148D01*
X2576043Y-8830195D01*
X2556995Y-8839719D01*
X2756995Y-8963529D02*
X2766519Y-8973052D01*
X2756995Y-8982576D01*
X2747471Y-8973052D01*
X2756995Y-8963529D01*
X2756995Y-8982576D01*
X2890328Y-8782576D02*
X2909376Y-8782576D01*
X2928424Y-8792100D01*
X2937948Y-8801624D01*
X2947471Y-8820671D01*
X2956995Y-8858767D01*
X2956995Y-8906386D01*
X2947471Y-8944481D01*
X2937948Y-8963529D01*
X2928424Y-8973052D01*
X2909376Y-8982576D01*
X2890328Y-8982576D01*
X2871281Y-8973052D01*
X2861757Y-8963529D01*
X2852233Y-8944481D01*
X2842709Y-8906386D01*
X2842709Y-8858767D01*
X2852233Y-8820671D01*
X2861757Y-8801624D01*
X2871281Y-8792100D01*
X2890328Y-8782576D01*
X3080805Y-8782576D02*
X3099852Y-8782576D01*
X3118900Y-8792100D01*
X3128424Y-8801624D01*
X3137948Y-8820671D01*
X3147471Y-8858767D01*
X3147471Y-8906386D01*
X3137948Y-8944481D01*
X3128424Y-8963529D01*
X3118900Y-8973052D01*
X3099852Y-8982576D01*
X3080805Y-8982576D01*
X3061757Y-8973052D01*
X3052233Y-8963529D01*
X3042709Y-8944481D01*
X3033186Y-8906386D01*
X3033186Y-8858767D01*
X3042709Y-8820671D01*
X3052233Y-8801624D01*
X3061757Y-8792100D01*
X3080805Y-8782576D01*
X3271281Y-8782576D02*
X3290328Y-8782576D01*
X3309376Y-8792100D01*
X3318900Y-8801624D01*
X3328424Y-8820671D01*
X3337948Y-8858767D01*
X3337948Y-8906386D01*
X3328424Y-8944481D01*
X3318900Y-8963529D01*
X3309376Y-8973052D01*
X3290328Y-8982576D01*
X3271281Y-8982576D01*
X3252233Y-8973052D01*
X3242709Y-8963529D01*
X3233186Y-8944481D01*
X3223662Y-8906386D01*
X3223662Y-8858767D01*
X3233186Y-8820671D01*
X3242709Y-8801624D01*
X3252233Y-8792100D01*
X3271281Y-8782576D01*
X3423662Y-8982576D02*
X3423662Y-8849243D01*
X3423662Y-8868290D02*
X3433186Y-8858767D01*
X3452233Y-8849243D01*
X3480805Y-8849243D01*
X3499852Y-8858767D01*
X3509376Y-8877814D01*
X3509376Y-8982576D01*
X3509376Y-8877814D02*
X3518900Y-8858767D01*
X3537948Y-8849243D01*
X3566519Y-8849243D01*
X3585567Y-8858767D01*
X3595090Y-8877814D01*
X3595090Y-8982576D01*
X3690328Y-8982576D02*
X3690328Y-8849243D01*
X3690328Y-8868290D02*
X3699852Y-8858767D01*
X3718900Y-8849243D01*
X3747471Y-8849243D01*
X3766519Y-8858767D01*
X3776043Y-8877814D01*
X3776043Y-8982576D01*
X3776043Y-8877814D02*
X3785567Y-8858767D01*
X3804614Y-8849243D01*
X3833186Y-8849243D01*
X3852233Y-8858767D01*
X3861757Y-8877814D01*
X3861757Y-8982576D01*
X4252233Y-8773052D02*
X4080805Y-9030195D01*
X4509376Y-8782576D02*
X4528424Y-8782576D01*
X4547471Y-8792100D01*
X4556995Y-8801624D01*
X4566519Y-8820671D01*
X4576043Y-8858767D01*
X4576043Y-8906386D01*
X4566519Y-8944481D01*
X4556995Y-8963529D01*
X4547471Y-8973052D01*
X4528424Y-8982576D01*
X4509376Y-8982576D01*
X4490329Y-8973052D01*
X4480805Y-8963529D01*
X4471281Y-8944481D01*
X4461757Y-8906386D01*
X4461757Y-8858767D01*
X4471281Y-8820671D01*
X4480805Y-8801624D01*
X4490329Y-8792100D01*
X4509376Y-8782576D01*
X4661757Y-8963529D02*
X4671281Y-8973052D01*
X4661757Y-8982576D01*
X4652233Y-8973052D01*
X4661757Y-8963529D01*
X4661757Y-8982576D01*
X4795090Y-8782576D02*
X4814138Y-8782576D01*
X4833186Y-8792100D01*
X4842710Y-8801624D01*
X4852233Y-8820671D01*
X4861757Y-8858767D01*
X4861757Y-8906386D01*
X4852233Y-8944481D01*
X4842710Y-8963529D01*
X4833186Y-8973052D01*
X4814138Y-8982576D01*
X4795090Y-8982576D01*
X4776043Y-8973052D01*
X4766519Y-8963529D01*
X4756995Y-8944481D01*
X4747471Y-8906386D01*
X4747471Y-8858767D01*
X4756995Y-8820671D01*
X4766519Y-8801624D01*
X4776043Y-8792100D01*
X4795090Y-8782576D01*
X4928424Y-8782576D02*
X5052233Y-8782576D01*
X4985567Y-8858767D01*
X5014138Y-8858767D01*
X5033186Y-8868290D01*
X5042710Y-8877814D01*
X5052233Y-8896862D01*
X5052233Y-8944481D01*
X5042710Y-8963529D01*
X5033186Y-8973052D01*
X5014138Y-8982576D01*
X4956995Y-8982576D01*
X4937948Y-8973052D01*
X4928424Y-8963529D01*
X5147471Y-8982576D02*
X5185567Y-8982576D01*
X5204614Y-8973052D01*
X5214138Y-8963529D01*
X5233186Y-8934957D01*
X5242710Y-8896862D01*
X5242710Y-8820671D01*
X5233186Y-8801624D01*
X5223662Y-8792100D01*
X5204614Y-8782576D01*
X5166519Y-8782576D01*
X5147471Y-8792100D01*
X5137948Y-8801624D01*
X5128424Y-8820671D01*
X5128424Y-8868290D01*
X5137948Y-8887338D01*
X5147471Y-8896862D01*
X5166519Y-8906386D01*
X5204614Y-8906386D01*
X5223662Y-8896862D01*
X5233186Y-8887338D01*
X5242710Y-8868290D01*
X5414138Y-8849243D02*
X5414138Y-8982576D01*
X5366519Y-8773052D02*
X5318900Y-8915910D01*
X5442710Y-8915910D01*
X5509376Y-8782576D02*
X5509376Y-8820671D01*
X5585567Y-8782576D02*
X5585567Y-8820671D01*
X5880805Y-9058767D02*
X5871281Y-9049243D01*
X5852233Y-9020671D01*
X5842709Y-9001624D01*
X5833186Y-8973052D01*
X5823662Y-8925433D01*
X5823662Y-8887338D01*
X5833186Y-8839719D01*
X5842709Y-8811148D01*
X5852233Y-8792100D01*
X5871281Y-8763529D01*
X5880805Y-8754005D01*
X5947471Y-8801624D02*
X5956995Y-8792100D01*
X5976043Y-8782576D01*
X6023662Y-8782576D01*
X6042709Y-8792100D01*
X6052233Y-8801624D01*
X6061757Y-8820671D01*
X6061757Y-8839719D01*
X6052233Y-8868290D01*
X5937948Y-8982576D01*
X6061757Y-8982576D01*
X6128424Y-8782576D02*
X6252233Y-8782576D01*
X6185567Y-8858767D01*
X6214138Y-8858767D01*
X6233186Y-8868290D01*
X6242709Y-8877814D01*
X6252233Y-8896862D01*
X6252233Y-8944481D01*
X6242709Y-8963529D01*
X6233186Y-8973052D01*
X6214138Y-8982576D01*
X6156995Y-8982576D01*
X6137948Y-8973052D01*
X6128424Y-8963529D01*
X6490328Y-8982576D02*
X6490328Y-8782576D01*
X6576043Y-8982576D02*
X6576043Y-8877814D01*
X6566519Y-8858767D01*
X6547471Y-8849243D01*
X6518900Y-8849243D01*
X6499852Y-8858767D01*
X6490328Y-8868290D01*
X6699852Y-8982576D02*
X6680805Y-8973052D01*
X6671281Y-8963529D01*
X6661757Y-8944481D01*
X6661757Y-8887338D01*
X6671281Y-8868290D01*
X6680805Y-8858767D01*
X6699852Y-8849243D01*
X6728424Y-8849243D01*
X6747471Y-8858767D01*
X6756995Y-8868290D01*
X6766519Y-8887338D01*
X6766519Y-8944481D01*
X6756995Y-8963529D01*
X6747471Y-8973052D01*
X6728424Y-8982576D01*
X6699852Y-8982576D01*
X6880805Y-8982576D02*
X6861757Y-8973052D01*
X6852233Y-8954005D01*
X6852233Y-8782576D01*
X7033186Y-8973052D02*
X7014138Y-8982576D01*
X6976043Y-8982576D01*
X6956995Y-8973052D01*
X6947471Y-8954005D01*
X6947471Y-8877814D01*
X6956995Y-8858767D01*
X6976043Y-8849243D01*
X7014138Y-8849243D01*
X7033186Y-8858767D01*
X7042709Y-8877814D01*
X7042709Y-8896862D01*
X6947471Y-8915910D01*
X7118900Y-8973052D02*
X7137948Y-8982576D01*
X7176043Y-8982576D01*
X7195090Y-8973052D01*
X7204614Y-8954005D01*
X7204614Y-8944481D01*
X7195090Y-8925433D01*
X7176043Y-8915910D01*
X7147471Y-8915910D01*
X7128424Y-8906386D01*
X7118900Y-8887338D01*
X7118900Y-8877814D01*
X7128424Y-8858767D01*
X7147471Y-8849243D01*
X7176043Y-8849243D01*
X7195090Y-8858767D01*
X7271281Y-9058767D02*
X7280805Y-9049243D01*
X7299852Y-9020671D01*
X7309376Y-9001624D01*
X7318900Y-8973052D01*
X7328424Y-8925433D01*
X7328424Y-8887338D01*
X7318900Y-8839719D01*
X7309376Y-8811148D01*
X7299852Y-8792100D01*
X7280805Y-8763529D01*
X7271281Y-8754005D01*
D15*
X2292791Y-9194991D02*
X2292791Y-9117209D01*
X2215009Y-9117209D01*
X2215009Y-9194991D01*
X2292791Y-9194991D01*
D11*
X2671281Y-9246576D02*
X2556995Y-9246576D01*
X2614138Y-9246576D02*
X2614138Y-9046576D01*
X2595090Y-9075148D01*
X2576043Y-9094195D01*
X2556995Y-9103719D01*
X2756995Y-9227529D02*
X2766519Y-9237052D01*
X2756995Y-9246576D01*
X2747471Y-9237052D01*
X2756995Y-9227529D01*
X2756995Y-9246576D01*
X2956995Y-9246576D02*
X2842709Y-9246576D01*
X2899852Y-9246576D02*
X2899852Y-9046576D01*
X2880805Y-9075148D01*
X2861757Y-9094195D01*
X2842709Y-9103719D01*
X3080805Y-9046576D02*
X3099852Y-9046576D01*
X3118900Y-9056100D01*
X3128424Y-9065624D01*
X3137948Y-9084671D01*
X3147471Y-9122767D01*
X3147471Y-9170386D01*
X3137948Y-9208481D01*
X3128424Y-9227529D01*
X3118900Y-9237052D01*
X3099852Y-9246576D01*
X3080805Y-9246576D01*
X3061757Y-9237052D01*
X3052233Y-9227529D01*
X3042709Y-9208481D01*
X3033186Y-9170386D01*
X3033186Y-9122767D01*
X3042709Y-9084671D01*
X3052233Y-9065624D01*
X3061757Y-9056100D01*
X3080805Y-9046576D01*
X3271281Y-9046576D02*
X3290328Y-9046576D01*
X3309376Y-9056100D01*
X3318900Y-9065624D01*
X3328424Y-9084671D01*
X3337948Y-9122767D01*
X3337948Y-9170386D01*
X3328424Y-9208481D01*
X3318900Y-9227529D01*
X3309376Y-9237052D01*
X3290328Y-9246576D01*
X3271281Y-9246576D01*
X3252233Y-9237052D01*
X3242709Y-9227529D01*
X3233186Y-9208481D01*
X3223662Y-9170386D01*
X3223662Y-9122767D01*
X3233186Y-9084671D01*
X3242709Y-9065624D01*
X3252233Y-9056100D01*
X3271281Y-9046576D01*
X3423662Y-9246576D02*
X3423662Y-9113243D01*
X3423662Y-9132290D02*
X3433186Y-9122767D01*
X3452233Y-9113243D01*
X3480805Y-9113243D01*
X3499852Y-9122767D01*
X3509376Y-9141814D01*
X3509376Y-9246576D01*
X3509376Y-9141814D02*
X3518900Y-9122767D01*
X3537948Y-9113243D01*
X3566519Y-9113243D01*
X3585567Y-9122767D01*
X3595090Y-9141814D01*
X3595090Y-9246576D01*
X3690328Y-9246576D02*
X3690328Y-9113243D01*
X3690328Y-9132290D02*
X3699852Y-9122767D01*
X3718900Y-9113243D01*
X3747471Y-9113243D01*
X3766519Y-9122767D01*
X3776043Y-9141814D01*
X3776043Y-9246576D01*
X3776043Y-9141814D02*
X3785567Y-9122767D01*
X3804614Y-9113243D01*
X3833186Y-9113243D01*
X3852233Y-9122767D01*
X3861757Y-9141814D01*
X3861757Y-9246576D01*
X4252233Y-9037052D02*
X4080805Y-9294195D01*
X4509376Y-9046576D02*
X4528424Y-9046576D01*
X4547471Y-9056100D01*
X4556995Y-9065624D01*
X4566519Y-9084671D01*
X4576043Y-9122767D01*
X4576043Y-9170386D01*
X4566519Y-9208481D01*
X4556995Y-9227529D01*
X4547471Y-9237052D01*
X4528424Y-9246576D01*
X4509376Y-9246576D01*
X4490329Y-9237052D01*
X4480805Y-9227529D01*
X4471281Y-9208481D01*
X4461757Y-9170386D01*
X4461757Y-9122767D01*
X4471281Y-9084671D01*
X4480805Y-9065624D01*
X4490329Y-9056100D01*
X4509376Y-9046576D01*
X4661757Y-9227529D02*
X4671281Y-9237052D01*
X4661757Y-9246576D01*
X4652233Y-9237052D01*
X4661757Y-9227529D01*
X4661757Y-9246576D01*
X4795090Y-9046576D02*
X4814138Y-9046576D01*
X4833186Y-9056100D01*
X4842710Y-9065624D01*
X4852233Y-9084671D01*
X4861757Y-9122767D01*
X4861757Y-9170386D01*
X4852233Y-9208481D01*
X4842710Y-9227529D01*
X4833186Y-9237052D01*
X4814138Y-9246576D01*
X4795090Y-9246576D01*
X4776043Y-9237052D01*
X4766519Y-9227529D01*
X4756995Y-9208481D01*
X4747471Y-9170386D01*
X4747471Y-9122767D01*
X4756995Y-9084671D01*
X4766519Y-9065624D01*
X4776043Y-9056100D01*
X4795090Y-9046576D01*
X5033186Y-9113243D02*
X5033186Y-9246576D01*
X4985567Y-9037052D02*
X4937948Y-9179910D01*
X5061757Y-9179910D01*
X5118900Y-9046576D02*
X5242710Y-9046576D01*
X5176043Y-9122767D01*
X5204614Y-9122767D01*
X5223662Y-9132290D01*
X5233186Y-9141814D01*
X5242710Y-9160862D01*
X5242710Y-9208481D01*
X5233186Y-9227529D01*
X5223662Y-9237052D01*
X5204614Y-9246576D01*
X5147471Y-9246576D01*
X5128424Y-9237052D01*
X5118900Y-9227529D01*
X5309376Y-9046576D02*
X5433186Y-9046576D01*
X5366519Y-9122767D01*
X5395090Y-9122767D01*
X5414138Y-9132290D01*
X5423662Y-9141814D01*
X5433186Y-9160862D01*
X5433186Y-9208481D01*
X5423662Y-9227529D01*
X5414138Y-9237052D01*
X5395090Y-9246576D01*
X5337948Y-9246576D01*
X5318900Y-9237052D01*
X5309376Y-9227529D01*
X5509376Y-9046576D02*
X5509376Y-9084671D01*
X5585567Y-9046576D02*
X5585567Y-9084671D01*
X5880805Y-9322767D02*
X5871281Y-9313243D01*
X5852233Y-9284671D01*
X5842709Y-9265624D01*
X5833186Y-9237052D01*
X5823662Y-9189433D01*
X5823662Y-9151338D01*
X5833186Y-9103719D01*
X5842709Y-9075148D01*
X5852233Y-9056100D01*
X5871281Y-9027529D01*
X5880805Y-9018005D01*
X6061757Y-9246576D02*
X5947471Y-9246576D01*
X6004614Y-9246576D02*
X6004614Y-9046576D01*
X5985567Y-9075148D01*
X5966519Y-9094195D01*
X5947471Y-9103719D01*
X6137948Y-9065624D02*
X6147471Y-9056100D01*
X6166519Y-9046576D01*
X6214138Y-9046576D01*
X6233186Y-9056100D01*
X6242709Y-9065624D01*
X6252233Y-9084671D01*
X6252233Y-9103719D01*
X6242709Y-9132290D01*
X6128424Y-9246576D01*
X6252233Y-9246576D01*
X6490328Y-9246576D02*
X6490328Y-9046576D01*
X6576043Y-9246576D02*
X6576043Y-9141814D01*
X6566519Y-9122767D01*
X6547471Y-9113243D01*
X6518900Y-9113243D01*
X6499852Y-9122767D01*
X6490328Y-9132290D01*
X6699852Y-9246576D02*
X6680805Y-9237052D01*
X6671281Y-9227529D01*
X6661757Y-9208481D01*
X6661757Y-9151338D01*
X6671281Y-9132290D01*
X6680805Y-9122767D01*
X6699852Y-9113243D01*
X6728424Y-9113243D01*
X6747471Y-9122767D01*
X6756995Y-9132290D01*
X6766519Y-9151338D01*
X6766519Y-9208481D01*
X6756995Y-9227529D01*
X6747471Y-9237052D01*
X6728424Y-9246576D01*
X6699852Y-9246576D01*
X6880805Y-9246576D02*
X6861757Y-9237052D01*
X6852233Y-9218005D01*
X6852233Y-9046576D01*
X7033186Y-9237052D02*
X7014138Y-9246576D01*
X6976043Y-9246576D01*
X6956995Y-9237052D01*
X6947471Y-9218005D01*
X6947471Y-9141814D01*
X6956995Y-9122767D01*
X6976043Y-9113243D01*
X7014138Y-9113243D01*
X7033186Y-9122767D01*
X7042709Y-9141814D01*
X7042709Y-9160862D01*
X6947471Y-9179910D01*
X7118900Y-9237052D02*
X7137948Y-9246576D01*
X7176043Y-9246576D01*
X7195090Y-9237052D01*
X7204614Y-9218005D01*
X7204614Y-9208481D01*
X7195090Y-9189433D01*
X7176043Y-9179910D01*
X7147471Y-9179910D01*
X7128424Y-9170386D01*
X7118900Y-9151338D01*
X7118900Y-9141814D01*
X7128424Y-9122767D01*
X7147471Y-9113243D01*
X7176043Y-9113243D01*
X7195090Y-9122767D01*
X7271281Y-9322767D02*
X7280805Y-9313243D01*
X7299852Y-9284671D01*
X7309376Y-9265624D01*
X7318900Y-9237052D01*
X7328424Y-9189433D01*
X7328424Y-9151338D01*
X7318900Y-9103719D01*
X7309376Y-9075148D01*
X7299852Y-9056100D01*
X7280805Y-9027529D01*
X7271281Y-9018005D01*
D16*
X2228900Y-9500100D02*
X2308900Y-9420100D01*
X2228900Y-9340100D01*
X2148900Y-9420100D01*
X2228900Y-9500100D01*
D11*
X2671281Y-9510576D02*
X2556995Y-9510576D01*
X2614138Y-9510576D02*
X2614138Y-9310576D01*
X2595090Y-9339148D01*
X2576043Y-9358195D01*
X2556995Y-9367719D01*
X2756995Y-9491529D02*
X2766519Y-9501052D01*
X2756995Y-9510576D01*
X2747471Y-9501052D01*
X2756995Y-9491529D01*
X2756995Y-9510576D01*
X2937948Y-9310576D02*
X2899852Y-9310576D01*
X2880805Y-9320100D01*
X2871281Y-9329624D01*
X2852233Y-9358195D01*
X2842709Y-9396290D01*
X2842709Y-9472481D01*
X2852233Y-9491529D01*
X2861757Y-9501052D01*
X2880805Y-9510576D01*
X2918900Y-9510576D01*
X2937948Y-9501052D01*
X2947471Y-9491529D01*
X2956995Y-9472481D01*
X2956995Y-9424862D01*
X2947471Y-9405814D01*
X2937948Y-9396290D01*
X2918900Y-9386767D01*
X2880805Y-9386767D01*
X2861757Y-9396290D01*
X2852233Y-9405814D01*
X2842709Y-9424862D01*
X3080805Y-9310576D02*
X3099852Y-9310576D01*
X3118900Y-9320100D01*
X3128424Y-9329624D01*
X3137948Y-9348671D01*
X3147471Y-9386767D01*
X3147471Y-9434386D01*
X3137948Y-9472481D01*
X3128424Y-9491529D01*
X3118900Y-9501052D01*
X3099852Y-9510576D01*
X3080805Y-9510576D01*
X3061757Y-9501052D01*
X3052233Y-9491529D01*
X3042709Y-9472481D01*
X3033186Y-9434386D01*
X3033186Y-9386767D01*
X3042709Y-9348671D01*
X3052233Y-9329624D01*
X3061757Y-9320100D01*
X3080805Y-9310576D01*
X3271281Y-9310576D02*
X3290328Y-9310576D01*
X3309376Y-9320100D01*
X3318900Y-9329624D01*
X3328424Y-9348671D01*
X3337948Y-9386767D01*
X3337948Y-9434386D01*
X3328424Y-9472481D01*
X3318900Y-9491529D01*
X3309376Y-9501052D01*
X3290328Y-9510576D01*
X3271281Y-9510576D01*
X3252233Y-9501052D01*
X3242709Y-9491529D01*
X3233186Y-9472481D01*
X3223662Y-9434386D01*
X3223662Y-9386767D01*
X3233186Y-9348671D01*
X3242709Y-9329624D01*
X3252233Y-9320100D01*
X3271281Y-9310576D01*
X3423662Y-9510576D02*
X3423662Y-9377243D01*
X3423662Y-9396290D02*
X3433186Y-9386767D01*
X3452233Y-9377243D01*
X3480805Y-9377243D01*
X3499852Y-9386767D01*
X3509376Y-9405814D01*
X3509376Y-9510576D01*
X3509376Y-9405814D02*
X3518900Y-9386767D01*
X3537948Y-9377243D01*
X3566519Y-9377243D01*
X3585567Y-9386767D01*
X3595090Y-9405814D01*
X3595090Y-9510576D01*
X3690328Y-9510576D02*
X3690328Y-9377243D01*
X3690328Y-9396290D02*
X3699852Y-9386767D01*
X3718900Y-9377243D01*
X3747471Y-9377243D01*
X3766519Y-9386767D01*
X3776043Y-9405814D01*
X3776043Y-9510576D01*
X3776043Y-9405814D02*
X3785567Y-9386767D01*
X3804614Y-9377243D01*
X3833186Y-9377243D01*
X3852233Y-9386767D01*
X3861757Y-9405814D01*
X3861757Y-9510576D01*
X4252233Y-9301052D02*
X4080805Y-9558195D01*
X4509376Y-9310576D02*
X4528424Y-9310576D01*
X4547471Y-9320100D01*
X4556995Y-9329624D01*
X4566519Y-9348671D01*
X4576043Y-9386767D01*
X4576043Y-9434386D01*
X4566519Y-9472481D01*
X4556995Y-9491529D01*
X4547471Y-9501052D01*
X4528424Y-9510576D01*
X4509376Y-9510576D01*
X4490329Y-9501052D01*
X4480805Y-9491529D01*
X4471281Y-9472481D01*
X4461757Y-9434386D01*
X4461757Y-9386767D01*
X4471281Y-9348671D01*
X4480805Y-9329624D01*
X4490329Y-9320100D01*
X4509376Y-9310576D01*
X4661757Y-9491529D02*
X4671281Y-9501052D01*
X4661757Y-9510576D01*
X4652233Y-9501052D01*
X4661757Y-9491529D01*
X4661757Y-9510576D01*
X4795090Y-9310576D02*
X4814138Y-9310576D01*
X4833186Y-9320100D01*
X4842710Y-9329624D01*
X4852233Y-9348671D01*
X4861757Y-9386767D01*
X4861757Y-9434386D01*
X4852233Y-9472481D01*
X4842710Y-9491529D01*
X4833186Y-9501052D01*
X4814138Y-9510576D01*
X4795090Y-9510576D01*
X4776043Y-9501052D01*
X4766519Y-9491529D01*
X4756995Y-9472481D01*
X4747471Y-9434386D01*
X4747471Y-9386767D01*
X4756995Y-9348671D01*
X4766519Y-9329624D01*
X4776043Y-9320100D01*
X4795090Y-9310576D01*
X5033186Y-9310576D02*
X4995090Y-9310576D01*
X4976043Y-9320100D01*
X4966519Y-9329624D01*
X4947471Y-9358195D01*
X4937948Y-9396290D01*
X4937948Y-9472481D01*
X4947471Y-9491529D01*
X4956995Y-9501052D01*
X4976043Y-9510576D01*
X5014138Y-9510576D01*
X5033186Y-9501052D01*
X5042710Y-9491529D01*
X5052233Y-9472481D01*
X5052233Y-9424862D01*
X5042710Y-9405814D01*
X5033186Y-9396290D01*
X5014138Y-9386767D01*
X4976043Y-9386767D01*
X4956995Y-9396290D01*
X4947471Y-9405814D01*
X4937948Y-9424862D01*
X5118900Y-9310576D02*
X5242710Y-9310576D01*
X5176043Y-9386767D01*
X5204614Y-9386767D01*
X5223662Y-9396290D01*
X5233186Y-9405814D01*
X5242710Y-9424862D01*
X5242710Y-9472481D01*
X5233186Y-9491529D01*
X5223662Y-9501052D01*
X5204614Y-9510576D01*
X5147471Y-9510576D01*
X5128424Y-9501052D01*
X5118900Y-9491529D01*
X5366519Y-9310576D02*
X5385567Y-9310576D01*
X5404614Y-9320100D01*
X5414138Y-9329624D01*
X5423662Y-9348671D01*
X5433186Y-9386767D01*
X5433186Y-9434386D01*
X5423662Y-9472481D01*
X5414138Y-9491529D01*
X5404614Y-9501052D01*
X5385567Y-9510576D01*
X5366519Y-9510576D01*
X5347471Y-9501052D01*
X5337948Y-9491529D01*
X5328424Y-9472481D01*
X5318900Y-9434386D01*
X5318900Y-9386767D01*
X5328424Y-9348671D01*
X5337948Y-9329624D01*
X5347471Y-9320100D01*
X5366519Y-9310576D01*
X5509376Y-9310576D02*
X5509376Y-9348671D01*
X5585567Y-9310576D02*
X5585567Y-9348671D01*
X5880805Y-9586767D02*
X5871281Y-9577243D01*
X5852233Y-9548671D01*
X5842709Y-9529624D01*
X5833186Y-9501052D01*
X5823662Y-9453433D01*
X5823662Y-9415338D01*
X5833186Y-9367719D01*
X5842709Y-9339148D01*
X5852233Y-9320100D01*
X5871281Y-9291529D01*
X5880805Y-9282005D01*
X5947471Y-9329624D02*
X5956995Y-9320100D01*
X5976043Y-9310576D01*
X6023662Y-9310576D01*
X6042709Y-9320100D01*
X6052233Y-9329624D01*
X6061757Y-9348671D01*
X6061757Y-9367719D01*
X6052233Y-9396290D01*
X5937948Y-9510576D01*
X6061757Y-9510576D01*
X6299852Y-9510576D02*
X6299852Y-9310576D01*
X6385567Y-9510576D02*
X6385567Y-9405814D01*
X6376043Y-9386767D01*
X6356995Y-9377243D01*
X6328424Y-9377243D01*
X6309376Y-9386767D01*
X6299852Y-9396290D01*
X6509376Y-9510576D02*
X6490328Y-9501052D01*
X6480805Y-9491529D01*
X6471281Y-9472481D01*
X6471281Y-9415338D01*
X6480805Y-9396290D01*
X6490328Y-9386767D01*
X6509376Y-9377243D01*
X6537948Y-9377243D01*
X6556995Y-9386767D01*
X6566519Y-9396290D01*
X6576043Y-9415338D01*
X6576043Y-9472481D01*
X6566519Y-9491529D01*
X6556995Y-9501052D01*
X6537948Y-9510576D01*
X6509376Y-9510576D01*
X6690328Y-9510576D02*
X6671281Y-9501052D01*
X6661757Y-9482005D01*
X6661757Y-9310576D01*
X6842709Y-9501052D02*
X6823662Y-9510576D01*
X6785567Y-9510576D01*
X6766519Y-9501052D01*
X6756995Y-9482005D01*
X6756995Y-9405814D01*
X6766519Y-9386767D01*
X6785567Y-9377243D01*
X6823662Y-9377243D01*
X6842709Y-9386767D01*
X6852233Y-9405814D01*
X6852233Y-9424862D01*
X6756995Y-9443910D01*
X6928424Y-9501052D02*
X6947471Y-9510576D01*
X6985567Y-9510576D01*
X7004614Y-9501052D01*
X7014138Y-9482005D01*
X7014138Y-9472481D01*
X7004614Y-9453433D01*
X6985567Y-9443910D01*
X6956995Y-9443910D01*
X6937948Y-9434386D01*
X6928424Y-9415338D01*
X6928424Y-9405814D01*
X6937948Y-9386767D01*
X6956995Y-9377243D01*
X6985567Y-9377243D01*
X7004614Y-9386767D01*
X7080805Y-9586767D02*
X7090328Y-9577243D01*
X7109376Y-9548671D01*
X7118900Y-9529624D01*
X7128424Y-9501052D01*
X7137948Y-9453433D01*
X7137948Y-9415338D01*
X7128424Y-9367719D01*
X7118900Y-9339148D01*
X7109376Y-9320100D01*
X7090328Y-9291529D01*
X7080805Y-9282005D01*
X2108900Y-9600100D02*
X2308900Y-9800100D01*
X2308900Y-9600100D02*
X2108900Y-9800100D01*
X2308900Y-9700100D02*
G75*
G03*
X2308900Y-9700100I-100000J0D01*
G01*
X2556995Y-9609624D02*
X2566519Y-9600100D01*
X2585567Y-9590576D01*
X2633186Y-9590576D01*
X2652233Y-9600100D01*
X2661757Y-9609624D01*
X2671281Y-9628671D01*
X2671281Y-9647719D01*
X2661757Y-9676290D01*
X2547471Y-9790576D01*
X2671281Y-9790576D01*
X2756995Y-9771529D02*
X2766519Y-9781052D01*
X2756995Y-9790576D01*
X2747471Y-9781052D01*
X2756995Y-9771529D01*
X2756995Y-9790576D01*
X2833186Y-9590576D02*
X2966519Y-9590576D01*
X2880805Y-9790576D01*
X3080805Y-9590576D02*
X3099852Y-9590576D01*
X3118900Y-9600100D01*
X3128424Y-9609624D01*
X3137948Y-9628671D01*
X3147471Y-9666767D01*
X3147471Y-9714386D01*
X3137948Y-9752481D01*
X3128424Y-9771529D01*
X3118900Y-9781052D01*
X3099852Y-9790576D01*
X3080805Y-9790576D01*
X3061757Y-9781052D01*
X3052233Y-9771529D01*
X3042709Y-9752481D01*
X3033186Y-9714386D01*
X3033186Y-9666767D01*
X3042709Y-9628671D01*
X3052233Y-9609624D01*
X3061757Y-9600100D01*
X3080805Y-9590576D01*
X3271281Y-9590576D02*
X3290328Y-9590576D01*
X3309376Y-9600100D01*
X3318900Y-9609624D01*
X3328424Y-9628671D01*
X3337948Y-9666767D01*
X3337948Y-9714386D01*
X3328424Y-9752481D01*
X3318900Y-9771529D01*
X3309376Y-9781052D01*
X3290328Y-9790576D01*
X3271281Y-9790576D01*
X3252233Y-9781052D01*
X3242709Y-9771529D01*
X3233186Y-9752481D01*
X3223662Y-9714386D01*
X3223662Y-9666767D01*
X3233186Y-9628671D01*
X3242709Y-9609624D01*
X3252233Y-9600100D01*
X3271281Y-9590576D01*
X3423662Y-9790576D02*
X3423662Y-9657243D01*
X3423662Y-9676290D02*
X3433186Y-9666767D01*
X3452233Y-9657243D01*
X3480805Y-9657243D01*
X3499852Y-9666767D01*
X3509376Y-9685814D01*
X3509376Y-9790576D01*
X3509376Y-9685814D02*
X3518900Y-9666767D01*
X3537948Y-9657243D01*
X3566519Y-9657243D01*
X3585567Y-9666767D01*
X3595090Y-9685814D01*
X3595090Y-9790576D01*
X3690328Y-9790576D02*
X3690328Y-9657243D01*
X3690328Y-9676290D02*
X3699852Y-9666767D01*
X3718900Y-9657243D01*
X3747471Y-9657243D01*
X3766519Y-9666767D01*
X3776043Y-9685814D01*
X3776043Y-9790576D01*
X3776043Y-9685814D02*
X3785567Y-9666767D01*
X3804614Y-9657243D01*
X3833186Y-9657243D01*
X3852233Y-9666767D01*
X3861757Y-9685814D01*
X3861757Y-9790576D01*
X4252233Y-9581052D02*
X4080805Y-9838195D01*
X4509376Y-9590576D02*
X4528424Y-9590576D01*
X4547471Y-9600100D01*
X4556995Y-9609624D01*
X4566519Y-9628671D01*
X4576043Y-9666767D01*
X4576043Y-9714386D01*
X4566519Y-9752481D01*
X4556995Y-9771529D01*
X4547471Y-9781052D01*
X4528424Y-9790576D01*
X4509376Y-9790576D01*
X4490329Y-9781052D01*
X4480805Y-9771529D01*
X4471281Y-9752481D01*
X4461757Y-9714386D01*
X4461757Y-9666767D01*
X4471281Y-9628671D01*
X4480805Y-9609624D01*
X4490329Y-9600100D01*
X4509376Y-9590576D01*
X4661757Y-9771529D02*
X4671281Y-9781052D01*
X4661757Y-9790576D01*
X4652233Y-9781052D01*
X4661757Y-9771529D01*
X4661757Y-9790576D01*
X4861757Y-9790576D02*
X4747471Y-9790576D01*
X4804614Y-9790576D02*
X4804614Y-9590576D01*
X4785567Y-9619148D01*
X4766519Y-9638195D01*
X4747471Y-9647719D01*
X4985567Y-9590576D02*
X5004614Y-9590576D01*
X5023662Y-9600100D01*
X5033186Y-9609624D01*
X5042710Y-9628671D01*
X5052233Y-9666767D01*
X5052233Y-9714386D01*
X5042710Y-9752481D01*
X5033186Y-9771529D01*
X5023662Y-9781052D01*
X5004614Y-9790576D01*
X4985567Y-9790576D01*
X4966519Y-9781052D01*
X4956995Y-9771529D01*
X4947471Y-9752481D01*
X4937948Y-9714386D01*
X4937948Y-9666767D01*
X4947471Y-9628671D01*
X4956995Y-9609624D01*
X4966519Y-9600100D01*
X4985567Y-9590576D01*
X5223662Y-9590576D02*
X5185567Y-9590576D01*
X5166519Y-9600100D01*
X5156995Y-9609624D01*
X5137948Y-9638195D01*
X5128424Y-9676290D01*
X5128424Y-9752481D01*
X5137948Y-9771529D01*
X5147471Y-9781052D01*
X5166519Y-9790576D01*
X5204614Y-9790576D01*
X5223662Y-9781052D01*
X5233186Y-9771529D01*
X5242710Y-9752481D01*
X5242710Y-9704862D01*
X5233186Y-9685814D01*
X5223662Y-9676290D01*
X5204614Y-9666767D01*
X5166519Y-9666767D01*
X5147471Y-9676290D01*
X5137948Y-9685814D01*
X5128424Y-9704862D01*
X5309376Y-9590576D02*
X5433186Y-9590576D01*
X5366519Y-9666767D01*
X5395090Y-9666767D01*
X5414138Y-9676290D01*
X5423662Y-9685814D01*
X5433186Y-9704862D01*
X5433186Y-9752481D01*
X5423662Y-9771529D01*
X5414138Y-9781052D01*
X5395090Y-9790576D01*
X5337948Y-9790576D01*
X5318900Y-9781052D01*
X5309376Y-9771529D01*
X5509376Y-9590576D02*
X5509376Y-9628671D01*
X5585567Y-9590576D02*
X5585567Y-9628671D01*
X5880805Y-9866767D02*
X5871281Y-9857243D01*
X5852233Y-9828671D01*
X5842709Y-9809624D01*
X5833186Y-9781052D01*
X5823662Y-9733433D01*
X5823662Y-9695338D01*
X5833186Y-9647719D01*
X5842709Y-9619148D01*
X5852233Y-9600100D01*
X5871281Y-9571529D01*
X5880805Y-9562005D01*
X6042709Y-9657243D02*
X6042709Y-9790576D01*
X5995090Y-9581052D02*
X5947471Y-9723910D01*
X6071281Y-9723910D01*
X6299852Y-9790576D02*
X6299852Y-9590576D01*
X6385567Y-9790576D02*
X6385567Y-9685814D01*
X6376043Y-9666767D01*
X6356995Y-9657243D01*
X6328424Y-9657243D01*
X6309376Y-9666767D01*
X6299852Y-9676290D01*
X6509376Y-9790576D02*
X6490328Y-9781052D01*
X6480805Y-9771529D01*
X6471281Y-9752481D01*
X6471281Y-9695338D01*
X6480805Y-9676290D01*
X6490328Y-9666767D01*
X6509376Y-9657243D01*
X6537948Y-9657243D01*
X6556995Y-9666767D01*
X6566519Y-9676290D01*
X6576043Y-9695338D01*
X6576043Y-9752481D01*
X6566519Y-9771529D01*
X6556995Y-9781052D01*
X6537948Y-9790576D01*
X6509376Y-9790576D01*
X6690328Y-9790576D02*
X6671281Y-9781052D01*
X6661757Y-9762005D01*
X6661757Y-9590576D01*
X6842709Y-9781052D02*
X6823662Y-9790576D01*
X6785567Y-9790576D01*
X6766519Y-9781052D01*
X6756995Y-9762005D01*
X6756995Y-9685814D01*
X6766519Y-9666767D01*
X6785567Y-9657243D01*
X6823662Y-9657243D01*
X6842709Y-9666767D01*
X6852233Y-9685814D01*
X6852233Y-9704862D01*
X6756995Y-9723910D01*
X6928424Y-9781052D02*
X6947471Y-9790576D01*
X6985567Y-9790576D01*
X7004614Y-9781052D01*
X7014138Y-9762005D01*
X7014138Y-9752481D01*
X7004614Y-9733433D01*
X6985567Y-9723910D01*
X6956995Y-9723910D01*
X6937948Y-9714386D01*
X6928424Y-9695338D01*
X6928424Y-9685814D01*
X6937948Y-9666767D01*
X6956995Y-9657243D01*
X6985567Y-9657243D01*
X7004614Y-9666767D01*
X7080805Y-9866767D02*
X7090328Y-9857243D01*
X7109376Y-9828671D01*
X7118900Y-9809624D01*
X7128424Y-9781052D01*
X7137948Y-9733433D01*
X7137948Y-9695338D01*
X7128424Y-9647719D01*
X7118900Y-9619148D01*
X7109376Y-9600100D01*
X7090328Y-9571529D01*
X7080805Y-9562005D01*
X2108900Y-9920100D02*
X2308900Y-10120100D01*
X2308900Y-9920100D02*
X2108900Y-10120100D01*
X2208900Y-9920100D02*
X2208900Y-10120100D01*
X2108900Y-10020100D02*
X2308900Y-10020100D01*
X2661757Y-9910576D02*
X2566519Y-9910576D01*
X2556995Y-10005814D01*
X2566519Y-9996290D01*
X2585567Y-9986767D01*
X2633186Y-9986767D01*
X2652233Y-9996290D01*
X2661757Y-10005814D01*
X2671281Y-10024862D01*
X2671281Y-10072481D01*
X2661757Y-10091529D01*
X2652233Y-10101052D01*
X2633186Y-10110576D01*
X2585567Y-10110576D01*
X2566519Y-10101052D01*
X2556995Y-10091529D01*
X2756995Y-10091529D02*
X2766519Y-10101052D01*
X2756995Y-10110576D01*
X2747471Y-10101052D01*
X2756995Y-10091529D01*
X2756995Y-10110576D01*
X2890328Y-9910576D02*
X2909376Y-9910576D01*
X2928424Y-9920100D01*
X2937948Y-9929624D01*
X2947471Y-9948671D01*
X2956995Y-9986767D01*
X2956995Y-10034386D01*
X2947471Y-10072481D01*
X2937948Y-10091529D01*
X2928424Y-10101052D01*
X2909376Y-10110576D01*
X2890328Y-10110576D01*
X2871281Y-10101052D01*
X2861757Y-10091529D01*
X2852233Y-10072481D01*
X2842709Y-10034386D01*
X2842709Y-9986767D01*
X2852233Y-9948671D01*
X2861757Y-9929624D01*
X2871281Y-9920100D01*
X2890328Y-9910576D01*
X3080805Y-9910576D02*
X3099852Y-9910576D01*
X3118900Y-9920100D01*
X3128424Y-9929624D01*
X3137948Y-9948671D01*
X3147471Y-9986767D01*
X3147471Y-10034386D01*
X3137948Y-10072481D01*
X3128424Y-10091529D01*
X3118900Y-10101052D01*
X3099852Y-10110576D01*
X3080805Y-10110576D01*
X3061757Y-10101052D01*
X3052233Y-10091529D01*
X3042709Y-10072481D01*
X3033186Y-10034386D01*
X3033186Y-9986767D01*
X3042709Y-9948671D01*
X3052233Y-9929624D01*
X3061757Y-9920100D01*
X3080805Y-9910576D01*
X3271281Y-9910576D02*
X3290328Y-9910576D01*
X3309376Y-9920100D01*
X3318900Y-9929624D01*
X3328424Y-9948671D01*
X3337948Y-9986767D01*
X3337948Y-10034386D01*
X3328424Y-10072481D01*
X3318900Y-10091529D01*
X3309376Y-10101052D01*
X3290328Y-10110576D01*
X3271281Y-10110576D01*
X3252233Y-10101052D01*
X3242709Y-10091529D01*
X3233186Y-10072481D01*
X3223662Y-10034386D01*
X3223662Y-9986767D01*
X3233186Y-9948671D01*
X3242709Y-9929624D01*
X3252233Y-9920100D01*
X3271281Y-9910576D01*
X3423662Y-10110576D02*
X3423662Y-9977243D01*
X3423662Y-9996290D02*
X3433186Y-9986767D01*
X3452233Y-9977243D01*
X3480805Y-9977243D01*
X3499852Y-9986767D01*
X3509376Y-10005814D01*
X3509376Y-10110576D01*
X3509376Y-10005814D02*
X3518900Y-9986767D01*
X3537948Y-9977243D01*
X3566519Y-9977243D01*
X3585567Y-9986767D01*
X3595090Y-10005814D01*
X3595090Y-10110576D01*
X3690328Y-10110576D02*
X3690328Y-9977243D01*
X3690328Y-9996290D02*
X3699852Y-9986767D01*
X3718900Y-9977243D01*
X3747471Y-9977243D01*
X3766519Y-9986767D01*
X3776043Y-10005814D01*
X3776043Y-10110576D01*
X3776043Y-10005814D02*
X3785567Y-9986767D01*
X3804614Y-9977243D01*
X3833186Y-9977243D01*
X3852233Y-9986767D01*
X3861757Y-10005814D01*
X3861757Y-10110576D01*
X4252233Y-9901052D02*
X4080805Y-10158195D01*
X4509376Y-9910576D02*
X4528424Y-9910576D01*
X4547471Y-9920100D01*
X4556995Y-9929624D01*
X4566519Y-9948671D01*
X4576043Y-9986767D01*
X4576043Y-10034386D01*
X4566519Y-10072481D01*
X4556995Y-10091529D01*
X4547471Y-10101052D01*
X4528424Y-10110576D01*
X4509376Y-10110576D01*
X4490329Y-10101052D01*
X4480805Y-10091529D01*
X4471281Y-10072481D01*
X4461757Y-10034386D01*
X4461757Y-9986767D01*
X4471281Y-9948671D01*
X4480805Y-9929624D01*
X4490329Y-9920100D01*
X4509376Y-9910576D01*
X4661757Y-10091529D02*
X4671281Y-10101052D01*
X4661757Y-10110576D01*
X4652233Y-10101052D01*
X4661757Y-10091529D01*
X4661757Y-10110576D01*
X4861757Y-10110576D02*
X4747471Y-10110576D01*
X4804614Y-10110576D02*
X4804614Y-9910576D01*
X4785567Y-9939148D01*
X4766519Y-9958195D01*
X4747471Y-9967719D01*
X4956995Y-10110576D02*
X4995090Y-10110576D01*
X5014138Y-10101052D01*
X5023662Y-10091529D01*
X5042710Y-10062957D01*
X5052233Y-10024862D01*
X5052233Y-9948671D01*
X5042710Y-9929624D01*
X5033186Y-9920100D01*
X5014138Y-9910576D01*
X4976043Y-9910576D01*
X4956995Y-9920100D01*
X4947471Y-9929624D01*
X4937948Y-9948671D01*
X4937948Y-9996290D01*
X4947471Y-10015338D01*
X4956995Y-10024862D01*
X4976043Y-10034386D01*
X5014138Y-10034386D01*
X5033186Y-10024862D01*
X5042710Y-10015338D01*
X5052233Y-9996290D01*
X5223662Y-9910576D02*
X5185567Y-9910576D01*
X5166519Y-9920100D01*
X5156995Y-9929624D01*
X5137948Y-9958195D01*
X5128424Y-9996290D01*
X5128424Y-10072481D01*
X5137948Y-10091529D01*
X5147471Y-10101052D01*
X5166519Y-10110576D01*
X5204614Y-10110576D01*
X5223662Y-10101052D01*
X5233186Y-10091529D01*
X5242710Y-10072481D01*
X5242710Y-10024862D01*
X5233186Y-10005814D01*
X5223662Y-9996290D01*
X5204614Y-9986767D01*
X5166519Y-9986767D01*
X5147471Y-9996290D01*
X5137948Y-10005814D01*
X5128424Y-10024862D01*
X5337948Y-10110576D02*
X5376043Y-10110576D01*
X5395090Y-10101052D01*
X5404614Y-10091529D01*
X5423662Y-10062957D01*
X5433186Y-10024862D01*
X5433186Y-9948671D01*
X5423662Y-9929624D01*
X5414138Y-9920100D01*
X5395090Y-9910576D01*
X5356995Y-9910576D01*
X5337948Y-9920100D01*
X5328424Y-9929624D01*
X5318900Y-9948671D01*
X5318900Y-9996290D01*
X5328424Y-10015338D01*
X5337948Y-10024862D01*
X5356995Y-10034386D01*
X5395090Y-10034386D01*
X5414138Y-10024862D01*
X5423662Y-10015338D01*
X5433186Y-9996290D01*
X5509376Y-9910576D02*
X5509376Y-9948671D01*
X5585567Y-9910576D02*
X5585567Y-9948671D01*
X5880805Y-10186767D02*
X5871281Y-10177243D01*
X5852233Y-10148671D01*
X5842709Y-10129624D01*
X5833186Y-10101052D01*
X5823662Y-10053433D01*
X5823662Y-10015338D01*
X5833186Y-9967719D01*
X5842709Y-9939148D01*
X5852233Y-9920100D01*
X5871281Y-9891529D01*
X5880805Y-9882005D01*
X6061757Y-10110576D02*
X5947471Y-10110576D01*
X6004614Y-10110576D02*
X6004614Y-9910576D01*
X5985567Y-9939148D01*
X5966519Y-9958195D01*
X5947471Y-9967719D01*
X6299852Y-10110576D02*
X6299852Y-9910576D01*
X6385567Y-10110576D02*
X6385567Y-10005814D01*
X6376043Y-9986767D01*
X6356995Y-9977243D01*
X6328424Y-9977243D01*
X6309376Y-9986767D01*
X6299852Y-9996290D01*
X6509376Y-10110576D02*
X6490328Y-10101052D01*
X6480805Y-10091529D01*
X6471281Y-10072481D01*
X6471281Y-10015338D01*
X6480805Y-9996290D01*
X6490328Y-9986767D01*
X6509376Y-9977243D01*
X6537948Y-9977243D01*
X6556995Y-9986767D01*
X6566519Y-9996290D01*
X6576043Y-10015338D01*
X6576043Y-10072481D01*
X6566519Y-10091529D01*
X6556995Y-10101052D01*
X6537948Y-10110576D01*
X6509376Y-10110576D01*
X6690328Y-10110576D02*
X6671281Y-10101052D01*
X6661757Y-10082005D01*
X6661757Y-9910576D01*
X6842709Y-10101052D02*
X6823662Y-10110576D01*
X6785567Y-10110576D01*
X6766519Y-10101052D01*
X6756995Y-10082005D01*
X6756995Y-10005814D01*
X6766519Y-9986767D01*
X6785567Y-9977243D01*
X6823662Y-9977243D01*
X6842709Y-9986767D01*
X6852233Y-10005814D01*
X6852233Y-10024862D01*
X6756995Y-10043910D01*
X6918900Y-10186767D02*
X6928424Y-10177243D01*
X6947471Y-10148671D01*
X6956995Y-10129624D01*
X6966519Y-10101052D01*
X6976043Y-10053433D01*
X6976043Y-10015338D01*
X6966519Y-9967719D01*
X6956995Y-9939148D01*
X6947471Y-9920100D01*
X6928424Y-9891529D01*
X6918900Y-9882005D01*
M02*
